<?xml version="1.0" encoding="UTF-8" standalone="no"?>
<!-- Created with Inkscape (http://www.inkscape.org/) -->

<svg
   xmlns:dc="http://purl.org/dc/elements/1.1/"
   xmlns:cc="http://creativecommons.org/ns#"
   xmlns:rdf="http://www.w3.org/1999/02/22-rdf-syntax-ns#"
   xmlns:svg="http://www.w3.org/2000/svg"
   xmlns="http://www.w3.org/2000/svg"
   xmlns:sodipodi="http://sodipodi.sourceforge.net/DTD/sodipodi-0.dtd"
   xmlns:inkscape="http://www.inkscape.org/namespaces/inkscape"
   width="124.85002mm"
   height="98.474297mm"
   viewBox="0 0 124.85002 98.474302"
   version="1.1"
   id="svg8"
   sodipodi:docname="blaze.svg"
   inkscape:version="0.92.5 (2060ec1f9f, 2020-04-08)">
  <defs
     id="defs2" />
  <sodipodi:namedview
     id="base"
     pagecolor="#ffffff"
     bordercolor="#666666"
     borderopacity="1.0"
     inkscape:pageopacity="0.0"
     inkscape:pageshadow="2"
     inkscape:zoom="0.35"
     inkscape:cx="829.05175"
     inkscape:cy="178.44837"
     inkscape:document-units="mm"
     inkscape:current-layer="layer1"
     showgrid="false"
     inkscape:window-width="1848"
     inkscape:window-height="1016"
     inkscape:window-x="72"
     inkscape:window-y="27"
     inkscape:window-maximized="1"
     fit-margin-top="0"
     fit-margin-left="0"
     fit-margin-right="0"
     fit-margin-bottom="0" />
  <metadata
     id="metadata5">
    <rdf:RDF>
      <cc:Work
         rdf:about="">
        <dc:format>image/svg+xml</dc:format>
        <dc:type
           rdf:resource="http://purl.org/dc/dcmitype/StillImage" />
        <dc:title></dc:title>
      </cc:Work>
    </rdf:RDF>
  </metadata>
  <g
     inkscape:label="Layer 1"
     inkscape:groupmode="layer"
     id="layer1"
     transform="translate(113.51994,-150.50485)">
    <g
       id="g983"
       transform="translate(79.182085,26.625803)">
      <path
         style="fill:#02fd81;stroke-width:0.26458332"
         d="m -138.77484,221.63188 -0.62073,-0.50264 1.05443,-1.54009 c 2.37091,-3.46288 6.01051,-7.77339 6.56352,-7.77339 0.13174,0 0.18818,0.34985 0.12542,0.77743 l -0.1141,0.77744 0.69417,-0.49429 0.69417,-0.4943 0.7486,0.93819 c 0.96389,1.20801 2.69268,1.99221 3.88861,1.76393 2.32468,-0.44374 5.2017,-2.88642 8.82946,-7.49647 3.48362,-4.42688 8.87256,-9.26568 10.31914,-9.26568 0.54558,0 1.45233,0.47951 1.45233,0.76803 0,0.12113 -0.51986,0.99549 -1.15525,1.94301 -0.63538,0.94752 -1.4752,2.6004 -1.86626,3.67306 -0.39106,1.07265 -1.06183,2.62023 -1.49059,3.43906 -0.79675,1.52158 -1.00344,2.61226 -0.49504,2.61226 0.15648,0 0.25396,0.32742 0.2166,0.72761 -0.21281,2.27999 1.54948,3.13758 2.73366,1.33028 0.37719,-0.57565 4.80293,-3.50074 6.33949,-4.18992 1.082253,-0.48542 1.460043,-0.1705 1.823073,1.51967 0.181737,0.84612 0.427791,1.73459 0.54679,1.97438 0.242607,0.48886 -0.706035,1.26549 -1.713323,1.40266 -0.31544,0.0429 -1.04497,0.28393 -1.62117,0.53551 -0.7693,0.33589 -1.54075,0.42956 -2.90354,0.35256 -1.709,-0.0966 -1.9002,-0.0534 -2.41565,0.54589 -0.52794,0.61377 -0.63777,0.63534 -1.93216,0.3794 -0.75482,-0.14924 -1.42695,-0.18309 -1.49362,-0.0752 -0.23706,0.38358 -2.76233,1.05362 -4.01543,1.06544 -1.26671,0.012 -1.27658,0.0189 -1.93466,1.37172 -0.82965,1.70546 -1.60788,2.05953 -2.52059,1.14682 -0.56062,-0.56062 -0.73304,-0.60282 -1.41351,-0.34597 -0.6431,0.24274 -0.90337,0.20733 -1.5293,-0.20807 -0.88958,-0.59037 -1.1014,-0.6434 -2.97296,-0.74428 l -1.4249,-0.0768 -0.69177,1.1863 c -1.10802,1.90012 -1.37452,2.08441 -3.03572,2.09934 -0.81849,0.007 -1.54364,-0.0764 -1.61146,-0.18615 -0.0678,-0.10974 -0.68373,-0.22072 -1.36869,-0.24663 -0.68496,-0.0259 -1.40128,-0.17648 -1.59182,-0.33462 -0.26598,-0.22075 -0.47125,-0.076 -0.88392,0.62345 -0.5129,0.8693 -1.47386,1.52372 -2.23746,1.52372 -0.19531,0 -0.63444,-0.22618 -0.97584,-0.50263 z m -45.98203,-2.73851 c -0.28933,-0.76557 -0.20258,-0.88958 1.08005,-1.54393 0.58668,-0.2993 1.60696,-1.04174 2.26729,-1.64987 l 1.2006,-1.10568 -1.05254,1.62958 c -0.5789,0.89626 -1.20499,1.99759 -1.3913,2.44739 -0.26889,0.64916 -0.49759,0.81782 -1.10893,0.81782 -0.55565,0 -0.83284,-0.16582 -0.99517,-0.59531 z m 4.91635,-1.69775 c -0.35814,-0.35813 -0.17849,-1.88285 0.2408,-2.04375 0.2844,-0.10913 0.39487,-0.43396 0.34707,-1.02049 -0.0386,-0.47323 0.0859,-1.14766 0.2766,-1.49874 0.1907,-0.35109 0.54792,-1.36312 0.79383,-2.24896 0.2459,-0.88585 0.57713,-1.58466 0.73607,-1.55293 0.15893,0.0317 0.47711,-0.41251 0.70705,-0.98721 0.38824,-0.97029 0.46685,-1.02637 1.10091,-0.7853 2.8407,1.08003 5.64911,-1.01016 9.11503,-6.78396 0.94589,-1.57573 1.89839,-3.06498 2.11667,-3.30945 0.21828,-0.24447 0.59992,-0.73907 0.84809,-1.09913 0.40782,-0.59167 0.63642,-0.65638 2.37662,-0.67275 1.1292,-0.0106 1.96483,-0.13642 2.02076,-0.30421 0.0524,-0.15734 0.7689,-0.71074 1.59213,-1.22977 0.82323,-0.51903 2.80646,-2.27658 4.40719,-3.90568 2.54462,-2.58971 4.75117,-4.39573 5.00355,-4.09531 0.17825,0.21218 0.63679,5.86721 0.50384,6.21367 -0.0785,0.20443 -0.0261,0.519 0.11635,0.69905 0.14244,0.18004 0.34015,0.9822 0.43936,1.78256 0.29146,2.35136 0.6464,3.39207 1.21884,3.57375 0.2878,0.0913 0.52327,0.25165 0.52327,0.35624 0,0.10458 0.38695,0.17579 0.8599,0.15825 0.84103,-0.0312 2.98762,-1.23601 4.9964,-2.80428 0.83226,-0.64975 1.00519,-0.69801 1.28653,-0.35902 0.28413,0.34236 0.41797,0.32545 1.06371,-0.13436 0.89086,-0.63434 1.40784,-0.6634 1.96102,-0.11022 0.73147,0.73147 0.48988,1.58501 -0.81912,2.89401 -1.41038,1.41038 -2.20833,1.79678 -3.05996,1.48174 -0.53016,-0.19612 -0.6866,-0.0565 -1.41707,1.26432 -0.90473,1.63599 -1.87216,2.22966 -2.74506,1.68453 -0.56176,-0.35083 -0.72528,-0.21507 -1.44322,1.19821 -0.28818,0.56731 -0.69243,0.91901 -1.16495,1.01351 -0.42719,0.0854 -0.90521,0.46114 -1.16692,0.91715 -0.52494,0.91465 -1.80607,1.07463 -2.37115,0.29609 -0.5239,-0.72179 -1.73778,-1.07104 -3.76311,-1.08269 -1.00643,-0.006 -1.95297,-0.13362 -2.10344,-0.28408 -0.15046,-0.15046 -0.70218,-0.27356 -1.22606,-0.27356 -0.52387,0 -1.07819,-0.12569 -1.2318,-0.2793 -0.19602,-0.19602 -0.38192,-0.0316 -0.6234,0.55142 -0.32943,0.7953 -1.3848,1.46996 -1.84984,1.18254 -0.12159,-0.0751 -0.35581,0.27167 -0.5205,0.7707 -0.37747,1.14374 -0.91121,1.59004 -1.91569,1.60182 -0.69823,0.008 -0.84702,0.15786 -1.27361,1.2812 -0.26567,0.69957 -0.62558,1.44371 -0.79982,1.65365 -0.38961,0.46945 -1.34763,0.4963 -1.81966,0.051 -0.28118,-0.26526 -0.37676,-0.25871 -0.48287,0.0331 -0.25423,0.69914 -1.16267,1.38889 -1.73653,1.3185 -0.62253,-0.0764 -1.87598,0.97524 -2.65724,2.22932 -0.26156,0.41986 -0.78208,0.80126 -1.21048,0.88694 -0.43337,0.0867 -0.86956,0.40921 -1.0302,0.76178 -0.38077,0.8357 -1.24474,1.06435 -2.04367,0.54087 -0.60368,-0.39554 -0.72526,-0.3879 -1.75654,0.11035 -1.11669,0.53953 -2.09409,0.68451 -2.41968,0.35892 z m 52.60799,-5.90902 c -0.46676,-0.51576 -0.46213,-0.52917 0.18257,-0.52917 0.3638,0 0.87696,0.23813 1.14035,0.52917 0.46675,0.51576 0.46213,0.52916 -0.18257,0.52916 -0.3638,0 -0.87696,-0.23812 -1.14035,-0.52916 z m 2.44005,-0.28414 c 0.32337,-0.33688 0.65451,-0.54595 0.73586,-0.46461 0.0813,0.0814 -0.18324,0.35698 -0.58796,0.61251 l -0.73587,0.46461 z m -65.18958,-27.64679 c -0.22689,-0.59126 1.05794,-3.79019 2.71618,-6.76266 1.58294,-2.83748 3.51854,-5.62257 5.83668,-8.39826 l 1.54459,-1.84944 0.19515,0.91121 c 0.63194,2.95059 2.40916,4.19958 4.46383,3.13708 1.05286,-0.54446 3.27006,-3.97628 5.32593,-8.24358 0.89647,-1.86077 1.77532,-3.50228 1.95301,-3.6478 0.17768,-0.14552 0.56922,-1.09802 0.87008,-2.11666 0.46111,-1.56121 3.53461,-8.33559 3.781,-8.3338 0.0439,2.7e-4 0.0887,1.22736 0.0996,2.72675 0.0155,2.12822 0.13152,2.9524 0.52916,3.75761 0.97254,1.96938 2.68699,1.66773 4.45994,-0.78472 0.57209,-0.79134 1.13166,-1.38226 1.2435,-1.31315 0.11183,0.0691 0.3356,-0.12149 0.49727,-0.42357 0.16167,-0.30208 0.57866,-0.65749 0.92665,-0.7898 0.34798,-0.1323 0.83361,-0.63262 1.07916,-1.11181 0.53642,-1.0468 0.82295,-1.25877 1.70878,-1.26409 0.37108,-0.002 0.80743,-0.13679 0.96967,-0.29903 0.21692,-0.21693 0.40475,-0.0827 0.70977,0.50713 0.78202,1.51226 3.18736,1.63849 4.35658,0.22862 0.54315,-0.65493 0.82832,-0.28457 0.84405,1.0962 0.0129,1.13372 0.16928,0.81746 1.80637,-3.65363 0.98572,-2.69214 2.30258,-5.96636 2.92634,-7.27605 0.62377,-1.30968 1.30431,-2.77663 1.51232,-3.25989 0.32943,-0.76537 0.48584,-0.8677 1.21328,-0.79375 0.81539,0.0829 0.85272,0.0381 1.58206,-1.89948 1.10552,-2.93688 2.50751,-3.84815 3.50744,-2.27979 0.30605,0.48002 0.26831,1.01345 -0.26424,3.735 -0.34171,1.74625 -0.80129,4.36562 -1.0213,5.82083 -0.22002,1.45521 -0.70091,3.65787 -1.06865,4.89479 -0.52105,1.7526 -0.59673,2.30736 -0.34291,2.51354 0.17914,0.14553 0.28366,0.55595 0.23227,0.91206 -0.12765,0.8847 0.21979,3.98007 0.44041,3.92354 0.0979,-0.0251 0.45182,0.0473 0.78637,0.16101 0.69703,0.23681 1.90527,-0.40933 1.90527,-1.0189 0,-0.52676 2.86268,-3.84541 3.31707,-3.84541 0.20543,0 0.54406,-0.32743 0.75252,-0.72761 0.20845,-0.40018 0.80188,-1.10001 1.31871,-1.55519 0.87937,-0.77444 0.98542,-0.80387 1.65153,-0.45829 0.3915,0.20312 0.73849,0.3374 0.7711,0.29842 0.0326,-0.039 0.25424,-0.4543 0.49254,-0.92293 0.37416,-0.73583 1.40776,-1.61257 1.59412,-1.35219 0.0345,0.0482 0.26559,0.62336 0.51357,1.2782 0.45619,1.20465 1.53245,2.64584 1.97589,2.64584 0.73778,0 1.57232,1.10506 1.70175,2.2534 0.0751,0.66677 0.20462,1.28029 0.28771,1.36338 0.0831,0.0831 0.55759,-0.27999 1.05445,-0.80682 1.68213,-1.78357 1.88904,-1.41247 2.24491,4.02623 0.1865,2.85013 0.44162,4.8708 0.67371,5.33604 0.44648,0.89499 0.15291,1.32152 -0.90956,1.32152 -0.96192,0 -1.53325,-0.9414 -1.73338,-2.85613 -0.15548,-1.48751 -0.18539,-1.53706 -0.86752,-1.43694 -0.46853,0.0688 -0.81968,0.35941 -1.04254,0.86291 -0.5569,1.2581 -2.22055,1.36147 -2.66766,0.16574 -0.19802,-0.52957 -0.24407,-0.50027 -0.62017,0.39465 -0.44854,1.06727 -1.21511,1.46027 -2.01417,1.03262 -0.68431,-0.36623 -0.89847,-1.10832 -0.71382,-2.47349 0.14007,-1.03564 0.10926,-1.00023 -0.44165,0.50742 -0.73211,2.00354 -1.12172,2.4803 -2.02692,2.4803 -1.02261,0 -1.34081,-0.46 -1.36351,-1.97115 l -0.0201,-1.33614 -0.8994,2.6161 c -1.12587,3.27487 -1.50108,3.86619 -2.45321,3.86619 -0.40411,0 -0.86579,-0.13105 -1.02595,-0.29122 -0.21191,-0.2119 -0.33913,-0.14026 -0.46713,0.26302 -0.58739,1.85071 -2.77531,1.70261 -2.79413,-0.18914 -0.006,-0.60308 -0.12737,-0.48699 -0.81441,0.779 -0.95686,1.76317 -1.76852,2.31511 -2.74815,1.86876 -0.36505,-0.16633 -0.66372,-0.46293 -0.66372,-0.65913 0,-0.2461 -0.2469,-0.32049 -0.79617,-0.23987 -1.30551,0.1916 -1.67476,-0.33629 -1.48762,-2.12674 0.15221,-1.45624 0.13404,-1.52226 -0.34791,-1.26433 -0.27968,0.14968 -0.6354,0.27215 -0.79049,0.27215 -0.53845,0 -1.34035,-1.06238 -1.34806,-1.78594 -0.005,-0.51483 -0.30289,-0.0312 -1.01701,1.65365 -2.12564,5.01521 -2.80648,5.90904 -4.13461,5.42808 -0.29105,-0.1054 -0.66782,-0.46436 -0.83727,-0.79769 -0.28455,-0.55973 -0.34979,-0.46609 -0.85339,1.22491 -0.68052,2.28504 -1.05656,2.8098 -2.01351,2.8098 -1.34108,0 -1.71204,-1.21344 -1.04445,-3.41645 0.081,-0.26738 -0.20416,0.24726 -0.63375,1.14366 -1.02904,2.14724 -1.94775,2.68174 -2.92674,1.70275 -0.49547,-0.49548 -0.52034,-0.46783 -1.48753,1.65364 -1.40404,3.07966 -1.83048,3.61276 -2.88998,3.61276 -0.67894,0 -1.02358,-0.19392 -1.52832,-0.8599 -0.84608,-1.11638 -0.96064,-1.49962 -0.71177,-2.38125 0.17761,-0.6292 0.12968,-0.7276 -0.3544,-0.7276 -0.30788,0 -0.81219,-0.23713 -1.12069,-0.52694 l -0.5609,-0.52694 -0.48023,1.33548 c -0.26413,0.73452 -0.76354,1.52112 -1.1098,1.748 -0.57394,0.37606 -0.69004,0.37288 -1.31398,-0.0359 -0.37643,-0.24664 -0.7233,-0.40917 -0.77082,-0.36116 -0.0475,0.048 -0.50125,0.99813 -1.00828,2.11138 -0.93716,2.05766 -1.49512,2.54835 -2.52573,2.22125 -0.27024,-0.0858 -0.60222,-0.40445 -0.73775,-0.70818 -0.23083,-0.51731 -0.29454,-0.48279 -1.00727,0.54568 -1.71134,2.46947 -3.49797,3.30276 -4.58338,2.13772 -0.4868,-0.52252 -0.49688,-0.51948 -1.39936,0.42251 -1.57077,1.63951 -2.9376,1.74705 -3.5546,0.27965 l -0.33874,-0.80563 -0.79739,1.57962 c -0.538,1.06578 -0.75254,1.8142 -0.65952,2.30078 0.0758,0.39665 -0.01,0.89908 -0.19026,1.11653 -0.43678,0.52628 -1.82214,0.51336 -2.02639,-0.0189 z m 80.47626,-3.81965 c -0.0943,-0.15252 -0.60604,-0.19445 -1.20481,-0.0987 -0.63461,0.10148 -1.18331,0.0483 -1.4057,-0.13628 -0.20063,-0.16651 -0.55873,-0.22831 -0.79578,-0.13735 -0.73138,0.28066 -1.7345,-0.12378 -1.89521,-0.76411 -0.274,-1.0917 2.87049,-6.58799 4.84366,-8.4663 l 0.77714,-0.73978 0.16629,1.59098 c 0.0915,0.87503 0.0963,1.77348 0.0107,1.99654 -0.0948,0.24703 -0.009,0.40558 0.22005,0.40558 0.20663,0 0.72538,0.36525 1.15279,0.81167 0.53316,0.55688 0.96095,0.77662 1.36275,0.7 0.3221,-0.0614 1.26347,-0.005 2.09192,0.12453 1.63044,0.25568 3.88025,-0.0728 5.224047,-0.7628 1.156237,-0.59366 3.065709,-2.45672 3.60861,-3.5209 0.266978,-0.52331 0.789472,-2.18342 1.1611,-3.68912 1.132875,-4.59 2.741417,-7.08967 6.246387,-9.70685 1.236927,-0.92362 2.38316,-1.68028 2.547186,-1.68146 0.196517,-0.001 0.253063,0.39854 0.165804,1.17273 -0.262356,2.32761 0.25487,3.09527 2.528755,3.75314 0.82782,0.2395 1.643203,0.48744 1.811957,0.55098 0.168754,0.0635 0.379118,-0.11226 0.467476,-0.39065 0.1104,-0.34784 0.666324,-0.64675 1.777328,-0.95563 0.889175,-0.24722 1.654792,-0.41137 1.701369,-0.36479 0.04658,0.0466 0.142272,0.67636 0.212651,1.39952 0.07038,0.72316 0.203475,1.55925 0.295767,1.85798 0.102105,0.33049 -0.198049,1.52179 -0.766622,3.04271 -1.360544,3.6394 -1.63807,5.03385 -1.255784,6.30981 0.633552,2.11461 2.948683,3.21832 5.692137,2.71367 0.853591,-0.15702 1.835857,-0.47149 2.182813,-0.69882 0.724807,-0.47491 0.834615,-1.48247 0.227708,-2.08938 -0.361106,-0.3611 -0.349131,-0.43202 0.114898,-0.68036 0.692248,-0.37048 1.696008,-0.35111 2.087391,0.0403 0.570851,0.57085 0.336364,1.20979 -0.80698,2.19891 -0.618463,0.53504 -1.005416,0.91608 -0.859896,0.84676 0.145521,-0.0693 0.540094,-0.022 0.87683,0.10521 0.496019,0.18736 0.596474,0.39493 0.529166,1.09342 -0.07332,0.76084 -0.268771,0.9549 -1.663242,1.65133 -1.24569,0.62213 -1.973744,0.80016 -3.439583,0.84106 -1.022681,0.0285 -2.47359,0.13519 -3.224239,0.237 -1.748153,0.2371 -5.399146,-0.29298 -6.910245,-1.00328 -0.641205,-0.3014 -1.422876,-0.94103 -1.737048,-1.42139 -0.436988,-0.66814 -0.705728,-0.83977 -1.143606,-0.73036 -0.367543,0.0918 -0.76363,-0.0482 -1.106776,-0.39136 -0.466561,-0.46656 -0.575757,-0.48455 -0.860287,-0.14171 -0.193112,0.23268 -0.658495,0.36022 -1.142185,0.31302 -0.737,-0.0719 -0.901531,0.0617 -1.693945,1.37556 -1.770949,2.93633 -3.219918,3.70469 -4.191114,2.22246 -0.387543,-0.59147 -0.406805,-0.85231 -0.137345,-1.8598 0.266126,-0.995 0.248782,-1.27049 -0.11493,-1.82558 -0.235601,-0.35957 -0.458377,-0.65375 -0.495062,-0.65375 -0.03669,0 -0.385781,0.48216 -0.775763,1.07146 -1.101672,1.66474 -2.579032,1.92449 -3.105528,0.54602 l -0.26409,-0.69144 -0.80635,0.92604 c -2.68498,3.08354 -3.15879,3.3587 -4.34859,2.52533 -0.50817,-0.35594 -0.61106,-0.31589 -1.35921,0.52917 -0.5869,0.66291 -1.02955,0.91425 -1.61013,0.91425 -0.44039,0 -0.87446,-0.11932 -0.96459,-0.26516 z m 29.232241,-4.69578 c -0.0049,-0.21348 -0.978334,-1.1704 -1.511314,-1.4857 -0.424632,-0.2512 -1.460299,0.30534 -1.237887,0.66521 0.37638,0.609 2.760721,1.3206 2.749201,0.82049 z m -20.897271,-3.35182 c 0.21815,-0.21652 0.87288,-0.58297 1.454967,-0.81433 l 1.058334,-0.42064 -0.661459,0.53259 c -0.363802,0.29292 -1.018542,0.65936 -1.454972,0.81432 -0.70307,0.24964 -0.74831,0.23688 -0.39687,-0.11194 z"
         id="path989"
         inkscape:connector-curvature="0" />
      <path
         style="fill:#05dc71;stroke-width:0.26458332"
         d="m -137.94816,218.69493 c 0.31086,-0.43656 0.62474,-0.79375 0.6975,-0.79375 0.0728,0 -0.12205,0.35719 -0.43291,0.79375 -0.31086,0.43656 -0.62473,0.79375 -0.69749,0.79375 -0.0728,0 0.12205,-0.35719 0.4329,-0.79375 z m -47.07378,-0.89352 c 0.27061,-0.2449 2.3592,-1.22015 2.3592,-1.10161 0,0.1504 -1.99677,1.20138 -2.28251,1.20138 -0.10282,0 -0.13732,-0.0449 -0.0767,-0.0998 z m 47.86753,-0.26471 c 0,-0.0549 0.20836,-0.2633 0.46303,-0.46302 0.41964,-0.32911 0.429,-0.31975 0.0999,0.0999 -0.34564,0.44073 -0.56292,0.58088 -0.56292,0.36312 z m -44.19647,-2.08292 c 1.09642,-1.16818 1.33397,-1.37823 1.33397,-1.17956 0,0.0425 -0.56554,0.60801 -1.25677,1.25677 l -1.25677,1.17957 z m 45.78107,0.0698 c 0.45942,-0.58006 0.97349,-1.14006 1.14238,-1.24444 0.16889,-0.10438 -0.15181,0.37022 -0.71266,1.05466 -0.56085,0.68445 -1.07492,1.24444 -1.14238,1.24444 -0.0675,0 0.25324,-0.47459 0.71266,-1.05466 z m 8.33728,-0.51725 c -0.3691,-0.14695 -0.12392,-0.21195 0.8106,-0.21489 0.83551,-0.003 1.75338,-0.21524 2.43874,-0.56488 1.59431,-0.81335 4.28465,-3.4342 6.80742,-6.63155 1.21106,-1.5349 3.13466,-3.6835 4.27467,-4.77468 l 2.07274,-1.98395 -2.27739,2.38083 c -1.25256,1.30945 -3.1677,3.51192 -4.25585,4.89437 -4.09717,5.20527 -7.73399,7.74556 -9.87093,6.89475 z m -2.22155,-1.48 c -0.45164,-0.51439 -0.82116,-1.01445 -0.82116,-1.11125 0,-0.0968 0.0902,-0.0629 0.20049,0.0754 0.11027,0.13825 0.54926,0.63831 0.97554,1.11125 0.42628,0.47294 0.70559,0.8599 0.62067,0.8599 -0.0849,0 -0.5239,-0.42086 -0.97554,-0.93525 z m -3.67471,-0.78498 c 0.68611,-0.71332 1.2877,-1.24316 1.33685,-1.17742 0.0491,0.0657 -0.51222,0.64936 -1.24749,1.29695 l -1.33685,1.17742 z m 23.89765,0.83402 c -0.43992,-0.32168 -0.4037,-0.34463 0.36573,-0.23171 0.71664,0.10518 0.98166,-0.0183 1.64744,-0.76743 l 0.79341,-0.89278 -0.69442,0.96921 c -0.5667,0.79094 -1.164,1.27975 -1.56379,1.27975 -0.033,0 -0.27981,-0.16067 -0.54837,-0.35704 z m -69.77393,-1.48283 c 0.24386,-0.57536 0.48037,-0.94062 0.52559,-0.81168 0.0835,0.23802 -0.66905,1.8578 -0.86311,1.8578 -0.0582,0 0.0937,-0.47075 0.33752,-1.04612 z m 69.00707,0.38466 c -0.0838,-0.21828 -0.037,-0.39687 0.10398,-0.39687 0.14096,0 0.25628,0.17859 0.25628,0.39687 0,0.21828 -0.0468,0.39688 -0.10398,0.39688 -0.0572,0 -0.17252,-0.1786 -0.25628,-0.39688 z m 11.373157,-0.53939 c -0.09074,-0.23646 -0.154744,-0.62855 -0.142237,-0.87131 0.01252,-0.24276 0.127635,-0.0902 0.255836,0.33907 0.249412,0.83509 0.161205,1.24836 -0.113599,0.53224 z m -28.632827,-0.45279 c -0.49989,-0.59043 -0.49968,-0.59174 0.0251,-0.15961 0.29104,0.23964 0.76729,0.49372 1.05833,0.56462 0.50893,0.12398 0.50797,0.13009 -0.0251,0.15961 -0.30487,0.0169 -0.78112,-0.2372 -1.05834,-0.56462 z m 17.39712,-0.19844 c 0,-0.3638 0.0601,-0.51263 0.13346,-0.33073 0.0734,0.1819 0.0734,0.47956 0,0.66146 -0.0734,0.1819 -0.13346,0.0331 -0.13346,-0.33073 z m 4.17409,0.0504 c 0.35419,-0.28761 1.00903,-0.72419 1.4552,-0.97017 l 0.81123,-0.44724 -0.64398,0.52293 c -0.35419,0.28762 -1.00904,0.7242 -1.45521,0.97018 l -0.81123,0.44724 z m -19.29711,0.14099 c 0,-0.0505 0.38695,-0.37511 0.85989,-0.72134 0.53211,-0.38953 0.71691,-0.45342 0.48478,-0.1676 -0.35234,0.43386 -1.34467,1.08987 -1.34467,0.88894 z m -53.42495,-1.13944 c 0.0127,-0.30823 0.0754,-0.37092 0.15985,-0.15986 0.0764,0.191 0.067,0.41921 -0.0209,0.50712 -0.0879,0.0879 -0.15045,-0.0683 -0.13897,-0.34726 z m 79.375004,-0.26459 c 0.0127,-0.30822 0.07539,-0.37091 0.159851,-0.15985 0.07643,0.191 0.06703,0.4192 -0.02088,0.50712 -0.08792,0.0879 -0.150453,-0.0684 -0.138965,-0.34727 z m -4.254224,-0.22391 c 0,-0.0728 0.23813,-0.25974 0.52917,-0.4155 0.29104,-0.15576 0.52917,-0.22367 0.52917,-0.15091 0,0.0728 -0.23813,0.25974 -0.52917,0.4155 -0.29104,0.15576 -0.52917,0.22367 -0.52917,0.15091 z m 3.989641,-0.59229 c -0.01148,-0.17 -0.08941,-0.52719 -0.173159,-0.79375 -0.14474,-0.4607 -0.137274,-0.46128 0.151019,-0.0117 0.166806,0.26014 0.244729,0.61733 0.173156,0.79375 -0.09392,0.23151 -0.13594,0.23476 -0.151016,0.0117 z m -2.666721,-0.21757 c 0,-0.18104 1.62002,-0.98423 1.74106,-0.86319 0.0574,0.0574 -0.31085,0.30239 -0.81834,0.5444 -0.5075,0.242 -0.92272,0.38546 -0.92272,0.31879 z m -73.75261,-1.99513 c -0.32742,-0.13161 -0.59531,-0.30968 -0.59531,-0.39572 0,-0.086 0.13602,-0.0724 0.30227,0.0304 0.16625,0.10275 0.96992,0.27276 1.78594,0.3778 1.46101,0.18807 1.46549,0.19126 0.29304,0.20891 -0.65484,0.01 -1.45851,-0.0898 -1.78594,-0.22137 z m 4.7697,-1.30689 c 0.69519,-0.61807 1.81714,-1.91447 2.49323,-2.88088 1.25466,-1.79344 1.93211,-2.63097 1.52826,-1.8894 -1.03413,1.89892 -3.72563,5.08264 -4.74521,5.61302 -0.29714,0.15457 0.0285,-0.22466 0.72372,-0.84274 z m 62.12639,0.78597 c -0.008,-0.21828 0.10087,-0.57547 0.24194,-0.79375 0.31255,-0.48365 0.31255,-0.0659 0,0.66146 -0.14994,0.34891 -0.23235,0.39398 -0.24194,0.13229 z m 0.7711,-2.21366 c 0,-0.28666 1.31494,-2.81343 1.46412,-2.81343 0.0728,0 -0.18169,0.62508 -0.56545,1.38907 -0.73806,1.46932 -0.89867,1.72388 -0.89867,1.42436 z m -7.9375,-2.64874 c 0,-0.0549 0.20836,-0.2633 0.46302,-0.46302 0.41965,-0.32911 0.42901,-0.31975 0.0999,0.0999 -0.34564,0.44073 -0.56292,0.58088 -0.56292,0.36312 z m 10.04847,-1.21502 c 0.30773,-0.43216 0.69462,-0.86925 0.85977,-0.97132 0.16515,-0.10207 -0.0331,0.25152 -0.4406,0.78575 -0.88441,1.15953 -1.21778,1.30711 -0.41917,0.18557 z m -4.49222,0.15669 c 0,-0.0549 0.20836,-0.2633 0.46302,-0.46302 0.41965,-0.32911 0.42901,-0.31975 0.0999,0.0999 -0.34564,0.44073 -0.56292,0.58089 -0.56292,0.36313 z m -56.09167,-0.69386 c 0.15576,-0.29104 0.34274,-0.52916 0.4155,-0.52916 0.0728,0 0.005,0.23812 -0.15091,0.52916 -0.15576,0.29105 -0.34274,0.52917 -0.4155,0.52917 -0.0728,0 -0.005,-0.23812 0.15091,-0.52917 z m 57.3281,-0.28573 c 0.32827,-0.39737 1.93857,-1.41044 1.93857,-1.21959 0,0.0616 -0.50601,0.44581 -1.12448,0.8537 -0.61846,0.40788 -0.9848,0.57253 -0.81409,0.36589 z m -56.53435,-1.03718 c 0.15576,-0.29104 0.34274,-0.52917 0.4155,-0.52917 0.0728,0 0.005,0.23813 -0.15091,0.52917 -0.15576,0.29104 -0.34274,0.52916 -0.4155,0.52916 -0.0728,0 -0.005,-0.23812 0.15091,-0.52916 z m 21.4533,-0.0864 c 0.44961,-0.35214 2.09462,-1.25328 2.09462,-1.14744 0,0.17131 -1.71677,1.23379 -1.99355,1.23379 -0.11622,0 -0.1617,-0.0389 -0.10107,-0.0864 z m -1.98752,-0.85859 c -0.22868,-0.22868 -0.40637,-0.61563 -0.39489,-0.8599 0.0171,-0.36276 0.0476,-0.37141 0.16682,-0.0472 0.0803,0.21829 0.32744,0.60524 0.54929,0.8599 0.50149,0.57567 0.24494,0.61341 -0.32122,0.0472 z m 4.34672,-0.46015 c 0,-0.0617 0.50602,-0.44582 1.12448,-0.8537 0.61847,-0.40789 0.98481,-0.57254 0.8141,-0.36589 -0.32827,0.39736 -1.93858,1.41043 -1.93858,1.21959 z m -4.9755,-1.63762 c 0.005,-0.43656 0.0647,-0.58313 0.13177,-0.32569 0.0671,0.25743 0.0627,0.61461 -0.01,0.79375 -0.0725,0.17913 -0.12736,-0.0315 -0.12197,-0.46806 z m 7.35675,0.0324 c 0,-0.0549 0.20836,-0.2633 0.46303,-0.46303 0.41964,-0.3291 0.429,-0.31974 0.0999,0.0999 -0.34564,0.44073 -0.56292,0.58089 -0.56292,0.36313 z m -18.25625,-2.05412 c 0.84311,-0.47863 2.73305,-2.11914 4.49313,-3.90012 1.67085,-1.6907 2.41161,-2.33954 1.64612,-1.44188 -2.47495,2.9023 -6.35977,6.17912 -7.31552,6.17061 -0.15342,-0.001 0.37591,-0.37424 1.17627,-0.82861 z m 10.22742,-2.78699 c -0.0768,-0.26563 -0.19837,-1.55452 -0.27013,-2.86421 l -0.13046,-2.38125 0.33764,2.77813 c 0.32868,2.70436 0.34776,3.45228 0.063,2.46733 z m -7.317,-3.62556 c 0,-0.0549 0.20836,-0.2633 0.46302,-0.46302 0.41965,-0.32911 0.42901,-0.31975 0.0999,0.0999 -0.34565,0.44073 -0.56292,0.58089 -0.56292,0.36313 z m 9.81047,-1.37736 c 0.0127,-0.30823 0.0754,-0.37092 0.15985,-0.15985 0.0764,0.19099 0.067,0.41919 -0.0209,0.50711 -0.0879,0.0879 -0.15045,-0.0684 -0.13897,-0.34726 z m -2.91041,-1.5875 c 0.0127,-0.30823 0.0754,-0.37092 0.15985,-0.15985 0.0764,0.19099 0.067,0.41919 -0.0209,0.50711 -0.0879,0.0879 -0.15045,-0.0684 -0.13896,-0.34726 z m -42.30265,-0.7717 c 0.005,-0.43657 0.0647,-0.58313 0.13178,-0.3257 0.0671,0.25743 0.0627,0.61462 -0.01,0.79375 -0.0725,0.17913 -0.12736,-0.0315 -0.12197,-0.46805 z m 0.48569,-1.85209 c 0,-0.14552 0.11542,-0.44317 0.25648,-0.66145 0.14107,-0.21829 0.25648,-0.27782 0.25648,-0.1323 0,0.14552 -0.11541,0.44318 -0.25648,0.66146 -0.14106,0.21828 -0.25648,0.27781 -0.25648,0.13229 z m 0.52917,-1.32291 c 0,-0.14552 0.11542,-0.44318 0.25648,-0.66146 0.14106,-0.21828 0.25648,-0.27781 0.25648,-0.13229 0,0.14552 -0.11542,0.44317 -0.25648,0.66146 -0.14106,0.21828 -0.25648,0.27781 -0.25648,0.13229 z m 2.13314,-4.31074 c 0.49581,-0.91569 1.16776,-1.98725 1.49323,-2.38125 0.32547,-0.39399 -0.003,0.28703 -0.73041,1.51337 -1.59924,2.69695 -2.00012,3.15304 -0.76282,0.86788 z m 72.4925,1.00345 c 0.38571,-0.8099 0.50793,-0.96 0.50793,-0.62384 0,0.14196 -0.18517,0.48923 -0.41148,0.7717 -0.38797,0.48427 -0.39348,0.47583 -0.0965,-0.14786 z m 11.42199,-2.03447 c 0.25466,-0.0666 0.67138,-0.0666 0.92604,0 0.25466,0.0666 0.0463,0.121 -0.46302,0.121 -0.50932,0 -0.71768,-0.0545 -0.46302,-0.121 z m -9.98802,-0.87595 c 0.22575,-0.43656 0.46999,-0.79375 0.54275,-0.79375 0.0728,0 -0.0524,0.35719 -0.27817,0.79375 -0.22576,0.43656 -0.46999,0.79375 -0.54276,0.79375 -0.0728,0 0.0524,-0.35719 0.27818,-0.79375 z m 5.5396,-0.0661 -0.7771,-0.85989 0.79375,0.70187 c 0.43656,0.38604 1.03187,0.75918 1.32291,0.82921 0.51541,0.12401 0.51498,0.12812 -0.0166,0.15802 -0.30763,0.0173 -0.88491,-0.34454 -1.32292,-0.82921 z m 2.60137,0.67654 c 0.25743,-0.0671 0.61462,-0.0627 0.79375,0.01 0.17913,0.0725 -0.0315,0.12736 -0.46806,0.12197 -0.43656,-0.005 -0.58312,-0.0647 -0.32569,-0.13177 z m 3.56684,0.008 c 0.1819,-0.0734 0.47956,-0.0734 0.66146,0 0.1819,0.0734 0.0331,0.13345 -0.33073,0.13345 -0.3638,0 -0.51263,-0.06 -0.33073,-0.13345 z m 26.546527,0.0761 c 0.06064,-0.0545 0.824619,-0.16559 1.697744,-0.24678 1.043895,-0.0971 1.315696,-0.0738 0.79375,0.0679 -0.816134,0.22155 -2.688354,0.356 -2.491494,0.17892 z m -24.156951,-0.84762 c 0.752946,-0.3752 1.925484,-1.29794 2.605641,-2.05052 0.680156,-0.75258 1.107265,-1.12274 0.949134,-0.82258 -0.64516,1.22461 -3.656846,3.55531 -4.594101,3.55531 -0.18132,0 0.286378,-0.307 1.039326,-0.6822 z m 23.291544,0.50146 c 0.190995,-0.0764 0.419201,-0.067 0.507119,0.0209 0.08792,0.0879 -0.06835,0.15045 -0.347266,0.13896 -0.308226,-0.0127 -0.370919,-0.0754 -0.159853,-0.15985 z m 4.878255,-0.49976 c 0.777227,-0.42165 0.975636,-1.34688 0.410105,-1.91241 -0.212413,-0.21242 -0.221782,-0.3175 -0.02831,-0.3175 0.330986,0 0.610391,0.6086 0.610391,1.32955 0,0.48934 -0.927762,1.32596 -1.447935,1.30569 -0.149521,-0.006 0.05557,-0.18823 0.455747,-0.40533 z m -6.700755,-0.57627 -0.641432,-0.7276 0.727604,0.64143 c 0.400182,0.35279 0.727604,0.68021 0.727604,0.72761 0,0.2075 -0.21426,0.0386 -0.813776,-0.64144 z m -25.69417,-1.04063 c 0.191,-0.0764 0.4192,-0.067 0.50712,0.0209 0.0879,0.0879 -0.0683,0.15046 -0.34726,0.13897 -0.30823,-0.0127 -0.37092,-0.0754 -0.15986,-0.15985 z m -8.41631,-0.48072 c 0.57644,-0.83165 2.46831,-2.77812 2.70018,-2.77812 0.11522,0 0.19161,0.56554 0.16975,1.25677 l -0.0397,1.25677 -0.15869,-1.17787 -0.1587,-1.17787 -1.4398,1.57475 c -0.79188,0.8661 -1.27474,1.33661 -1.073,1.04557 z m 10.05342,0.3083 c 0,-0.0683 0.38424,-0.25819 0.85386,-0.4219 0.46962,-0.16371 0.73751,-0.18874 0.59531,-0.0556 -0.30128,0.28205 -1.44917,0.66029 -1.44917,0.47752 z m -82.81458,-0.2759 c 0,-0.0549 0.20836,-0.2633 0.46302,-0.46302 0.41964,-0.32911 0.429,-0.31975 0.0999,0.0999 -0.34564,0.44073 -0.56291,0.58089 -0.56291,0.36313 z m 109.873264,-0.0835 c 0.257431,-0.0671 0.614619,-0.0627 0.79375,0.01 0.179131,0.0725 -0.03149,0.12737 -0.468056,0.12197 -0.436563,-0.005 -0.583126,-0.0647 -0.325694,-0.13177 z m -3.973209,-1.00727 c 0.0029,-0.58209 0.05712,-0.78906 0.120407,-0.45994 0.06329,0.32912 0.06088,0.80537 -0.0053,1.05833 -0.06622,0.25297 -0.118004,-0.0163 -0.115067,-0.59839 z m -105.106305,0.0324 c 0,-0.0549 0.20836,-0.2633 0.46302,-0.46302 0.41964,-0.32911 0.429,-0.31975 0.0999,0.0999 -0.34564,0.44073 -0.56291,0.58089 -0.56291,0.36312 z m 6.68073,-0.0825 c 0.25466,-0.0665 0.67138,-0.0665 0.92604,0 0.25466,0.0666 0.0463,0.12101 -0.46302,0.12101 -0.50933,0 -0.71768,-0.0545 -0.46302,-0.12101 z m -1.06137,-0.25843 c -0.18357,-0.074 -0.45803,-0.39198 -0.60991,-0.70672 -0.23652,-0.49014 -0.22486,-0.51531 0.0813,-0.17538 0.19659,0.21828 0.52463,0.54571 0.72897,0.72761 0.38967,0.34687 0.35107,0.37664 -0.20035,0.15449 z m 3.02654,-0.26903 c 0.31686,-0.26443 0.8332,-0.77843 1.14743,-1.14223 l 0.57132,-0.66146 -0.57052,0.86043 c -0.31378,0.47324 -0.83013,0.98725 -1.14743,1.14224 l -0.57691,0.2818 z m -7.32299,-1.00994 c 0.34178,-0.36381 0.68094,-0.66146 0.7537,-0.66146 0.0728,0 -0.14734,0.29765 -0.48911,0.66146 -0.34178,0.3638 -0.68094,0.66146 -0.7537,0.66146 -0.0728,0 0.14734,-0.29766 0.48911,-0.66146 z m 104.002145,-0.022 c 0.0127,-0.30823 0.07539,-0.37092 0.159851,-0.15986 0.07643,0.191 0.06703,0.4192 -0.02088,0.50712 -0.08792,0.0879 -0.150453,-0.0683 -0.138965,-0.34726 z m -16.404167,-0.52917 c 0.0127,-0.30823 0.07539,-0.37092 0.159851,-0.15985 0.07643,0.19099 0.06703,0.4192 -0.02088,0.50712 -0.08792,0.0879 -0.150453,-0.0684 -0.138965,-0.34727 z m -84.888038,-1.2109 c -0.13257,-0.63157 -0.17415,-1.26736 -0.0924,-1.41288 0.0817,-0.14553 0.23448,0.32695 0.33939,1.04995 0.23958,1.65107 0.0744,1.89383 -0.24698,0.36293 z m 101.558548,0.83607 c -0.008,-0.21829 0.100869,-0.57547 0.241935,-0.79375 0.312557,-0.48366 0.312557,-0.0659 0,0.66145 -0.149934,0.34892 -0.232344,0.39398 -0.241935,0.1323 z m -102.945568,-0.66146 c 0.34178,-0.36381 0.68094,-0.66146 0.7537,-0.66146 0.0728,0 -0.14734,0.29765 -0.48912,0.66146 -0.34177,0.3638 -0.68094,0.66146 -0.7537,0.66146 -0.0728,0 0.14735,-0.29766 0.48912,-0.66146 z m 86.560527,-0.13229 c 0,-0.36381 0.06006,-0.51263 0.133454,-0.33073 0.0734,0.1819 0.0734,0.47955 0,0.66145 -0.0734,0.18191 -0.133454,0.0331 -0.133454,-0.33072 z m -78.093857,-0.52917 c 0.15576,-0.29104 0.34273,-0.52917 0.41549,-0.52917 0.0728,0 0.005,0.23813 -0.15091,0.52917 -0.15576,0.29104 -0.34273,0.52917 -0.41549,0.52917 -0.0728,0 -0.005,-0.23813 0.15091,-0.52917 z m 78.330895,-0.54818 c -0.01672,-0.48837 0.796711,-2.96241 0.930124,-2.829 0.0501,0.0501 -0.135485,0.8007 -0.412406,1.66799 -0.276918,0.86729 -0.509894,1.38975 -0.517718,1.16101 z m -77.140275,-1.56849 c 0.36871,-0.7276 0.72991,-1.32291 0.80267,-1.32291 0.0728,0 -0.16938,0.59531 -0.53808,1.32291 -0.36871,0.72761 -0.72991,1.32292 -0.80267,1.32292 -0.0728,0 0.16938,-0.59531 0.53808,-1.32292 z m 94.067484,1.19063 c 0,-0.14552 0.115413,-0.44318 0.256479,-0.66146 0.141065,-0.21828 0.256479,-0.27781 0.256479,-0.13229 0,0.14552 -0.115414,0.44317 -0.256479,0.66146 -0.141066,0.21828 -0.256479,0.27781 -0.256479,0.13229 z m 0.79375,-2.11667 c 0,-0.14552 0.115413,-0.44318 0.256479,-0.66146 0.141065,-0.21828 0.256479,-0.27781 0.256479,-0.13229 0,0.14552 -0.115414,0.44318 -0.256479,0.66146 -0.141066,0.21828 -0.256479,0.27781 -0.256479,0.13229 z m -93.910224,-0.79375 c 0,-0.14552 0.34595,-0.91943 0.76878,-1.71979 0.42283,-0.80037 0.76879,-1.33615 0.76879,-1.19063 0,0.14552 -0.34596,0.91943 -0.76879,1.7198 -0.42283,0.80036 -0.76878,1.33614 -0.76878,1.19062 z m 77.891002,-1.12448 c 0.379862,-0.69122 1.17267,-1.79255 1.761796,-2.44739 l 1.071137,-1.19063 -1.187447,1.5875 c -0.653095,0.87313 -1.381998,1.97445 -1.619785,2.4474 -0.237786,0.47294 -0.496244,0.85989 -0.574349,0.85989 -0.07811,0 0.168785,-0.56554 0.548648,-1.25677 z m 9.876091,-1.5698 c 0.190995,-0.0764 0.419201,-0.067 0.507119,0.0209 0.08792,0.0879 -0.06835,0.15045 -0.347265,0.13896 -0.308227,-0.0127 -0.37092,-0.0754 -0.159854,-0.15985 z m -31.578983,-0.36603 c -0.0959,-0.1552 -0.11765,-0.33893 -0.0483,-0.40829 0.0694,-0.0694 0.19661,0.0576 0.28278,0.28219 0.1789,0.46622 0.0264,0.54823 -0.23448,0.1261 z m 30.157808,-0.12929 c -0.484269,-0.38797 -0.475826,-0.39348 0.147868,-0.0965 0.809897,0.38571 0.959998,0.50793 0.623835,0.50793 -0.141963,0 -0.489228,-0.18517 -0.771703,-0.41148 z m 5.307243,-0.38227 c 0.291042,-0.12507 0.70776,-0.2274 0.926042,-0.2274 0.250158,0 0.201252,0.0841 -0.132292,0.2274 -0.291042,0.12506 -0.70776,0.22739 -0.926042,0.22739 -0.250158,0 -0.201252,-0.0841 0.132292,-0.22739 z m -35.936501,-1.58881 c -0.096,-0.79965 -0.1589,-2.10875 -0.1398,-2.90911 0.025,-1.04572 0.0973,-0.71068 0.25704,1.19062 0.2425,2.88614 0.16293,4.0525 -0.11724,1.71849 z m 29.495984,0.26589 c 0,-0.3638 0.06005,-0.51263 0.133453,-0.33073 0.0734,0.1819 0.0734,0.47956 0,0.66146 -0.0734,0.1819 -0.133453,0.0331 -0.133453,-0.33073 z m -3.915516,-0.20426 c 0.209344,-0.33873 1.757075,-1.48416 1.757075,-1.30037 0,0.0654 -0.437097,0.4523 -0.971326,0.85977 -0.534228,0.40748 -0.887814,0.60575 -0.785749,0.4406 z m 3.877792,-1.14071 c 0.0021,-0.35167 0.121126,-0.818 0.264216,-1.03628 0.183036,-0.27922 0.209785,-0.12235 0.09023,0.52917 -0.209389,1.14109 -0.359828,1.35633 -0.354449,0.50711 z m -1.741683,-0.47825 c 0.188769,-0.30543 1.208466,-0.92145 1.208466,-0.73006 0,0.0611 -0.312317,0.31581 -0.694034,0.56592 -0.38172,0.25011 -0.613215,0.32398 -0.514432,0.16414 z m -75.418157,-1.22775 c -0.24134,-0.36834 -0.37402,-0.7345 -0.29483,-0.81369 0.0792,-0.0792 0.22484,0.11084 0.32368,0.42227 0.0988,0.31143 0.43714,0.67005 0.75177,0.79692 0.44459,0.17928 0.47024,0.23441 0.11512,0.24745 -0.25131,0.009 -0.65439,-0.2846 -0.89574,-0.65295 z m 2.01412,0.56574 c 0,-0.0572 0.18478,-0.17489 0.41062,-0.26156 0.23546,-0.0904 0.34166,-0.046 0.24897,0.10399 -0.15538,0.2514 -0.65959,0.37185 -0.65959,0.15757 z m -6.06417,-1.48352 c 0.38571,-0.8099 0.50792,-0.96 0.50792,-0.62384 0,0.14197 -0.18516,0.48923 -0.41147,0.77171 -0.38798,0.48427 -0.39349,0.47582 -0.0965,-0.14787 z m 8.31856,-0.76615 c 0.53364,-0.74279 1.02433,-1.35052 1.09043,-1.35052 0.18185,0 -1.45813,2.32863 -1.78013,2.52764 -0.1543,0.0954 0.15607,-0.43434 0.6897,-1.17712 z m -5.04048,-1.47698 c -0.10197,-1.0882 -0.10454,-2.40961 -0.006,-2.93646 0.13069,-0.69665 0.0957,-0.90602 -0.12815,-0.76765 -0.22136,0.13681 -0.21603,0.014 0.019,-0.43698 0.17975,-0.34498 0.35556,-0.66218 0.39068,-0.70489 0.0351,-0.0427 0.0604,1.47534 0.0561,3.37344 -0.004,1.8981 -0.039,3.45109 -0.0771,3.45109 -0.0382,0 -0.1528,-0.89035 -0.25477,-1.97855 z m 28.93023,1.26864 c 0.191,-0.0764 0.4192,-0.067 0.50712,0.0209 0.0879,0.0879 -0.0683,0.15045 -0.34726,0.13896 -0.30823,-0.0127 -0.37092,-0.0754 -0.15986,-0.15985 z m 19.1843,-1.40676 c 0,-0.94589 0.048,-1.33284 0.10671,-0.8599 0.0587,0.47295 0.0587,1.24685 0,1.71979 -0.0587,0.47295 -0.10671,0.086 -0.10671,-0.85989 z m -18.04979,0.87193 c 0.19265,-0.32081 0.40723,-0.52633 0.47684,-0.45672 0.0696,0.0696 -0.088,0.33208 -0.35029,0.58328 -0.45559,0.43637 -0.46123,0.43073 -0.12655,-0.12656 z m 0.50695,-1.06116 c 0.002,-0.11421 0.68701,-0.92938 1.52136,-1.8115 0.83435,-0.88212 1.21231,-1.2393 0.83991,-0.79375 -1.98968,2.38053 -2.36524,2.7949 -2.36127,2.60525 z m -32.5481,-0.17409 c 0,-0.28574 1.05098,-2.28251 1.20138,-2.28251 0.0728,0 -0.12289,0.50601 -0.43478,1.12448 -0.61334,1.21625 -0.7666,1.44776 -0.7666,1.15803 z m 29.39369,-1.22418 c -0.009,-0.80037 0.0809,-1.60921 0.20027,-1.79744 0.12117,-0.19099 0.16897,0.33515 0.10818,1.19063 -0.14854,2.0901 -0.28811,2.36468 -0.30845,0.60681 z m -24.31503,0.39687 c 0.005,-0.43656 0.0647,-0.58312 0.13178,-0.32569 0.0671,0.25743 0.0627,0.61462 -0.01,0.79375 -0.0725,0.17913 -0.12736,-0.0315 -0.12197,-0.46806 z m 11.01132,-0.31303 c 0.19099,-0.0764 0.41919,-0.067 0.50711,0.0209 0.0879,0.0879 -0.0684,0.15045 -0.34726,0.13896 -0.30823,-0.0127 -0.37092,-0.0754 -0.15985,-0.15985 z m -1.2102,-0.26008 c -0.18357,-0.0739 -0.45803,-0.39198 -0.60991,-0.70672 -0.23549,-0.488 -0.2253,-0.51099 0.0692,-0.15617 0.18993,0.22885 0.58345,0.55265 0.87449,0.71956 0.52705,0.30227 0.30134,0.39919 -0.33376,0.14333 z m 3.37647,-0.7498 c 0.34178,-0.3638 0.68094,-0.66146 0.7537,-0.66146 0.0728,0 -0.14734,0.29766 -0.48912,0.66146 -0.34177,0.3638 -0.68093,0.66146 -0.7537,0.66146 -0.0728,0 0.14735,-0.29766 0.48912,-0.66146 z m -13.20828,-2.13872 c 0.0127,-0.30822 0.0754,-0.37092 0.15985,-0.15985 0.0764,0.19099 0.067,0.4192 -0.0209,0.50712 -0.0879,0.0879 -0.15045,-0.0683 -0.13897,-0.34727 z m 32.12492,-0.59777 c 0.28838,-0.3409 0.76377,-0.74243 1.05644,-0.89228 0.56195,-0.28774 0.48011,-0.19907 -0.78889,0.85461 -0.76397,0.63433 -0.77339,0.63566 -0.26755,0.0377 z m 6.59052,-0.10778 -0.50403,-0.59532 0.59531,0.50403 c 0.55944,0.47367 0.71576,0.6866 0.50403,0.6866 -0.0502,0 -0.3181,-0.26789 -0.59531,-0.59531 z m -8.57383,-1.62125 c 0,-0.0549 0.20836,-0.2633 0.46303,-0.46302 0.41964,-0.32911 0.429,-0.31975 0.0999,0.0999 -0.34564,0.44073 -0.56292,0.58089 -0.56292,0.36313 z m 13.95678,-0.33992 c 0.1819,-0.0734 0.47955,-0.0734 0.66145,0 0.18191,0.0734 0.0331,0.13345 -0.33072,0.13345 -0.36381,0 -0.51263,-0.06 -0.33073,-0.13345 z m -6.50667,-0.61852 c 0,-0.3638 0.0601,-0.51263 0.13346,-0.33073 0.0734,0.1819 0.0734,0.47956 0,0.66146 -0.0734,0.1819 -0.13346,0.0331 -0.13346,-0.33073 z m -12.15122,-2.11667 c 0,-0.50932 0.0545,-0.71768 0.121,-0.46302 0.0665,0.25466 0.0665,0.67138 0,0.92604 -0.0666,0.25467 -0.121,0.0463 -0.121,-0.46302 z m -7.71555,0.13229 c 0,-0.14552 0.17016,-0.56224 0.37812,-0.92604 0.20797,-0.3638 0.37813,-0.54239 0.37813,-0.39687 0,0.14552 -0.17016,0.56224 -0.37813,0.92604 -0.20796,0.3638 -0.37812,0.5424 -0.37812,0.39687 z m 7.97033,-1.85208 c 0.005,-0.43656 0.0647,-0.58312 0.13177,-0.32569 0.0671,0.25743 0.0627,0.61462 -0.01,0.79375 -0.0725,0.17913 -0.12735,-0.0315 -0.12196,-0.46806 z m -7.04603,-0.20985 c 0.0994,-0.26093 0.2473,-0.40778 0.32877,-0.32632 0.0815,0.0815 1.7e-4,0.29496 -0.18066,0.47444 -0.2613,0.25936 -0.29169,0.22897 -0.14811,-0.14812 z m 0.40483,-0.84848 c 0,-0.14552 0.34595,-0.91943 0.76878,-1.71979 0.42284,-0.80037 0.76879,-1.33615 0.76879,-1.19063 0,0.14552 -0.34595,0.91943 -0.76879,1.71979 -0.42283,0.80037 -0.76878,1.33615 -0.76878,1.19063 z m 6.90578,-0.52917 c 0.005,-0.43656 0.0647,-0.58312 0.13178,-0.32569 0.0671,0.25743 0.0627,0.61462 -0.01,0.79375 -0.0725,0.17913 -0.12735,-0.0315 -0.12196,-0.46806 z m 0.27561,-1.45521 c 0,-0.3638 0.0909,-1.01864 0.20198,-1.45521 0.18016,-0.70802 0.20197,-0.72231 0.20197,-0.13229 0,0.3638 -0.0909,1.01865 -0.20197,1.45521 -0.18016,0.70803 -0.20198,0.72232 -0.20198,0.13229 z m 0.50834,-2.91041 c 0,-0.36381 0.06,-0.51263 0.13345,-0.33073 0.0734,0.1819 0.0734,0.47955 0,0.66146 -0.0734,0.1819 -0.13345,0.0331 -0.13345,-0.33073 z m 0.2228,-1.30731 c 0,-0.28245 0.10187,-0.5765 0.22637,-0.65345 0.1245,-0.0769 0.17015,0.15416 0.10145,0.51355 -0.14923,0.78065 -0.32782,0.85686 -0.32782,0.1399 z"
         id="path987"
         inkscape:connector-curvature="0" />
      <path
         style="fill:#202121;stroke-width:0.26458332"
         d="m -141.46769,221.92777 c -0.24707,-0.27301 -0.44922,-0.74187 -0.44922,-1.0419 0,-1.16106 5.54622,-8.87847 7.81729,-10.87754 2.49591,-2.19699 4.11321,-2.06281 6.08924,0.50518 0.66311,0.86176 1.38203,1.56684 1.59761,1.56684 1.39049,0 4.12085,-2.47762 7.47907,-6.78677 2.31693,-2.973 6.3168,-6.79796 8.95184,-8.56038 3.20965,-2.14675 5.64798,-2.56273 7.70154,-1.31388 0.78768,0.47902 1.63842,1.95765 1.63842,2.84768 0,0.22524 -0.75734,1.19399 -1.68298,2.15278 -0.92563,0.95879 -1.98364,2.33754 -2.35112,3.06389 -0.75184,1.48606 -1.86442,4.90303 -1.66226,5.10518 0.0727,0.0727 0.76827,-0.29025 1.54579,-0.80649 4.70194,-3.12191 6.878174,-3.085 8.066941,0.13682 1.363943,3.6966 1.308765,5.2195 -0.189121,5.2195 -0.907664,0 -1.209096,-0.33084 -1.566908,-1.71979 -0.870812,-3.38031 -0.839033,-3.30729 -1.4395,-3.30729 -0.790112,0 -5.876682,3.07022 -7.123122,4.29948 -1.00132,0.98751 -2.10767,1.29973 -2.47864,0.69949 -0.61445,-0.99419 0.64711,-6.6068 2.22384,-9.89376 0.58722,-1.22416 1.61078,-2.76735 2.42748,-3.65983 1.11955,-1.22343 1.33398,-1.59262 1.03493,-1.78189 -2.07342,-1.31222 -7.9957,3.04759 -13.3392,9.81994 -2.52277,3.19735 -5.21311,5.8182 -6.80742,6.63155 -1.343,0.68515 -3.36911,0.74203 -4.31663,0.12119 -0.3689,-0.24171 -1.09451,-1.02936 -1.61247,-1.75033 -0.51797,-0.72096 -1.1331,-1.31084 -1.36697,-1.31084 -1.04864,0 -7.38155,7.79951 -8.0519,9.91659 -0.26403,0.83386 -0.48265,1.08061 -1.01205,1.14228 -0.4046,0.0471 -0.85532,-0.12029 -1.12448,-0.4177 z m -46.11291,-3.62779 c -0.77471,-1.18236 -0.33434,-1.87233 1.85946,-2.91338 2.3072,-1.09485 3.90021,-2.73063 4.46422,-4.58405 0.20683,-0.67966 0.57071,-1.89059 0.80863,-2.69095 0.6551,-2.20378 1.49505,-3.50741 2.6126,-4.05481 0.92716,-0.45415 1.07306,-0.45761 2.44739,-0.0581 1.04932,0.30504 1.60346,0.34885 1.96503,0.15535 0.99412,-0.53204 2.87865,-3.00481 5.14203,-6.74706 1.26666,-2.09428 2.84629,-4.41204 3.51028,-5.15056 1.02398,-1.13891 1.351,-1.34276 2.15409,-1.34276 0.52076,0 1.16836,0.20048 1.43912,0.44551 0.868,0.78553 2.56687,-0.31687 5.89939,-3.82816 7.86112,-8.28282 8.41066,-8.71189 9.61514,-7.50741 0.41072,0.41071 0.51177,1.08436 0.64495,4.29948 0.13633,3.29101 0.90498,10.7781 1.13421,11.04786 0.13023,0.15325 2.50111,-1.5406 4.84614,-3.46228 1.65539,-1.35654 2.38641,-1.79682 2.88373,-1.73683 0.96875,0.11687 1.3408,0.83916 0.84872,1.64764 -0.52201,0.85767 -3.27008,3.05412 -6.21456,4.96712 -1.99208,1.29423 -2.51098,1.52027 -3.175,1.38309 -1.68519,-0.34813 -1.88761,-0.92553 -2.63648,-7.5206 -0.22307,-1.96453 -0.41196,-4.34578 -0.41975,-5.29167 l -0.0142,-1.71979 -2.15847,2.38125 c -3.65312,4.03015 -6.64388,6.84353 -8.13325,7.65087 -1.52058,0.82425 -3.36323,1.03071 -4.0574,0.4546 -0.49464,-0.41051 -1.25226,0.55158 -3.89868,4.95094 -3.43346,5.70771 -5.6437,7.97796 -7.76708,7.97796 -0.62181,0 -1.50801,-0.13157 -1.96933,-0.29239 -1.1901,-0.41487 -1.49183,-0.0626 -2.37989,2.77844 -0.41596,1.3307 -1.00117,2.8933 -1.30047,3.47244 -0.74953,1.45031 -2.81236,3.36955 -4.55568,4.23857 -0.80036,0.39897 -1.61078,0.94675 -1.80094,1.2173 -0.48319,0.68747 -1.28266,0.61276 -1.794,-0.16764 z m -4.81881,-33.52463 c -0.53409,-0.5341 -0.35722,-2.17251 0.49901,-4.62236 1.96722,-5.62864 6.2984,-12.14607 12.32209,-18.54191 1.67673,-1.78033 2.53398,-2.07906 3.35685,-1.16979 0.53942,0.59604 0.54917,1.37938 0.0382,3.06392 -0.21671,0.71435 -0.39401,1.88979 -0.39401,2.61209 0,1.14657 0.0512,1.27078 0.40325,0.97859 0.75924,-0.63011 3.28106,-5.41784 5.43101,-10.31088 2.73665,-6.22832 5.42838,-11.52973 7.0541,-13.8932 1.21647,-1.76852 1.32138,-1.85209 2.32517,-1.85209 1.54459,0 1.78376,0.65549 1.45874,3.99788 -0.13995,1.43919 -0.25752,3.43814 -0.26128,4.4421 l -0.007,1.8254 1.37188,-1.8254 c 2.8462,-3.78709 7.21768,-7.51393 8.81362,-7.51393 1.12476,0 1.52144,0.9793 1.30512,3.22203 l -0.18686,1.93734 0.5553,-0.4945 c 0.65748,-0.58548 2.29437,-3.70096 4.53432,-8.63009 2.69168,-5.92318 5.15622,-9.43763 8.24811,-11.76185 3.05001,-2.29272 4.92441,-2.88653 6.01012,-1.90398 0.98272,0.88935 0.95742,1.25211 -0.6209,8.8998 -0.98618,4.77848 -2.24757,12.33952 -2.24877,13.47967 -5.3e-4,0.55012 0.46638,0.189 3.10817,-2.4037 4.63383,-4.54772 6.26429,-5.49314 7.96063,-4.61593 0.81098,0.41938 1.10359,1.06464 1.78096,3.92735 0.241,1.01852 0.49466,1.10992 2.83445,1.02126 2.24182,-0.0849 2.83594,0.15787 2.83594,1.15905 0,0.32817 0.16614,0.73455 0.3692,0.90307 0.48244,0.4004 0.5866,1.01981 1.22267,7.27108 0.48532,4.76974 0.49726,5.32222 0.12721,5.88698 -0.2246,0.34279 -0.641,0.62325 -0.92533,0.62325 -1.02227,0 -1.27293,-0.96661 -1.70666,-6.5813 -0.22903,-2.96487 -0.48735,-5.67325 -0.57403,-6.01862 -0.15463,-0.61609 -0.19939,-0.62474 -2.3707,-0.45784 l -2.2131,0.17011 -1.04147,-1.04147 c -0.84742,-0.84742 -1.1017,-1.34758 -1.36468,-2.6843 -0.17776,-0.90356 -0.40362,-1.64283 -0.50189,-1.64283 -0.88427,0 -9.16134,8.03829 -9.9582,9.67092 -1.00119,2.05128 -2.75886,1.28365 -2.75886,-1.20488 0,-2.80635 1.47527,-12.52136 2.92499,-19.26184 0.44766,-2.08139 0.77306,-3.90695 0.72311,-4.05679 -0.13885,-0.41657 -3.11527,1.88976 -4.33709,3.36066 -1.91267,2.30258 -2.95653,4.11359 -5.40043,9.36927 -2.78472,5.98862 -3.41208,7.11362 -4.81658,8.63732 -1.14572,1.24297 -2.24397,1.62943 -3.34016,1.17538 -0.94973,-0.39339 -1.39604,-1.16108 -1.61744,-2.78213 l -0.18248,-1.33604 -1.86869,1.87094 c -1.02778,1.02902 -2.78306,3.11261 -3.90062,4.63021 -2.15625,2.92811 -2.89927,3.53641 -3.98632,3.26358 -1.20323,-0.30199 -1.53167,-1.42738 -1.52315,-5.2191 l 0.008,-3.39496 -0.91246,1.64631 c -0.83847,1.51283 -4.84321,10.15558 -4.84321,10.4523 0,0.39488 -3.6696,7.39306 -4.65597,8.87925 -1.33955,2.01833 -2.10316,2.61002 -3.36844,2.61002 -1.52925,0 -2.57769,-1.46506 -2.87362,-4.01555 -0.0773,-0.66658 -0.17742,-0.59621 -1.70085,1.19597 -2.58751,3.04398 -5.21988,6.82185 -6.55617,9.40916 -1.50378,2.91159 -2.54079,5.60236 -2.54079,6.59271 0,0.87571 -0.42945,1.36979 -1.19062,1.36979 -0.3056,0 -0.6985,-0.14288 -0.87313,-0.3175 z m 75.02261,-5.52453 c -0.74782,-0.43556 -0.55369,-1.25849 1.08839,-4.61389 1.94849,-3.9815 3.44357,-5.96631 6.34459,-8.42283 2.72266,-2.3055 3.16229,-2.56045 3.92084,-2.27379 0.82953,0.3135 0.96088,1.06476 0.49829,2.84997 -0.22489,0.86785 -0.40888,2.21826 -0.40888,3.0009 0,1.3676 0.0378,1.44337 0.97155,1.94619 1.83428,0.98778 4.39481,0.46062 6.163939,-1.26903 1.038354,-1.01518 1.182499,-1.37093 1.8225,-4.49797 0.895556,-4.37567 2.921516,-7.78978 6.198902,-10.44628 1.5959,-1.29356 7.895048,-5.27747 9.023617,-5.707 0.628206,-0.23909 1.750714,0.45928 1.743078,1.08446 -0.0031,0.25131 -0.598382,1.64695 -1.322917,3.10143 -0.724535,1.45448 -1.317336,2.85346 -1.317336,3.10885 0,0.64401 0.772162,0.59206 3.307291,-0.22253 1.34569,-0.4324 2.466928,-0.63457 3.078287,-0.55506 1.280451,0.16652 2.610255,1.35875 2.610255,2.34021 0,0.41042 0.130101,1.25395 0.28911,1.8745 0.267364,1.0434 0.187749,1.43222 -1.058333,5.16872 -0.741093,2.22224 -1.347444,4.39094 -1.347444,4.81933 0,1.08372 0.622398,1.33244 2.86397,1.14452 2.09002,-0.17522 2.692281,0.0784 2.692281,1.1338 0,0.79488 -0.976562,1.3152 -2.925374,1.55869 -1.898515,0.23721 -3.375578,-0.16945 -4.36327,-1.20127 -0.711552,-0.74334 -0.779405,-0.97355 -0.761572,-2.58391 0.01577,-1.42439 0.246494,-2.359 1.187551,-4.81056 0.931574,-2.42687 1.167593,-3.37574 1.166093,-4.68809 -0.0027,-2.35584 -0.155652,-2.4335 -3.111482,-1.57975 -3.002518,0.86724 -3.819829,0.88575 -4.967219,0.11253 -1.087818,-0.73308 -1.343062,-1.74367 -0.890045,-3.52397 0.182068,-0.71551 0.304059,-1.32851 0.271092,-1.36222 -0.03297,-0.0337 -0.987237,0.55366 -2.120598,1.30527 -4.458843,2.95692 -6.744494,6.25612 -7.816191,11.28221 -0.589683,2.76551 -1.112132,3.77418 -2.696023,5.20513 -1.936924,1.7499 -3.102102,2.11641 -6.545672,2.05895 -2.85255,-0.0476 -3.05171,-0.087 -3.73238,-0.73916 -0.82523,-0.79062 -1.32408,-2.22308 -1.32408,-3.80212 0,-0.60158 -0.0943,-1.09378 -0.20949,-1.09378 -0.32778,0 -2.27719,2.12313 -3.15816,3.43958 -0.43822,0.65484 -1.35045,2.29435 -2.02718,3.64335 -1.15197,2.29635 -2.0134,3.51113 -2.47652,3.49235 -0.10914,-0.004 -0.4068,-0.1294 -0.66146,-0.27773 z"
         id="path985"
         inkscape:connector-curvature="0" />
    </g>
  </g>
</svg>
