<?xml version="1.0" encoding="UTF-8" standalone="no"?>
<!-- Created with Inkscape (http://www.inkscape.org/) -->

<svg
   xmlns:dc="http://purl.org/dc/elements/1.1/"
   xmlns:cc="http://creativecommons.org/ns#"
   xmlns:rdf="http://www.w3.org/1999/02/22-rdf-syntax-ns#"
   xmlns:svg="http://www.w3.org/2000/svg"
   xmlns="http://www.w3.org/2000/svg"
   xmlns:sodipodi="http://sodipodi.sourceforge.net/DTD/sodipodi-0.dtd"
   xmlns:inkscape="http://www.inkscape.org/namespaces/inkscape"
   version="1.1"
   id="svg3730"
   width="167.03516"
   height="33.094486"
   viewBox="0 0 167.03515 33.094486"
   sodipodi:docname="btn_background.svg"
   inkscape:version="0.92.5 (2060ec1f9f, 2020-04-08)">
  <metadata
     id="metadata3736">
    <rdf:RDF>
      <cc:Work
         rdf:about="">
        <dc:format>image/svg+xml</dc:format>
        <dc:type
           rdf:resource="http://purl.org/dc/dcmitype/StillImage" />
        <dc:title></dc:title>
      </cc:Work>
    </rdf:RDF>
  </metadata>
  <defs
     id="defs3734" />
  <sodipodi:namedview
     pagecolor="#ffffff"
     bordercolor="#666666"
     borderopacity="1"
     objecttolerance="10"
     gridtolerance="10"
     guidetolerance="10"
     inkscape:pageopacity="0"
     inkscape:pageshadow="2"
     inkscape:window-width="1223"
     inkscape:window-height="694"
     id="namedview3732"
     showgrid="false"
     fit-margin-top="0"
     fit-margin-left="0"
     fit-margin-right="0"
     fit-margin-bottom="0"
     inkscape:zoom="2.0713519"
     inkscape:cx="87.434664"
     inkscape:cy="16.087594"
     inkscape:window-x="72"
     inkscape:window-y="27"
     inkscape:window-maximized="0"
     inkscape:current-layer="svg3730" />
  <path
     style="fill:#007ba4;stroke-width:0.72727269"
     d="M 101.39063,32.415688 C 95.190631,32.088219 87.336086,31.650643 83.936086,31.443297 72.861468,30.76792 38.654211,30.961564 31.572451,31.739723 22.880761,32.694785 6.0759118,32.748656 3.6575846,31.829213 -1.2341027,29.969397 -1.2136634,12.417673 3.6858956,7.5181135 5.4614762,5.7425295 8.6645214,4.9218699 19.572452,3.4477799 29.61371,2.0908109 117.20763,-0.44575114 136.29972,0.06756786 c 14.65457,0.394011 28.99007,1.82156304 29.10169,2.89799404 0.50514,4.8714016 1.67073,22.0032081 1.63285,23.9997061 -0.0292,1.542635 -0.38446,3.136036 -0.78932,3.54089 -0.40485,0.404856 -3.46269,0.845249 -6.7952,0.978653 -3.33252,0.133404 -10.80457,0.580605 -16.60457,0.993779 -11.80531,0.840976 -24.71215,0.821391 -41.45454,-0.0629 z"
     id="path7986"
     inkscape:connector-curvature="0" />
</svg>
