<?xml version="1.0" encoding="UTF-8" standalone="no"?>
<!-- Created with Inkscape (http://www.inkscape.org/) -->

<svg
   xmlns:dc="http://purl.org/dc/elements/1.1/"
   xmlns:cc="http://creativecommons.org/ns#"
   xmlns:rdf="http://www.w3.org/1999/02/22-rdf-syntax-ns#"
   xmlns:svg="http://www.w3.org/2000/svg"
   xmlns="http://www.w3.org/2000/svg"
   xmlns:sodipodi="http://sodipodi.sourceforge.net/DTD/sodipodi-0.dtd"
   xmlns:inkscape="http://www.inkscape.org/namespaces/inkscape"
   width="166.93408mm"
   height="35.925976mm"
   viewBox="0 0 166.93408 35.925978"
   version="1.1"
   id="svg8"
   sodipodi:docname="doodlemancer_logo.svg"
   inkscape:version="0.92.5 (2060ec1f9f, 2020-04-08)">
  <defs
     id="defs2" />
  <sodipodi:namedview
     id="base"
     pagecolor="#ffffff"
     bordercolor="#666666"
     borderopacity="1.0"
     inkscape:pageopacity="0.0"
     inkscape:pageshadow="2"
     inkscape:zoom="6.1198265"
     inkscape:cx="106.16169"
     inkscape:cy="49.968479"
     inkscape:document-units="mm"
     inkscape:current-layer="g1135"
     showgrid="false"
     inkscape:window-width="1848"
     inkscape:window-height="1016"
     inkscape:window-x="72"
     inkscape:window-y="27"
     inkscape:window-maximized="1"
     fit-margin-top="0"
     fit-margin-left="0"
     fit-margin-right="0"
     fit-margin-bottom="0"
     inkscape:snap-global="false" />
  <metadata
     id="metadata5">
    <rdf:RDF>
      <cc:Work
         rdf:about="">
        <dc:format>image/svg+xml</dc:format>
        <dc:type
           rdf:resource="http://purl.org/dc/dcmitype/StillImage" />
        <dc:title></dc:title>
      </cc:Work>
    </rdf:RDF>
  </metadata>
  <g
     inkscape:label="Layer 1"
     inkscape:groupmode="layer"
     id="layer1"
     transform="translate(131.77873,-196.43825)">
    <g
       id="g1135"
       transform="translate(6.8035714,58.964286)">
      <path
         style="fill:#b357e9;stroke-width:0.26458335"
         d="m -30.771861,158.02528 c -0.430818,-0.31503 -0.547789,-0.83645 -0.335474,-2.08858 0.203758,-1.20166 0.684111,-1.78646 1.197701,-1.85926 0.92627,-0.13131 1.633903,0.7144 1.633903,1.96798 0,0.74633 0.06402,1.36188 -0.259202,1.65439 -1.062936,1.00713 -1.59852,0.79227 -2.236928,0.32547 z"
         id="path1151"
         inkscape:connector-curvature="0"
         sodipodi:nodetypes="cscscc" />
      <path
         style="fill:#e7c443;stroke-width:0.26458335"
         d="m -85.112517,158.06243 c -1.311016,-1.03124 -0.244248,-3.69365 1.591514,-4.72404 0.559808,-0.31421 0.832077,-0.32969 1.383109,-0.0786 0.562734,0.2564 1.074729,0.49202 1.07261,1.31046 -0.0031,1.19394 -1.466143,3.62602 -2.097196,3.86817 -0.666051,0.25559 -0.885105,1.34774 -1.647401,0.74811 z"
         id="path1149"
         inkscape:connector-curvature="0"
         sodipodi:nodetypes="ccccccc" />
      <path
         style="fill:#3ea9eb;stroke:#3ea9eb;stroke-width:0.26458335;stroke-opacity:1"
         d="m -130.91697,158.08837 c -0.77958,-0.77958 -0.88505,-1.56533 -0.74243,-5.53111 0.17739,-4.93262 0.97421,-5.89911 3.29727,-5.46331 1.17428,0.2203 3.41557,2.25885 4.08078,3.71164 1.24432,2.71757 0.0694,5.85407 -2.73439,7.29923 -1.30208,0.67114 -2.96174,0.66364 -3.64183,-0.0165 z"
         id="path1145"
         inkscape:connector-curvature="0"
         sodipodi:nodetypes="csccccc" />
      <path
         style="fill:#de5263;stroke-width:0.26458335"
         d="m 5.4874535,155.76811 c -0.3300836,-0.33008 -0.046959,-1.76132 0.4337623,-2.19637 0.72916,-0.65988 2.6841434,-0.0534 2.7902228,0.68803 0.042786,0.29908 -0.351977,0.98885 -0.613044,1.2158 -0.4977051,0.43265 -2.3428891,0.56059 -2.6109411,0.29254 z"
         id="path1143"
         inkscape:connector-curvature="0"
         sodipodi:nodetypes="ccccc" />
      <path
         style="fill:#01ea9d;stroke-width:0.26458335"
         d="m -103.23892,172.94362 c -0.24084,-0.26613 -0.43788,-0.66917 -0.43788,-0.89566 0,-0.48526 -0.73656,-3.00508 -1.115,-3.81448 -0.32166,-0.68799 -0.064,-1.60544 0.5376,-1.91413 0.24481,-0.12561 2.11198,-0.30802 4.14927,-0.40535 2.037293,-0.0973 4.123945,-0.2435 4.637004,-0.32482 0.701323,-0.11116 1.095309,-0.0139 1.5875,0.39206 l 0.654664,0.53992 -0.595312,1.05818 c -0.327422,0.58199 -0.595313,1.24054 -0.595313,1.46342 0,0.96612 -0.869434,2.54154 -1.488337,2.69687 -0.826418,0.20742 -1.346991,-0.2491 -1.725803,-1.51346 -0.321596,-1.07339 -0.337039,-1.0778 -2.110933,-0.60313 -0.239422,0.0641 -0.68549,0.81507 -1.00563,1.69309 -0.735,2.01581 -1.6183,2.59272 -2.49183,1.62749 z m -5.62822,-12.71176 c -0.72918,-0.72918 -0.12891,-3.99419 0.97804,-4.82068 1.32783,-0.99137 2.69554,0.38008 2.10518,2.57252 -0.5213,1.93596 -2.24872,3.08266 -3.08322,2.24816 z m 12.170834,0.1297 c -0.182584,-0.18259 -0.101331,-1.27318 -0.101331,-2.27397 0,-2.16677 0.701442,-3.17577 1.979195,-3.17577 1.167389,0 1.849492,1.33929 1.849492,2.98186 0,0.95203 -0.655013,1.41301 -1.179335,2.03613 -0.72486,0.86145 -1.955074,1.02469 -2.548021,0.43175 z"
         id="path1141"
         inkscape:connector-curvature="0"
         sodipodi:nodetypes="cscccscccscscccsccscssscc" />
      <path
         style="fill:#060606;stroke-width:0.26458335"
         d="m -137.82055,165.34262 c -0.27963,-0.33693 -0.2765,-0.95116 0.0172,-3.37344 0.23219,-1.91493 0.36493,-6.09381 0.37562,-11.82504 0.0148,-7.94681 -0.0332,-8.99577 -0.46434,-10.14202 -0.42212,-1.12224 -0.43481,-1.34787 -0.10383,-1.84635 0.36258,-0.54607 0.5385,-0.56536 4.58192,-0.50235 7.04395,0.10977 7.80906,0.22279 9.67548,1.42911 2.4544,1.58635 6.43662,5.80748 7.44025,7.88661 0.81206,1.68227 0.82933,1.79704 0.79161,5.26085 -0.0369,3.3907 -0.0735,3.6121 -0.86222,5.21414 -1.00322,2.03782 -2.80584,3.70751 -5.90939,5.47359 -2.59851,1.47869 -3.70827,1.71486 -9.17982,1.95357 -2.54518,0.11104 -4.01211,0.28785 -4.35835,0.52532 -0.69548,0.477 -1.58331,0.45308 -2.00414,-0.054 z m 11.76471,-7.71767 c 1.56813,-1.10212 2.26103,-2.48246 2.26635,-4.51479 0.006,-2.14947 -0.56784,-3.25915 -2.53066,-4.89696 -1.38513,-1.15577 -1.62765,-1.26241 -2.70772,-1.19062 -1.78143,0.1184 -2.18061,0.81418 -2.49314,4.34555 -0.32621,3.68594 -0.097,5.94431 0.67619,6.66103 1.09273,1.01299 3.00182,0.85186 4.78898,-0.40421 z m 15.49987,6.24562 c -2.44938,-0.72952 -3.5009,-3.2833 -2.90019,-7.04355 0.49202,-3.07993 1.70217,-4.65494 4.21887,-5.49085 1.6646,-0.55289 2.97936,-0.36255 4.60148,0.66617 1.46383,0.92833 2.28906,2.42966 2.47744,4.50715 0.11251,1.24077 0.0181,1.76827 -0.53151,2.96872 -1.53659,3.35633 -4.9483,5.26141 -7.86609,4.39236 z m 3.70056,-3.99393 c 0.68597,-0.73631 1.37001,-2.98482 1.16117,-3.81691 -0.32131,-1.28022 -2.24373,-1.01417 -2.77725,0.38435 -0.4671,1.22441 -0.68454,2.84266 -0.46257,3.44268 0.2823,0.76315 1.36314,0.75789 2.07865,-0.0101 z m 43.13258,3.60435 c -2.26664,-0.98294 -3.012871,-2.35046 -3.024132,-5.54195 -0.0075,-2.13558 0.07587,-2.55908 0.779299,-3.95692 1.028356,-2.04354 1.874287,-2.65121 3.667225,-2.63433 2.439223,0.023 4.131969,1.55011 4.131969,3.72777 0,1.09172 -0.860848,2.57459 -1.717796,2.95903 -0.29214,0.13105 -0.985679,0.43528 -1.541198,0.67606 -0.797182,0.34552 -0.992333,0.56234 -0.926042,1.02886 0.154683,1.08853 1.71777,0.8855 3.981342,-0.51715 1.842667,-1.14182 2.849528,-0.6136 2.849528,1.49493 0,0.85071 -1.359591,2.21265 -2.816529,2.8214 -0.589196,0.24619 -1.682843,0.35754 -2.765853,0.33958 -1.029862,-0.0171 -2.050104,-0.15109 -2.617813,-0.39728 z m 0.924153,-9.10352 c -1.082199,0 -1.455208,0.42048 -1.455208,1.64042 0.509391,2.80133 5.225084,-1.57771 1.455208,-1.64042 z m 21.95026,9.08017 c -0.352745,-0.35275 -0.409493,-0.72245 -0.274137,-1.78594 0.09388,-0.73761 0.241268,-2.35314 0.32753,-3.59006 l 0.156837,-2.24896 -0.54806,0.49045 c -0.301432,0.26975 -0.624954,0.84055 -0.718934,1.26844 -0.258358,1.1763 -1.097735,1.81298 -2.390156,1.81298 -1.251088,0 -1.694432,-0.3787 -2.099173,-1.79309 -0.451323,-1.57718 -0.787027,-0.9699 -0.955063,1.7277 -0.201568,3.23583 -0.354971,3.72231 -1.245384,3.9494 -1.119534,0.28554 -3.197611,0.21648 -3.531444,-0.11736 -0.167124,-0.16712 -0.396798,-1.52947 -0.510389,-3.02744 -0.113588,-1.49797 -0.409805,-4.11107 -0.658254,-5.80689 -0.248452,-1.69582 -0.379045,-3.27272 -0.290211,-3.50421 0.263445,-0.68653 1.824029,-1.48022 2.912552,-1.48128 0.9383,-9.3e-4 1.04454,0.0781 1.432348,1.06537 l 0.418881,1.06636 0.684315,-0.65265 c 1.27322,-1.21432 3.111905,-1.56387 4.203677,-0.79916 0.542811,0.3802 0.697169,0.37708 1.778696,-0.036 2.550107,-0.97389 4.858422,0.0961 5.383406,2.49535 0.68223,3.11791 0.553122,8.3958 -0.248413,10.15498 -0.553974,1.21584 -2.92245,1.71815 -3.828624,0.81197 z m 20.508094,-0.003 c -0.359802,-0.24622 -0.741659,-0.57364 -0.848572,-0.7276 -0.106913,-0.15396 -0.19621,-2.32466 -0.198438,-4.8238 -0.0021,-2.50915 -0.142475,-5.14356 -0.313174,-5.88307 -0.367345,-1.59142 -0.05346,-2.11366 1.597991,-2.65869 1.205124,-0.39772 2.05812,-0.19062 2.295512,0.55733 0.136162,0.42901 0.317614,0.50755 0.873432,0.37808 1.939309,-0.45174 2.628792,-0.46062 3.434032,-0.0442 1.70936,0.88394 2.421565,3.58572 2.424909,9.19898 0.0016,2.69735 -0.07938,3.43592 -0.413379,3.76991 -0.589465,0.58947 -1.635422,0.79571 -2.360348,0.46541 -0.594831,-0.27102 -0.623615,-0.41731 -0.708091,-3.59885 -0.08028,-3.02344 -0.140637,-3.36885 -0.683372,-3.91091 l -0.595312,-0.59457 -0.595313,0.59469 c -0.537773,0.53721 -0.6081,0.91902 -0.727604,3.95031 -0.130339,3.30608 -0.14206,3.35833 -0.79375,3.53878 -1.112594,0.30807 -1.705737,0.25547 -2.388523,-0.21179 z m -77.254885,-0.46474 c -2.507132,-1.3645 -2.777052,-7.30465 -0.44672,-9.83077 0.724657,-0.78554 1.107872,-0.95875 2.64536,-1.19569 2.143491,-0.33032 2.592393,-0.1245 3.84152,1.76134 1.411484,2.13095 1.373757,4.65123 -0.107688,7.19395 -1.204701,2.06773 -4.088738,3.07462 -5.932472,2.07117 z m 3.446923,-3.06009 c 1.425324,-1.52581 1.197076,-4.46644 -0.377351,-4.8616 -1.517637,-0.3809 -2.305053,0.68382 -2.364126,3.1967 -0.03324,1.41421 0.04833,1.77356 0.473424,2.08552 0.786829,0.57742 1.450769,0.45429 2.268053,-0.42062 z m 67.253568,3.12585 c -0.174625,-0.17462 -0.3175,-0.47601 -0.3175,-0.66976 0,-0.56742 -0.618757,-0.64635 -1.659136,-0.21165 -2.031826,0.84895 -4.21717,0.23657 -5.074894,-1.42208 -0.922366,-1.78366 -0.259913,-5.90197 1.337691,-8.31611 0.893993,-1.35092 2.736059,-2.20726 3.800018,-1.76655 0.406389,0.16833 0.902046,0.27286 1.10146,0.23228 0.199414,-0.0406 0.687827,0.0122 1.085361,0.11722 1.225264,0.32376 1.597575,1.46843 1.737743,5.34269 0.102347,2.82887 0.212056,3.55162 0.617893,4.07058 1.038926,1.32852 0.314833,2.94088 -1.320721,2.94088 -0.54473,0 -1.13329,-0.14287 -1.307915,-0.3175 z m -1.813158,-5.70177 c 0.437512,-0.86034 0.397666,-2.25445 -0.08092,-2.83111 -0.416534,-0.50189 -1.429713,-0.53525 -1.824088,-0.06 -0.45049,0.54281 -0.462261,3.09145 -0.01558,3.3742 0.736484,0.46621 1.540727,0.26394 1.920595,-0.48304 z m 23.4560757,5.74932 c -2.1277978,-0.49581 -3.9321213,-3.87067 -3.5764498,-6.6895 0.4591685,-3.6391 2.0503278,-5.6964 4.8652723,-6.29057 0.528074,-0.11146 1.2222428,-0.28381 1.5425976,-0.38298 0.4367716,-0.13522 0.7511257,0.002 1.2567709,0.54727 1.28026593,1.38143 0.69929646,2.99815 -1.276141,3.55123 -0.6486128,0.1816 -1.5036219,0.66871 -1.900018,1.08246 -0.6163204,0.6433 -0.6997065,0.90899 -0.5756196,1.83412 0.079806,0.59501 0.3380529,1.37631 0.5738786,1.73623 0.486762,0.74289 1.239872,0.69272 2.6928129,-0.17938 1.41457372,-0.84907 2.50980061,-0.62407 2.979817,0.61217 0.5488041,1.44346 -0.64768411,3.49296 -2.4329576,4.16749 -0.8527283,0.32218 -2.7935054,0.32754 -4.1499633,0.0114 z m 24.3591623,-0.84784 -0.822034,-1.11779 0.07154,-5.16606 0.07154,-5.16607 0.924981,-0.0878 c 0.508738,-0.0483 1.072737,-0.21039 1.253334,-0.36027 0.537525,-0.44611 1.631683,-0.0141 1.815089,0.71665 0.09075,0.36158 0.181862,0.65563 0.202467,0.65344 0.02061,-0.002 0.513713,-0.17556 1.095796,-0.38526 0.582083,-0.2097 1.621137,-0.3865 2.309006,-0.39289 1.390113,-0.0129 1.845183,0.41487 2.187866,2.05668 0.236865,1.13483 -0.402871,1.90046 -1.587979,1.90046 -1.368613,0 -2.461096,0.5166 -3.026241,1.43102 -0.611373,0.98923 -0.685263,1.73604 -0.411411,4.15823 0.178856,1.58198 0.143372,1.80759 -0.364141,2.3151 -0.403479,0.40348 -0.892143,0.56231 -1.730044,0.56231 -1.066605,0 -1.238928,-0.0968 -1.98977,-1.11779 z m -14.0674311,0.2559 C 4.5454706,162.18268 3.8640018,161.379 3.52556,160.72533 2.977346,159.66651 2.9222068,159.26261 3.0201741,157.0233 c 0.1216448,-2.78054 0.4814994,-3.75972 1.7847205,-4.85631 1.6782786,-1.41218 4.7498161,-1.48428 6.4444564,-0.15127 1.404887,1.10508 1.460098,3.70373 0.104429,4.91526 -0.794621,0.71014 -3.3201298,2.08136 -4.2551039,2.31031 -0.4196477,0.10277 -0.6970448,0.32329 -0.6336586,0.50375 0.1761966,0.50162 2.4606913,0.24215 4.5550585,-0.51735 3.26384,-1.18361 4.101042,-1.08756 4.101042,0.47052 0,0.60052 -0.226888,0.90127 -1.091832,1.44728 -3.096535,1.95476 -7.1714495,2.57387 -8.9893541,1.36578 z m 3.0957337,-7.36448 c 0.7967901,-0.74855 0.7939881,-0.91783 -0.024077,-1.45385 -1.2147683,-0.79594 -2.780054,0.0667 -2.780054,1.53202 0,0.79514 0.019473,0.80707 1.0843393,0.66424 0.5971091,-0.0801 1.3698723,-0.41368 1.7197917,-0.74241 z m -87.4013676,7.29287 c -0.317611,-0.22247 -0.656047,-0.8233 -0.752078,-1.3352 -0.158408,-0.84438 -0.215048,-0.89411 -0.610634,-0.53611 -0.8361,0.75666 -2.813611,1.47044 -4.089858,1.47623 -2.225405,0.0101 -3.382902,-1.09151 -3.87535,-3.68818 -0.504722,-2.66138 0.653214,-5.39699 2.940995,-6.94804 1.014381,-0.68772 1.326274,-0.76845 2.513007,-0.65046 l 1.354889,0.1347 0.164164,-1.36642 c 0.09029,-0.75153 0.1652,-3.12434 0.166465,-5.27291 l 0.0023,-3.90649 0.831451,-0.50564 c 0.457297,-0.2781 1.43329,-0.58841 2.168871,-0.68958 1.272831,-0.17506 1.374138,-0.14285 2.097649,0.6669 0.494842,0.55382 0.698333,1.00372 0.582925,1.28878 -0.09752,0.24087 -0.242727,4.9557 -0.322689,10.47741 l -0.145386,10.03947 -0.61001,0.61001 c -0.706178,0.70618 -1.59412,0.78169 -2.41671,0.20553 z m -3.258907,-4.53201 c 0.304205,-0.38673 0.739624,-1.34478 0.9676,-2.12899 0.378486,-1.30195 0.377547,-1.48224 -0.01082,-2.07497 -1.076785,-1.64338 -3.502533,-0.0585 -3.967303,2.59204 -0.146796,0.83716 -0.07062,1.09558 0.487442,1.65365 0.866283,0.86628 1.821273,0.85049 2.523091,-0.0417 z m 10.86239,4.33095 -1.190625,-0.58509 -0.07831,-2.77812 c -0.04307,-1.52797 0.105759,-4.8228 0.330729,-7.32184 0.22497,-2.49904 0.409035,-6.13372 0.409035,-8.07706 0,-4.32744 0.160777,-4.68404 2.105028,-4.66898 2.25583,0.0175 2.142818,-0.55649 1.867432,9.48454 -0.133699,4.87495 -0.317987,9.75651 -0.40953,10.84792 -0.121016,1.44282 -0.34867,2.57377 -0.605659,3.10622 -0.104194,0.21587 -0.21321,0.33336 -0.321896,0.33336 -0.115965,0 -0.369412,0.0549 -0.563214,0.12207 -0.193804,0.0671 -0.88815,-0.14123 -1.542994,-0.46302 z"
         id="path1137"
         inkscape:connector-curvature="0"
         sodipodi:nodetypes="cccccssscccscccccccsccccscsccccscccccccsccccscscccccscccssccccccccccccccscccscccccccccsccssccccsccccccccccsccccccscsccccccccscccccccsccccccccccccscsscccsccccsscccccsccccsccccscssccsscccccscccccscscccccssscscssccc" />
      <path
         style="fill:#de5263;stroke-width:0.26458338"
         d="m -63.778313,156.9794 c -1.469949,-0.52917 -0.738703,-1.93426 -0.257983,-2.36931 0.72916,-0.65988 2.640911,-0.31284 2.746991,0.42863 0.0428,0.29908 -0.179044,1.07532 -0.440104,1.30227 -0.49771,0.43265 -1.780854,0.90646 -2.048904,0.63841 z"
         id="path1143-3"
         inkscape:connector-curvature="0"
         sodipodi:nodetypes="ccccc" />
    </g>
  </g>
</svg>
