<?xml version="1.0" encoding="UTF-8" standalone="no"?>
<!-- Created with Inkscape (http://www.inkscape.org/) -->

<svg
   xmlns:dc="http://purl.org/dc/elements/1.1/"
   xmlns:cc="http://creativecommons.org/ns#"
   xmlns:rdf="http://www.w3.org/1999/02/22-rdf-syntax-ns#"
   xmlns:svg="http://www.w3.org/2000/svg"
   xmlns="http://www.w3.org/2000/svg"
   xmlns:sodipodi="http://sodipodi.sourceforge.net/DTD/sodipodi-0.dtd"
   xmlns:inkscape="http://www.inkscape.org/namespaces/inkscape"
   width="104.38787mm"
   height="73.749161mm"
   viewBox="0 0 104.38787 73.749161"
   version="1.1"
   id="svg8"
   sodipodi:docname="doodlecrown.svg"
   inkscape:version="0.92.5 (2060ec1f9f, 2020-04-08)">
  <defs
     id="defs2" />
  <sodipodi:namedview
     id="base"
     pagecolor="#ffffff"
     bordercolor="#666666"
     borderopacity="1.0"
     inkscape:pageopacity="0.0"
     inkscape:pageshadow="2"
     inkscape:zoom="3.7210123"
     inkscape:cx="194.47882"
     inkscape:cy="119.74704"
     inkscape:document-units="mm"
     inkscape:current-layer="g79"
     showgrid="false"
     inkscape:window-width="1848"
     inkscape:window-height="1016"
     inkscape:window-x="72"
     inkscape:window-y="27"
     inkscape:window-maximized="1"
     fit-margin-top="0"
     fit-margin-left="0"
     fit-margin-right="0"
     fit-margin-bottom="0" />
  <metadata
     id="metadata5">
    <rdf:RDF>
      <cc:Work
         rdf:about="">
        <dc:format>image/svg+xml</dc:format>
        <dc:type
           rdf:resource="http://purl.org/dc/dcmitype/StillImage" />
        <dc:title></dc:title>
      </cc:Work>
    </rdf:RDF>
  </metadata>
  <g
     inkscape:label="Layer 1"
     inkscape:groupmode="layer"
     id="layer1"
     transform="translate(-51.376387,-112.92522)">
    <g
       id="g79"
       transform="translate(1.6158591,-0.65632329)">
      <path
         style="fill:#ebad65;fill-opacity:1;stroke:#ebad65;stroke-width:1.08189499;stroke-miterlimit:4;stroke-dasharray:none;stroke-opacity:1"
         d="m 81.355599,184.10229 c -2.521995,-3.23465 -4.098761,-6.0421 -8.323891,-14.82074 -2.283972,-4.74547 -4.569681,-9.49501 -5.079356,-10.55455 -0.509676,-1.05953 -0.927286,-2.03791 -0.92803,-2.1742 -0.002,-0.36496 3.056378,1.51752 8.984117,5.52991 2.889173,1.95564 6.183134,4.13452 7.319918,4.84196 3.133674,1.95015 4.917596,1.67433 5.55388,-0.85869 0.244623,-0.97385 0.183187,-2.84062 -0.291303,-8.85147 -0.330718,-4.18954 -0.559964,-7.91655 -0.509432,-8.28224 0.07519,-0.54416 1.011016,0.44479 5.153556,5.44607 2.783926,3.36103 5.417252,6.38237 5.851846,6.71409 1.135426,0.86668 2.268656,1.03566 3.259996,0.48613 0.23099,-0.12804 0.4442,-0.27548 0.6475,-0.46416 1.31797,-1.22335 2.21881,-4.18078 4.83989,-14.82923 1.14273,-4.64243 2.1146,-8.48039 2.15974,-8.52878 0.16177,-0.1734 1.51479,1.9635 5.67797,8.96753 5.48008,9.21958 6.2461,10.07346 8.23329,9.17776 1.46135,-0.65867 3.6854,-5.01849 9.74655,-19.10624 1.8585,-4.31965 3.5053,-8.10897 3.65956,-8.42073 0.23035,-0.46549 0.45109,0.038 1.23449,2.81554 1.31579,4.66515 3.29545,10.2224 6.37284,17.88968 1.43605,3.57787 3.0278,7.84563 3.53723,9.48392 1.26972,4.08321 2.35888,9.36866 1.95784,9.5009 -0.1704,0.0562 -1.8028,0.32155 -3.62754,0.58966 -5.06732,0.74454 -12.75002,2.29956 -22.73852,4.60237 -23.47633,5.41238 -33.455464,8.32821 -38.990925,11.39291 l -2.28714,1.26626 z"
         id="path93"
         inkscape:connector-curvature="0"
         sodipodi:nodetypes="cscccscscsccscsccsccscccsccc" />
      <path
         style="fill:#ffffff;stroke:#000000;stroke-width:0.26458332px;stroke-linecap:butt;stroke-linejoin:miter;stroke-opacity:1"
         d="m 51.572562,139.95859 c -0.06116,0.0663 -0.146813,0.0989 -0.215861,0.15418 -0.0227,0.0182 -0.03897,0.0435 -0.06167,0.0617 -0.02894,0.0232 -0.0663,0.0355 -0.09251,0.0617 -0.02621,0.0262 -0.03547,0.0663 -0.06167,0.0925 -0.03634,0.0363 -0.08701,0.0562 -0.123349,0.0925 -0.04654,0.0465 -0.08167,0.10324 -0.123349,0.15418 -0.177278,0.21667 -0.132146,0.14158 -0.277535,0.37005 -0.03218,0.0506 -0.05926,0.10431 -0.09251,0.15418 -0.05562,0.0834 -0.129406,0.16328 -0.185023,0.2467 -0.03325,0.0499 -0.06278,0.10215 -0.09251,0.15419 -0.04821,0.0844 -0.01955,0.0489 -0.06167,0.15418 -0.0085,0.0213 -0.02526,0.0394 -0.03084,0.0617 -0.005,0.0199 0.005,0.0417 0,0.0617 -0.03723,0.14891 -0.01466,-0.002 -0.06168,0.0925 -0.0047,0.009 0,0.0786 0,0.0925 0,0.0719 0,0.1439 0,0.21586 0,0.0206 -0.005,0.0417 0,0.0617 0.0056,0.0223 0.0223,0.0403 0.03084,0.0617 0.01207,0.0302 0.02295,0.061 0.03084,0.0925 0.0025,0.01 -0.0033,0.0211 0,0.0308 0.01454,0.0436 0.04112,0.0822 0.06167,0.12335 0.01028,0.0206 0.02526,0.0394 0.03084,0.0617 0.005,0.02 -0.005,0.0417 0,0.0617 0.0056,0.0223 0.02357,0.0399 0.03084,0.0617 0.0306,0.0918 -0.07302,-0.0633 0.03084,0.0925 0.0081,0.0121 0.02434,0.0178 0.03084,0.0308 0.0046,0.009 -0.0046,0.0216 0,0.0308 0.0065,0.013 0.02434,0.0178 0.03084,0.0308 0.0046,0.009 -0.0046,0.0216 0,0.0308 0.0065,0.013 0.02056,0.0206 0.03084,0.0308 0.01028,0.0103 0.02056,0.0206 0.03084,0.0308 0.03084,0.0308 0.06167,0.0617 0.09251,0.0925 0.01028,0.0103 0.01874,0.0228 0.03084,0.0308 0.01912,0.0127 0.04255,0.0181 0.06167,0.0308 0.0121,0.008 0.01874,0.0228 0.03084,0.0308 0.01912,0.0128 0.04542,0.0146 0.06168,0.0308 0.01625,0.0162 0.01458,0.0454 0.03084,0.0617 0.01625,0.0162 0.04112,0.0205 0.06167,0.0308 0.02056,0.0103 0.03987,0.0236 0.06168,0.0308 0.0098,0.003 0.02108,-0.003 0.03084,0 0.02181,0.007 0.04112,0.0206 0.06167,0.0308 0.02056,0.0103 0.04255,0.0181 0.06168,0.0308 0.01209,0.008 0.01874,0.0228 0.03084,0.0308 -0.0035,0.0584 0.07195,0.0206 0.09251,0.0308 0.026,0.013 0.03567,0.0487 0.06167,0.0617 0.09075,0.0454 -0.0406,-0.0714 0.06167,0.0308 0.01028,0.0103 0.02056,0.0206 0.03084,0.0308 0.01028,0.0103 0.01783,0.0243 0.03084,0.0308 0.0092,0.005 0.02164,-0.005 0.03084,0 0.013,0.007 0.01784,0.0243 0.03084,0.0308 0.01839,0.009 0.04714,-0.0145 0.06168,0 0.0073,0.007 -0.0073,0.0236 0,0.0308 0.01454,0.0145 0.04714,-0.0145 0.06167,0 0.0073,0.007 -0.0073,0.0236 0,0.0308 0.01454,0.0146 0.04217,-0.007 0.06168,0 0.02181,0.007 0.04112,0.0206 0.06167,0.0308 0.02056,0.0103 0.04112,0.0206 0.06168,0.0308 0.02056,0.0206 0.03674,0.0467 0.06167,0.0617 0.250383,0.15023 0.01317,-0.006 0.123349,0.0308 0.0218,0.007 0.03914,0.0263 0.06167,0.0308 0.03024,0.006 0.06227,-0.006 0.09251,0 0.02254,0.005 0.04033,0.0223 0.06167,0.0308 0.03018,0.0121 0.06064,0.0245 0.09251,0.0308 0.02016,0.004 0.04217,-0.007 0.06167,0 0.01379,0.005 0.01673,0.0273 0.03084,0.0308 0.02992,0.007 0.06227,-0.006 0.09251,0 0.02254,0.005 0.03938,0.0253 0.06168,0.0308 0.01994,0.005 0.04173,-0.005 0.06167,0 0.0223,0.006 0.03938,0.0253 0.06168,0.0308 0.01994,0.005 0.04173,-0.005 0.06167,0 0.0223,0.006 0.03938,0.0253 0.06168,0.0308 0.01994,0.005 0.04112,0 0.06167,0 0.02056,0.0103 0.03987,0.0236 0.06167,0.0308 0.02925,0.01 0.06259,-0.007 0.09251,0 0.0223,0.006 0.03938,0.0253 0.06167,0.0308 0.01994,0.005 0.04152,-0.004 0.06167,0 0.160421,0.0321 0.03084,0.0206 0.154186,0.0617 0.02925,0.01 0.06259,-0.007 0.09251,0 0.0223,0.006 0.04033,0.0223 0.06167,0.0308 0.08825,0.0353 0.08187,0.0183 0.154186,0.0617 0.03178,0.0191 0.06073,0.0426 0.09251,0.0617 0.01971,0.0118 0.04329,0.017 0.06167,0.0308 0.02326,0.0174 0.03842,0.0442 0.06168,0.0617 0.124627,0.0935 0.01465,0.005 0.09251,0.0308 0.02723,0.009 0.160622,0.0762 0.185024,0.0925 0.01209,0.008 0.01783,0.0243 0.03084,0.0308 0.02907,0.0145 0.06233,0.0188 0.09251,0.0308 0.04268,0.0171 0.08223,0.0411 0.123348,0.0617 0.02056,0.0103 0.04542,0.0146 0.06167,0.0308 0.01625,0.0162 0.01458,0.0454 0.03084,0.0617 0.002,0.002 0.117605,0.0579 0.123349,0.0617 0.02419,0.0161 0.03748,0.0455 0.06167,0.0617 0.01912,0.0128 0.04542,0.0146 0.06167,0.0308 0.03756,0.0376 0.01444,0.0689 0.06167,0.0925 0.0092,0.005 0.02164,-0.005 0.03084,0 0.03701,0.0185 0.05551,0.074 0.09251,0.0925 0.0092,0.005 0.02357,-0.007 0.03084,0 0.01625,0.0162 0.01458,0.0454 0.03084,0.0617 0.0073,0.007 0.02357,-0.007 0.03084,0 0.0073,0.007 -0.0046,0.0216 0,0.0308 0.0185,0.037 0.07401,0.0555 0.09251,0.0925 0.0046,0.009 -0.0046,0.0216 0,0.0308 0.06417,0.12834 -0.0021,-0.033 0.06168,0.0308 0.0073,0.007 -0.0073,0.0236 0,0.0308 0.0073,0.007 0.02357,-0.007 0.03084,0 0.0073,0.007 -0.0073,0.0236 0,0.0308 0.0073,0.007 0.02164,-0.005 0.03084,0 0.013,0.007 0.02056,0.0206 0.03084,0.0308 0.01028,0.0103 0.02434,0.0178 0.03084,0.0308 0.0046,0.009 -0.0046,0.0216 0,0.0308 0.0065,0.013 0.02056,0.0206 0.03084,0.0308 0.02056,0.0206 0.03842,0.0442 0.06167,0.0617 0.09005,0.0675 0.04242,-0.0154 0.123349,0.0925 0.06754,0.09 -0.01539,0.0424 0.09251,0.12334 0.01839,0.0138 0.04197,0.019 0.06167,0.0308 0.03178,0.0191 0.06286,0.0394 0.09251,0.0617 0.01163,0.009 0.01784,0.0243 0.03084,0.0308 0.0092,0.005 0.02164,-0.005 0.03084,0 0.026,0.013 0.03567,0.0487 0.06167,0.0617 0.0092,0.005 0.02164,-0.005 0.03084,0 0.013,0.007 0.01784,0.0243 0.03084,0.0308 0.0092,0.005 0.02164,-0.005 0.03084,0 0.013,0.006 0.01784,0.0243 0.03084,0.0308 0.0092,0.005 0.02164,-0.005 0.03084,0 0.013,0.007 0.01784,0.0243 0.03084,0.0308 0.0092,0.005 0.02164,-0.005 0.03084,0 0.026,0.013 0.03567,0.0487 0.06167,0.0617 0.01839,0.009 0.04329,-0.009 0.06167,0 0.026,0.013 0.03567,0.0487 0.06168,0.0617 0.01839,0.009 0.04329,-0.009 0.06167,0 0.013,0.007 0.01784,0.0243 0.03084,0.0308 0.0092,0.005 0.02056,0 0.03084,0 0.02056,0 0.04217,-0.007 0.06167,0 0.01379,0.005 0.01705,0.0262 0.03084,0.0308 0.02925,0.01 0.06168,0 0.09251,0 0.07195,0 0.143907,0 0.215861,0 0.133627,0 0.267255,0 0.400883,0 0.02584,0 0.14108,0.007 0.154186,0 0.0092,-0.005 -0.0073,-0.0236 0,-0.0308 0.0082,-0.008 0.134516,0.01 0.154186,0 0.013,-0.007 0.01784,-0.0243 0.03084,-0.0308 0.01839,-0.009 0.04329,0.009 0.06167,0 0.013,-0.007 0.01705,-0.0262 0.03084,-0.0308 1.4e-4,-4e-5 0.09248,3e-5 0.09251,0 0.0073,-0.007 -0.0092,-0.0263 0,-0.0308 0.02758,-0.0138 0.06493,0.0138 0.09251,0 0.013,-0.006 0.01705,-0.0262 0.03084,-0.0308 0.0195,-0.007 0.04112,0 0.06167,0 0.01028,0 0.02164,0.005 0.03084,0 0.013,-0.007 0.01784,-0.0243 0.03084,-0.0308 0.03277,-0.0164 0.0289,0.0164 0.06167,0 0.013,-0.007 0.01705,-0.0263 0.03084,-0.0308 0.0195,-0.007 0.04173,0.005 0.06168,0 0.06686,-0.0167 0.08732,-0.0758 0.154186,-0.0925 0.14038,0 0.0018,0.0145 0.09251,-0.0308 0.0092,-0.005 0.02164,0.005 0.03084,0 0.013,-0.007 0.01874,-0.0228 0.03084,-0.0308 0.01912,-0.0128 0.04255,-0.0181 0.06167,-0.0308 0.02419,-0.0161 0.03567,-0.0487 0.06168,-0.0617 0.0092,-0.005 0.02164,0.005 0.03084,0 0.03701,-0.0185 0.05551,-0.074 0.09251,-0.0925 0.0092,-0.005 0.02164,0.005 0.03084,0 0.01647,-0.008 0.07628,-0.0763 0.09251,-0.0925 0.03084,-0.0308 0.06167,-0.0617 0.09251,-0.0925 0.02056,-0.0206 0.04555,-0.0375 0.06168,-0.0617 0.01275,-0.0191 0.01809,-0.0426 0.03084,-0.0617 0.01613,-0.0242 0.04867,-0.0357 0.06167,-0.0617 0.0046,-0.009 -0.0046,-0.0216 0,-0.0308 0.0065,-0.013 0.02434,-0.0178 0.03084,-0.0308 0.0046,-0.009 -0.0046,-0.0216 0,-0.0308 0.0065,-0.013 0.02434,-0.0178 0.03084,-0.0308 0.0046,-0.009 -0.0046,-0.0216 0,-0.0308 0.0065,-0.013 0.02277,-0.0187 0.03084,-0.0308 0.0131,-0.0197 0.08751,-0.16502 0.09251,-0.18502 0.005,-0.0199 -0.005,-0.0417 0,-0.0617 0.01115,-0.0446 0.05053,-0.0788 0.06167,-0.12335 0.01,-0.0399 -0.01,-0.0835 0,-0.12335 0.0056,-0.0223 0.02526,-0.0394 0.03084,-0.0617 0.005,-0.0199 0,-0.0411 0,-0.0617 0,-0.0514 0,-0.10279 0,-0.15419 0,-0.0617 0,-0.12334 0,-0.18502 0,-0.0206 0.005,-0.0417 0,-0.0617 -0.0056,-0.0223 -0.02526,-0.0394 -0.03084,-0.0617 -0.005,-0.0199 0.004,-0.0415 0,-0.0617 -0.0064,-0.0319 -0.02056,-0.0617 -0.03084,-0.0925 -0.01028,-0.0308 -0.01876,-0.0623 -0.03084,-0.0925 -0.01707,-0.0427 -0.05053,-0.0787 -0.06168,-0.12335 0,-0.20454 0.01454,0.0436 -0.03084,-0.0925 -0.0065,-0.0195 0.0065,-0.0422 0,-0.0617 -0.0046,-0.0138 -0.02434,-0.0178 -0.03084,-0.0308 -0.0046,-0.009 0.0046,-0.0216 0,-0.0308 -0.0065,-0.013 -0.02434,-0.0178 -0.03084,-0.0308 -0.0046,-0.009 0.0033,-0.0211 0,-0.0308 -0.0073,-0.0218 -0.0223,-0.0403 -0.03084,-0.0617 -0.01207,-0.0302 -0.01876,-0.0623 -0.03084,-0.0925 -0.01707,-0.0427 -0.04112,-0.0822 -0.06167,-0.12335 -0.01028,-0.0205 -0.02526,-0.0394 -0.03084,-0.0617 -0.005,-0.0199 0,-0.0411 0,-0.0617 -0.01028,-0.0206 -0.02357,-0.0399 -0.03084,-0.0617 -0.0086,-0.0258 0.01022,-0.10291 0,-0.12335 -0.0065,-0.013 -0.02624,-0.017 -0.03084,-0.0308 -0.0044,-0.0133 0,-0.20381 0,-0.21587 0,-0.12334 0,-0.24669 0,-0.37004 0,-0.12335 0,-0.2467 0,-0.37005 0,-0.0514 -0.01008,-0.10379 0,-0.15418 0.0045,-0.0225 0.02633,-0.0391 0.03084,-0.0617 0.006,-0.0302 0,-0.0617 0,-0.0925 0,-0.0308 0,-0.0617 0,-0.0925 0,-0.0308 -0.0044,-0.062 0,-0.0925 0.006,-0.042 0.02164,-0.082 0.03084,-0.12335 0.01137,-0.0512 0.02056,-0.10279 0.03084,-0.15419 0.01028,-0.0514 0.02434,-0.10218 0.03084,-0.15419 0.0076,-0.0612 -0.01014,-0.12418 0,-0.18502 0.0053,-0.0321 0.02446,-0.0606 0.03084,-0.0925 0.004,-0.0202 0,-0.0411 0,-0.0617 0,-0.0411 -0.0058,-0.0826 0,-0.12334 0.0046,-0.0322 0.02549,-0.0605 0.03084,-0.0925 0.01014,-0.0608 -0.0087,-0.12397 0,-0.18503 0.006,-0.0419 0.0192,-0.0826 0.03084,-0.12335 0.0089,-0.0312 0.02624,-0.0603 0.03084,-0.0925 0.0058,-0.0407 0,-0.0822 0,-0.12335 0,-0.0925 0,-0.18502 0,-0.27753 0,-0.10279 0,-0.20558 0,-0.30837 0,-0.0514 0.0073,-0.10331 0,-0.15419 -0.006,-0.042 -0.02484,-0.0814 -0.03084,-0.12335 -0.0044,-0.0305 0.0044,-0.062 0,-0.0925 -0.006,-0.042 -0.02558,-0.0813 -0.03084,-0.12335 -0.0051,-0.0408 0.0058,-0.0827 0,-0.12335 -0.0092,-0.0644 -0.04892,-0.12127 -0.06167,-0.18502 -0.006,-0.0302 0.0098,-0.0633 0,-0.0925 -0.0073,-0.0218 -0.02357,-0.0399 -0.03084,-0.0617 -0.0033,-0.01 0.0032,-0.0211 0,-0.0308 -0.01454,-0.0436 -0.04714,-0.0797 -0.06168,-0.12334 -0.0033,-0.01 0.0033,-0.0211 0,-0.0308 -0.0073,-0.0218 -0.0223,-0.0403 -0.03084,-0.0617 -0.01207,-0.0302 -0.01876,-0.0623 -0.03084,-0.0925 -0.0085,-0.0213 -0.02056,-0.0411 -0.03084,-0.0617 -0.03084,-0.0617 -0.06168,-0.12335 -0.09251,-0.18503 -0.03084,-0.0617 -0.06167,-0.12334 -0.09251,-0.18502 -0.01028,-0.0206 -0.01458,-0.0454 -0.03084,-0.0617 -0.01625,-0.0163 -0.04255,-0.0181 -0.06167,-0.0308 -0.03629,-0.0242 -0.05623,-0.0683 -0.09251,-0.0925 -0.0086,-0.006 -0.02109,0.003 -0.03084,0 -0.04361,-0.0145 -0.07875,-0.0505 -0.123349,-0.0617 -0.01994,-0.005 -0.04173,0.005 -0.06168,0 -0.0223,-0.006 -0.03987,-0.0236 -0.06167,-0.0308 -0.0098,-0.003 -0.02056,0 -0.03084,0 -0.02056,0 -0.04112,0 -0.06168,0 -0.07195,0 -0.143907,0 -0.21586,0 -0.09251,0 -0.185023,0 -0.277535,0 -0.02258,0 -0.154393,-0.006 -0.185023,0 -0.366617,0.0733 0.243988,-0.015 -0.215861,0.0617 -0.173359,0.0289 0.10114,-0.0645 -0.185023,0.0308 -0.248293,0.0828 -0.06204,0.0478 -0.33921,0.12335 -0.05057,0.0138 -0.103983,0.0158 -0.154186,0.0308 -0.05302,0.0159 -0.102164,0.0428 -0.154186,0.0617 -0.0611,0.0222 -0.122754,0.043 -0.185023,0.0617 -0.04059,0.0122 -0.0826,0.0192 -0.123349,0.0308 -0.06251,0.0179 -0.121954,0.0459 -0.185023,0.0617 -0.01,0.002 -0.02108,-0.003 -0.03084,0 -0.0218,0.007 -0.03938,0.0253 -0.06167,0.0308 -0.01994,0.005 -0.04173,-0.005 -0.06168,0 -0.0223,0.006 -0.03914,0.0263 -0.06167,0.0308 -0.03024,0.006 -0.06227,-0.006 -0.09251,0 -0.02254,0.005 -0.03987,0.0236 -0.06168,0.0308 -0.08041,0.0268 -0.167997,0.0302 -0.246698,0.0617 -0.06402,0.0256 -0.12225,0.064 -0.185023,0.0925 -0.100786,0.0458 -0.207205,0.0784 -0.308372,0.12335 -0.04201,0.0187 -0.0811,0.0436 -0.123349,0.0617 -0.260749,0.11175 0.03406,-0.0162 -0.154186,0.0308 -0.0223,0.006 -0.03987,0.0236 -0.06167,0.0308 -0.0098,0.003 -0.02164,-0.005 -0.03084,0 -0.013,0.007 -0.01783,0.0243 -0.03084,0.0308 -0.0092,0.005 -0.02164,-0.005 -0.03084,0 -0.013,0.006 -0.01705,0.0262 -0.03084,0.0308 -0.0195,0.007 -0.04217,-0.007 -0.06168,0 -0.01379,0.005 -0.01784,0.0243 -0.03084,0.0308 -0.0092,0.005 -0.02108,-0.003 -0.03084,0 -0.02181,0.007 -0.04112,0.0206 -0.06168,0.0308 -0.06167,0.0308 -0.123349,0.0617 -0.185023,0.0925 -0.04112,0.0206 -0.07974,0.0471 -0.123349,0.0617 -0.0098,0.003 -0.02164,-0.005 -0.03084,0 -0.013,0.007 -0.01784,0.0243 -0.03084,0.0308 -0.01839,0.009 -0.04329,-0.009 -0.06168,0 -0.013,0.006 -0.01783,0.0243 -0.03084,0.0308 -0.0092,0.005 -0.02164,-0.005 -0.03084,0 -0.013,0.007 -0.01874,0.0228 -0.03084,0.0308 -0.01912,0.0127 -0.04255,0.0181 -0.06167,0.0308 -0.01209,0.008 -0.01784,0.0243 -0.03084,0.0308 -0.02907,0.0145 -0.06464,0.0141 -0.09251,0.0308 -0.02493,0.015 -0.03842,0.0442 -0.06167,0.0617 -0.04764,0.0357 -0.133672,0.0583 -0.185023,0.0925 -0.02419,0.0161 -0.03567,0.0487 -0.06167,0.0617 -0.0092,0.005 -0.02164,-0.005 -0.03084,0 -0.013,0.006 -0.01784,0.0243 -0.03084,0.0308 -0.01839,0.009 -0.04329,-0.009 -0.06168,0 -0.026,0.013 -0.03748,0.0455 -0.06167,0.0617 -0.0057,0.004 -0.121373,0.0597 -0.123349,0.0617 -0.01625,0.0163 -0.01245,0.0479 -0.03084,0.0617 -0.01347,0.10843 -0.08808,0.007 -0.123349,0.0308 -0.02419,0.0161 -0.03842,0.0442 -0.06168,0.0617 -0.189303,0.14198 0.05902,-0.0603 -0.123349,0.0308 -0.037,0.0185 -0.05551,0.074 -0.09251,0.0925 -0.0092,0.005 -0.02164,-0.005 -0.03084,0 -0.02733,0.0137 -0.06444,0.0738 -0.09251,0.0925 -0.01553,0.0679 -0.06344,0.0163 -0.09251,0.0308 -0.026,0.013 -0.03567,0.0487 -0.06167,0.0617 -0.0092,0.005 -0.02164,-0.005 -0.03084,0 -0.013,0.007 -0.01783,0.0243 -0.03084,0.0308 -0.01839,0.009 -0.04329,-0.009 -0.06167,0 -0.026,0.013 -0.03748,0.0455 -0.06167,0.0617 -0.01913,0.0128 -0.04255,0.0181 -0.06168,0.0308 -0.01209,0.008 -0.01783,0.0243 -0.03084,0.0308 -0.01839,0.009 -0.04714,-0.0145 -0.06168,0 -0.0073,0.007 0.0073,0.0236 0,0.0308 -0.0073,0.007 -0.02357,-0.007 -0.03084,0 -0.0073,0.007 0,0.0205 0,0.0308 0,0.0967 -0.0037,0.0542 0.06168,0.18503 z"
         id="path15"
         inkscape:connector-curvature="0" />
      <path
         style="fill:#ffffff;stroke:#000000;stroke-width:0.26458332px;stroke-linecap:butt;stroke-linejoin:miter;stroke-opacity:1"
         d="m 73.924963,130.35006 c -0.06116,0.0663 -0.146813,0.0989 -0.215861,0.15418 -0.0227,0.0182 -0.03897,0.0435 -0.06167,0.0617 -0.02894,0.0232 -0.0663,0.0355 -0.09251,0.0617 -0.02621,0.0262 -0.03547,0.0663 -0.06167,0.0925 -0.03634,0.0363 -0.08701,0.0562 -0.123349,0.0925 -0.04654,0.0465 -0.08167,0.10324 -0.123349,0.15418 -0.177278,0.21667 -0.132146,0.14158 -0.277535,0.37005 -0.03218,0.0506 -0.05926,0.10431 -0.09251,0.15418 -0.05562,0.0834 -0.129406,0.16328 -0.185023,0.2467 -0.03325,0.0499 -0.06278,0.10215 -0.09251,0.15419 -0.04821,0.0844 -0.01955,0.0489 -0.06167,0.15418 -0.0085,0.0213 -0.02526,0.0394 -0.03084,0.0617 -0.005,0.0199 0.005,0.0417 0,0.0617 -0.03723,0.14891 -0.01466,-0.002 -0.06168,0.0925 -0.0047,0.009 0,0.0786 0,0.0925 0,0.0719 0,0.1439 0,0.21586 0,0.0206 -0.005,0.0417 0,0.0617 0.0056,0.0223 0.0223,0.0403 0.03084,0.0617 0.01207,0.0302 0.02295,0.061 0.03084,0.0925 0.0025,0.01 -0.0033,0.0211 0,0.0308 0.01454,0.0436 0.04112,0.0822 0.06167,0.12335 0.01028,0.0206 0.02526,0.0394 0.03084,0.0617 0.005,0.02 -0.005,0.0417 0,0.0617 0.0056,0.0223 0.02357,0.0399 0.03084,0.0617 0.0306,0.0918 -0.07302,-0.0633 0.03084,0.0925 0.0081,0.0121 0.02434,0.0178 0.03084,0.0308 0.0046,0.009 -0.0046,0.0216 0,0.0308 0.0065,0.013 0.02434,0.0178 0.03084,0.0308 0.0046,0.009 -0.0046,0.0216 0,0.0308 0.0065,0.013 0.02056,0.0206 0.03084,0.0308 0.01028,0.0103 0.02056,0.0206 0.03084,0.0308 0.03084,0.0308 0.06167,0.0617 0.09251,0.0925 0.01028,0.0103 0.01874,0.0228 0.03084,0.0308 0.01912,0.0127 0.04255,0.0181 0.06167,0.0308 0.0121,0.008 0.01874,0.0228 0.03084,0.0308 0.01912,0.0128 0.04542,0.0146 0.06168,0.0308 0.01625,0.0162 0.01458,0.0454 0.03084,0.0617 0.01625,0.0162 0.04112,0.0205 0.06167,0.0308 0.02056,0.0103 0.03987,0.0236 0.06168,0.0308 0.0098,0.003 0.02108,-0.003 0.03084,0 0.02181,0.007 0.04112,0.0206 0.06167,0.0308 0.02056,0.0103 0.04255,0.0181 0.06168,0.0308 0.01209,0.008 0.01874,0.0228 0.03084,0.0308 -0.0035,0.0584 0.07195,0.0206 0.09251,0.0308 0.026,0.013 0.03567,0.0487 0.06167,0.0617 0.09075,0.0454 -0.0406,-0.0714 0.06167,0.0308 0.01028,0.0103 0.02056,0.0206 0.03084,0.0308 0.01028,0.0103 0.01783,0.0243 0.03084,0.0308 0.0092,0.005 0.02164,-0.005 0.03084,0 0.013,0.007 0.01784,0.0243 0.03084,0.0308 0.01839,0.009 0.04714,-0.0145 0.06168,0 0.0073,0.007 -0.0073,0.0236 0,0.0308 0.01454,0.0145 0.04714,-0.0145 0.06167,0 0.0073,0.007 -0.0073,0.0236 0,0.0308 0.01454,0.0146 0.04217,-0.007 0.06168,0 0.02181,0.007 0.04112,0.0206 0.06167,0.0308 0.02056,0.0103 0.04112,0.0206 0.06168,0.0308 0.02056,0.0206 0.03674,0.0467 0.06167,0.0617 0.250383,0.15023 0.01317,-0.006 0.123349,0.0308 0.0218,0.007 0.03914,0.0263 0.06167,0.0308 0.03024,0.006 0.06227,-0.006 0.09251,0 0.02254,0.005 0.04033,0.0223 0.06167,0.0308 0.03018,0.0121 0.06064,0.0245 0.09251,0.0308 0.02016,0.004 0.04217,-0.007 0.06167,0 0.01379,0.005 0.01673,0.0273 0.03084,0.0308 0.02992,0.007 0.06227,-0.006 0.09251,0 0.02254,0.005 0.03938,0.0253 0.06168,0.0308 0.01994,0.005 0.04173,-0.005 0.06167,0 0.0223,0.006 0.03938,0.0253 0.06168,0.0308 0.01994,0.005 0.04173,-0.005 0.06167,0 0.0223,0.006 0.03938,0.0253 0.06168,0.0308 0.01994,0.005 0.04112,0 0.06167,0 0.02056,0.0103 0.03987,0.0236 0.06167,0.0308 0.02925,0.01 0.06259,-0.007 0.09251,0 0.0223,0.006 0.03938,0.0253 0.06167,0.0308 0.01994,0.005 0.04152,-0.004 0.06167,0 0.160421,0.0321 0.03084,0.0206 0.154186,0.0617 0.02925,0.01 0.06259,-0.007 0.09251,0 0.0223,0.006 0.04033,0.0223 0.06167,0.0308 0.08825,0.0353 0.08187,0.0183 0.154186,0.0617 0.03178,0.0191 0.06073,0.0426 0.09251,0.0617 0.01971,0.0118 0.04329,0.017 0.06167,0.0308 0.02326,0.0174 0.03842,0.0442 0.06168,0.0617 0.124627,0.0935 0.01465,0.005 0.09251,0.0308 0.02723,0.009 0.160622,0.0762 0.185024,0.0925 0.01209,0.008 0.01783,0.0243 0.03084,0.0308 0.02907,0.0145 0.06233,0.0188 0.09251,0.0308 0.04268,0.0171 0.08223,0.0411 0.123348,0.0617 0.02056,0.0103 0.04542,0.0146 0.06167,0.0308 0.01625,0.0162 0.01458,0.0454 0.03084,0.0617 0.002,0.002 0.117605,0.0579 0.123349,0.0617 0.02419,0.0161 0.03748,0.0455 0.06167,0.0617 0.01912,0.0128 0.04542,0.0146 0.06167,0.0308 0.03756,0.0376 0.01444,0.0689 0.06167,0.0925 0.0092,0.005 0.02164,-0.005 0.03084,0 0.03701,0.0185 0.05551,0.074 0.09251,0.0925 0.0092,0.005 0.02357,-0.007 0.03084,0 0.01625,0.0162 0.01458,0.0454 0.03084,0.0617 0.0073,0.007 0.02357,-0.007 0.03084,0 0.0073,0.007 -0.0046,0.0216 0,0.0308 0.0185,0.037 0.07401,0.0555 0.09251,0.0925 0.0046,0.009 -0.0046,0.0216 0,0.0308 0.06417,0.12834 -0.0021,-0.033 0.06168,0.0308 0.0073,0.007 -0.0073,0.0236 0,0.0308 0.0073,0.007 0.02357,-0.007 0.03084,0 0.0073,0.007 -0.0073,0.0236 0,0.0308 0.0073,0.007 0.02164,-0.005 0.03084,0 0.013,0.007 0.02056,0.0206 0.03084,0.0308 0.01028,0.0103 0.02434,0.0178 0.03084,0.0308 0.0046,0.009 -0.0046,0.0216 0,0.0308 0.0065,0.013 0.02056,0.0206 0.03084,0.0308 0.02056,0.0206 0.03842,0.0442 0.06167,0.0617 0.09005,0.0675 0.04242,-0.0154 0.123348,0.0925 0.06754,0.09 -0.01539,0.0424 0.09251,0.12334 0.01839,0.0138 0.04197,0.019 0.06167,0.0308 0.03178,0.0191 0.06286,0.0394 0.09251,0.0617 0.01163,0.009 0.01784,0.0243 0.03084,0.0308 0.0092,0.005 0.02164,-0.005 0.03084,0 0.026,0.013 0.03567,0.0487 0.06167,0.0617 0.0092,0.005 0.02164,-0.005 0.03084,0 0.013,0.007 0.01784,0.0243 0.03084,0.0308 0.0092,0.005 0.02164,-0.005 0.03084,0 0.013,0.006 0.01784,0.0243 0.03084,0.0308 0.0092,0.005 0.02164,-0.005 0.03084,0 0.013,0.007 0.01784,0.0243 0.03084,0.0308 0.0092,0.005 0.02164,-0.005 0.03084,0 0.026,0.013 0.03567,0.0487 0.06167,0.0617 0.01839,0.009 0.04329,-0.009 0.06167,0 0.026,0.013 0.03567,0.0487 0.06168,0.0617 0.01839,0.009 0.04329,-0.009 0.06167,0 0.013,0.007 0.01784,0.0243 0.03084,0.0308 0.0092,0.005 0.02056,0 0.03084,0 0.02056,0 0.04217,-0.007 0.06167,0 0.01379,0.005 0.01705,0.0262 0.03084,0.0308 0.02925,0.01 0.06168,0 0.09251,0 0.07195,0 0.143907,0 0.215861,0 0.133627,0 0.267255,0 0.400883,0 0.02584,0 0.14108,0.007 0.154187,0 0.0092,-0.005 -0.0073,-0.0236 0,-0.0308 0.0082,-0.008 0.134516,0.01 0.154185,0 0.013,-0.007 0.01784,-0.0243 0.03084,-0.0308 0.01839,-0.009 0.04329,0.009 0.06167,0 0.013,-0.007 0.01705,-0.0262 0.03084,-0.0308 1.39e-4,-4e-5 0.09248,3e-5 0.09251,0 0.0073,-0.007 -0.0092,-0.0263 0,-0.0308 0.02758,-0.0138 0.06493,0.0138 0.09251,0 0.013,-0.006 0.01705,-0.0262 0.03084,-0.0308 0.0195,-0.007 0.04112,0 0.06167,0 0.01028,0 0.02164,0.005 0.03084,0 0.013,-0.007 0.01784,-0.0243 0.03084,-0.0308 0.03277,-0.0164 0.0289,0.0164 0.06167,0 0.013,-0.007 0.01705,-0.0263 0.03084,-0.0308 0.0195,-0.007 0.04173,0.005 0.06168,0 0.06686,-0.0167 0.08732,-0.0758 0.154185,-0.0925 0.14038,0 0.0018,0.0145 0.09251,-0.0308 0.0092,-0.005 0.02164,0.005 0.03084,0 0.013,-0.007 0.01874,-0.0228 0.03084,-0.0308 0.01912,-0.0128 0.04255,-0.0181 0.06167,-0.0308 0.02419,-0.0161 0.03567,-0.0487 0.06168,-0.0617 0.0092,-0.005 0.02164,0.005 0.03084,0 0.03701,-0.0185 0.05551,-0.074 0.09251,-0.0925 0.0092,-0.005 0.02164,0.005 0.03084,0 0.01647,-0.008 0.07628,-0.0763 0.09251,-0.0925 0.03084,-0.0308 0.06167,-0.0617 0.09251,-0.0925 0.02056,-0.0206 0.04555,-0.0375 0.06168,-0.0617 0.01275,-0.0191 0.01809,-0.0426 0.03084,-0.0617 0.01613,-0.0242 0.04867,-0.0357 0.06167,-0.0617 0.0046,-0.009 -0.0046,-0.0216 0,-0.0308 0.0065,-0.013 0.02434,-0.0178 0.03084,-0.0308 0.0046,-0.009 -0.0046,-0.0216 0,-0.0308 0.0065,-0.013 0.02434,-0.0178 0.03084,-0.0308 0.0046,-0.009 -0.0046,-0.0216 0,-0.0308 0.0065,-0.013 0.02277,-0.0187 0.03084,-0.0308 0.0131,-0.0197 0.08751,-0.16502 0.09251,-0.18502 0.005,-0.0199 -0.005,-0.0417 0,-0.0617 0.01115,-0.0446 0.05053,-0.0788 0.06167,-0.12335 0.01,-0.0399 -0.01,-0.0835 0,-0.12335 0.0056,-0.0223 0.02526,-0.0394 0.03084,-0.0617 0.005,-0.0199 0,-0.0411 0,-0.0617 0,-0.0514 0,-0.10279 0,-0.15419 0,-0.0617 0,-0.12334 0,-0.18502 0,-0.0206 0.005,-0.0417 0,-0.0617 -0.0056,-0.0223 -0.02526,-0.0394 -0.03084,-0.0617 -0.005,-0.0199 0.004,-0.0415 0,-0.0617 -0.0064,-0.0319 -0.02056,-0.0617 -0.03084,-0.0925 -0.01028,-0.0308 -0.01876,-0.0623 -0.03084,-0.0925 -0.01707,-0.0427 -0.05053,-0.0787 -0.06168,-0.12335 0,-0.20454 0.01454,0.0436 -0.03084,-0.0925 -0.0065,-0.0195 0.0065,-0.0422 0,-0.0617 -0.0046,-0.0138 -0.02434,-0.0178 -0.03084,-0.0308 -0.0046,-0.009 0.0046,-0.0216 0,-0.0308 -0.0065,-0.013 -0.02434,-0.0178 -0.03084,-0.0308 -0.0046,-0.009 0.0033,-0.0211 0,-0.0308 -0.0073,-0.0218 -0.0223,-0.0403 -0.03084,-0.0617 -0.01207,-0.0302 -0.01876,-0.0623 -0.03084,-0.0925 -0.01707,-0.0427 -0.04112,-0.0822 -0.06167,-0.12335 -0.01028,-0.0205 -0.02526,-0.0394 -0.03084,-0.0617 -0.005,-0.0199 0,-0.0411 0,-0.0617 -0.01028,-0.0206 -0.02357,-0.0399 -0.03084,-0.0617 -0.0086,-0.0258 0.01022,-0.10291 0,-0.12335 -0.0065,-0.013 -0.02624,-0.017 -0.03084,-0.0308 -0.0044,-0.0133 0,-0.20381 0,-0.21587 0,-0.12334 0,-0.24669 0,-0.37004 0,-0.12335 0,-0.2467 0,-0.37005 0,-0.0514 -0.01008,-0.10379 0,-0.15418 0.0045,-0.0225 0.02633,-0.0391 0.03084,-0.0617 0.006,-0.0302 0,-0.0617 0,-0.0925 0,-0.0308 0,-0.0617 0,-0.0925 0,-0.0308 -0.0044,-0.062 0,-0.0925 0.006,-0.042 0.02164,-0.082 0.03084,-0.12335 0.01137,-0.0512 0.02056,-0.10279 0.03084,-0.15419 0.01028,-0.0514 0.02434,-0.10218 0.03084,-0.15419 0.0076,-0.0612 -0.01014,-0.12418 0,-0.18502 0.0053,-0.0321 0.02446,-0.0606 0.03084,-0.0925 0.004,-0.0202 0,-0.0411 0,-0.0617 0,-0.0411 -0.0058,-0.0826 0,-0.12334 0.0046,-0.0322 0.02549,-0.0605 0.03084,-0.0925 0.01014,-0.0608 -0.0087,-0.12397 0,-0.18503 0.006,-0.0419 0.0192,-0.0826 0.03084,-0.12335 0.0089,-0.0312 0.02624,-0.0603 0.03084,-0.0925 0.0058,-0.0407 0,-0.0822 0,-0.12335 0,-0.0925 0,-0.18502 0,-0.27753 0,-0.10279 0,-0.20558 0,-0.30837 0,-0.0514 0.0073,-0.10331 0,-0.15419 -0.006,-0.042 -0.02484,-0.0814 -0.03084,-0.12335 -0.0044,-0.0305 0.0044,-0.062 0,-0.0925 -0.006,-0.042 -0.02558,-0.0813 -0.03084,-0.12335 -0.0051,-0.0408 0.0058,-0.0827 0,-0.12335 -0.0092,-0.0644 -0.04892,-0.12127 -0.06167,-0.18502 -0.006,-0.0302 0.0098,-0.0633 0,-0.0925 -0.0073,-0.0218 -0.02357,-0.0399 -0.03084,-0.0617 -0.0033,-0.01 0.0032,-0.0211 0,-0.0308 -0.01454,-0.0436 -0.04714,-0.0797 -0.06168,-0.12334 -0.0033,-0.01 0.0033,-0.0211 0,-0.0308 -0.0073,-0.0218 -0.0223,-0.0403 -0.03084,-0.0617 -0.01207,-0.0302 -0.01876,-0.0623 -0.03084,-0.0925 -0.0085,-0.0213 -0.02056,-0.0411 -0.03084,-0.0617 -0.03084,-0.0617 -0.06168,-0.12335 -0.09251,-0.18503 -0.03084,-0.0617 -0.06167,-0.12334 -0.09251,-0.18502 -0.01028,-0.0206 -0.01458,-0.0454 -0.03084,-0.0617 -0.01625,-0.0163 -0.04255,-0.0181 -0.06167,-0.0308 -0.03629,-0.0242 -0.05623,-0.0683 -0.09251,-0.0925 -0.0086,-0.006 -0.02109,0.003 -0.03084,0 -0.04361,-0.0145 -0.07875,-0.0505 -0.123349,-0.0617 -0.01994,-0.005 -0.04173,0.005 -0.06168,0 -0.0223,-0.006 -0.03987,-0.0236 -0.06167,-0.0308 -0.0098,-0.003 -0.02056,0 -0.03084,0 -0.02056,0 -0.04112,0 -0.06168,0 -0.07195,0 -0.143906,0 -0.21586,0 -0.09251,0 -0.185023,0 -0.277535,0 -0.02258,0 -0.154393,-0.006 -0.185022,0 -0.366618,0.0733 0.243987,-0.015 -0.215862,0.0617 -0.173359,0.0289 0.10114,-0.0645 -0.185023,0.0308 -0.248293,0.0828 -0.06204,0.0478 -0.33921,0.12335 -0.05057,0.0138 -0.103983,0.0158 -0.154186,0.0308 -0.05302,0.0159 -0.102164,0.0428 -0.154186,0.0617 -0.0611,0.0222 -0.122754,0.043 -0.185023,0.0617 -0.04059,0.0122 -0.0826,0.0192 -0.123349,0.0308 -0.06251,0.0179 -0.121954,0.0459 -0.185023,0.0617 -0.01,0.002 -0.02108,-0.003 -0.03084,0 -0.0218,0.007 -0.03938,0.0253 -0.06167,0.0308 -0.01994,0.005 -0.04173,-0.005 -0.06168,0 -0.0223,0.006 -0.03914,0.0263 -0.06167,0.0308 -0.03024,0.006 -0.06227,-0.006 -0.09251,0 -0.02254,0.005 -0.03987,0.0236 -0.06168,0.0308 -0.08041,0.0268 -0.167997,0.0302 -0.246698,0.0617 -0.06402,0.0256 -0.12225,0.064 -0.185023,0.0925 -0.100786,0.0458 -0.207205,0.0784 -0.308372,0.12335 -0.04201,0.0187 -0.0811,0.0436 -0.123349,0.0617 -0.260749,0.11175 0.03406,-0.0162 -0.154186,0.0308 -0.0223,0.006 -0.03987,0.0236 -0.06167,0.0308 -0.0098,0.003 -0.02164,-0.005 -0.03084,0 -0.013,0.007 -0.01783,0.0243 -0.03084,0.0308 -0.0092,0.005 -0.02164,-0.005 -0.03084,0 -0.013,0.006 -0.01705,0.0262 -0.03084,0.0308 -0.0195,0.007 -0.04217,-0.007 -0.06168,0 -0.01379,0.005 -0.01784,0.0243 -0.03084,0.0308 -0.0092,0.005 -0.02108,-0.003 -0.03084,0 -0.02181,0.007 -0.04112,0.0206 -0.06168,0.0308 -0.06167,0.0308 -0.123349,0.0617 -0.185023,0.0925 -0.04112,0.0206 -0.07974,0.0471 -0.123349,0.0617 -0.0098,0.003 -0.02164,-0.005 -0.03084,0 -0.013,0.007 -0.01784,0.0243 -0.03084,0.0308 -0.01839,0.009 -0.04329,-0.009 -0.06168,0 -0.013,0.006 -0.01783,0.0243 -0.03084,0.0308 -0.0092,0.005 -0.02164,-0.005 -0.03084,0 -0.013,0.007 -0.01874,0.0228 -0.03084,0.0308 -0.01912,0.0127 -0.04255,0.0181 -0.06167,0.0308 -0.01209,0.008 -0.01784,0.0243 -0.03084,0.0308 -0.02907,0.0145 -0.06464,0.0141 -0.09251,0.0308 -0.02493,0.015 -0.03842,0.0442 -0.06167,0.0617 -0.04764,0.0357 -0.133672,0.0583 -0.185023,0.0925 -0.02419,0.0161 -0.03567,0.0487 -0.06167,0.0617 -0.0092,0.005 -0.02164,-0.005 -0.03084,0 -0.013,0.006 -0.01784,0.0243 -0.03084,0.0308 -0.01839,0.009 -0.04329,-0.009 -0.06168,0 -0.026,0.013 -0.03748,0.0455 -0.06167,0.0617 -0.0057,0.004 -0.121373,0.0597 -0.123349,0.0617 -0.01625,0.0163 -0.01245,0.0479 -0.03084,0.0617 -0.01347,0.10843 -0.08808,0.007 -0.123349,0.0308 -0.02419,0.0161 -0.03842,0.0442 -0.06168,0.0617 -0.189303,0.14198 0.05902,-0.0603 -0.123349,0.0308 -0.037,0.0185 -0.05551,0.074 -0.09251,0.0925 -0.0092,0.005 -0.02164,-0.005 -0.03084,0 -0.02733,0.0137 -0.06444,0.0738 -0.09251,0.0925 -0.01553,0.0679 -0.06344,0.0163 -0.09251,0.0308 -0.026,0.013 -0.03567,0.0487 -0.06167,0.0617 -0.0092,0.005 -0.02164,-0.005 -0.03084,0 -0.013,0.007 -0.01783,0.0243 -0.03084,0.0308 -0.01839,0.009 -0.04329,-0.009 -0.06167,0 -0.026,0.013 -0.03748,0.0455 -0.06167,0.0617 -0.01913,0.0128 -0.04255,0.0181 -0.06168,0.0308 -0.01209,0.008 -0.01783,0.0243 -0.03084,0.0308 -0.01839,0.009 -0.04714,-0.0145 -0.06168,0 -0.0073,0.007 0.0073,0.0236 0,0.0308 -0.0073,0.007 -0.02357,-0.007 -0.03084,0 -0.0073,0.007 0,0.0205 0,0.0308 0,0.0967 -0.0037,0.0542 0.06168,0.18503 z"
         id="path15-3"
         inkscape:connector-curvature="0" />
      <path
         style="fill:#ffffff;stroke:#000000;stroke-width:0.26458332px;stroke-linecap:butt;stroke-linejoin:miter;stroke-opacity:1"
         d="m 98.180082,122.99447 c -0.06116,0.0663 -0.146813,0.0989 -0.215861,0.15418 -0.0227,0.0182 -0.03897,0.0435 -0.06167,0.0617 -0.02894,0.0232 -0.0663,0.0355 -0.09251,0.0617 -0.02621,0.0262 -0.03547,0.0663 -0.06167,0.0925 -0.03634,0.0363 -0.08701,0.0562 -0.123349,0.0925 -0.04654,0.0465 -0.08167,0.10324 -0.123349,0.15418 -0.177278,0.21667 -0.132146,0.14158 -0.277535,0.37005 -0.03218,0.0506 -0.05926,0.10431 -0.09251,0.15418 -0.05562,0.0834 -0.129406,0.16328 -0.185023,0.2467 -0.03325,0.0499 -0.06278,0.10215 -0.09251,0.15419 -0.04821,0.0844 -0.01955,0.0489 -0.06167,0.15418 -0.0085,0.0213 -0.02526,0.0394 -0.03084,0.0617 -0.005,0.0199 0.005,0.0417 0,0.0617 -0.03723,0.14891 -0.01466,-0.002 -0.06168,0.0925 -0.0047,0.009 0,0.0786 0,0.0925 0,0.0719 0,0.1439 0,0.21586 0,0.0206 -0.005,0.0417 0,0.0617 0.0056,0.0223 0.0223,0.0403 0.03084,0.0617 0.01207,0.0302 0.02295,0.061 0.03084,0.0925 0.0025,0.01 -0.0033,0.0211 0,0.0308 0.01454,0.0436 0.04112,0.0822 0.06167,0.12335 0.01028,0.0206 0.02526,0.0394 0.03084,0.0617 0.005,0.02 -0.005,0.0417 0,0.0617 0.0056,0.0223 0.02357,0.0399 0.03084,0.0617 0.0306,0.0918 -0.07302,-0.0633 0.03084,0.0925 0.0081,0.0121 0.02434,0.0178 0.03084,0.0308 0.0046,0.009 -0.0046,0.0216 0,0.0308 0.0065,0.013 0.02434,0.0178 0.03084,0.0308 0.0046,0.009 -0.0046,0.0216 0,0.0308 0.0065,0.013 0.02056,0.0206 0.03084,0.0308 0.01028,0.0103 0.02056,0.0206 0.03084,0.0308 0.03084,0.0308 0.06167,0.0617 0.09251,0.0925 0.01028,0.0103 0.01874,0.0228 0.03084,0.0308 0.01912,0.0127 0.04255,0.0181 0.06167,0.0308 0.0121,0.008 0.01874,0.0228 0.03084,0.0308 0.01912,0.0128 0.04542,0.0146 0.06168,0.0308 0.01625,0.0162 0.01458,0.0454 0.03084,0.0617 0.01625,0.0162 0.04112,0.0205 0.06167,0.0308 0.02056,0.0103 0.03987,0.0236 0.06168,0.0308 0.0098,0.003 0.02108,-0.003 0.03084,0 0.02181,0.007 0.04112,0.0206 0.06167,0.0308 0.02056,0.0103 0.04255,0.0181 0.06168,0.0308 0.01209,0.008 0.01874,0.0228 0.03084,0.0308 -0.0035,0.0584 0.07195,0.0206 0.09251,0.0308 0.026,0.013 0.03567,0.0487 0.06167,0.0617 0.09075,0.0454 -0.0406,-0.0714 0.06167,0.0308 0.01028,0.0103 0.02056,0.0206 0.03084,0.0308 0.01028,0.0103 0.01783,0.0243 0.03084,0.0308 0.0092,0.005 0.02164,-0.005 0.03084,0 0.013,0.007 0.01784,0.0243 0.03084,0.0308 0.01839,0.009 0.04714,-0.0145 0.06168,0 0.0073,0.007 -0.0073,0.0236 0,0.0308 0.01454,0.0145 0.04714,-0.0145 0.06167,0 0.0073,0.007 -0.0073,0.0236 0,0.0308 0.01454,0.0146 0.04217,-0.007 0.06168,0 0.02181,0.007 0.04112,0.0206 0.06167,0.0308 0.02056,0.0103 0.04112,0.0206 0.06168,0.0308 0.02056,0.0206 0.03674,0.0467 0.06167,0.0617 0.250383,0.15023 0.01317,-0.006 0.123349,0.0308 0.0218,0.007 0.03914,0.0263 0.06167,0.0308 0.03024,0.006 0.06227,-0.006 0.09251,0 0.02254,0.005 0.04033,0.0223 0.06167,0.0308 0.03018,0.0121 0.06064,0.0245 0.09251,0.0308 0.02016,0.004 0.04217,-0.007 0.06167,0 0.01379,0.005 0.01673,0.0273 0.03084,0.0308 0.02992,0.007 0.06227,-0.006 0.09251,0 0.02254,0.005 0.03938,0.0253 0.06168,0.0308 0.01994,0.005 0.04173,-0.005 0.06167,0 0.0223,0.006 0.03938,0.0253 0.06168,0.0308 0.01994,0.005 0.04173,-0.005 0.06167,0 0.0223,0.006 0.03938,0.0253 0.06168,0.0308 0.01994,0.005 0.04112,0 0.06167,0 0.02056,0.0103 0.03987,0.0236 0.06167,0.0308 0.02925,0.01 0.06259,-0.007 0.09251,0 0.0223,0.006 0.03938,0.0253 0.06167,0.0308 0.01994,0.005 0.04152,-0.004 0.06167,0 0.160421,0.0321 0.03084,0.0206 0.154186,0.0617 0.02925,0.01 0.06259,-0.007 0.09251,0 0.0223,0.006 0.04033,0.0223 0.06167,0.0308 0.08825,0.0353 0.08187,0.0183 0.15419,0.0617 0.0318,0.0191 0.0607,0.0426 0.0925,0.0617 0.0197,0.0118 0.0433,0.017 0.0617,0.0308 0.0233,0.0174 0.0384,0.0442 0.0617,0.0617 0.12462,0.0935 0.0147,0.005 0.0925,0.0308 0.0272,0.009 0.16062,0.0762 0.18502,0.0925 0.0121,0.008 0.0178,0.0243 0.0308,0.0308 0.0291,0.0145 0.0623,0.0188 0.0925,0.0308 0.0427,0.0171 0.0822,0.0411 0.12335,0.0617 0.0206,0.0103 0.0454,0.0146 0.0617,0.0308 0.0162,0.0162 0.0146,0.0454 0.0308,0.0617 0.002,0.002 0.11761,0.0579 0.12335,0.0617 0.0242,0.0161 0.0375,0.0455 0.0617,0.0617 0.0191,0.0128 0.0454,0.0146 0.0617,0.0308 0.0376,0.0376 0.0144,0.0689 0.0617,0.0925 0.009,0.005 0.0216,-0.005 0.0308,0 0.037,0.0185 0.0555,0.074 0.0925,0.0925 0.009,0.005 0.0236,-0.007 0.0308,0 0.0162,0.0162 0.0146,0.0454 0.0308,0.0617 0.007,0.007 0.0236,-0.007 0.0308,0 0.007,0.007 -0.005,0.0216 0,0.0308 0.0185,0.037 0.074,0.0555 0.0925,0.0925 0.005,0.009 -0.005,0.0216 0,0.0308 0.0642,0.12834 -0.002,-0.033 0.0617,0.0308 0.007,0.007 -0.007,0.0236 0,0.0308 0.007,0.007 0.0236,-0.007 0.0308,0 0.007,0.007 -0.007,0.0236 0,0.0308 0.007,0.007 0.0216,-0.005 0.0308,0 0.013,0.007 0.0206,0.0206 0.0308,0.0308 0.0103,0.0103 0.0243,0.0178 0.0308,0.0308 0.005,0.009 -0.005,0.0216 0,0.0308 0.007,0.013 0.0206,0.0206 0.0308,0.0308 0.0206,0.0206 0.0384,0.0442 0.0617,0.0617 0.09,0.0675 0.0424,-0.0154 0.12335,0.0925 0.0675,0.09 -0.0154,0.0424 0.0925,0.12334 0.0184,0.0138 0.042,0.019 0.0617,0.0308 0.0318,0.0191 0.0629,0.0394 0.0925,0.0617 0.0116,0.009 0.0178,0.0243 0.0308,0.0308 0.009,0.005 0.0216,-0.005 0.0308,0 0.026,0.013 0.0357,0.0487 0.0617,0.0617 0.009,0.005 0.0216,-0.005 0.0308,0 0.013,0.007 0.0178,0.0243 0.0308,0.0308 0.009,0.005 0.0216,-0.005 0.0308,0 0.013,0.006 0.0178,0.0243 0.0308,0.0308 0.009,0.005 0.0216,-0.005 0.0308,0 0.013,0.007 0.0178,0.0243 0.0308,0.0308 0.009,0.005 0.0216,-0.005 0.0308,0 0.026,0.013 0.0357,0.0487 0.0617,0.0617 0.0184,0.009 0.0433,-0.009 0.0617,0 0.026,0.013 0.0357,0.0487 0.0617,0.0617 0.0184,0.009 0.0433,-0.009 0.0617,0 0.013,0.007 0.0178,0.0243 0.0308,0.0308 0.009,0.005 0.0206,0 0.0308,0 0.0206,0 0.0422,-0.007 0.0617,0 0.0138,0.005 0.017,0.0262 0.0308,0.0308 0.0293,0.01 0.0617,0 0.0925,0 0.072,0 0.14391,0 0.21586,0 0.13363,0 0.26726,0 0.40088,0 0.0258,0 0.14108,0.007 0.15419,0 0.009,-0.005 -0.007,-0.0236 0,-0.0308 0.008,-0.008 0.13452,0.01 0.15419,0 0.013,-0.007 0.0178,-0.0243 0.0308,-0.0308 0.0184,-0.009 0.0433,0.009 0.0617,0 0.013,-0.007 0.017,-0.0262 0.0308,-0.0308 1.3e-4,-4e-5 0.0925,3e-5 0.0925,0 0.007,-0.007 -0.009,-0.0263 0,-0.0308 0.0276,-0.0138 0.0649,0.0138 0.0925,0 0.013,-0.006 0.017,-0.0262 0.0308,-0.0308 0.0195,-0.007 0.0411,0 0.0617,0 0.0103,0 0.0216,0.005 0.0308,0 0.013,-0.007 0.0178,-0.0243 0.0308,-0.0308 0.0328,-0.0164 0.0289,0.0164 0.0617,0 0.013,-0.007 0.017,-0.0263 0.0308,-0.0308 0.0195,-0.007 0.0417,0.005 0.0617,0 0.0669,-0.0167 0.0873,-0.0758 0.15418,-0.0925 0.14038,0 0.002,0.0145 0.0925,-0.0308 0.009,-0.005 0.0216,0.005 0.0308,0 0.013,-0.007 0.0187,-0.0228 0.0308,-0.0308 0.0191,-0.0128 0.0426,-0.0181 0.0617,-0.0308 0.0242,-0.0161 0.0357,-0.0487 0.0617,-0.0617 0.009,-0.005 0.0216,0.005 0.0308,0 0.037,-0.0185 0.0555,-0.074 0.0925,-0.0925 0.009,-0.005 0.0216,0.005 0.0308,0 0.0165,-0.008 0.0763,-0.0763 0.0925,-0.0925 0.0308,-0.0308 0.0617,-0.0617 0.0925,-0.0925 0.0206,-0.0206 0.0456,-0.0375 0.0617,-0.0617 0.0127,-0.0191 0.0181,-0.0426 0.0308,-0.0617 0.0161,-0.0242 0.0487,-0.0357 0.0617,-0.0617 0.005,-0.009 -0.005,-0.0216 0,-0.0308 0.007,-0.013 0.0243,-0.0178 0.0308,-0.0308 0.005,-0.009 -0.005,-0.0216 0,-0.0308 0.007,-0.013 0.0243,-0.0178 0.0308,-0.0308 0.005,-0.009 -0.005,-0.0216 0,-0.0308 0.006,-0.013 0.0228,-0.0187 0.0308,-0.0308 0.0131,-0.0197 0.0875,-0.16502 0.0925,-0.18502 0.005,-0.0199 -0.005,-0.0417 0,-0.0617 0.0112,-0.0446 0.0505,-0.0788 0.0617,-0.12335 0.01,-0.0399 -0.01,-0.0835 0,-0.12335 0.006,-0.0223 0.0253,-0.0394 0.0308,-0.0617 0.005,-0.0199 0,-0.0411 0,-0.0617 0,-0.0514 0,-0.10279 0,-0.15419 0,-0.0617 0,-0.12334 0,-0.18502 0,-0.0206 0.005,-0.0417 0,-0.0617 -0.006,-0.0223 -0.0253,-0.0394 -0.0308,-0.0617 -0.005,-0.0199 0.004,-0.0415 0,-0.0617 -0.006,-0.0319 -0.0206,-0.0617 -0.0308,-0.0925 -0.0103,-0.0308 -0.0188,-0.0623 -0.0308,-0.0925 -0.0171,-0.0427 -0.0505,-0.0787 -0.0617,-0.12335 0,-0.20454 0.0145,0.0436 -0.0308,-0.0925 -0.007,-0.0195 0.007,-0.0422 0,-0.0617 -0.005,-0.0138 -0.0243,-0.0178 -0.0308,-0.0308 -0.005,-0.009 0.005,-0.0216 0,-0.0308 -0.007,-0.013 -0.0243,-0.0178 -0.0308,-0.0308 -0.005,-0.009 0.003,-0.0211 0,-0.0308 -0.007,-0.0218 -0.0223,-0.0403 -0.0308,-0.0617 -0.0121,-0.0302 -0.0188,-0.0623 -0.0308,-0.0925 -0.0171,-0.0427 -0.0411,-0.0822 -0.0617,-0.12335 -0.0103,-0.0205 -0.0253,-0.0394 -0.0308,-0.0617 -0.005,-0.0199 0,-0.0411 0,-0.0617 -0.0103,-0.0206 -0.0236,-0.0399 -0.0308,-0.0617 -0.009,-0.0258 0.0102,-0.10291 0,-0.12335 -0.007,-0.013 -0.0262,-0.017 -0.0308,-0.0308 -0.004,-0.0133 0,-0.20381 0,-0.21587 0,-0.12334 0,-0.24669 0,-0.37004 0,-0.12335 0,-0.2467 0,-0.37005 0,-0.0514 -0.0101,-0.10379 0,-0.15418 0.004,-0.0225 0.0263,-0.0391 0.0308,-0.0617 0.006,-0.0302 0,-0.0617 0,-0.0925 0,-0.0308 0,-0.0617 0,-0.0925 0,-0.0308 -0.004,-0.062 0,-0.0925 0.006,-0.042 0.0216,-0.082 0.0308,-0.12335 0.0114,-0.0512 0.0206,-0.10279 0.0308,-0.15419 0.0103,-0.0514 0.0243,-0.10218 0.0308,-0.15419 0.008,-0.0612 -0.0101,-0.12418 0,-0.18502 0.005,-0.0321 0.0245,-0.0606 0.0308,-0.0925 0.004,-0.0202 0,-0.0411 0,-0.0617 0,-0.0411 -0.006,-0.0826 0,-0.12334 0.005,-0.0322 0.0255,-0.0605 0.0308,-0.0925 0.0101,-0.0608 -0.009,-0.12397 0,-0.18503 0.006,-0.0419 0.0192,-0.0826 0.0308,-0.12335 0.009,-0.0312 0.0262,-0.0603 0.0308,-0.0925 0.006,-0.0407 0,-0.0822 0,-0.12335 0,-0.0925 0,-0.18502 0,-0.27753 0,-0.10279 0,-0.20558 0,-0.30837 0,-0.0514 0.007,-0.10331 0,-0.15419 -0.006,-0.042 -0.0248,-0.0814 -0.0308,-0.12335 -0.004,-0.0305 0.004,-0.062 0,-0.0925 -0.006,-0.042 -0.0256,-0.0813 -0.0308,-0.12335 -0.005,-0.0408 0.006,-0.0827 0,-0.12335 -0.009,-0.0644 -0.0489,-0.12127 -0.0617,-0.18502 -0.006,-0.0302 0.01,-0.0633 0,-0.0925 -0.007,-0.0218 -0.0236,-0.0399 -0.0308,-0.0617 -0.003,-0.01 0.003,-0.0211 0,-0.0308 -0.0145,-0.0436 -0.0471,-0.0797 -0.0617,-0.12334 -0.003,-0.01 0.003,-0.0211 0,-0.0308 -0.007,-0.0218 -0.0223,-0.0403 -0.0308,-0.0617 -0.0121,-0.0302 -0.0188,-0.0623 -0.0308,-0.0925 -0.008,-0.0213 -0.0206,-0.0411 -0.0308,-0.0617 -0.0308,-0.0617 -0.0617,-0.12335 -0.0925,-0.18503 -0.0308,-0.0617 -0.0617,-0.12334 -0.0925,-0.18502 -0.0103,-0.0206 -0.0146,-0.0454 -0.0308,-0.0617 -0.0162,-0.0163 -0.0425,-0.0181 -0.0617,-0.0308 -0.0363,-0.0242 -0.0562,-0.0683 -0.0925,-0.0925 -0.009,-0.006 -0.0211,0.003 -0.0308,0 -0.0436,-0.0145 -0.0787,-0.0505 -0.12335,-0.0617 -0.0199,-0.005 -0.0417,0.005 -0.0617,0 -0.0223,-0.006 -0.0399,-0.0236 -0.0617,-0.0308 -0.01,-0.003 -0.0206,0 -0.0308,0 -0.0206,0 -0.0411,0 -0.0617,0 -0.072,0 -0.1439,0 -0.21586,0 -0.0925,0 -0.18502,0 -0.27753,0 -0.0226,0 -0.1544,-0.006 -0.18503,0 -0.36661,0.0733 0.24399,-0.015 -0.21586,0.0617 -0.17336,0.0289 0.10114,-0.0645 -0.18502,0.0308 -0.24829,0.0828 -0.062,0.0478 -0.33921,0.12335 -0.0506,0.0138 -0.10398,0.0158 -0.15419,0.0308 -0.053,0.0159 -0.10216,0.0428 -0.15418,0.0617 -0.0611,0.0222 -0.12276,0.043 -0.18503,0.0617 -0.0406,0.0122 -0.0826,0.0192 -0.12334,0.0308 -0.0625,0.0179 -0.12196,0.0459 -0.18503,0.0617 -0.01,0.002 -0.0211,-0.003 -0.0308,0 -0.0218,0.007 -0.0394,0.0253 -0.0617,0.0308 -0.0199,0.005 -0.0417,-0.005 -0.0617,0 -0.0223,0.006 -0.0391,0.0263 -0.0617,0.0308 -0.0302,0.006 -0.0623,-0.006 -0.0925,0 -0.0225,0.005 -0.0399,0.0236 -0.0617,0.0308 -0.0804,0.0268 -0.16799,0.0302 -0.2467,0.0617 -0.064,0.0256 -0.12225,0.064 -0.18502,0.0925 -0.10078,0.0458 -0.2072,0.0784 -0.30837,0.12335 -0.042,0.0187 -0.0811,0.0436 -0.12335,0.0617 -0.26075,0.11175 0.0341,-0.0162 -0.15419,0.0308 -0.0223,0.006 -0.0399,0.0236 -0.0617,0.0308 -0.01,0.003 -0.0216,-0.005 -0.0308,0 -0.013,0.007 -0.0178,0.0243 -0.0308,0.0308 -0.009,0.005 -0.0216,-0.005 -0.0308,0 -0.013,0.006 -0.017,0.0262 -0.0308,0.0308 -0.0195,0.007 -0.0422,-0.007 -0.0617,0 -0.0138,0.005 -0.0178,0.0243 -0.0308,0.0308 -0.009,0.005 -0.0211,-0.003 -0.0308,0 -0.0218,0.007 -0.0411,0.0206 -0.0617,0.0308 -0.0617,0.0308 -0.12335,0.0617 -0.18502,0.0925 -0.0411,0.0206 -0.0797,0.0471 -0.12335,0.0617 -0.01,0.003 -0.0216,-0.005 -0.0308,0 -0.013,0.007 -0.0178,0.0243 -0.0308,0.0308 -0.0184,0.009 -0.0433,-0.009 -0.0617,0 -0.013,0.006 -0.0178,0.0243 -0.0308,0.0308 -0.009,0.005 -0.0216,-0.005 -0.0308,0 -0.013,0.007 -0.0187,0.0228 -0.03084,0.0308 -0.01912,0.0127 -0.04255,0.0181 -0.06167,0.0308 -0.01209,0.008 -0.01784,0.0243 -0.03084,0.0308 -0.02907,0.0145 -0.06464,0.0141 -0.09251,0.0308 -0.02493,0.015 -0.03842,0.0442 -0.06167,0.0617 -0.04764,0.0357 -0.133672,0.0583 -0.185023,0.0925 -0.02419,0.0161 -0.03567,0.0487 -0.06167,0.0617 -0.0092,0.005 -0.02164,-0.005 -0.03084,0 -0.013,0.006 -0.01784,0.0243 -0.03084,0.0308 -0.01839,0.009 -0.04329,-0.009 -0.06168,0 -0.026,0.013 -0.03748,0.0455 -0.06167,0.0617 -0.0057,0.004 -0.121373,0.0597 -0.123349,0.0617 -0.01625,0.0163 -0.01245,0.0479 -0.03084,0.0617 -0.01347,0.10843 -0.08808,0.007 -0.123349,0.0308 -0.02419,0.0161 -0.03842,0.0442 -0.06168,0.0617 -0.189303,0.14198 0.05902,-0.0603 -0.123349,0.0308 -0.037,0.0185 -0.05551,0.074 -0.09251,0.0925 -0.0092,0.005 -0.02164,-0.005 -0.03084,0 -0.02733,0.0137 -0.06444,0.0738 -0.09251,0.0925 -0.01553,0.0679 -0.06344,0.0163 -0.09251,0.0308 -0.026,0.013 -0.03567,0.0487 -0.06167,0.0617 -0.0092,0.005 -0.02164,-0.005 -0.03084,0 -0.013,0.007 -0.01783,0.0243 -0.03084,0.0308 -0.01839,0.009 -0.04329,-0.009 -0.06167,0 -0.026,0.013 -0.03748,0.0455 -0.06167,0.0617 -0.01913,0.0128 -0.04255,0.0181 -0.06168,0.0308 -0.01209,0.008 -0.01783,0.0243 -0.03084,0.0308 -0.01839,0.009 -0.04714,-0.0145 -0.06168,0 -0.0073,0.007 0.0073,0.0236 0,0.0308 -0.0073,0.007 -0.02357,-0.007 -0.03084,0 -0.0073,0.007 0,0.0205 0,0.0308 0,0.0967 -0.0037,0.0542 0.06168,0.18503 z"
         id="path15-6"
         inkscape:connector-curvature="0" />
      <path
         style="fill:#ffffff;stroke:#000000;stroke-width:0.26458332px;stroke-linecap:butt;stroke-linejoin:miter;stroke-opacity:1"
         d="m 127.11754,117.27996 c -0.0612,0.0663 -0.14681,0.0989 -0.21586,0.15418 -0.0227,0.0182 -0.039,0.0435 -0.0617,0.0617 -0.0289,0.0232 -0.0663,0.0355 -0.0925,0.0617 -0.0262,0.0262 -0.0355,0.0663 -0.0617,0.0925 -0.0363,0.0363 -0.087,0.0562 -0.12335,0.0925 -0.0465,0.0465 -0.0817,0.10324 -0.12335,0.15418 -0.17728,0.21667 -0.13214,0.14158 -0.27753,0.37005 -0.0322,0.0506 -0.0593,0.10431 -0.0925,0.15418 -0.0556,0.0834 -0.12941,0.16328 -0.18503,0.2467 -0.0333,0.0499 -0.0628,0.10215 -0.0925,0.15419 -0.0482,0.0844 -0.0195,0.0489 -0.0617,0.15418 -0.009,0.0213 -0.0253,0.0394 -0.0308,0.0617 -0.005,0.0199 0.005,0.0417 0,0.0617 -0.0372,0.14891 -0.0147,-0.002 -0.0617,0.0925 -0.005,0.009 0,0.0786 0,0.0925 0,0.0719 0,0.1439 0,0.21586 0,0.0206 -0.005,0.0417 0,0.0617 0.006,0.0223 0.0223,0.0403 0.0308,0.0617 0.0121,0.0302 0.023,0.061 0.0308,0.0925 0.003,0.01 -0.003,0.0211 0,0.0308 0.0145,0.0436 0.0411,0.0822 0.0617,0.12335 0.0103,0.0206 0.0253,0.0394 0.0308,0.0617 0.005,0.02 -0.005,0.0417 0,0.0617 0.006,0.0223 0.0236,0.0399 0.0308,0.0617 0.0306,0.0918 -0.073,-0.0633 0.0308,0.0925 0.008,0.0121 0.0243,0.0178 0.0308,0.0308 0.005,0.009 -0.005,0.0216 0,0.0308 0.006,0.013 0.0243,0.0178 0.0308,0.0308 0.005,0.009 -0.005,0.0216 0,0.0308 0.006,0.013 0.0206,0.0206 0.0308,0.0308 0.0103,0.0103 0.0206,0.0206 0.0308,0.0308 0.0308,0.0308 0.0617,0.0617 0.0925,0.0925 0.0103,0.0103 0.0187,0.0228 0.0308,0.0308 0.0191,0.0127 0.0425,0.0181 0.0617,0.0308 0.0121,0.008 0.0187,0.0228 0.0308,0.0308 0.0191,0.0128 0.0454,0.0146 0.0617,0.0308 0.0162,0.0162 0.0146,0.0454 0.0308,0.0617 0.0162,0.0162 0.0411,0.0205 0.0617,0.0308 0.0206,0.0103 0.0399,0.0236 0.0617,0.0308 0.01,0.003 0.0211,-0.003 0.0308,0 0.0218,0.007 0.0411,0.0206 0.0617,0.0308 0.0206,0.0103 0.0425,0.0181 0.0617,0.0308 0.0121,0.008 0.0187,0.0228 0.0308,0.0308 -0.004,0.0584 0.072,0.0206 0.0925,0.0308 0.026,0.013 0.0357,0.0487 0.0617,0.0617 0.0907,0.0454 -0.0406,-0.0714 0.0617,0.0308 0.0103,0.0103 0.0206,0.0206 0.0308,0.0308 0.0103,0.0103 0.0178,0.0243 0.0308,0.0308 0.009,0.005 0.0216,-0.005 0.0308,0 0.013,0.007 0.0178,0.0243 0.0308,0.0308 0.0184,0.009 0.0471,-0.0145 0.0617,0 0.007,0.007 -0.007,0.0236 0,0.0308 0.0145,0.0145 0.0471,-0.0145 0.0617,0 0.007,0.007 -0.007,0.0236 0,0.0308 0.0145,0.0146 0.0422,-0.007 0.0617,0 0.0218,0.007 0.0411,0.0206 0.0617,0.0308 0.0206,0.0103 0.0411,0.0206 0.0617,0.0308 0.0206,0.0206 0.0367,0.0467 0.0617,0.0617 0.25039,0.15023 0.0132,-0.006 0.12335,0.0308 0.0218,0.007 0.0391,0.0263 0.0617,0.0308 0.0302,0.006 0.0623,-0.006 0.0925,0 0.0225,0.005 0.0403,0.0223 0.0617,0.0308 0.0302,0.0121 0.0606,0.0245 0.0925,0.0308 0.0202,0.004 0.0422,-0.007 0.0617,0 0.0138,0.005 0.0167,0.0273 0.0308,0.0308 0.0299,0.007 0.0623,-0.006 0.0925,0 0.0225,0.005 0.0394,0.0253 0.0617,0.0308 0.0199,0.005 0.0417,-0.005 0.0617,0 0.0223,0.006 0.0394,0.0253 0.0617,0.0308 0.0199,0.005 0.0417,-0.005 0.0617,0 0.0223,0.006 0.0394,0.0253 0.0617,0.0308 0.0199,0.005 0.0411,0 0.0617,0 0.0206,0.0103 0.0399,0.0236 0.0617,0.0308 0.0292,0.01 0.0626,-0.007 0.0925,0 0.0223,0.006 0.0394,0.0253 0.0617,0.0308 0.0199,0.005 0.0415,-0.004 0.0617,0 0.16042,0.0321 0.0308,0.0206 0.15419,0.0617 0.0292,0.01 0.0626,-0.007 0.0925,0 0.0223,0.006 0.0403,0.0223 0.0617,0.0308 0.0883,0.0353 0.0819,0.0183 0.15418,0.0617 0.0318,0.0191 0.0607,0.0426 0.0925,0.0617 0.0197,0.0118 0.0433,0.017 0.0617,0.0308 0.0233,0.0174 0.0384,0.0442 0.0617,0.0617 0.12463,0.0935 0.0146,0.005 0.0925,0.0308 0.0272,0.009 0.16063,0.0762 0.18503,0.0925 0.0121,0.008 0.0178,0.0243 0.0308,0.0308 0.0291,0.0145 0.0623,0.0188 0.0925,0.0308 0.0427,0.0171 0.0822,0.0411 0.12335,0.0617 0.0206,0.0103 0.0454,0.0146 0.0617,0.0308 0.0162,0.0162 0.0146,0.0454 0.0308,0.0617 0.002,0.002 0.1176,0.0579 0.12335,0.0617 0.0242,0.0161 0.0375,0.0455 0.0617,0.0617 0.0191,0.0128 0.0454,0.0146 0.0617,0.0308 0.0376,0.0376 0.0144,0.0689 0.0617,0.0925 0.009,0.005 0.0216,-0.005 0.0308,0 0.037,0.0185 0.0555,0.074 0.0925,0.0925 0.009,0.005 0.0236,-0.007 0.0308,0 0.0162,0.0162 0.0146,0.0454 0.0308,0.0617 0.007,0.007 0.0236,-0.007 0.0308,0 0.007,0.007 -0.005,0.0216 0,0.0308 0.0185,0.037 0.074,0.0555 0.0925,0.0925 0.005,0.009 -0.005,0.0216 0,0.0308 0.0642,0.12834 -0.002,-0.033 0.0617,0.0308 0.007,0.007 -0.007,0.0236 0,0.0308 0.007,0.007 0.0236,-0.007 0.0308,0 0.007,0.007 -0.007,0.0236 0,0.0308 0.007,0.007 0.0216,-0.005 0.0308,0 0.013,0.007 0.0206,0.0206 0.0308,0.0308 0.0103,0.0103 0.0243,0.0178 0.0308,0.0308 0.005,0.009 -0.005,0.0216 0,0.0308 0.007,0.013 0.0206,0.0206 0.0308,0.0308 0.0206,0.0206 0.0384,0.0442 0.0617,0.0617 0.0901,0.0675 0.0424,-0.0154 0.12334,0.0925 0.0675,0.09 -0.0154,0.0424 0.0925,0.12334 0.0184,0.0138 0.042,0.019 0.0617,0.0308 0.0318,0.0191 0.0629,0.0394 0.0925,0.0617 0.0116,0.009 0.0178,0.0243 0.0308,0.0308 0.009,0.005 0.0216,-0.005 0.0308,0 0.026,0.013 0.0357,0.0487 0.0617,0.0617 0.009,0.005 0.0216,-0.005 0.0308,0 0.013,0.007 0.0178,0.0243 0.0308,0.0308 0.009,0.005 0.0216,-0.005 0.0308,0 0.013,0.006 0.0178,0.0243 0.0308,0.0308 0.009,0.005 0.0216,-0.005 0.0308,0 0.013,0.007 0.0178,0.0243 0.0308,0.0308 0.009,0.005 0.0216,-0.005 0.0308,0 0.026,0.013 0.0357,0.0487 0.0617,0.0617 0.0184,0.009 0.0433,-0.009 0.0617,0 0.026,0.013 0.0357,0.0487 0.0617,0.0617 0.0184,0.009 0.0433,-0.009 0.0617,0 0.013,0.007 0.0178,0.0243 0.0308,0.0308 0.009,0.005 0.0206,0 0.0308,0 0.0206,0 0.0422,-0.007 0.0617,0 0.0138,0.005 0.017,0.0262 0.0308,0.0308 0.0293,0.01 0.0617,0 0.0925,0 0.072,0 0.14391,0 0.21586,0 0.13363,0 0.26726,0 0.40089,0 0.0258,0 0.14108,0.007 0.15418,0 0.009,-0.005 -0.007,-0.0236 0,-0.0308 0.008,-0.008 0.13452,0.01 0.15419,0 0.013,-0.007 0.0178,-0.0243 0.0308,-0.0308 0.0184,-0.009 0.0433,0.009 0.0617,0 0.013,-0.007 0.017,-0.0262 0.0308,-0.0308 1.4e-4,-4e-5 0.0925,3e-5 0.0925,0 0.007,-0.007 -0.009,-0.0263 0,-0.0308 0.0276,-0.0138 0.0649,0.0138 0.0925,0 0.013,-0.006 0.0171,-0.0262 0.0308,-0.0308 0.0195,-0.007 0.0411,0 0.0617,0 0.0103,0 0.0216,0.005 0.0308,0 0.013,-0.007 0.0178,-0.0243 0.0308,-0.0308 0.0328,-0.0164 0.0289,0.0164 0.0617,0 0.013,-0.007 0.017,-0.0263 0.0308,-0.0308 0.0195,-0.007 0.0417,0.005 0.0617,0 0.0669,-0.0167 0.0873,-0.0758 0.15418,-0.0925 0.14038,0 0.002,0.0145 0.0925,-0.0308 0.009,-0.005 0.0216,0.005 0.0308,0 0.013,-0.007 0.0187,-0.0228 0.0308,-0.0308 0.0191,-0.0128 0.0425,-0.0181 0.0617,-0.0308 0.0242,-0.0161 0.0357,-0.0487 0.0617,-0.0617 0.009,-0.005 0.0216,0.005 0.0308,0 0.037,-0.0185 0.0555,-0.074 0.0925,-0.0925 0.009,-0.005 0.0216,0.005 0.0308,0 0.0165,-0.008 0.0763,-0.0763 0.0925,-0.0925 0.0308,-0.0308 0.0617,-0.0617 0.0925,-0.0925 0.0206,-0.0206 0.0456,-0.0375 0.0617,-0.0617 0.0127,-0.0191 0.0181,-0.0426 0.0308,-0.0617 0.0161,-0.0242 0.0487,-0.0357 0.0617,-0.0617 0.005,-0.009 -0.005,-0.0216 0,-0.0308 0.007,-0.013 0.0243,-0.0178 0.0308,-0.0308 0.005,-0.009 -0.005,-0.0216 0,-0.0308 0.007,-0.013 0.0243,-0.0178 0.0308,-0.0308 0.005,-0.009 -0.005,-0.0216 0,-0.0308 0.007,-0.013 0.0228,-0.0187 0.0308,-0.0308 0.0131,-0.0197 0.0875,-0.16502 0.0925,-0.18502 0.005,-0.0199 -0.005,-0.0417 0,-0.0617 0.0112,-0.0446 0.0505,-0.0788 0.0617,-0.12335 0.01,-0.0399 -0.01,-0.0835 0,-0.12335 0.006,-0.0223 0.0253,-0.0394 0.0308,-0.0617 0.005,-0.0199 0,-0.0411 0,-0.0617 0,-0.0514 0,-0.10279 0,-0.15419 0,-0.0617 0,-0.12334 0,-0.18502 0,-0.0206 0.005,-0.0417 0,-0.0617 -0.006,-0.0223 -0.0253,-0.0394 -0.0308,-0.0617 -0.005,-0.0199 0.004,-0.0415 0,-0.0617 -0.006,-0.0319 -0.0206,-0.0617 -0.0308,-0.0925 -0.0103,-0.0308 -0.0188,-0.0623 -0.0308,-0.0925 -0.0171,-0.0427 -0.0505,-0.0787 -0.0617,-0.12335 0,-0.20454 0.0145,0.0436 -0.0308,-0.0925 -0.007,-0.0195 0.007,-0.0422 0,-0.0617 -0.005,-0.0138 -0.0243,-0.0178 -0.0308,-0.0308 -0.005,-0.009 0.005,-0.0216 0,-0.0308 -0.007,-0.013 -0.0243,-0.0178 -0.0308,-0.0308 -0.005,-0.009 0.003,-0.0211 0,-0.0308 -0.007,-0.0218 -0.0223,-0.0403 -0.0308,-0.0617 -0.0121,-0.0302 -0.0188,-0.0623 -0.0308,-0.0925 -0.0171,-0.0427 -0.0411,-0.0822 -0.0617,-0.12335 -0.0103,-0.0205 -0.0253,-0.0394 -0.0308,-0.0617 -0.005,-0.0199 0,-0.0411 0,-0.0617 -0.0103,-0.0206 -0.0236,-0.0399 -0.0308,-0.0617 -0.009,-0.0258 0.0102,-0.10291 0,-0.12335 -0.006,-0.013 -0.0262,-0.017 -0.0308,-0.0308 -0.004,-0.0133 0,-0.20381 0,-0.21587 0,-0.12334 0,-0.24669 0,-0.37004 0,-0.12335 0,-0.2467 0,-0.37005 0,-0.0514 -0.0101,-0.10379 0,-0.15418 0.005,-0.0225 0.0263,-0.0391 0.0308,-0.0617 0.006,-0.0302 0,-0.0617 0,-0.0925 0,-0.0308 0,-0.0617 0,-0.0925 0,-0.0308 -0.004,-0.062 0,-0.0925 0.006,-0.042 0.0216,-0.082 0.0308,-0.12335 0.0114,-0.0512 0.0206,-0.10279 0.0308,-0.15419 0.0103,-0.0514 0.0243,-0.10218 0.0308,-0.15419 0.008,-0.0612 -0.0101,-0.12418 0,-0.18502 0.005,-0.0321 0.0245,-0.0606 0.0308,-0.0925 0.004,-0.0202 0,-0.0411 0,-0.0617 0,-0.0411 -0.006,-0.0826 0,-0.12334 0.005,-0.0322 0.0255,-0.0605 0.0308,-0.0925 0.0101,-0.0608 -0.009,-0.12397 0,-0.18503 0.006,-0.0419 0.0192,-0.0826 0.0308,-0.12335 0.009,-0.0312 0.0262,-0.0603 0.0308,-0.0925 0.006,-0.0407 0,-0.0822 0,-0.12335 0,-0.0925 0,-0.18502 0,-0.27753 0,-0.10279 0,-0.20558 0,-0.30837 0,-0.0514 0.007,-0.10331 0,-0.15419 -0.006,-0.042 -0.0248,-0.0814 -0.0308,-0.12335 -0.004,-0.0305 0.004,-0.062 0,-0.0925 -0.006,-0.042 -0.0256,-0.0813 -0.0308,-0.12335 -0.005,-0.0408 0.006,-0.0827 0,-0.12335 -0.009,-0.0644 -0.0489,-0.12127 -0.0617,-0.18502 -0.006,-0.0302 0.01,-0.0633 0,-0.0925 -0.007,-0.0218 -0.0236,-0.0399 -0.0308,-0.0617 -0.003,-0.01 0.003,-0.0211 0,-0.0308 -0.0145,-0.0436 -0.0471,-0.0797 -0.0617,-0.12334 -0.003,-0.01 0.003,-0.0211 0,-0.0308 -0.007,-0.0218 -0.0223,-0.0403 -0.0308,-0.0617 -0.0121,-0.0302 -0.0188,-0.0623 -0.0308,-0.0925 -0.008,-0.0213 -0.0206,-0.0411 -0.0308,-0.0617 -0.0308,-0.0617 -0.0617,-0.12335 -0.0925,-0.18503 -0.0308,-0.0617 -0.0617,-0.12334 -0.0925,-0.18502 -0.0103,-0.0206 -0.0146,-0.0454 -0.0308,-0.0617 -0.0162,-0.0163 -0.0425,-0.0181 -0.0617,-0.0308 -0.0363,-0.0242 -0.0562,-0.0683 -0.0925,-0.0925 -0.009,-0.006 -0.0211,0.003 -0.0308,0 -0.0436,-0.0145 -0.0787,-0.0505 -0.12334,-0.0617 -0.0199,-0.005 -0.0417,0.005 -0.0617,0 -0.0223,-0.006 -0.0399,-0.0236 -0.0617,-0.0308 -0.01,-0.003 -0.0206,0 -0.0308,0 -0.0206,0 -0.0411,0 -0.0617,0 -0.072,0 -0.14391,0 -0.21586,0 -0.0925,0 -0.18503,0 -0.27754,0 -0.0226,0 -0.15439,-0.006 -0.18502,0 -0.36662,0.0733 0.24399,-0.015 -0.21586,0.0617 -0.17336,0.0289 0.10114,-0.0645 -0.18503,0.0308 -0.24829,0.0828 -0.062,0.0478 -0.33921,0.12335 -0.0506,0.0138 -0.10398,0.0158 -0.15418,0.0308 -0.053,0.0159 -0.10217,0.0428 -0.15419,0.0617 -0.0611,0.0222 -0.12275,0.043 -0.18502,0.0617 -0.0406,0.0122 -0.0826,0.0192 -0.12335,0.0308 -0.0625,0.0179 -0.12195,0.0459 -0.18502,0.0617 -0.01,0.002 -0.0211,-0.003 -0.0308,0 -0.0218,0.007 -0.0394,0.0253 -0.0617,0.0308 -0.0199,0.005 -0.0417,-0.005 -0.0617,0 -0.0223,0.006 -0.0391,0.0263 -0.0617,0.0308 -0.0302,0.006 -0.0623,-0.006 -0.0925,0 -0.0225,0.005 -0.0399,0.0236 -0.0617,0.0308 -0.0804,0.0268 -0.168,0.0302 -0.2467,0.0617 -0.064,0.0256 -0.12225,0.064 -0.18502,0.0925 -0.10079,0.0458 -0.20721,0.0784 -0.30838,0.12335 -0.042,0.0187 -0.0811,0.0436 -0.12335,0.0617 -0.26074,0.11175 0.0341,-0.0162 -0.15418,0.0308 -0.0223,0.006 -0.0399,0.0236 -0.0617,0.0308 -0.01,0.003 -0.0216,-0.005 -0.0308,0 -0.013,0.007 -0.0178,0.0243 -0.0308,0.0308 -0.009,0.005 -0.0216,-0.005 -0.0308,0 -0.013,0.006 -0.017,0.0262 -0.0308,0.0308 -0.0195,0.007 -0.0422,-0.007 -0.0617,0 -0.0138,0.005 -0.0178,0.0243 -0.0308,0.0308 -0.009,0.005 -0.0211,-0.003 -0.0308,0 -0.0218,0.007 -0.0411,0.0206 -0.0617,0.0308 -0.0617,0.0308 -0.12335,0.0617 -0.18502,0.0925 -0.0411,0.0206 -0.0797,0.0471 -0.12335,0.0617 -0.01,0.003 -0.0216,-0.005 -0.0308,0 -0.013,0.007 -0.0178,0.0243 -0.0308,0.0308 -0.0184,0.009 -0.0433,-0.009 -0.0617,0 -0.013,0.006 -0.0178,0.0243 -0.0308,0.0308 -0.009,0.005 -0.0216,-0.005 -0.0308,0 -0.013,0.007 -0.0187,0.0228 -0.0308,0.0308 -0.0191,0.0127 -0.0425,0.0181 -0.0617,0.0308 -0.0121,0.008 -0.0178,0.0243 -0.0308,0.0308 -0.0291,0.0145 -0.0646,0.0141 -0.0925,0.0308 -0.0249,0.015 -0.0384,0.0442 -0.0617,0.0617 -0.0476,0.0357 -0.13368,0.0583 -0.18503,0.0925 -0.0242,0.0161 -0.0357,0.0487 -0.0617,0.0617 -0.009,0.005 -0.0216,-0.005 -0.0308,0 -0.013,0.006 -0.0178,0.0243 -0.0308,0.0308 -0.0184,0.009 -0.0433,-0.009 -0.0617,0 -0.026,0.013 -0.0375,0.0455 -0.0617,0.0617 -0.006,0.004 -0.12137,0.0597 -0.12335,0.0617 -0.0162,0.0163 -0.0125,0.0479 -0.0308,0.0617 -0.0135,0.10843 -0.0881,0.007 -0.12334,0.0308 -0.0242,0.0161 -0.0384,0.0442 -0.0617,0.0617 -0.18931,0.14198 0.059,-0.0603 -0.12335,0.0308 -0.037,0.0185 -0.0555,0.074 -0.0925,0.0925 -0.009,0.005 -0.0216,-0.005 -0.0308,0 -0.0273,0.0137 -0.0644,0.0738 -0.0925,0.0925 -0.0155,0.0679 -0.0634,0.0163 -0.0925,0.0308 -0.026,0.013 -0.0357,0.0487 -0.0617,0.0617 -0.009,0.005 -0.0216,-0.005 -0.0308,0 -0.013,0.007 -0.0178,0.0243 -0.0308,0.0308 -0.0184,0.009 -0.0433,-0.009 -0.0617,0 -0.026,0.013 -0.0375,0.0455 -0.0617,0.0617 -0.0191,0.0128 -0.0426,0.0181 -0.0617,0.0308 -0.0121,0.008 -0.0178,0.0243 -0.0308,0.0308 -0.0184,0.009 -0.0471,-0.0145 -0.0617,0 -0.007,0.007 0.007,0.0236 0,0.0308 -0.007,0.007 -0.0236,-0.007 -0.0308,0 -0.007,0.007 0,0.0205 0,0.0308 0,0.0967 -0.004,0.0542 0.0617,0.18503 z"
         id="path15-7"
         inkscape:connector-curvature="0" />
      <path
         style="fill:#0c0b0b;stroke-width:0.26458332"
         d="m 82.249046,187.02813 c -0.174625,-0.17462 -0.3175,-0.52074 -0.3175,-0.76914 0,-0.2484 -0.74414,-1.32803 -1.653646,-2.39917 -3.19905,-3.76759 -4.505846,-5.87072 -9.259921,-14.90273 -6.947146,-13.1985 -7.416319,-14.34615 -6.315067,-15.44741 0.320061,-0.32006 0.898217,-0.55988 1.349745,-0.55988 1.318164,0 7.480377,3.46617 16.643914,9.362 1.94873,1.25382 3.64537,2.27967 3.770312,2.27967 0.328478,0 0.288304,-1.03361 -0.2999,-7.71591 -0.0278,-0.31584 -0.05462,-0.62276 -0.08047,-0.92104 -0.680923,-7.85826 -0.684633,-9.71505 -0.07906,-10.38479 0.311086,-0.34404 0.825701,-0.55743 1.344348,-0.55743 0.994926,0 2.039281,1.03693 8.993658,8.92969 2.468229,2.80127 4.625621,5.09323 4.794211,5.09323 0.53946,0 1.45744,-2.89022 3.93228,-12.38053 2.31079,-8.86126 2.69376,-9.68572 4.49911,-9.68572 0.66262,0 1.16774,0.22341 1.76467,0.78052 0.7871,0.73459 4.23981,5.84425 8.70683,12.88521 1.0848,1.70987 2.0619,3.10885 2.17134,3.10885 0.26821,0 5.88133,-11.47527 9.05944,-18.52083 1.41129,-3.1287 2.89518,-6.10526 3.29753,-6.61459 0.66802,-0.84563 0.85939,-0.92978 2.20411,-0.9691 1.15172,-0.0337 1.57258,0.0674 1.93155,0.46409 0.36948,0.40827 0.4026,0.6309 0.16985,1.14172 -0.58654,1.28733 1.1928,6.63638 5.54528,16.67016 4.15303,9.57401 5.20567,12.39869 6.41556,17.2157 l 1.12835,4.49236 0.86823,0.17757 c 2.80325,0.57333 0.73428,3.1038 -2.5591,3.12993 -4.96937,0.0394 -29.35887,4.9109 -49.02857,9.79279 -9.608661,2.3848 -14.325457,4.04074 -16.50669,5.79504 -1.076772,0.86601 -1.954472,1.04566 -2.490391,0.50974 z m 2.566448,-3.50225 c 3.147452,-1.9869 12.051493,-4.80931 23.442096,-7.4307 15.79587,-3.63521 29.56876,-6.43335 36.38021,-7.3911 1.67349,-0.23531 3.35483,-0.48911 3.73632,-0.56399 l 0.69361,-0.13615 -0.51981,-2.43384 c -0.75886,-3.55312 -2.51492,-8.67455 -4.78092,-13.94322 -3.65341,-8.49456 -5.74679,-14.1089 -7.15234,-19.18229 -0.35186,-1.27003 -0.37752,-1.29604 -0.64199,-0.65072 -0.7575,1.84839 -6.71085,14.60695 -8.32846,17.84864 -2.6766,5.36392 -3.55648,6.73734 -4.59396,7.17083 -1.79762,0.75109 -2.34888,0.19008 -7.04616,-7.17083 -1.95011,-3.05594 -4.12835,-6.42996 -4.84053,-7.49782 l -1.29486,-1.94157 -0.35366,1.01553 c -0.19451,0.55854 -1.06851,3.75396 -1.94222,7.10094 -2.12423,8.13742 -2.5362,9.50204 -3.45478,11.44349 -1.13163,2.39176 -2.55488,3.01327 -4.354035,1.90134 -0.485717,-0.3002 -3.208443,-3.16122 -6.050499,-6.35783 l -5.167376,-5.81203 v 1.02416 c 0,0.52114 0.21153,3.39114 0.482377,6.57289 0.02191,0.25736 0.0442,0.51677 0.06681,0.77713 0.617682,7.11486 0.578683,8.31734 -0.300077,9.25274 -1.247521,1.32793 -2.615444,0.87452 -8.095031,-2.68314 -6.291791,-4.085 -12.526994,-7.74611 -12.526994,-7.35545 0,0.39844 9.924227,19.39883 11.030566,21.11852 1.03482,1.60852 4.310222,5.92736 4.518962,5.95855 0.03927,0.006 0.531011,-0.27946 1.092753,-0.63408 z M 55.520913,146.78957 c -0.154922,-0.18667 -0.404679,-0.66292 -0.555015,-1.05834 -0.208465,-0.5483 -0.450946,-0.71893 -1.021687,-0.71893 -0.411592,0 -1.35589,-0.30275 -2.09844,-0.67278 -2.617728,-1.30447 -2.7773,-3.45159 -0.442062,-5.94815 1.583942,-1.69336 4.440081,-3.18046 6.460245,-3.36364 1.459018,-0.1323 1.594408,-0.0939 2.356727,0.66842 0.688978,0.68897 0.808782,1.00719 0.808782,2.14825 0,0.73671 -0.136096,1.84832 -0.302434,2.47024 -0.266413,0.99609 -0.2349,1.26315 0.264583,2.24222 0.724896,1.42091 0.717136,2.22227 -0.02829,2.92206 -1.431497,1.34386 -4.751328,2.14334 -5.442404,1.31065 z m 2.842357,-2.54643 0.641098,-0.49282 -0.839536,-0.43413 c -1.006561,-0.52052 -1.067799,-1.17775 -0.310369,-3.33097 0.96176,-2.7341 0.642463,-2.93183 -2.331679,-1.44392 -1.808034,0.90452 -3.224571,2.17278 -3.224571,2.88703 0,0.64256 0.854876,1.05716 2.223122,1.07817 1.671575,0.0257 1.891227,0.15296 2.276011,1.31886 0.34426,1.04312 0.647258,1.12396 1.565924,0.41778 z m 19.657592,-6.02335 c -0.186346,-0.0749 -0.635148,-0.72093 -0.997339,-1.43569 l -0.658527,-1.29954 -1.780789,0.1593 c -2.258843,0.20207 -3.139336,-0.12519 -3.654567,-1.35831 -1.331662,-3.18711 3.510343,-7.26492 8.626395,-7.26492 2.121784,0 2.990464,0.53246 3.467777,2.12559 0.281237,0.93869 0.245394,1.1658 -0.371718,2.35526 -0.672478,1.29617 -0.675381,1.32604 -0.188994,1.94438 0.689287,0.87629 0.878903,1.82451 0.472432,2.36253 -0.325999,0.4315 -4.073954,2.61235 -4.414065,2.56844 -0.08899,-0.0115 -0.314259,-0.0822 -0.500605,-0.15704 z m 1.420947,-4.27396 c -0.599731,-1.15975 -0.521843,-2.11241 0.256096,-3.13234 0.581056,-0.7618 0.617045,-0.91021 0.25445,-1.04935 -1.105588,-0.42426 -4.753515,0.8647 -5.887974,2.08045 -1.042797,1.11753 -0.891038,1.34354 0.861845,1.2835 2.055204,-0.0704 2.917905,0.27576 3.609735,1.44832 0.489002,0.8288 0.608774,0.90068 0.943324,0.56613 0.334547,-0.33455 0.32979,-0.48649 -0.03748,-1.19671 z m 21.546471,-3.2143 c -0.28734,-0.28734 -0.59817,-0.82416 -0.69072,-1.19293 -0.10617,-0.423 -0.401641,-0.71847 -0.800482,-0.80048 -0.34771,-0.0715 -0.940107,-0.19436 -1.316443,-0.27304 -0.978312,-0.20453 -1.897218,-1.22914 -2.107472,-2.34989 -0.402352,-2.14471 1.910821,-4.67466 5.138237,-5.61976 2.82176,-0.82631 5.65048,-0.40299 6.37689,0.9543 0.3616,0.67566 0.34715,2.55017 -0.0252,3.27319 -0.1637,0.31786 -0.52308,0.82605 -0.7986,1.12931 -0.46536,0.5122 -0.47241,0.6197 -0.0992,1.51285 0.89424,2.14022 0.48571,2.6466 -2.79018,3.45848 -2.18624,0.54182 -2.25512,0.53962 -2.88678,-0.092 z m 2.73879,-2.89813 c -0.10193,-0.22874 -0.23823,-0.86373 -0.30288,-1.41108 -0.10112,-0.85611 0.017,-1.14417 0.84556,-2.06124 0.52972,-0.58632 0.89251,-1.18029 0.80622,-1.31991 -0.24299,-0.39317 -2.2774,-0.29996 -3.64828,0.16715 -1.437024,0.48964 -2.907261,1.75145 -2.781957,2.38756 0.05442,0.27625 0.550709,0.55855 1.328862,0.75589 1.471585,0.3732 1.900205,0.68989 2.326425,1.71889 0.28743,0.6939 0.3804,0.73951 0.96474,0.47327 0.44908,-0.20462 0.59002,-0.4217 0.46131,-0.71053 z m 28.86717,-3.20214 c -0.0966,-0.15636 -0.54599,-0.20189 -1.05328,-0.10672 -0.81485,0.15287 -0.94139,0.0804 -1.60202,-0.91792 l -0.7173,-1.0839 h -1.90309 c -1.63255,0 -1.98209,-0.0846 -2.45877,-0.59532 -0.88662,-0.94987 -0.9705,-1.82665 -0.31951,-3.33991 0.99623,-2.3158 3.58624,-4.14106 6.83377,-4.81598 2.04848,-0.42573 3.56309,-0.1329 4.38891,0.84852 1.07043,1.27214 0.82967,2.71261 -0.8223,4.91977 l -0.63884,0.85354 0.53779,1.05415 c 0.71331,1.39821 0.68097,1.76649 -0.23562,2.68308 -0.77802,0.77803 -1.69687,1.00694 -2.00974,0.50069 z m -1.05332,-4.16977 c 0,-1.01282 0.16384,-1.47795 0.8155,-2.3151 1.42365,-1.8289 1.4261,-1.80967 -0.20889,-1.64092 -1.82774,0.18864 -3.93729,1.23842 -4.82354,2.40034 -0.37282,0.4888 -0.67786,0.97089 -0.67786,1.07131 0,0.10041 0.57641,0.10611 1.28091,0.0126 1.43258,-0.19003 2.72919,0.29855 3.21847,1.21277 0.15496,0.28953 0.30731,0.52643 0.33857,0.52643 0.0313,0 0.0568,-0.57037 0.0568,-1.26748 z"
         id="path81"
         inkscape:connector-curvature="0"
         sodipodi:nodetypes="cscscscssscscssscsssccccsscccscccccccscccccscccsccscsssscssccccscsccsscscccccccscccccccsscccccccccccccccccccsscccccccccccccccccccccsccccsccccccccsccsccc" />
    </g>
  </g>
</svg>
