<?xml version="1.0" encoding="UTF-8" standalone="no"?>
<!-- Created with Inkscape (http://www.inkscape.org/) -->

<svg
   xmlns:dc="http://purl.org/dc/elements/1.1/"
   xmlns:cc="http://creativecommons.org/ns#"
   xmlns:rdf="http://www.w3.org/1999/02/22-rdf-syntax-ns#"
   xmlns:svg="http://www.w3.org/2000/svg"
   xmlns="http://www.w3.org/2000/svg"
   xmlns:sodipodi="http://sodipodi.sourceforge.net/DTD/sodipodi-0.dtd"
   xmlns:inkscape="http://www.inkscape.org/namespaces/inkscape"
   width="104.6347mm"
   height="74.050301mm"
   viewBox="0 0 104.6347 74.050301"
   version="1.1"
   id="svg8"
   sodipodi:docname="doodleteeth.svg"
   inkscape:version="0.92.5 (2060ec1f9f, 2020-04-08)">
  <defs
     id="defs2" />
  <sodipodi:namedview
     id="base"
     pagecolor="#ffffff"
     bordercolor="#666666"
     borderopacity="1.0"
     inkscape:pageopacity="0.0"
     inkscape:pageshadow="2"
     inkscape:zoom="4.9944643"
     inkscape:cx="210.09674"
     inkscape:cy="136.4668"
     inkscape:document-units="mm"
     inkscape:current-layer="g140"
     showgrid="false"
     inkscape:window-width="1848"
     inkscape:window-height="1016"
     inkscape:window-x="72"
     inkscape:window-y="27"
     inkscape:window-maximized="1"
     fit-margin-top="0"
     fit-margin-left="0"
     fit-margin-right="0"
     fit-margin-bottom="0" />
  <metadata
     id="metadata5">
    <rdf:RDF>
      <cc:Work
         rdf:about="">
        <dc:format>image/svg+xml</dc:format>
        <dc:type
           rdf:resource="http://purl.org/dc/dcmitype/StillImage" />
        <dc:title />
      </cc:Work>
    </rdf:RDF>
  </metadata>
  <g
     inkscape:label="Layer 1"
     inkscape:groupmode="layer"
     id="layer1"
     transform="translate(-50.482937,-109.71316)">
    <g
       id="g140"
       transform="translate(-8.31548,-3.0238097)">
      <path
         style="fill:#0a0a0a;stroke-width:0.26458332"
         d="m 100.3947,180.10965 c -0.509327,-0.34337 -1.157173,-1.09635 -1.439663,-1.67329 -1.092824,-2.23195 -0.739585,-7.80003 0.908939,-14.32746 0.961724,-3.80801 2.522854,-7.7881 3.697684,-7.90228 0.40302,-0.46466 0.87746,-0.41193 1.84207,-0.66007 0.55947,0.36983 0.56043,0.85561 0.56043,0.85561 0.15162,0.96172 -0.34289,0.72168 0.51545,3.24642 0.5442,1.60073 1.53681,4.10104 2.20579,5.55625 1.62497,3.53472 2.11977,5.55978 1.97014,8.06317 -0.13816,2.31133 -0.72042,3.63277 -2.23478,5.0718 -1.53722,1.46075 -3.11218,2.14446 -5.24794,2.2782 -1.61982,0.10142 -1.96821,0.0377 -2.77812,-0.50835 z m 5.0315,-2.90056 c 1.88842,-1.06135 2.81876,-3.04538 2.54005,-5.41684 -0.18419,-1.56713 -0.84418,-3.43474 -2.60841,-7.38117 -0.65054,-1.45521 -1.30692,-2.94349 -1.45861,-3.30729 -0.2721,-0.65256 -0.28311,-0.64533 -0.81856,0.53731 -1.04289,2.30341 -1.96828,7.70914 -1.99771,11.66973 -0.0242,3.25621 0.0247,3.66524 0.50165,4.19418 0.44565,0.49425 0.70915,0.56133 1.68157,0.42804 0.63422,-0.0869 1.60623,-0.41271 2.16002,-0.72396 z m 15.20912,-0.8837 c -1.35997,-0.49197 -2.6556,-1.90473 -3.08165,-3.36024 -0.77301,-2.64088 1.42676,-11.3809 2.93901,-16.68387 0.80735,-2.83111 1.62666,-3.79109 2.65853,-3.11499 v 0 l -1.06068,2.17568 c 0,0 0.29664,-2.17568 1.06068,-2.17568 0.95082,0 1.32473,0.65606 1.73416,3.0427 0.22468,1.30969 0.89692,4.04813 1.49387,6.08542 0.96565,3.29562 1.08798,4.02517 1.10908,6.61458 0.0199,2.43413 -0.0671,3.10527 -0.53149,4.10104 -1.30089,2.78964 -3.94353,4.17559 -6.32151,3.31536 z m 2.68476,-2.90932 c 1.81354,-1.27025 1.98909,-4.80111 0.49378,-9.93103 -0.53022,-1.81902 -1.11034,-4.02094 -1.28914,-4.89318 l -0.32509,-1.58589 -0.4781,1.18901 c -0.83828,2.08478 -1.76023,6.6554 -1.92097,9.52339 -0.17054,3.04267 0.1236,4.71279 0.98101,5.57021 0.61072,0.61072 1.76578,0.66873 2.53851,0.12749 z m -36.303487,-4.65674 c -0.71419,-0.74545 -0.77656,-0.96502 -0.770366,-2.71198 0.0074,-2.09624 1.056044,-5.69623 2.013913,-6.91396 0.56149,-0.71382 0.725478,-1.27223 1.505055,-1.22949 0,0 0.851545,-0.69132 1.659864,0.005 0.529836,0.099 0.606975,0.62912 1.133067,1.15522 0.481878,0.48187 0.640316,1.01433 0.774629,2.60325 0.417417,4.93802 -1.219531,7.9032 -4.363016,7.9032 -0.96693,0 -1.314217,-0.14423 -1.953146,-0.81112 z m 2.386041,-1.73448 c 0.846847,-0.32497 1.202479,-1.5636 1.202479,-4.18813 0,-1.38968 -0.110509,-2.52668 -0.245573,-2.52668 -0.593966,0 -2.058139,5.34386 -1.739363,6.34823 0.188671,0.59445 0.18865,0.59444 0.782457,0.36658 z m 45.206576,-4.97509 c -1.24994,-0.55894 -1.72982,-1.71244 -1.70352,-4.09482 0.0261,-2.36418 0.82195,-5.9048 1.49423,-6.64767 0.25994,-0.28723 0.68527,-0.52223 0.94517,-0.52223 0.2599,0 0.54613,-0.11907 0.63606,-0.26459 0.26453,-0.42801 1.0729,-0.30404 1.56529,0.24004 0.25118,0.27755 0.81314,1.67653 1.24881,3.10886 1.24303,4.08664 0.9275,6.30548 -1.11065,7.81034 -0.90649,0.66931 -2.08821,0.8115 -3.07539,0.37007 z m 1.81413,-2.70677 c 0.62141,-0.56237 0.61361,-2.3842 -0.0179,-4.17848 -0.5905,-1.67781 -0.84141,-1.28974 -1.02033,1.5781 -0.18428,2.95383 0.0365,3.50689 1.03821,2.60038 z M 83.855587,148.8086 c -2.134929,-2.88685 -5.062466,-7.4385 -5.985794,-9.30654 -0.937804,-1.89732 -1.255108,-4.2777 -0.76726,-5.7559 0.732603,-2.2198 4.8611,-5.11989 7.673235,-5.3901 2.024046,-0.19448 3.107957,0.12343 4.362055,1.27942 2.092066,1.9284 3.301879,6.00178 2.938288,9.89305 -0.449421,4.80985 -1.589823,9.48022 -2.520521,10.32249 -0.38118,0.34496 -0.776941,0.43531 -1.437394,0.32813 -0.649041,-0.10532 -0.953021,-0.0394 -1.056016,0.22899 -0.08103,0.21117 -0.496466,0.3769 -0.94479,0.3769 -0.688636,0 -1.003882,-0.27548 -2.261803,-1.97644 z m 4.561017,-3.53879 c 0.575061,-2.16454 0.68285,-3.1605 0.70599,-6.52332 0.02648,-3.84834 0.0046,-4.01504 -0.721894,-5.49448 -0.853298,-1.7377 -1.875267,-2.44783 -3.210857,-2.2311 -1.372962,0.22281 -3.343359,1.27843 -4.55718,2.44147 -1.331044,1.27537 -1.463016,2.1795 -0.635875,4.35636 0.551975,1.45268 2.916009,5.4278 5.40492,9.08837 l 1.590879,2.33979 0.372666,-0.71126 c 0.204967,-0.3912 0.678074,-1.86082 1.051351,-3.26583 z m 15.132606,0.31523 c -0.88233,-0.54782 -6.416313,-9.37058 -7.003344,-11.16532 -0.782061,-2.39101 0.147626,-5.29171 2.426372,-7.57045 2.208412,-2.20841 4.436412,-2.27237 6.449542,-0.18514 1.7216,1.78496 2.2264,3.52424 2.20128,7.58445 -0.0108,1.74625 -0.21353,4.24656 -0.4505,5.55625 -1.05517,5.83186 -1.75138,6.9425 -3.62335,5.78021 z m 0.96687,-6.67344 c 0.59824,-3.77711 0.43671,-7.94901 -0.36733,-9.48743 -0.99788,-1.90931 -2.52721,-1.82267 -4.0122,0.2273 -1.121029,1.54754 -1.492174,2.90067 -1.124342,4.09918 0.405532,1.32134 4.628632,8.33782 4.871952,8.09451 0.10932,-0.10933 0.39369,-1.42943 0.63192,-2.93356 z m 16.9413,4.57575 c -0.0883,-0.23018 -0.1606,-0.7087 -0.1606,-1.06337 0,-0.55274 -0.0929,-0.62155 -0.65014,-0.48168 -0.8687,0.21803 -1.53029,-0.52158 -3.26078,-3.64531 -1.76152,-3.17976 -3.14454,-6.38372 -3.66369,-8.48747 -0.70812,-2.86948 0.10315,-4.63064 2.72366,-5.91273 1.75015,-0.85627 5.02244,-1.15452 6.95163,-0.6336 1.50437,0.40621 2.78834,1.68896 3.19919,3.19616 0.64116,2.35212 -0.21391,8.69856 -1.86508,13.84279 -0.426,1.32721 -0.96314,2.68099 -1.19363,3.00842 -0.49638,0.70511 -1.8342,0.81879 -2.08056,0.17679 z m 0.85419,-4.67471 c 1.38564,-4.72352 2.0861,-9.62098 1.62235,-11.3432 -0.22659,-0.84149 -0.47709,-1.14549 -1.18902,-1.44296 -1.90301,-0.79513 -5.28822,-0.10539 -6.31416,1.28651 -0.53373,0.72412 -0.53523,0.76918 -0.0838,2.51355 0.4688,1.81139 4.79316,10.90433 5.18581,10.90433 0.11885,0 0.46931,-0.8632 0.7788,-1.91823 z m 16.66637,4.10104 c -1.08084,-1.16664 -3.91136,-5.98895 -5.06072,-8.62186 -0.86935,-1.99147 -1.08066,-2.81116 -1.18312,-4.58946 -0.10648,-1.84829 -0.04,-2.34002 0.45466,-3.36181 1.19694,-2.47254 3.78251,-3.99089 6.50124,-3.81777 3.05439,0.19449 4.38775,1.94657 4.92076,6.46603 0.41397,3.51004 -0.0255,7.83717 -1.12542,11.0806 -1.12554,3.31905 -1.31653,3.57188 -2.69828,3.57188 -0.89841,0 -1.27556,-0.15169 -1.80912,-0.72761 z m 2.60019,-6.23626 c 0.28616,-1.35429 0.37242,-2.96313 0.30046,-5.60384 -0.10779,-3.95549 -0.42105,-5.09408 -1.57084,-5.70943 -1.22127,-0.65361 -3.66994,0.38468 -4.59318,1.94761 -1.10016,1.86241 -0.19111,5.28592 2.8255,10.64098 l 1.6395,2.91042 0.49858,-1.14303 c 0.27422,-0.62867 0.67921,-1.99789 0.89998,-3.04271 z"
         id="path142"
         inkscape:connector-curvature="0"
         sodipodi:nodetypes="ccsccccccsccccccsccccccsccsscccccscsccccsccccccssccsscccscsccscccccccscccsscccsscscccssccccsscccccscccccsccccscscccccccscccscccccscssccscss" />
      <path
         style="fill:#ffffff;fill-opacity:1;stroke:none;stroke-width:0.75674337;stroke-miterlimit:4;stroke-dasharray:none;stroke-opacity:1"
         d="m 169.5329,109.08734 c -2.50903,-2.77719 -12.71358,-19.680838 -16.15314,-26.757377 -1.35291,-2.783458 -1.78187,-4.342578 -1.78187,-6.4764 0,-4.475766 2.89142,-10.357842 7.18542,-14.617448 2.55177,-2.531322 3.66427,-3.103608 6.02329,-3.098446 1.96237,0.0043 2.52533,0.233895 4.03433,1.645394 3.43542,3.213433 4.88548,8.81734 5.11684,19.774601 0.15686,7.428908 -0.31012,13.728767 -1.56576,21.123386 -0.66106,3.89308 -1.49608,7.80442 -1.854,8.68438 l -0.23404,0.5754 z"
         id="path816"
         inkscape:connector-curvature="0"
         transform="matrix(0.26458333,0,0,0.26458333,58.798417,112.73697)" />
      <path
         style="fill:#ffffff;fill-opacity:1;stroke:none;stroke-width:0.75674337;stroke-miterlimit:4;stroke-dasharray:none;stroke-opacity:1"
         d="m 236.13208,104.43521 c -3.71759,-5.887182 -14.48793,-28.614201 -17.65779,-37.260566 -0.97036,-2.646829 -2.02463,-7.044659 -2.03573,-8.491985 -0.0112,-1.454364 0.4056,-2.31776 1.94555,-4.030559 2.18455,-2.42975 5.8625,-4.154864 10.99398,-5.156643 2.69942,-0.526988 7.8645,-0.474735 9.99313,0.101097 3.36497,0.910283 5.00226,1.991543 5.89988,3.896262 0.99846,2.118705 1.27447,3.810503 1.27979,7.844675 0.0105,7.975266 -1.82664,19.346446 -5.17578,32.035468 -1.74793,6.622444 -3.72841,12.313631 -4.28503,12.313631 -0.0923,0 -0.52338,-0.56312 -0.958,-1.25138 z"
         id="path818"
         inkscape:connector-curvature="0"
         transform="matrix(0.26458333,0,0,0.26458333,58.798417,112.73697)" />
      <path
         style="fill:#ffffff;fill-opacity:1;stroke:none;stroke-width:0.75674337;stroke-miterlimit:4;stroke-dasharray:none;stroke-opacity:1"
         d="M 305.57035,102.53236 C 297.77731,88.737645 294.77128,82.780306 292.2159,76.066518 c -1.93379,-5.08065 -2.84335,-8.999367 -3.00046,-12.927031 -0.1335,-3.337598 0.15993,-5.072577 1.21906,-7.207981 2.12976,-4.293992 7.37386,-7.915507 12.60898,-8.707626 2.00563,-0.303467 3.40063,-0.12979 4.87493,0.606928 3.16152,1.579827 4.62156,4.557694 5.34612,10.903802 0.66527,5.826888 0.92551,18.40962 0.50106,24.226822 -0.49037,6.720651 -2.29662,14.052846 -5.04333,20.472668 -0.57717,1.34899 -1.09627,2.45238 -1.15356,2.45197 -0.0573,-4e-4 -0.95655,-1.50958 -1.99835,-3.35371 z"
         id="path820"
         inkscape:connector-curvature="0"
         transform="matrix(0.26458333,0,0,0.26458333,58.798417,112.73697)" />
      <path
         style="fill:#ffffff;fill-opacity:1;stroke:none;stroke-width:0.75674337;stroke-miterlimit:4;stroke-dasharray:none;stroke-opacity:1"
         d="m 290.16713,177.18749 c -0.65603,-0.65603 -0.89326,-2.89208 -0.75641,-7.12963 0.20114,-6.22822 0.71631,-11.24772 1.31004,-12.76413 0.51733,-1.3213 1.37559,-0.15012 2.60568,3.55573 1.13447,3.41781 1.43394,5.01076 1.56174,8.3074 0.1719,4.43447 -0.44031,6.24863 -2.61229,7.74088 -1.11131,0.76351 -1.57174,0.82678 -2.10876,0.28975 z"
         id="path822"
         inkscape:connector-curvature="0"
         transform="matrix(0.26458333,0,0,0.26458333,58.798417,112.73697)" />
      <path
         style="fill:#ffffff;fill-opacity:1;stroke:none;stroke-width:0.75674337;stroke-miterlimit:4;stroke-dasharray:none;stroke-opacity:1"
         d="m 237.01134,230.29722 c -3.61047,-1.10872 -5.64152,-4.89306 -6.31716,-11.77044 -1.16091,-11.81685 2.53923,-34.89587 7.65636,-47.75539 1.16728,-2.9334 1.23758,-3.05567 1.38143,-2.40266 0.0834,0.37841 0.47409,2.21972 0.86828,4.09179 0.79068,3.75508 2.44852,10.20726 4.39859,17.11895 3.32546,11.78648 4.35849,17.54679 4.3627,24.32694 0.004,6.60467 -1.19816,10.85856 -3.90646,13.82188 -2.2934,2.50933 -5.48036,3.47894 -8.44374,2.56893 z"
         id="path824"
         inkscape:connector-curvature="0"
         transform="matrix(0.26458333,0,0,0.26458333,58.798417,112.73697)" />
      <path
         style="fill:#ffffff;fill-opacity:1;stroke:none;stroke-width:0.75674337;stroke-miterlimit:4;stroke-dasharray:none;stroke-opacity:1"
         d="m 163.50516,246.12907 c -1.68651,-0.8729 -2.92901,-2.81604 -3.32037,-5.19274 -0.29867,-1.81374 -0.29711,-15.1654 0.002,-19.22128 0.86828,-11.76436 3.03246,-24.32566 5.55387,-32.23569 0.79359,-2.48959 2.96193,-7.56969 3.37855,-7.91546 0.3736,-0.31006 0.67629,-0.0817 1.03654,0.78198 0.16664,0.39951 2.01658,4.60068 4.11098,9.33592 7.93739,17.94573 10.18746,23.9418 11.19505,29.83303 0.53868,3.14956 0.44458,7.76295 -0.20791,10.19297 -1.78685,6.65462 -6.21711,11.26416 -13.00853,13.53494 -3.53744,1.18277 -7.4091,1.57539 -8.74041,0.88633 z"
         id="path826"
         inkscape:connector-curvature="0"
         transform="matrix(0.26458333,0,0,0.26458333,58.798417,112.73697)" />
      <path
         style="fill:#ffffff;fill-opacity:1;stroke:none;stroke-width:0.75674337;stroke-miterlimit:4;stroke-dasharray:none;stroke-opacity:1"
         d="m 113.10067,204.64615 c -0.81385,-1.81408 -0.46927,-5.40667 1.14836,-11.97299 1.67024,-6.77986 3.96864,-12.70433 4.92865,-12.70433 0.86106,0 1.25784,11.32185 0.5859,16.71851 -0.41272,3.3148 -1.22192,5.78703 -2.31933,7.08592 -0.61331,0.72592 -2.69273,1.82353 -3.45516,1.82379 -0.35756,1.2e-4 -0.55803,-0.21444 -0.88842,-0.9509 z"
         id="path828"
         inkscape:connector-curvature="0"
         transform="matrix(0.26458333,0,0,0.26458333,58.798417,112.73697)" />
      <path
         style="fill:#ffffff;fill-opacity:1;stroke:none;stroke-width:0.75674337;stroke-miterlimit:4;stroke-dasharray:none;stroke-opacity:1"
         d="M 100.00266,128.06103 C 91.883229,115.88016 87.768552,109.25349 83.561147,101.58205 79.202761,93.635321 77.596926,88.063194 78.590132,84.332988 c 0.448707,-1.685224 1.317246,-3.045296 3.214564,-5.03379 4.928479,-5.16532 13.476998,-9.765525 18.930964,-10.187301 4.8172,-0.372531 8.58396,2.855462 11.83875,10.145434 1.22485,2.743378 1.53765,4.016845 1.80589,7.35224 0.26231,3.261483 0.10091,19.837589 -0.23057,23.682119 -0.43094,4.99788 -1.38259,9.56836 -3.50814,16.84845 -0.5996,2.05366 -1.32305,4.39625 -1.60766,5.20576 -0.57805,1.64412 -2.2973,5.37634 -2.47637,5.37582 -0.0636,-1.8e-4 -3.01327,-4.3475 -6.5549,-9.66069 z"
         id="path830"
         inkscape:connector-curvature="0"
         transform="matrix(0.26458333,0,0,0.26458333,58.798417,112.73697)" />
    </g>
  </g>
</svg>
