<?xml version="1.0" encoding="UTF-8" standalone="no"?>
<!-- Created with Inkscape (http://www.inkscape.org/) -->

<svg
   xmlns:dc="http://purl.org/dc/elements/1.1/"
   xmlns:cc="http://creativecommons.org/ns#"
   xmlns:rdf="http://www.w3.org/1999/02/22-rdf-syntax-ns#"
   xmlns:svg="http://www.w3.org/2000/svg"
   xmlns="http://www.w3.org/2000/svg"
   xmlns:sodipodi="http://sodipodi.sourceforge.net/DTD/sodipodi-0.dtd"
   xmlns:inkscape="http://www.inkscape.org/namespaces/inkscape"
   width="180.39668mm"
   height="31.123899mm"
   viewBox="0 0 180.39669 31.1239"
   version="1.1"
   id="svg8"
   inkscape:version="0.92.5 (2060ec1f9f, 2020-04-08)"
   sodipodi:docname="Download.svg">
  <defs
     id="defs2" />
  <sodipodi:namedview
     id="base"
     pagecolor="#ffffff"
     bordercolor="#666666"
     borderopacity="1.0"
     inkscape:pageopacity="0.0"
     inkscape:pageshadow="2"
     inkscape:zoom="1.754102"
     inkscape:cx="232.59328"
     inkscape:cy="-117.29592"
     inkscape:document-units="mm"
     inkscape:current-layer="layer1"
     showgrid="false"
     fit-margin-top="0"
     fit-margin-left="0"
     fit-margin-right="0"
     fit-margin-bottom="0"
     inkscape:window-width="1848"
     inkscape:window-height="1016"
     inkscape:window-x="72"
     inkscape:window-y="27"
     inkscape:window-maximized="1" />
  <metadata
     id="metadata5">
    <rdf:RDF>
      <cc:Work
         rdf:about="">
        <dc:format>image/svg+xml</dc:format>
        <dc:type
           rdf:resource="http://purl.org/dc/dcmitype/StillImage" />
        <dc:title></dc:title>
      </cc:Work>
    </rdf:RDF>
  </metadata>
  <g
     inkscape:label="Layer 1"
     inkscape:groupmode="layer"
     id="layer1"
     transform="translate(29.175778,-59.531312)">
    <g
       id="g910"
       transform="translate(5.2792919,-36.502533)">
      <path
         style="fill:#9f9f9f;stroke-width:0.26458335"
         d="m 143.06082,127.0567 c 0,-0.0549 0.20836,-0.2633 0.46302,-0.46302 0.41965,-0.32911 0.42901,-0.31975 0.0999,0.0999 -0.34565,0.44073 -0.56292,0.58088 -0.56292,0.36312 z m -69.594453,-3.53812 -1.446171,-1.52136 1.521354,1.44617 c 0.836745,0.7954 1.521355,1.48001 1.521355,1.52136 0,0.19638 -0.253,-0.0328 -1.596538,-1.44617 z m 3.210599,1.07036 c 0.192657,-0.3208 0.407234,-0.52632 0.47684,-0.45672 0.06961,0.0696 -0.08802,0.33208 -0.350282,0.58328 -0.455596,0.43638 -0.461235,0.43074 -0.126558,-0.12656 z m 63.515214,-0.0782 c 0,-0.3638 0.06,-0.51263 0.13345,-0.33072 0.0734,0.1819 0.0734,0.47955 0,0.66145 -0.0734,0.1819 -0.13345,0.0331 -0.13345,-0.33073 z m -65.692192,-4.16718 c -0.329108,-0.41965 -0.319749,-0.42901 0.0999,-0.0999 0.254661,0.19972 0.463021,0.40808 0.463021,0.46302 0,0.21776 -0.217274,0.0776 -0.562917,-0.36312 z M -4.9043228,120.0903 c 0.3291179,-0.0633 0.8053679,-0.0609 1.0583333,0.005 0.2529655,0.0662 -0.016325,0.118 -0.5983975,0.11506 -0.5820833,-0.003 -0.7890536,-0.0571 -0.4599358,-0.1204 z M 121.82801,119.83762 c 0.1819,-0.0734 0.47956,-0.0734 0.66146,0 0.1819,0.0734 0.0331,0.13345 -0.33073,0.13345 -0.3638,0 -0.51263,-0.0601 -0.33073,-0.13345 z m 2.11667,0 c 0.1819,-0.0734 0.47955,-0.0734 0.66145,0 0.1819,0.0734 0.0331,0.13345 -0.33073,0.13345 -0.3638,0 -0.51263,-0.0601 -0.33072,-0.13345 z m -40.464718,-0.27009 c 0.190995,-0.0764 0.419201,-0.067 0.507119,0.0209 0.08792,0.0879 -0.06835,0.15045 -0.347266,0.13897 -0.308226,-0.0127 -0.370919,-0.0754 -0.159853,-0.15986 z m 47.876128,-0.006 c 0.32912,-0.0633 0.80537,-0.0609 1.05834,0.005 0.25296,0.0662 -0.0163,0.118 -0.5984,0.11506 -0.58208,-0.003 -0.78905,-0.0571 -0.45994,-0.1204 z M -7.2562622,119.02066 c -0.3291073,-0.41964 -0.319749,-0.429 0.099896,-0.0999 0.2546615,0.19973 0.4630209,0.40808 0.4630209,0.46303 0,0.21776 -0.2172732,0.0776 -0.5629169,-0.36313 z m 5.7222919,-0.0662 c 0.26339,-0.29104 0.53842176,-0.52916 0.61118218,-0.52916 0.0727604,0 -0.0832088,0.23812 -0.34659888,0.52916 -0.2633901,0.29105 -0.5384218,0.52917 -0.6111822,0.52917 -0.07276,0 0.083209,-0.23812 0.3465989,-0.52917 z m 22.1638893,0.34582 c 0.257432,-0.0671 0.614619,-0.0627 0.79375,0.01 0.179131,0.0725 -0.03149,0.12736 -0.468056,0.12197 -0.436563,-0.005 -0.583126,-0.0647 -0.325694,-0.13178 z M 8.0571755,119.04387 c 0.181901,-0.0734 0.4795573,-0.0734 0.6614583,0 0.1819011,0.0734 0.033073,0.13345 -0.3307291,0.13345 -0.3638021,0 -0.5126302,-0.06 -0.3307292,-0.13345 z m 14.3536455,-0.18925 c 0,-0.0549 0.20836,-0.2633 0.463021,-0.46302 0.419645,-0.32911 0.429004,-0.31975 0.0999,0.0999 -0.345643,0.44073 -0.562917,0.58089 -0.562917,0.36313 z m 13.444141,-0.0808 c 0.190995,-0.0764 0.419201,-0.067 0.507119,0.0209 0.08792,0.0879 -0.06835,0.15045 -0.347266,0.13897 -0.308226,-0.0127 -0.370919,-0.0754 -0.159853,-0.15986 z m -21.166667,-0.26459 c 0.190995,-0.0764 0.419198,-0.067 0.507119,0.0209 0.08792,0.0879 -0.06835,0.15045 -0.347265,0.13896 -0.308227,-0.0127 -0.37092,-0.0754 -0.159854,-0.15985 z m 13.879124,-0.003 c 0.257431,-0.0671 0.614619,-0.0627 0.79375,0.01 0.179131,0.0725 -0.03149,0.12736 -0.468056,0.12197 -0.436562,-0.005 -0.583126,-0.0647 -0.325694,-0.13178 z m 50.414626,0.003 c 0.190995,-0.0764 0.419201,-0.067 0.507119,0.0209 0.08792,0.0879 -0.06835,0.15045 -0.347265,0.13896 -0.308227,-0.0127 -0.37092,-0.0754 -0.159854,-0.15985 z m 10.96731,-0.009 c 0.402183,-0.0608 0.997495,-0.0592 1.322917,0.004 0.325421,0.0628 -0.0037,0.11256 -0.731242,0.11058 -0.727604,-0.002 -0.993857,-0.0534 -0.591675,-0.11419 z m 6.809383,-0.17461 c 0,-0.0549 0.208359,-0.2633 0.463021,-0.46302 0.419645,-0.32911 0.429003,-0.31975 0.0999,0.0999 -0.345644,0.44073 -0.562917,0.58088 -0.562917,0.36312 z m -128.566612,-0.58361 c 0.0127,-0.30822 0.07539,-0.37092 0.159853,-0.15985 0.07643,0.19099 0.06703,0.4192 -0.02089,0.50712 -0.08792,0.0879 -0.150453,-0.0684 -0.138965,-0.34727 z m 9.37182,-0.11024 c 0.263389,-0.29104 0.538421,-0.52917 0.611181,-0.52917 0.07276,0 -0.08321,0.23813 -0.346597,0.52917 -0.263389,0.29104 -0.538421,0.52916 -0.611181,0.52916 -0.07276,0 0.08321,-0.23812 0.346597,-0.52916 z m 12.8936761,-0.26459 c 0,-0.50932 0.05445,-0.71768 0.1210001,-0.46302 0.06655,0.25467 0.06655,0.67138 0,0.92605 -0.06655,0.25466 -0.1210001,0.0463 -0.1210001,-0.46303 z M 108.46655,117.7138 c 0.25466,-0.0666 0.67138,-0.0666 0.92604,0 0.25466,0.0665 0.0463,0.121 -0.46302,0.121 -0.50932,0 -0.71768,-0.0545 -0.46302,-0.121 z m -137.235593,-0.53381 c -0.143585,-0.37709 -0.113194,-0.40748 0.148113,-0.14811 0.180821,0.17947 0.262115,0.39297 0.180653,0.47443 -0.08146,0.0815 -0.229407,-0.0654 -0.328766,-0.32632 z m 24.142755,0.27087 c 0.1909947,-0.0764 0.4191979,-0.067 0.5071189,0.0209 0.087918,0.0879 -0.068353,0.15045 -0.3472656,0.13896 -0.3082264,-0.0127 -0.3709194,-0.0754 -0.1598533,-0.15985 z m 20.748493,-0.61301 c 0,-0.50933 0.05445,-0.71768 0.121002,-0.46302 0.06655,0.25466 0.06655,0.67138 0,0.92604 -0.06655,0.25466 -0.121002,0.0463 -0.121002,-0.46302 z m -2.950911,-0.15434 c 0.0127,-0.30823 0.07539,-0.37092 0.15985,-0.15985 0.07643,0.19099 0.06703,0.41919 -0.02088,0.50711 -0.08792,0.0879 -0.150453,-0.0684 -0.138965,-0.34726 z m 26.970392,0.0447 c 0.171346,-0.17134 0.350258,-0.17134 0.521604,0 0.17135,0.17135 0.0819,0.26081 -0.260802,0.26081 -0.342699,0 -0.432152,-0.0895 -0.260802,-0.26081 z m 82.480074,0.18748 c 0.32742,-0.0631 0.8632,-0.0631 1.19062,0 0.32743,0.0631 0.0595,0.11466 -0.59531,0.11466 -0.65484,0 -0.92273,-0.0516 -0.59531,-0.11466 z M 44.65671,116.4189 c 0.0127,-0.30822 0.07539,-0.37092 0.159851,-0.15985 0.07643,0.191 0.06703,0.4192 -0.02088,0.50712 -0.08792,0.0879 -0.150452,-0.0683 -0.138964,-0.34727 z m 61.20501,-0.17638 -0.50402,-0.59532 0.59531,0.50403 c 0.32742,0.27722 0.59531,0.54511 0.59531,0.59531 0,0.21174 -0.21293,0.0554 -0.6866,-0.50402 z m 15.20493,0.13229 c -0.3291,-0.41965 -0.31974,-0.42901 0.0999,-0.0999 0.44073,0.34565 0.58089,0.56292 0.36313,0.56292 -0.055,0 -0.2633,-0.20836 -0.46303,-0.46302 z m 10.28636,0.28779 c 0.1819,-0.0734 0.47956,-0.0734 0.66146,0 0.1819,0.0734 0.0331,0.13345 -0.33073,0.13345 -0.3638,0 -0.51263,-0.0601 -0.33073,-0.13345 z m -163.425467,-0.50828 c 0.01269,-0.30822 0.07539,-0.37092 0.159852,-0.15985 0.07643,0.19099 0.06703,0.4192 -0.02089,0.50712 -0.08792,0.0879 -0.150453,-0.0683 -0.138964,-0.34727 z m 38.6291672,0 c 0.0127,-0.30822 0.07539,-0.37092 0.1598507,-0.15985 0.07643,0.19099 0.067032,0.4192 -0.020876,0.50712 -0.087921,0.0879 -0.1504526,-0.0683 -0.1389644,-0.34727 z m -30.8448472,-0.90399 c 0.568389,-0.58209 1.092966,-1.05834 1.165727,-1.05834 0.07276,0 -0.332754,0.47625 -0.901144,1.05834 -0.568389,0.58208 -1.092966,1.05833 -1.165726,1.05833 -0.07276,0 0.332754,-0.47625 0.901143,-1.05833 z m 28.9927639,0.63941 c 0.0127,-0.30823 0.07539,-0.37092 0.1598506,-0.15985 0.07643,0.19099 0.067032,0.41919 -0.020876,0.50711 -0.087921,0.0879 -0.1504527,-0.0683 -0.1389645,-0.34726 z m 140.2291631,0 c 0.0127,-0.30823 0.0754,-0.37092 0.15985,-0.15985 0.0764,0.19099 0.067,0.41919 -0.0209,0.50711 -0.0879,0.0879 -0.15045,-0.0683 -0.13897,-0.34726 z M 1.8489948,114.85347 c 0.00212,-0.7276 0.053372,-0.99385 0.1141862,-0.59167 0.060817,0.40218 0.05919,0.99749 -0.0036,1.32292 -0.062815,0.32542 -0.1125723,-0.004 -0.1105879,-0.73125 z m 7.8827154,0.7717 c 0.0127,-0.30822 0.07539,-0.37092 0.1598507,-0.15985 0.07643,0.191 0.067032,0.4192 -0.020876,0.50712 -0.087921,0.0879 -0.1504526,-0.0684 -0.1389644,-0.34727 z m 11.8853608,0.16265 c 0,-0.14096 0.178594,-0.18775 0.396875,-0.10399 0.218282,0.0838 0.396875,0.19909 0.396875,0.25628 0,0.0572 -0.178593,0.10399 -0.396875,0.10399 -0.218281,0 -0.396875,-0.11533 -0.396875,-0.25628 z m 10.655396,-0.80206 c 0,-0.65484 0.0516,-0.92273 0.114662,-0.59531 0.06307,0.32742 0.06307,0.86321 0,1.19063 -0.06306,0.32742 -0.114662,0.0595 -0.114662,-0.59532 z m 15.349444,-0.13229 c 0.0021,-0.7276 0.05337,-0.99385 0.114187,-0.59167 0.06082,0.40218 0.05919,0.99749 -0.0036,1.32292 -0.06281,0.32542 -0.112572,-0.004 -0.110587,-0.73125 z m 40.426466,0.7717 c 0.0127,-0.30822 0.07539,-0.37092 0.159851,-0.15985 0.07643,0.191 0.06703,0.4192 -0.02088,0.50712 -0.08792,0.0879 -0.150453,-0.0684 -0.138965,-0.34727 z m 9.260417,0 c 0.0127,-0.30822 0.07539,-0.37092 0.15985,-0.15985 0.07643,0.191 0.06703,0.4192 -0.02088,0.50712 -0.08792,0.0879 -0.150453,-0.0684 -0.138965,-0.34727 z M 0.52968971,114.4566 c 0,-0.80037 0.0496014,-1.12779 0.11022277,-0.72761 0.060624,0.40019 0.060624,1.05503 0,1.45521 -0.0606213,0.40018 -0.11022277,0.0728 -0.11022277,-0.7276 z m 49.78379329,1.04073 c -0.09592,-0.1552 -0.117655,-0.33893 -0.0483,-0.40829 0.06935,-0.0694 0.196601,0.0576 0.282773,0.28219 0.178906,0.46622 0.02643,0.54823 -0.234473,0.1261 z m -79.740107,-0.40132 c 0.0127,-0.30823 0.07539,-0.37092 0.159853,-0.15985 0.07643,0.19099 0.06703,0.41919 -0.02089,0.50711 -0.08792,0.0879 -0.150453,-0.0683 -0.138965,-0.34726 z m 48.205341,-0.63941 c 0,-0.65485 0.0516,-0.92274 0.114662,-0.59531 0.06307,0.32742 0.06307,0.8632 0,1.19062 -0.06306,0.32742 -0.114662,0.0595 -0.114662,-0.59531 z m 53.39466,0.63941 c 0.0127,-0.30823 0.07539,-0.37092 0.159851,-0.15985 0.07643,0.19099 0.06703,0.41919 -0.02088,0.50711 -0.08792,0.0879 -0.150453,-0.0683 -0.138965,-0.34726 z m -39.402031,-0.37483 c 0,-0.3638 0.06006,-0.51263 0.133454,-0.33073 0.0734,0.1819 0.0734,0.47956 0,0.66146 -0.0734,0.1819 -0.133454,0.0331 -0.133454,-0.33073 z m 2.655639,-0.13229 c 0.0054,-0.43656 0.06469,-0.58313 0.131773,-0.32569 0.06708,0.25743 0.06267,0.61461 -0.0098,0.79375 -0.07246,0.17913 -0.127349,-0.0315 -0.121957,-0.46806 z m 85.236705,-1.45521 c 0,-1.23693 0.0456,-1.74294 0.10128,-1.12448 0.0557,0.61847 0.0557,1.6305 0,2.24896 -0.0557,0.61846 -0.10128,0.11245 -0.10128,-1.12448 z m -153.000731,1.43316 c 0.0127,-0.30822 0.07539,-0.37092 0.159853,-0.15985 0.07643,0.19099 0.06703,0.4192 -0.02089,0.50712 -0.08792,0.0879 -0.150453,-0.0683 -0.138964,-0.34727 z m 25.9500541,-0.11024 c 0,-0.3638 0.060055,-0.51263 0.1334532,-0.33073 0.073398,0.1819 0.073398,0.47956 0,0.66146 -0.073398,0.1819 -0.1334532,0.0331 -0.1334532,-0.33073 z M 50.21296,114.30226 c 0.0127,-0.30823 0.07539,-0.37092 0.159851,-0.15985 0.07643,0.19099 0.06703,0.41919 -0.02088,0.50711 -0.08792,0.0879 -0.150452,-0.0683 -0.138964,-0.34726 z m 94.98542,0 c 0.0127,-0.30823 0.0754,-0.37092 0.15985,-0.15985 0.0764,0.19099 0.067,0.41919 -0.0209,0.50711 -0.0879,0.0879 -0.15045,-0.0683 -0.13896,-0.34726 z M 4.7353185,113.79514 c 0.0054,-0.43656 0.064691,-0.58313 0.1317731,-0.32569 0.067082,0.25743 0.062672,0.61461 -0.00982,0.79375 -0.072464,0.17913 -0.1273493,-0.0315 -0.1219571,-0.46806 z m 36.9563355,0.19844 c -0.329107,-0.41965 -0.319749,-0.42901 0.0999,-0.0999 0.44073,0.34565 0.580888,0.56292 0.363125,0.56292 -0.05494,0 -0.2633,-0.20836 -0.463021,-0.46302 z m 45.827556,-0.22049 c 0.0127,-0.30822 0.07539,-0.37092 0.159851,-0.15985 0.07643,0.19099 0.06703,0.4192 -0.02088,0.50712 -0.08792,0.0879 -0.150452,-0.0684 -0.138964,-0.34727 z m 9.570834,-0.50712 c 0.0029,-0.58208 0.05712,-0.78905 0.120407,-0.45993 0.06328,0.32912 0.06088,0.80537 -0.0053,1.05833 -0.06622,0.25297 -0.118004,-0.0163 -0.115067,-0.5984 z m 14.552086,0 c 0.003,-0.58208 0.0571,-0.78905 0.1204,-0.45993 0.0633,0.32912 0.0609,0.80537 -0.005,1.05833 -0.0662,0.25297 -0.118,-0.0163 -0.11506,-0.5984 z m -129.580267,-0.13229 c 0.263389,-0.29104 0.53842,-0.52917 0.611181,-0.52917 0.07276,0 -0.08321,0.23813 -0.346598,0.52917 -0.263389,0.29104 -0.53842,0.52917 -0.611181,0.52917 -0.07276,0 0.08321,-0.23813 0.346598,-0.52917 z m 42.751097,0.11024 c 0.0127,-0.30822 0.07539,-0.37092 0.159851,-0.15985 0.07643,0.191 0.06703,0.4192 -0.02088,0.50712 -0.08792,0.0879 -0.150452,-0.0683 -0.138964,-0.34727 z m -57.414584,-0.26458 c 0.0127,-0.30822 0.07539,-0.37092 0.159853,-0.15985 0.07643,0.19099 0.06703,0.4192 -0.02089,0.50712 -0.08792,0.0879 -0.150453,-0.0683 -0.138965,-0.34727 z m 18.169216,0.2437 c 0.181901,-0.0734 0.479557,-0.0734 0.661459,0 0.181901,0.0734 0.03307,0.13345 -0.33073,0.13345 -0.363802,0 -0.51263,-0.0601 -0.330729,-0.13345 z m 35.846279,-0.61853 c 0,-0.50932 0.05445,-0.71768 0.121002,-0.46302 0.06655,0.25467 0.06655,0.67138 0,0.92605 -0.06655,0.25466 -0.121002,0.0463 -0.121002,-0.46303 z m 6.965651,0.38846 c -0.282474,-0.21365 -0.38635,-0.38846 -0.230833,-0.38846 0.155514,0 0.430975,0.1786 0.612132,0.39688 0.41201,0.49644 0.282401,0.49358 -0.381299,-0.008 z m 25.273022,-0.0136 c 0.0127,-0.30822 0.07539,-0.37092 0.15985,-0.15985 0.07643,0.19099 0.06703,0.4192 -0.02087,0.50712 -0.08792,0.0879 -0.150453,-0.0683 -0.138965,-0.34727 z m 2.910416,0 c 0.0127,-0.30822 0.07539,-0.37092 0.159851,-0.15985 0.07643,0.19099 0.06703,0.4192 -0.02088,0.50712 -0.08792,0.0879 -0.150452,-0.0683 -0.138964,-0.34727 z m 15.40423,-0.90399 c 0,-0.80037 0.0496,-1.12779 0.110222,-0.72761 0.06062,0.40019 0.06062,1.05503 0,1.45521 -0.06062,0.40018 -0.110222,0.0728 -0.110222,-0.7276 z m -2.947927,0.52916 c 0,-0.3638 0.06006,-0.51263 0.133453,-0.33072 0.0734,0.1819 0.0734,0.47955 0,0.66145 -0.0734,0.1819 -0.133453,0.0331 -0.133453,-0.33073 z m 16.328641,-0.19843 c -0.329107,-0.41965 -0.319749,-0.42901 0.0999,-0.0999 0.254662,0.19972 0.463021,0.40808 0.463021,0.46302 0,0.21776 -0.217273,0.0776 -0.562917,-0.36312 z m 60.135946,-0.0662 c 0,-0.3638 0.0601,-0.51263 0.13345,-0.33073 0.0734,0.1819 0.0734,0.47956 0,0.66146 -0.0734,0.1819 -0.13345,0.0331 -0.13345,-0.33073 z M -2.460012,112.5046 c 0,-0.0549 0.2083594,-0.2633 0.4630208,-0.46302 0.4196451,-0.32911 0.4290034,-0.31975 0.099896,0.0999 -0.3456437,0.44073 -0.5629169,0.58089 -0.5629169,0.36313 z m 109.339292,-0.16469 c 0.11909,-0.4431 1.71886,-0.70184 2.08369,-0.33701 0.13122,0.13121 -0.18168,0.18256 -0.72554,0.11906 -0.61862,-0.0722 -1.04603,0.0166 -1.21053,0.2516 -0.20828,0.29752 -0.23498,0.29143 -0.14762,-0.0337 z m 31.75569,-0.79375 c 0,-0.65484 0.0516,-0.92273 0.11466,-0.59531 0.0631,0.32742 0.0631,0.8632 0,1.19062 -0.0631,0.32743 -0.11466,0.0595 -0.11466,-0.59531 z m -171.501177,-0.15434 c 0.01269,-0.30822 0.07539,-0.37092 0.159852,-0.15985 0.07643,0.19099 0.06703,0.4192 -0.02089,0.50712 -0.08792,0.0879 -0.150453,-0.0683 -0.138964,-0.34727 z m 14.022916,0 c 0.0127,-0.30822 0.07539,-0.37092 0.159853,-0.15985 0.07643,0.19099 0.06703,0.4192 -0.02089,0.50712 -0.08792,0.0879 -0.150453,-0.0683 -0.138964,-0.34727 z m -11.377083,-0.52917 c 0.0127,-0.30822 0.07539,-0.37092 0.159853,-0.15985 0.07643,0.191 0.06703,0.4192 -0.02089,0.50712 -0.08792,0.0879 -0.150453,-0.0684 -0.138965,-0.34727 z m 35.4541675,0 c 0.0127,-0.30822 0.07539,-0.37092 0.1598507,-0.15985 0.07643,0.191 0.067032,0.4192 -0.020876,0.50712 -0.087921,0.0879 -0.1504527,-0.0684 -0.1389645,-0.34727 z m 2.9041672,0.22049 c 0.00804,-0.10914 0.3950044,-0.48847 0.8598959,-0.84296 l 0.8452564,-0.64453 -0.7771051,0.84296 c -0.8084687,0.87699 -0.9525793,0.97707 -0.9280472,0.64453 z m 5.3926743,-0.66146 -0.777105,-0.85989 0.859896,0.7771 c 0.801544,0.72437 0.981511,0.94269 0.777105,0.94269 -0.04553,0 -0.432488,-0.38696 -0.859896,-0.8599 z m 35.33852,0.51252 c 0,-0.0455 0.386953,-0.43248 0.859895,-0.85989 l 0.859896,-0.77711 -0.777105,0.8599 c -0.724371,0.80154 -0.942686,0.98151 -0.942686,0.7771 z m 42.548307,-0.0979 c 0.190995,-0.0764 0.419201,-0.067 0.507119,0.0209 0.08792,0.0879 -0.06835,0.15046 -0.347266,0.13897 -0.308226,-0.0127 -0.370919,-0.0754 -0.159853,-0.15986 z m 26.549718,-0.34842 c 0,-0.3638 0.0601,-0.51263 0.13345,-0.33073 0.0734,0.1819 0.0734,0.47956 0,0.66146 -0.0734,0.1819 -0.13345,0.0331 -0.13345,-0.33073 z m 24.87083,0 c 0,-0.3638 0.0601,-0.51263 0.13346,-0.33073 0.0734,0.1819 0.0734,0.47956 0,0.66146 -0.0734,0.1819 -0.13346,0.0331 -0.13346,-0.33073 z m -124.334555,-0.5292 c 0,-0.50932 0.05445,-0.71768 0.121002,-0.46302 0.06655,0.25466 0.06655,0.67138 0,0.92604 -0.06655,0.25466 -0.121002,0.0463 -0.121002,-0.46302 z m -16.6702876,0.11146 c 0.2511981,-0.26226 0.5136727,-0.41988 0.5832793,-0.35028 0.069607,0.0696 -0.1359165,0.28419 -0.4567211,0.47684 -0.5572945,0.33468 -0.5629328,0.32904 -0.1265582,-0.12656 z m 111.8251526,-0.0453 c -0.32911,-0.41965 -0.31975,-0.42901 0.0999,-0.0999 0.25466,0.19972 0.46302,0.40808 0.46302,0.46302 0,0.21776 -0.21728,0.0776 -0.56292,-0.36312 z m 23.72954,0.0577 c -0.28248,-0.21366 -0.38635,-0.38846 -0.23084,-0.38846 0.15552,0 0.43098,0.17859 0.61213,0.39687 0.41201,0.49644 0.28241,0.49358 -0.38129,-0.008 z m -170.518651,-0.27822 c 0.0127,-0.30822 0.07539,-0.37092 0.159853,-0.15985 0.07643,0.19099 0.06703,0.4192 -0.02089,0.50712 -0.08792,0.0879 -0.150453,-0.0684 -0.138964,-0.34727 z m 54.270276,-0.24253 c 0.0054,-0.43657 0.06469,-0.58313 0.131773,-0.3257 0.06708,0.25743 0.06267,0.61462 -0.0098,0.79375 -0.07246,0.17913 -0.127349,-0.0315 -0.121957,-0.46805 z m 17.890477,0.48071 c 0.190995,-0.0764 0.4192,-0.067 0.507119,0.0209 0.08792,0.0879 -0.06835,0.15046 -0.347266,0.13897 -0.308226,-0.0127 -0.370919,-0.0754 -0.159853,-0.15986 z m 14.663076,-0.87759 c 0,-0.50932 0.05445,-0.71768 0.121002,-0.46302 0.06655,0.25466 0.06655,0.67138 0,0.92604 -0.06655,0.25466 -0.121002,0.0463 -0.121002,-0.46302 z m 15.569922,0.37483 c 0.0127,-0.30823 0.07539,-0.37092 0.159851,-0.15985 0.07643,0.19099 0.06703,0.41919 -0.02088,0.50711 -0.08792,0.0879 -0.150452,-0.0684 -0.138964,-0.34726 z m 76.52298,-0.904 c 0,-0.80036 0.0496,-1.12778 0.11022,-0.7276 0.0606,0.40018 0.0606,1.05503 0,1.45521 -0.0606,0.40018 -0.11022,0.0728 -0.11022,-0.72761 z m -164.629231,0.37483 c 0.0127,-0.30822 0.07539,-0.37092 0.159853,-0.15985 0.07643,0.19099 0.06703,0.4192 -0.02089,0.50712 -0.08792,0.0879 -0.150453,-0.0683 -0.138964,-0.34727 z m 91.016668,0 c 0.0127,-0.30822 0.07539,-0.37092 0.159851,-0.15985 0.07643,0.19099 0.06703,0.4192 -0.02088,0.50712 -0.08792,0.0879 -0.150453,-0.0683 -0.138965,-0.34727 z m 19.894042,0.23557 c 0.257431,-0.0671 0.614619,-0.0627 0.79375,0.01 0.179131,0.0725 -0.03149,0.12737 -0.468056,0.12197 -0.436563,-0.005 -0.583126,-0.0647 -0.325694,-0.13177 z m 19.342431,-0.20479 c -0.0819,-0.21348 -0.0876,-0.5409 -0.0126,-0.72761 0.075,-0.1867 0.14576,-0.0815 0.15725,0.23381 0.0115,0.3153 0.16971,0.63332 0.35162,0.70672 0.25904,0.10452 0.25724,0.13798 -0.008,0.15434 -0.18647,0.0115 -0.40606,-0.15378 -0.48798,-0.36726 z m -54.826004,-0.40561 c 0,-0.3638 0.06006,-0.51263 0.133454,-0.33072 0.0734,0.1819 0.0734,0.47955 0,0.66145 -0.0734,0.1819 -0.133454,0.0331 -0.133454,-0.33073 z m 27.474892,0.42928 c 0,-0.0549 0.208359,-0.26331 0.463021,-0.46302 0.419645,-0.32911 0.429003,-0.31975 0.0999,0.0999 -0.345644,0.44073 -0.562917,0.58089 -0.562917,0.36313 z m 23.597552,-0.0919 c 0.63492,-0.0669 1.01692,-0.25928 1.09378,-0.55084 0.0841,-0.31904 0.12696,-0.27663 0.14881,0.14728 0.0276,0.53524 -0.0828,0.59082 -1.09379,0.55083 l -1.12448,-0.0445 z m 28.36707,-0.99617 c 0.0159,-0.32162 0.2319,-0.54734 0.55517,-0.58012 0.38083,-0.0386 0.40394,-0.0163 0.0824,0.0797 -0.24571,0.0733 -0.49553,0.3344 -0.55517,0.58012 -0.0764,0.31465 -0.10072,0.29108 -0.0824,-0.0797 z m -169.418734,-0.0248 c 0.0127,-0.30823 0.07539,-0.37092 0.159853,-0.15986 0.07643,0.191 0.06703,0.4192 -0.02089,0.50712 -0.08792,0.0879 -0.150453,-0.0683 -0.138965,-0.34726 z m 2.645833,0 c 0.0127,-0.30823 0.07539,-0.37092 0.159853,-0.15986 0.07643,0.191 0.06703,0.4192 -0.02089,0.50712 -0.08792,0.0879 -0.150453,-0.0683 -0.138964,-0.34726 z m 107.630779,-0.30868 c -0.329108,-0.41965 -0.319749,-0.42901 0.0999,-0.0999 0.44073,0.34565 0.580887,0.56292 0.363125,0.56292 -0.05494,0 -0.263301,-0.20836 -0.463021,-0.46302 z m 8.032633,-0.33073 c 0,-0.50933 0.05445,-0.71768 0.121002,-0.46302 0.06655,0.25466 0.06655,0.67138 0,0.92604 -0.06655,0.25466 -0.121002,0.0463 -0.121002,-0.46302 z m 58.239399,-1.32292 c 0,-1.23693 0.0456,-1.74294 0.10128,-1.12448 0.0557,0.61847 0.0557,1.6305 0,2.24896 -0.0557,0.61846 -0.10128,0.11245 -0.10128,-1.12448 z m -124.934007,1.05833 c 0,-0.3638 0.06005,-0.51263 0.133453,-0.33072 0.0734,0.1819 0.0734,0.47955 0,0.66145 -0.0734,0.1819 -0.133453,0.0331 -0.133453,-0.33073 z m 2.624947,0.11025 c 0.0127,-0.30823 0.07539,-0.37092 0.159851,-0.15986 0.07643,0.191 0.06703,0.4192 -0.02088,0.50712 -0.08792,0.0879 -0.150452,-0.0683 -0.138964,-0.34726 z m 75.966109,-0.24254 c 0.0054,-0.43656 0.06469,-0.58312 0.131773,-0.32569 0.06708,0.25743 0.06267,0.61462 -0.0098,0.79375 -0.07247,0.17913 -0.12735,-0.0315 -0.121957,-0.46806 z M 53.38796,106.62934 c 0.0127,-0.30822 0.07539,-0.37092 0.159851,-0.15985 0.07643,0.19099 0.06703,0.4192 -0.02088,0.50712 -0.08792,0.0879 -0.150452,-0.0683 -0.138964,-0.34727 z m 57.67917,0 c 0.0127,-0.30822 0.0754,-0.37092 0.15985,-0.15985 0.0764,0.19099 0.067,0.4192 -0.0209,0.50712 -0.0879,0.0879 -0.15045,-0.0683 -0.13896,-0.34727 z m -54.768753,-0.26458 c 0.0127,-0.30823 0.07539,-0.37092 0.159851,-0.15986 0.07643,0.191 0.06703,0.4192 -0.02088,0.50712 -0.08792,0.0879 -0.150453,-0.0683 -0.138965,-0.34726 z m 32.829219,-0.11025 c 0,-0.3638 0.06006,-0.51263 0.133454,-0.33072 0.0734,0.1819 0.0734,0.47955 0,0.66145 -0.0734,0.1819 -0.133454,0.0331 -0.133454,-0.33073 z m 19.293694,0.11025 c 0.0127,-0.30823 0.0754,-0.37092 0.15985,-0.15986 0.0764,0.191 0.067,0.4192 -0.0209,0.50712 -0.0879,0.0879 -0.15045,-0.0683 -0.13897,-0.34726 z m -139.435414,-0.26459 c 0.01269,-0.30822 0.07539,-0.37092 0.159853,-0.15985 0.07643,0.191 0.06703,0.4192 -0.02089,0.50712 -0.08792,0.0879 -0.150453,-0.0683 -0.138965,-0.34727 z m -2.624945,-0.37482 c 0,-0.3638 0.06005,-0.51263 0.133452,-0.33073 0.0734,0.1819 0.0734,0.47956 0,0.66146 -0.0734,0.1819 -0.133452,0.0331 -0.133452,-0.33073 z M 145.78594,104.9316 c 0,-0.80037 0.0496,-1.12779 0.11022,-0.72761 0.0606,0.40019 0.0606,1.05503 0,1.45521 -0.0606,0.40018 -0.11022,0.0728 -0.11022,-0.7276 z m -125.185427,0.26458 c 0,-0.3638 0.06006,-0.51263 0.133453,-0.33073 0.0734,0.1819 0.0734,0.47956 0,0.66146 -0.0734,0.1819 -0.133453,0.0331 -0.133453,-0.33073 z m 90.222917,-0.26458 c 0,-0.3638 0.0601,-0.51263 0.13345,-0.33073 0.0734,0.1819 0.0734,0.47956 0,0.66146 -0.0734,0.1819 -0.13345,0.0331 -0.13345,-0.33073 z m 23.50614,0.42927 c 0,-0.0549 0.20836,-0.2633 0.46302,-0.46302 0.41965,-0.32911 0.42901,-0.31975 0.0999,0.0999 -0.34565,0.44073 -0.56292,0.58089 -0.56292,0.36313 z m -81.206193,-0.58361 c 0.0127,-0.30823 0.07539,-0.37092 0.159851,-0.15986 0.07643,0.191 0.06703,0.4192 -0.02088,0.50712 -0.08792,0.0879 -0.150453,-0.0684 -0.138965,-0.34726 z m 55.073823,-0.37483 c 0,-0.50932 0.0545,-0.71768 0.12101,-0.46302 0.0665,0.25466 0.0665,0.67138 0,0.92604 -0.0665,0.25466 -0.12101,0.0463 -0.12101,-0.46302 z m -52.163406,0.11024 c 0.0127,-0.30822 0.07539,-0.37092 0.15985,-0.15985 0.07643,0.191 0.06703,0.4192 -0.02087,0.50712 -0.08792,0.0879 -0.150453,-0.0683 -0.138965,-0.34727 z m -84.472582,-0.0264 c 0.190996,-0.0764 0.419199,-0.067 0.507118,0.0209 0.08792,0.0879 -0.06835,0.15046 -0.347266,0.13897 -0.308224,-0.0127 -0.370919,-0.0754 -0.159852,-0.15986 z m 117.280915,-0.23818 c 0.0127,-0.30822 0.07539,-0.37092 0.159851,-0.15985 0.07643,0.19099 0.06703,0.4192 -0.02088,0.50712 -0.08792,0.0879 -0.150453,-0.0683 -0.138965,-0.34727 z m 7.429219,-0.11024 c 0,-0.3638 0.06006,-0.51263 0.133454,-0.33073 0.0734,0.1819 0.0734,0.47956 0,0.66146 -0.0734,0.1819 -0.133454,0.0331 -0.133454,-0.33073 z m -126.297634,0.0838 c 0.190996,-0.0764 0.419199,-0.067 0.507118,0.0209 0.08792,0.0879 -0.06835,0.15045 -0.347266,0.13896 -0.308224,-0.0127 -0.370919,-0.0754 -0.159852,-0.15985 z m 155.558468,-0.25907 c 0.1819,-0.0734 0.47955,-0.0734 0.66145,0 0.1819,0.0734 0.0331,0.13345 -0.33073,0.13345 -0.3638,0 -0.51263,-0.0601 -0.33072,-0.13345 z m -3.90261,-1.0154 c 0.49366,-0.50932 0.95709,-0.92604 1.02985,-0.92604 0.0728,0 -0.27161,0.41672 -0.76527,0.92604 -0.49365,0.50933 -0.95708,0.92604 -1.02984,0.92604 -0.0728,0 0.27161,-0.41671 0.76526,-0.92604 z m -45.456751,0 c 0.0054,-0.43656 0.06469,-0.58312 0.131773,-0.32569 0.06708,0.25743 0.06267,0.61462 -0.0098,0.79375 -0.07246,0.17913 -0.12735,-0.0315 -0.121957,-0.46806 z m -110.626526,-0.0221 c 0.0127,-0.30822 0.07539,-0.37092 0.159852,-0.15985 0.07643,0.191 0.06703,0.4192 -0.02089,0.50712 -0.08792,0.0879 -0.150453,-0.0684 -0.138964,-0.34727 z m 87.333387,-0.11024 c 0,-0.3638 0.06005,-0.51263 0.133453,-0.33073 0.0734,0.1819 0.0734,0.47956 0,0.66146 -0.0734,0.1819 -0.133453,0.0331 -0.133453,-0.33073 z m 2.910416,-0.26458 c 0,-0.3638 0.06006,-0.51263 0.133454,-0.33073 0.0734,0.1819 0.0734,0.47956 0,0.66146 -0.0734,0.1819 -0.133454,0.0331 -0.133454,-0.33073 z m 29.897917,0 c 0,-0.3638 0.06006,-0.51263 0.133453,-0.33073 0.0734,0.1819 0.0734,0.47956 0,0.66146 -0.0734,0.1819 -0.133453,0.0331 -0.133453,-0.33073 z m 10.562447,-0.41893 c 0.0127,-0.30822 0.07539,-0.37092 0.159851,-0.15985 0.07643,0.191 0.06703,0.4192 -0.02088,0.50712 -0.08792,0.0879 -0.150452,-0.0683 -0.138964,-0.34727 z m 46.56667,-0.26458 c 0.0127,-0.30822 0.0754,-0.37092 0.15985,-0.15985 0.0764,0.19099 0.067,0.4192 -0.0209,0.50712 -0.0879,0.0879 -0.15045,-0.0684 -0.13896,-0.34727 z m 2.64583,0 c 0.0127,-0.30822 0.0754,-0.37092 0.15985,-0.15985 0.0764,0.19099 0.067,0.4192 -0.0209,0.50712 -0.0879,0.0879 -0.15046,-0.0684 -0.13897,-0.34727 z m -173.901748,-0.0264 c 0.190996,-0.0764 0.419199,-0.067 0.507118,0.0209 0.08792,0.0879 -0.06835,0.15045 -0.347266,0.13896 -0.308224,-0.0127 -0.370919,-0.0754 -0.159852,-0.15985 z m -3.191536,-0.27057 c 0.327421,-0.0631 0.863203,-0.0631 1.190625,0 0.327421,0.0631 0.05953,0.11466 -0.595313,0.11466 -0.654844,0 -0.922734,-0.0516 -0.595312,-0.11466 z m 165.766494,0.003 c 0.25743,-0.0671 0.61462,-0.0627 0.79375,0.01 0.17913,0.0725 -0.0315,0.12736 -0.46806,0.12197 -0.43656,-0.005 -0.58312,-0.0647 -0.32569,-0.13178 z m -3.37847,-0.87498 c 0.26339,-0.29104 0.53842,-0.52916 0.61118,-0.52916 0.0728,0 -0.0832,0.23812 -0.3466,0.52916 -0.26339,0.29105 -0.53842,0.52917 -0.61118,0.52917 -0.0728,0 0.0832,-0.23812 0.3466,-0.52917 z m -78.122995,-0.5287 c 0,-0.509325 0.05445,-0.717685 0.121002,-0.463023 0.06655,0.254661 0.06655,0.671383 0,0.926043 -0.06655,0.25466 -0.121002,0.0463 -0.121002,-0.46302 z m 2.890808,0 c 0,-0.363805 0.06006,-0.512633 0.133453,-0.330732 0.0734,0.181902 0.0734,0.479562 0,0.661462 -0.0734,0.1819 -0.133453,0.0331 -0.133453,-0.33073 z m 40.405725,0.0661 c -0.329108,-0.419641 -0.319749,-0.428999 0.0999,-0.0999 0.44073,0.34564 0.580887,0.56291 0.363125,0.56291 -0.05494,0 -0.263301,-0.20836 -0.463021,-0.46302 z m -5.836693,0.0177 c 0.190995,-0.0764 0.419201,-0.067 0.507119,0.0209 0.08792,0.0879 -0.06835,0.15045 -0.347265,0.13896 -0.308227,-0.0127 -0.37092,-0.0754 -0.159854,-0.15985 z M 129.1702,98.581597 c 0.26339,-0.291041 0.53842,-0.529166 0.61118,-0.529166 0.0728,0 -0.0832,0.238125 -0.3466,0.529166 -0.26339,0.291042 -0.53842,0.529167 -0.61118,0.529167 -0.0728,0 0.0832,-0.238125 0.3466,-0.529167 z M 73.739988,98.217119 c 0,-0.05494 0.208359,-0.263301 0.463021,-0.46302 0.419645,-0.329108 0.429003,-0.31975 0.0999,0.09989 -0.345644,0.440729 -0.562917,0.580887 -0.562917,0.363126 z M 140.9104,97.853993 c -0.3291,-0.419644 -0.31974,-0.429002 0.0999,-0.09989 0.44073,0.345643 0.58089,0.562915 0.36313,0.562915 -0.055,0 -0.2633,-0.208359 -0.46303,-0.463021 z"
         id="path916"
         inkscape:connector-curvature="0" />
      <path
         style="fill:#5f5f5f;stroke-width:0.26458335"
         d="m 142.07367,126.97324 c 0.25743,-0.0671 0.61462,-0.0627 0.79375,0.01 0.17913,0.0725 -0.0315,0.12736 -0.46806,0.12197 -0.43656,-0.005 -0.58312,-0.0647 -0.32569,-0.13177 z m -1.16327,-0.54425 c -0.3291,-0.41964 -0.31974,-0.429 0.0999,-0.0999 0.44073,0.34564 0.58089,0.56291 0.36313,0.56291 -0.055,0 -0.2633,-0.20835 -0.46303,-0.46302 z m 2.72136,-0.59531 c 0,-0.3638 0.0601,-0.51263 0.13346,-0.33073 0.0734,0.1819 0.0734,0.47956 0,0.66146 -0.0734,0.1819 -0.13346,0.0331 -0.13346,-0.33073 z m -0.46933,-1.17517 c -0.0805,-0.20978 -0.0997,-0.59673 -0.0427,-0.8599 0.0647,-0.29877 0.15527,-0.15551 0.24114,0.38143 0.14409,0.90104 0.0504,1.12691 -0.1984,0.47847 z m -67.450516,-2.85972 -1.045884,-1.12448 1.124479,1.04588 c 0.618463,0.57524 1.124479,1.08125 1.124479,1.12448 0,0.20018 -0.230412,-1.3e-4 -1.203074,-1.04588 z m -104.415285,-0.90835 c 0.190996,-0.0764 0.419199,-0.067 0.507118,0.0209 0.08792,0.0879 -0.06835,0.15045 -0.347266,0.13896 -0.308224,-0.0127 -0.370919,-0.0754 -0.159852,-0.15985 z m -1.307057,-0.54686 c -0.329107,-0.41965 -0.319749,-0.42901 0.0999,-0.0999 0.440729,0.34564 0.580887,0.56292 0.363126,0.56292 -0.05494,0 -0.263301,-0.20836 -0.463021,-0.46302 z m 15.313437,0.0232 c 0.181901,-0.0734 0.479557,-0.0734 0.661458,0 0.181901,0.0734 0.03307,0.13345 -0.330729,0.13345 -0.363802,0 -0.51263,-0.0601 -0.330729,-0.13345 z m 1.339453,-0.006 c 0.190996,-0.0764 0.419199,-0.067 0.507118,0.0209 0.08792,0.0879 -0.06835,0.15045 -0.347266,0.13896 -0.308224,-0.0127 -0.370919,-0.0754 -0.159852,-0.15985 z m 136.243878,-0.52366 c 0.1819,-0.0734 0.47956,-0.0734 0.66146,0 0.1819,0.0734 0.0331,0.13345 -0.33073,0.13345 -0.3638,0 -0.51263,-0.0601 -0.33073,-0.13345 z m -153.955101,-0.55238 c -0.329107,-0.41964 -0.319749,-0.429 0.0999,-0.0999 0.440729,0.34564 0.580887,0.56291 0.363126,0.56291 -0.05494,0 -0.263302,-0.20835 -0.463021,-0.46302 z m 7.442082,-0.6952 c 0,-0.055 0.20836,-0.2633 0.463021,-0.46303 0.419644,-0.3291 0.429002,-0.31974 0.0999,0.0999 -0.345644,0.44073 -0.562916,0.58089 -0.562916,0.36313 z m 74.546354,-0.0753 c 0.181902,-0.0734 0.479558,-0.0734 0.661459,0 0.181901,0.0734 0.03307,0.13346 -0.330729,0.13346 -0.363802,0 -0.512631,-0.0601 -0.33073,-0.13346 z m 41.142709,-0.007 c 0.254661,-0.0666 0.67138,-0.0666 0.926041,0 0.254662,0.0665 0.0463,0.121 -0.46302,0.121 -0.509323,0 -0.717683,-0.0545 -0.463021,-0.121 z m -13.85823,-0.5452 c -0.329107,-0.41965 -0.319749,-0.42901 0.0999,-0.0999 0.440729,0.34564 0.580887,0.56292 0.363124,0.56292 -0.05494,0 -0.2633,-0.20836 -0.463021,-0.46302 z m -44.309096,-0.39688 -0.504028,-0.59531 0.595312,0.50403 c 0.559446,0.47366 0.715762,0.68659 0.504029,0.68659 -0.05021,0 -0.318098,-0.26789 -0.595313,-0.59531 z m 5.316805,0.0662 c 0.26339,-0.29104 0.538422,-0.52917 0.611182,-0.52917 0.07276,0 -0.08321,0.23813 -0.346599,0.52917 -0.26339,0.29104 -0.538421,0.52916 -0.611182,0.52916 -0.07276,0 0.08321,-0.23812 0.346599,-0.52916 z m 9.499862,-0.0662 -0.504029,-0.59531 0.595313,0.50403 c 0.559445,0.47366 0.715761,0.68659 0.504028,0.68659 -0.05021,0 -0.318098,-0.26789 -0.595312,-0.59531 z M 30.877488,117.796 c 0,-0.055 0.208359,-0.26331 0.463021,-0.46302 0.419645,-0.32911 0.429003,-0.31975 0.0999,0.0999 -0.345644,0.44073 -0.562917,0.58089 -0.562917,0.36313 z m 54.576229,-0.95844 c 0,-0.65485 0.0516,-0.92274 0.114662,-0.59531 0.06307,0.32742 0.06307,0.8632 0,1.19062 -0.06306,0.32742 -0.114662,0.0595 -0.114662,-0.59531 z m -101.441228,0.33073 c -0.329107,-0.41965 -0.319749,-0.42901 0.0999,-0.0999 0.254661,0.19972 0.463021,0.40808 0.463021,0.46302 0,0.21776 -0.217272,0.0776 -0.562916,-0.36312 z m 10.3187488,-0.26459 c -0.3291073,-0.41964 -0.319749,-0.429 0.099896,-0.0999 0.2546615,0.19972 0.4630209,0.40808 0.4630209,0.46302 0,0.21776 -0.2172732,0.0776 -0.5629169,-0.36313 z m 2.1504169,0.36313 c 0,-0.0549 0.2083593,-0.2633 0.4630208,-0.46302 0.419645,-0.32911 0.4290034,-0.31975 0.099896,0.0999 -0.3456437,0.44073 -0.5629169,0.58089 -0.5629169,0.36313 z M 18.992127,116.9478 c 0.0127,-0.30822 0.07539,-0.37092 0.159851,-0.15985 0.07643,0.19099 0.06703,0.4192 -0.02088,0.50712 -0.08792,0.0879 -0.150453,-0.0683 -0.138965,-0.34727 z m 35.433278,0.31903 c 0,-0.0549 0.208359,-0.2633 0.46302,-0.46302 0.419646,-0.32911 0.429004,-0.31975 0.0999,0.0999 -0.345644,0.44073 -0.562917,0.58089 -0.562917,0.36313 z m 55.827085,0 c 0,-0.0549 0.20836,-0.2633 0.46302,-0.46302 0.41964,-0.32911 0.429,-0.31975 0.0999,0.0999 -0.34564,0.44073 -0.56291,0.58089 -0.56291,0.36313 z m 26.19375,-0.26458 c 0,-0.0549 0.20836,-0.26331 0.46302,-0.46302 0.41964,-0.32911 0.429,-0.31975 0.0999,0.0999 -0.34564,0.44073 -0.56291,0.58089 -0.56291,0.36313 z M 36.962905,116.2085 c 0,-0.0549 0.208359,-0.26331 0.463021,-0.46302 0.419645,-0.32911 0.429003,-0.31975 0.0999,0.0999 -0.345644,0.44073 -0.562917,0.58089 -0.562917,0.36313 z M 4.7255131,114.98576 c 0,-0.3638 0.060055,-0.51263 0.1334532,-0.33072 0.073398,0.1819 0.073398,0.47955 0,0.66145 -0.073398,0.1819 -0.1334532,0.0331 -0.1334532,-0.33073 z m 123.9155169,0.26459 -0.79375,-0.20198 0.71199,-0.0313 c 0.39159,-0.0172 0.78557,0.0878 0.87551,0.23328 0.0899,0.14552 0.12673,0.25049 0.0818,0.23328 -0.045,-0.0172 -0.43895,-0.1222 -0.87551,-0.23328 z m -59.37807,-0.41893 c 0.0127,-0.30822 0.07539,-0.37092 0.159851,-0.15985 0.07643,0.191 0.06703,0.4192 -0.02088,0.50712 -0.08792,0.0879 -0.150452,-0.0684 -0.138964,-0.34727 z m -71.9208327,-0.7717 c 0.00294,-0.58208 0.057121,-0.78905 0.1204066,-0.45993 0.063286,0.32912 0.060883,0.80537 -0.00534,1.05833 -0.066223,0.25297 -0.1180042,-0.0163 -0.1150666,-0.5984 z m 27.5015247,0.26459 c 0.0054,-0.43657 0.06469,-0.58313 0.131773,-0.3257 0.06708,0.25743 0.06267,0.61462 -0.0098,0.79375 -0.07246,0.17913 -0.127349,-0.0315 -0.121957,-0.46805 z m 52.330612,0.25819 c -0.184076,-0.2218 -0.283443,-0.45451 -0.220819,-0.51714 0.06263,-0.0626 0.259197,0.11885 0.436822,0.40327 0.384125,0.61508 0.256019,0.68262 -0.216003,0.11387 z m 19.869946,-0.0157 c 0.0127,-0.30822 0.07539,-0.37092 0.159851,-0.15985 0.07643,0.19099 0.06703,0.4192 -0.02088,0.50712 -0.08792,0.0879 -0.150452,-0.0684 -0.138964,-0.34727 z m 10.93418,-0.17639 -0.50403,-0.59531 0.66146,0.52635 c 0.3638,0.28949 0.71107,0.55738 0.7717,0.59531 0.0606,0.0379 -0.0102,0.069 -0.15743,0.069 -0.14722,0 -0.49448,-0.26789 -0.7717,-0.59531 z m -86.574321,-0.33073 c 0.0054,-0.43656 0.06469,-0.58312 0.131773,-0.32569 0.06708,0.25743 0.06267,0.61462 -0.0098,0.79375 -0.07247,0.17913 -0.12735,-0.0315 -0.121957,-0.46806 z m 5.811027,0.13229 c 0,-0.3638 0.06006,-0.51263 0.133454,-0.33072 0.0734,0.1819 0.0734,0.47955 0,0.66145 -0.0734,0.1819 -0.133454,0.0331 -0.133454,-0.33073 z m 10.847917,-0.26458 c 0,-0.3638 0.06006,-0.51263 0.133453,-0.33073 0.0734,0.1819 0.0734,0.47956 0,0.66146 -0.0734,0.1819 -0.133453,0.0331 -0.133453,-0.33073 z m 33.866667,0 c 0,-0.3638 0.06005,-0.51263 0.133453,-0.33073 0.0734,0.1819 0.0734,0.47956 0,0.66146 -0.0734,0.1819 -0.133453,0.0331 -0.133453,-0.33073 z m 13.777941,-0.26458 c 0,-0.50933 0.05445,-0.71768 0.121002,-0.46302 0.06655,0.25466 0.06655,0.67138 0,0.92604 -0.06655,0.25466 -0.121002,0.0463 -0.121002,-0.46302 z m 23.283329,-0.52917 c 0,-0.50932 0.0545,-0.71768 0.12101,-0.46302 0.0665,0.25466 0.0665,0.67138 0,0.92604 -0.0665,0.25466 -0.12101,0.0463 -0.12101,-0.46302 z m 36.20743,0.37483 c 0.0127,-0.30823 0.0754,-0.37092 0.15985,-0.15985 0.0764,0.19099 0.067,0.41919 -0.0209,0.50711 -0.0879,0.0879 -0.15045,-0.0684 -0.13896,-0.34726 z m -68.283392,-0.0946 c 0,-0.13693 0.1177,-0.32171 0.261554,-0.41062 0.149982,-0.0927 0.194336,0.0135 0.103984,0.24897 -0.175893,0.45837 -0.365538,0.54223 -0.365538,0.16165 z m -58.14695,-0.80937 c 0,-0.50932 0.05445,-0.71768 0.121002,-0.46302 0.06655,0.25467 0.06655,0.67138 0,0.92605 -0.06655,0.25466 -0.121002,0.0463 -0.121002,-0.46303 z m -7.321849,-0.1407 c -0.282474,-0.21366 -0.38635,-0.38846 -0.230833,-0.38846 0.155514,0 0.430974,0.17859 0.612132,0.39687 0.412009,0.49644 0.2824,0.49358 -0.381299,-0.008 z m 26.045882,0.1407 c -0.238466,-0.1541 -0.2711,-0.25809 -0.08176,-0.26053 0.173312,-0.002 0.388699,0.11501 0.478636,0.26053 0.203015,0.32849 0.111422,0.32849 -0.396876,0 z m -37.71635383,-0.24217 c -0.13824479,-0.1332 -0.54901042,-0.29558 -0.91281247,-0.36085 l -0.6614584,-0.11866 0.6952086,-0.036 c 0.38236262,-0.0198 0.84342554,0.14256 1.0245831,0.36084 0.3600159,0.43379 0.25738402,0.54289 -0.14552083,0.1547 z M 56.628892,110.88472 c 0.0011,-1.01864 0.04899,-1.40294 0.106272,-0.85399 0.05728,0.54895 0.05631,1.38238 -0.0021,1.85208 -0.05847,0.4697 -0.105331,0.0206 -0.104156,-0.99809 z m -5.318641,1.03751 c 0.251198,-0.26226 0.513672,-0.41989 0.583279,-0.35028 0.06961,0.0696 -0.135916,0.28418 -0.456721,0.47684 -0.557295,0.33467 -0.562933,0.32903 -0.126558,-0.12656 z m 60.595879,0.23532 c 0.25467,-0.0666 0.67138,-0.0666 0.92605,0 0.25466,0.0666 0.0463,0.121 -0.46303,0.121 -0.50932,0 -0.71768,-0.0544 -0.46302,-0.121 z m -28.305378,-0.26556 c 0.257432,-0.0671 0.614619,-0.0627 0.79375,0.01 0.179131,0.0725 -0.03149,0.12736 -0.468056,0.12197 -0.436562,-0.005 -0.583125,-0.0647 -0.325694,-0.13178 z m 34.366428,-0.34581 c 0,-0.3638 0.0601,-0.51263 0.13345,-0.33073 0.0734,0.1819 0.0734,0.47956 0,0.66146 -0.0734,0.1819 -0.13345,0.0331 -0.13345,-0.33073 z m 24.84995,-0.15434 c 0.0127,-0.30822 0.0754,-0.37092 0.15985,-0.15985 0.0764,0.19099 0.067,0.4192 -0.0209,0.50712 -0.0879,0.0879 -0.15045,-0.0683 -0.13896,-0.34727 z m 2.66672,-0.11024 c 0,-0.3638 0.0601,-0.51263 0.13345,-0.33073 0.0734,0.1819 0.0734,0.47956 0,0.66146 -0.0734,0.1819 -0.13345,0.0331 -0.13345,-0.33073 z m -51.685138,0.0838 c 0.190995,-0.0764 0.4192,-0.067 0.507119,0.0209 0.08792,0.0879 -0.06835,0.15045 -0.347266,0.13896 -0.308226,-0.0127 -0.370919,-0.0754 -0.159853,-0.15985 z m 1.443707,-0.003 c 0.257431,-0.0671 0.614619,-0.0627 0.79375,0.01 0.179131,0.0725 -0.03149,0.12737 -0.468056,0.12197 -0.436562,-0.005 -0.583126,-0.0647 -0.325694,-0.13177 z m 18.756011,-0.34581 c 0,-0.3638 0.0601,-0.51263 0.13345,-0.33072 0.0734,0.1819 0.0734,0.47955 0,0.66145 -0.0734,0.1819 -0.13345,0.0331 -0.13345,-0.33073 z m -83.683859,-0.19843 c -0.329107,-0.41965 -0.319749,-0.42901 0.0999,-0.0999 0.254662,0.19972 0.463021,0.40808 0.463021,0.46302 0,0.21776 -0.217273,0.0776 -0.562917,-0.36312 z m -49.117366,-0.59532 c 0,-0.50932 0.05445,-0.71768 0.121001,-0.46302 0.06655,0.25467 0.06655,0.67138 0,0.92605 -0.06655,0.25466 -0.121001,0.0463 -0.121001,-0.46303 z m 39.911589,0.37483 c 0.0127,-0.30822 0.07539,-0.37092 0.15985,-0.15985 0.07643,0.19099 0.06703,0.4192 -0.02087,0.50712 -0.08792,0.0879 -0.150453,-0.0683 -0.138965,-0.34727 z m 58.25359,0.23654 c 0.254661,-0.0666 0.67138,-0.0666 0.926042,0 0.254661,0.0665 0.0463,0.121 -0.463021,0.121 -0.509323,0 -0.717683,-0.0545 -0.463021,-0.121 z m 41.229746,-0.23654 c 0.0127,-0.30822 0.0754,-0.37092 0.15985,-0.15985 0.0764,0.19099 0.067,0.4192 -0.0209,0.50712 -0.0879,0.0879 -0.15045,-0.0683 -0.13896,-0.34727 z M 3.5916544,110.28941 c -0.3291073,-0.41964 -0.3197489,-0.429 0.099896,-0.0999 0.4407297,0.34564 0.5808874,0.56291 0.3631248,0.56291 -0.054941,0 -0.2633002,-0.20836 -0.4630209,-0.46302 z m 30.8577086,-0.0662 c 0.26339,-0.29104 0.538422,-0.52916 0.611182,-0.52916 0.07276,0 -0.08321,0.23812 -0.346599,0.52916 -0.26339,0.29105 -0.538421,0.52917 -0.611182,0.52917 -0.07276,0 0.08321,-0.23812 0.346599,-0.52917 z m 34.813597,0.11025 c 0.0127,-0.30823 0.07539,-0.37092 0.159851,-0.15985 0.07643,0.19099 0.06703,0.41919 -0.02088,0.50711 -0.08792,0.0879 -0.150452,-0.0683 -0.138964,-0.34726 z m 2.645834,0 c 0.0127,-0.30823 0.07539,-0.37092 0.15985,-0.15985 0.07643,0.19099 0.06703,0.41919 -0.02088,0.50711 -0.08792,0.0879 -0.150453,-0.0683 -0.138965,-0.34726 z m -93.397918,-0.26459 c 0.0127,-0.30822 0.07539,-0.37092 0.159853,-0.15985 0.07643,0.191 0.06703,0.4192 -0.02089,0.50712 -0.08792,0.0879 -0.150453,-0.0683 -0.138965,-0.34727 z m 48.728591,-0.55721 c 0.254662,-0.0665 0.67138,-0.0665 0.926042,0 0.254661,0.0666 0.0463,0.121 -0.463021,0.121 -0.509323,0 -0.717682,-0.0545 -0.463021,-0.121 z m 55.430209,-0.25742 c 0.181901,-0.0734 0.479557,-0.0734 0.661458,0 0.181901,0.0734 0.03307,0.13345 -0.330729,0.13345 -0.363802,0 -0.512631,-0.0601 -0.330729,-0.13345 z M 18.46296,108.74601 c 0.0127,-0.30823 0.07539,-0.37092 0.159851,-0.15985 0.07643,0.19099 0.06703,0.41919 -0.02088,0.50711 -0.08792,0.0879 -0.150452,-0.0684 -0.138964,-0.34726 z m 33.531585,0.23818 c 0.190995,-0.0764 0.419201,-0.067 0.507119,0.0209 0.08792,0.0879 -0.06835,0.15045 -0.347265,0.13896 -0.308227,-0.0127 -0.37092,-0.0754 -0.159854,-0.15985 z m 91.108055,-0.34843 c 0,-0.3638 0.0601,-0.51263 0.13345,-0.33072 0.0734,0.1819 0.0734,0.47955 0,0.66145 -0.0734,0.1819 -0.13345,0.0331 -0.13345,-0.33073 z m -53.521362,-0.19843 c -0.329108,-0.41965 -0.319749,-0.42901 0.0999,-0.0999 0.44073,0.34565 0.580887,0.56292 0.363125,0.56292 -0.05494,0 -0.263301,-0.20836 -0.463021,-0.46302 z M 20.84421,107.95226 c 0.0127,-0.30823 0.07539,-0.37092 0.159851,-0.15986 0.07643,0.191 0.06703,0.4192 -0.02088,0.50712 -0.08792,0.0879 -0.150452,-0.0683 -0.138964,-0.34726 z m 32.808334,0 c 0.0127,-0.30823 0.07539,-0.37092 0.15985,-0.15986 0.07643,0.191 0.06703,0.4192 -0.02087,0.50712 -0.08792,0.0879 -0.150453,-0.0683 -0.138965,-0.34726 z m 55.033336,-0.26459 c 0.0127,-0.30822 0.0754,-0.37092 0.15985,-0.15985 0.0764,0.191 0.067,0.4192 -0.0209,0.50712 -0.0879,0.0879 -0.15045,-0.0684 -0.13896,-0.34727 z m -19.558284,-0.37482 c 0,-0.3638 0.06006,-0.51263 0.133454,-0.33073 0.0734,0.1819 0.0734,0.47956 0,0.66146 -0.0734,0.1819 -0.133454,0.0331 -0.133454,-0.33073 z m 21.939534,0.11024 c 0.0127,-0.30822 0.0754,-0.37092 0.15985,-0.15985 0.0764,0.19099 0.067,0.4192 -0.0209,0.50712 -0.0879,0.0879 -0.15045,-0.0683 -0.13896,-0.34727 z m -144.462504,-0.26458 c 0.0127,-0.30823 0.07539,-0.37092 0.159853,-0.15986 0.07643,0.191 0.06703,0.4192 -0.02089,0.50712 -0.08792,0.0879 -0.150453,-0.0683 -0.138965,-0.34726 z m 89.693751,0 c 0.0127,-0.30823 0.07539,-0.37092 0.159851,-0.15986 0.07643,0.191 0.06703,0.4192 -0.02088,0.50712 -0.08792,0.0879 -0.150453,-0.0683 -0.138965,-0.34726 z m 89.450053,-0.37483 c 0,-0.3638 0.06,-0.51263 0.13345,-0.33073 0.0734,0.1819 0.0734,0.47956 0,0.66146 -0.0734,0.1819 -0.13345,0.0331 -0.13345,-0.33073 z m -7.6938,-0.15434 c 0.0127,-0.30822 0.0754,-0.37092 0.15985,-0.15985 0.0764,0.19099 0.067,0.4192 -0.0209,0.50712 -0.0879,0.0879 -0.15045,-0.0683 -0.13896,-0.34727 z m -53.160367,-0.63941 c 0,-0.3638 0.06006,-0.51263 0.133453,-0.33073 0.0734,0.1819 0.0734,0.47956 0,0.66146 -0.0734,0.1819 -0.133453,0.0331 -0.133453,-0.33073 z m 44.077497,0.35394 c 0.1819,-0.0734 0.47956,-0.0734 0.66146,0 0.1819,0.0734 0.0331,0.13345 -0.33073,0.13345 -0.3638,0 -0.51263,-0.0601 -0.33073,-0.13345 z m -150.101542,-1.21383 -0.777105,-0.8599 0.859896,0.7771 c 0.801543,0.72438 0.981512,0.94269 0.777105,0.94269 -0.04554,0 -0.432488,-0.38695 -0.859896,-0.85989 z m -12.530175,-0.35278 c 0.0127,-0.30823 0.07539,-0.37092 0.159852,-0.15986 0.07643,0.191 0.06703,0.4192 -0.02089,0.50712 -0.08792,0.0879 -0.150453,-0.0684 -0.138964,-0.34726 z m 160.316607,-0.63941 c -0.23846,-0.15411 -0.2711,-0.2581 -0.0818,-0.26053 0.17332,-0.002 0.3887,0.11501 0.47864,0.26053 0.20301,0.32848 0.11142,0.32848 -0.39688,0 z m 16.44595,-0.79375 c 0,-0.3638 0.0601,-0.51263 0.13345,-0.33073 0.0734,0.1819 0.0734,0.47956 0,0.66146 -0.0734,0.1819 -0.13345,0.0331 -0.13345,-0.33073 z m 2.36036,-0.68351 c 0.0127,-0.30822 0.0754,-0.37092 0.15985,-0.15985 0.0764,0.19099 0.067,0.4192 -0.0209,0.50712 -0.0879,0.0879 -0.15046,-0.0683 -0.13897,-0.34727 z M 17.425513,102.28576 c 0,-0.3638 0.06006,-0.51263 0.133453,-0.33072 0.0734,0.1819 0.0734,0.47955 0,0.66145 -0.0734,0.1819 -0.133453,0.0331 -0.133453,-0.33073 z m 91.983617,0.34843 c 0.19099,-0.0764 0.4192,-0.067 0.50712,0.0209 0.0879,0.0879 -0.0684,0.15045 -0.34727,0.13896 -0.30822,-0.0127 -0.37092,-0.0754 -0.15985,-0.15985 z m -20.8107,-0.61301 c 0,-0.3638 0.06006,-0.51263 0.133453,-0.33073 0.0734,0.1819 0.0734,0.47956 0,0.66146 -0.0734,0.1819 -0.133453,0.0331 -0.133453,-0.33073 z m 7.672916,-0.79375 c 0,-0.3638 0.06006,-0.51263 0.133454,-0.33073 0.0734,0.1819 0.0734,0.47956 0,0.66146 -0.0734,0.1819 -0.133454,0.0331 -0.133454,-0.33073 z m -40.766719,-0.15434 c 0.0127,-0.30822 0.07539,-0.37092 0.159851,-0.15985 0.07643,0.19099 0.06703,0.4192 -0.02088,0.50712 -0.08792,0.0879 -0.150453,-0.0683 -0.138965,-0.34727 z m -37.112165,-0.0264 c 0.190995,-0.0764 0.419198,-0.067 0.507119,0.0209 0.08792,0.0879 -0.06835,0.15045 -0.347266,0.13896 -0.308226,-0.0127 -0.370919,-0.0754 -0.159853,-0.15985 z m 60.176172,-0.009 c 0.400182,-0.0606 1.055026,-0.0606 1.455208,0 0.400182,0.0606 0.07276,0.11022 -0.727604,0.11022 -0.800365,0 -1.127786,-0.0496 -0.727604,-0.11022 z m 12.7,-0.79375 c 0.400182,-0.0606 1.055026,-0.0606 1.455208,0 0.400182,0.0606 0.07276,0.11022 -0.727604,0.11022 -0.800365,0 -1.127786,-0.0496 -0.727604,-0.11022 z M 77.760319,97.920139 c 0.0054,-0.436562 0.06469,-0.583125 0.131773,-0.325693 0.06708,0.25743 0.06267,0.614618 -0.0098,0.79375 -0.07247,0.179131 -0.12735,-0.03149 -0.121957,-0.468057 z m -3.226581,-0.49677 c 0,-0.05494 0.208359,-0.263301 0.463021,-0.46302 0.419645,-0.329108 0.429003,-0.31975 0.0999,0.09989 -0.345644,0.440729 -0.562917,0.580887 -0.562917,0.363126 z m 66.166722,-0.319028 c 0.0127,-0.308225 0.0754,-0.37092 0.15985,-0.159853 0.0764,0.190996 0.067,0.419199 -0.0209,0.507118 -0.0879,0.08792 -0.15046,-0.06835 -0.13897,-0.347265 z m 2.7321,-0.440973 -0.50403,-0.595312 0.59531,0.504028 c 0.55945,0.473662 0.71576,0.686597 0.50403,0.686597 -0.0502,0 -0.3181,-0.267891 -0.59531,-0.595313 z M 76.336212,96.28419 c 0.190995,-0.07643 0.419201,-0.06703 0.507119,0.02089 0.08792,0.08792 -0.06835,0.150453 -0.347266,0.138965 -0.308226,-0.0127 -0.370919,-0.07539 -0.159853,-0.159853 z"
         id="path914"
         inkscape:connector-curvature="0" />
      <path
         style="fill:#eeeeee;stroke-width:0.26458335"
         d="m 141.11776,126.4085 c -0.78057,-0.86252 -0.79165,-2.1153 -0.0472,-5.33732 1.78721,-7.73528 2.06392,-9.67577 2.09398,-14.68437 0.0324,-5.39899 -0.35548,-7.437895 -1.56586,-8.230965 -1.2933,-0.847407 -0.45822,-2.536531 0.98181,-1.9859 1.35922,0.519731 2.1812,2.089185 2.7238,5.200655 0.84558,4.84893 0.37607,11.41459 -1.35004,18.87892 -0.77391,3.34664 -0.88618,4.17726 -0.6295,4.65687 0.17182,0.32105 0.27203,0.8694 0.22268,1.21853 -0.0728,0.51524 -0.2667,0.64968 -1.02929,0.71378 -0.66345,0.0558 -1.07498,-0.0707 -1.40037,-0.4302 z m -67.10405,-2.57625 c -1.791734,-1.67596 -3.077893,-3.63568 -3.90562,-5.95099 -0.62366,-1.74451 -0.702699,-2.34721 -0.691997,-5.27675 0.0099,-2.71107 0.138636,-3.78427 0.714076,-5.95312 1.318313,-4.96878 4.516483,-10.186459 6.243773,-10.186459 0.962453,0 1.391409,0.545523 1.286703,1.636362 -0.06958,0.724875 -0.228727,0.919791 -0.916602,1.122596 -1.464738,0.431848 -3.64586,4.908541 -4.438734,9.110371 -1.054505,5.58836 -0.09547,9.62595 3.129497,13.17541 1.592204,1.75241 1.892405,2.76186 0.968409,3.25637 -0.806611,0.43169 -1.018029,0.34906 -2.389505,-0.93379 z m -104.361519,-4.04787 -1.032588,-1.06722 -0.865505,-5.13123 c -0.476027,-2.82217 -0.947236,-6.01322 -1.047131,-7.09122 -0.09989,-1.07799 -0.347081,-2.22369 -0.549303,-2.54599 -0.534865,-0.85247 -0.45137,-1.59733 0.227637,-2.03075 0.481852,-0.30757 1.06947,-0.33489 3.083172,-0.14332 4.81936,0.45846 7.84064,1.66319 9.891434,3.94416 1.493654,1.66131 1.861549,2.72283 1.732875,5.00004 -0.13214,2.33853 -1.173731,4.39555 -3.291025,6.49937 -2.081351,2.06811 -4.253126,3.36926 -5.873037,3.51866 -1.168618,0.10778 -1.306465,0.0501 -2.276529,-0.9525 z m 3.678422,-2.3886 c 1.607881,-0.92374 3.831476,-3.22562 4.632331,-4.79543 1.636597,-3.20799 -0.03872,-6.20088 -4.281363,-7.64846 -1.666247,-0.56853 -4.981176,-1.04653 -4.981176,-0.71827 0,0.45158 0.837087,5.6653 1.32462,8.25028 0.674037,3.57384 1.299933,5.67766 1.688161,5.67438 0.161981,-0.001 0.889823,-0.34449 1.617427,-0.7625 z m 11.822706,2.83979 c -2.45205,-0.43177 -3.8632,-2.01467 -3.865173,-4.33559 -8.2e-4,-0.95967 0.165429,-1.56866 0.591603,-2.16716 0.754164,-1.05913 1.406516,-1.26125 2.40471,-0.74506 0.436609,0.22578 1.127168,0.41312 1.534577,0.41632 0.75777,0.006 2.533368,0.74997 3.266427,1.36873 1.2395103,1.04625 1.6111379,2.43925 1.0054125,3.76867 -0.6105525,1.34002 -2.7600585,2.07752 -4.9375565,1.69409 z m 2.544915,-2.9194 c 0.16109,-0.84773 -2.216594,-1.60322 -3.498065,-1.11147 -0.595675,0.22858 -0.517589,0.79769 0.176798,1.28855 0.823258,0.58196 3.201123,0.45518 3.321267,-0.17708 z m 5.8383568,2.0503 c -1.1283341,-0.76672 -1.8581555,-2.24391 -2.3287249,-4.71344 -0.3012652,-1.58103 -0.2906871,-1.86426 0.091398,-2.4474 0.4829201,-0.73703 1.2488148,-0.8578 1.7338251,-0.2734 0.1762152,0.21233 0.4259395,1.22662 0.5549371,2.25398 0.2605908,2.07534 0.5454015,2.77368 1.2947994,3.17474 0.7885457,0.42202 1.3042159,0.32473 2.0077298,-0.37878 0.5478304,-0.54783 0.649433,-0.9024 0.649433,-2.26636 0,-2.02365 0.3077051,-2.64046 1.3172228,-2.64046 1.02408041,0 1.59319387,0.85358 1.59319387,2.38955 0,1.3926 0.50254429,2.27673 1.15236363,2.02737 0.5213191,-0.20005 0.5906743,-2.07813 0.1522386,-4.12249 -0.3371586,-1.57211 -0.019579,-2.4111 0.912659,-2.4111 0.8303869,0 1.4027944,0.70176 1.729703,2.12058 0.6730629,2.92114 0.049998,6.15215 -1.3286581,6.88999 -0.8639361,0.46236 -2.48718128,0.39663 -3.29623743,-0.13349 -0.66573664,-0.43621 -0.719328,-0.43288 -1.26539357,0.0786 -1.3418926,1.25686 -3.4976303,1.45295 -4.970489,0.45212 z M 120.32715,119.16218 c -1.85876,-0.99366 -2.27499,-2.06285 -2.24386,-5.76392 0.0304,-3.61114 0.48537,-5.44847 1.97674,-7.98227 1.27777,-2.17088 2.81659,-3.53146 4.4439,-3.92916 1.42524,-0.34831 1.82606,-0.37126 2.5496,-0.14598 0.43099,0.13419 0.66385,-0.0814 1.25509,-1.16208 0.79553,-1.454078 2.21298,-2.63062 4.39257,-3.646032 1.15055,-0.53601 1.53161,-0.605454 2.04322,-0.372349 1.20202,0.547677 1.06267,2.484978 -0.32639,4.537871 l -0.6266,0.92605 0.86439,0.14979 c 0.47541,0.0824 1.1233,0.31378 1.43974,0.51421 0.80509,0.5099 1.64677,2.10903 1.83574,3.48775 l 0.15967,1.1649 -1.0208,0.25209 c -0.77132,0.19048 -1.04195,0.40132 -1.10735,0.8627 -0.1045,0.73724 0.60565,1.90293 1.15929,1.90293 0.21949,0 0.46761,0.17859 0.55137,0.39688 0.0838,0.21828 0.33537,0.39687 0.55913,0.39687 0.34052,0 0.38082,0.27849 0.24725,1.70881 -0.25861,2.76941 -1.12108,4.03467 -4.15028,6.08854 -1.31514,0.89171 -1.58748,0.97579 -2.82949,0.8736 -0.87483,-0.072 -1.73651,-0.35346 -2.37096,-0.77449 l -0.99666,-0.66142 -1.30982,0.81423 c -1.10631,0.68772 -1.62179,0.82758 -3.31759,0.90012 -1.70642,0.073 -2.1834,-0.008 -3.1779,-0.53964 z m 5.67146,-2.97046 c 0.57938,-0.44191 1.4297,-0.79843 2.07639,-0.87057 0.92761,-0.10349 1.25259,0.003 2.12376,0.69726 0.56572,0.45069 1.23723,0.81944 1.49225,0.81944 0.82285,0 3.60154,-2.25621 3.9264,-3.18812 0.42272,-1.2126 0.38198,-1.44091 -0.32463,-1.81907 -1.77949,-0.95236 -2.187,-4.88152 -0.66421,-6.40431 0.57029,-0.57029 0.49663,-1.2885 -0.13215,-1.2885 -0.20841,0 -1.31018,0.47625 -2.44839,1.05833 -2.74395,1.40327 -3.31928,1.38593 -4.38943,-0.13229 -0.793,-1.12505 -0.90816,-1.19063 -2.09086,-1.19063 -1.05855,0 -1.38388,0.13226 -2.10897,0.85735 -0.47154,0.47154 -1.28384,1.75146 -1.80511,2.84427 -0.89061,1.8671 -0.95348,2.17349 -1.04251,5.08039 -0.0936,3.05673 -0.0863,3.10187 0.61257,3.80078 0.63971,0.63971 0.85482,0.69664 2.25051,0.59569 1.17634,-0.0851 1.77644,-0.28953 2.52438,-0.86002 z m 5.15596,-15.62575 c 0.49366,-0.50932 0.83802,-0.926039 0.76526,-0.926039 -0.0728,0 -0.53619,0.416719 -1.02984,0.926039 -0.49366,0.50933 -0.83802,0.92604 -0.76526,0.92604 0.0728,0 0.53619,-0.41671 1.02984,-0.92604 z m -49.477082,18.26268 c -0.845288,-0.36814 -1.70919,-0.57233 -2.061181,-0.48718 -0.915501,0.22147 -1.551435,-0.53363 -1.757471,-2.08681 -0.09878,-0.74461 -0.344276,-1.58896 -0.545552,-1.87633 -0.321649,-0.45921 -0.285869,-0.67565 0.295502,-1.7875 0.363805,-0.69577 0.842518,-1.33451 1.063805,-1.41942 0.780704,-0.29959 2.206916,-0.14834 3.534064,0.37477 0.738378,0.29104 1.680707,0.52917 2.094066,0.52917 1.27213,0 1.430856,0.46908 1.217567,3.59831 -0.270584,3.96984 -0.859356,4.45348 -3.8408,3.15499 z m -61.888915,-0.11513 c -0.540147,-0.54015 -0.675635,-1.49225 -0.963472,-6.77046 -0.08729,-1.60073 -0.343821,-4.22011 -0.570064,-5.82084 -0.620702,-4.39163 -0.606874,-4.74877 0.187034,-4.83104 1.677691,-0.17384 1.823808,0.46054 3.078054,13.36386 0.10573,1.08771 0.234212,1.38906 0.592236,1.38906 1.219533,0 1.458277,1.53809 0.392118,2.52617 -0.843278,0.78153 -2.015784,0.84337 -2.715906,0.14325 z m -12.1596627,0.003 c -0.2071502,-0.13123 -0.6284727,-1.62082 -0.9845146,-3.48078 -0.3423179,-1.78825 -0.7449105,-3.37389 -0.8946515,-3.52363 -0.4403037,-0.4403 -0.3131714,-1.3703 0.2579847,-1.88719 0.7466488,-0.6757 1.8013653,-0.1811 2.0277693,0.95092 l 0.1646978,0.8235 0.6372146,-0.81421 c 1.4319404,-1.82968 3.8241574,-1.59784 5.3577644,0.51924 0.898576,1.24045 1.865646,4.04459 1.865646,5.40967 0,0.9678 -0.568682,1.71082 -1.309417,1.71082 -0.690804,0 -1.109033,-0.62542 -1.373066,-2.05326 -0.296183,-1.60172 -1.567064,-4.16445 -2.065187,-4.16445 -0.678325,0 -1.3476021,1.60303 -1.6025466,3.83836 -0.1363028,1.1951 -0.3851884,2.33842 -0.5530771,2.54071 -0.3450616,0.41578 -0.9910577,0.47084 -1.528617,0.1303 z M 34.508024,117.9117 c -0.523817,-0.45992 -1.09337,-1.26337 -1.265672,-1.78545 -0.744535,-2.25597 0.542613,-5.77248 2.368392,-6.47049 0.466494,-0.17834 0.883636,-0.11065 1.591402,0.25826 0.58564,0.30525 1.279829,0.4529 1.782506,0.37912 0.642564,-0.0943 0.917617,0.0138 1.252866,0.49244 0.236254,0.3373 0.429553,0.86682 0.429553,1.17673 0,0.96277 1.129832,2.33045 2.445182,2.95993 0.856435,0.40986 1.302805,0.80696 1.416563,1.26021 0.369795,1.47338 -1.315776,1.91278 -3.200286,0.83426 l -1.058334,-0.6057 -0.938683,1.04687 c -0.835155,0.93139 -1.1004,1.06027 -2.404891,1.16845 -1.35106,0.11204 -1.540996,0.0559 -2.418598,-0.71463 z m 3.170372,-2.3103 c 0.5001,-0.76325 0.624576,-2.56604 0.204536,-2.96229 -0.142213,-0.13416 -0.631639,-0.32241 -1.087614,-0.41834 -0.75683,-0.15922 -0.854782,-0.10059 -1.12448,0.67307 -0.421589,1.20937 -0.365193,2.36956 0.142449,2.93049 0.619578,0.68463 1.325759,0.60022 1.865109,-0.22293 z m 53.435806,2.85734 c -2.679642,-0.19052 -3.210261,-0.56146 -2.931176,-2.04912 0.08774,-0.46767 0.0067,-1.27289 -0.180049,-1.78938 -0.256895,-0.71043 -0.267089,-1.08628 -0.04187,-1.54378 0.163735,-0.3326 0.369581,-0.86267 0.457433,-1.17793 0.265274,-0.95194 1.467432,-1.18709 3.793373,-0.74201 1.118304,0.21399 2.524715,0.3891 3.125362,0.38912 0.600644,3e-5 1.209418,0.14888 1.352833,0.33078 0.24053,0.30508 0.675219,3.73599 0.657561,5.18999 -0.01762,1.45046 -1.321012,1.74159 -6.233472,1.39233 z m -64.141736,-0.5459 c -2.037004,-1.27911 -2.50126,-3.91674 -1.167268,-6.63173 0.673113,-1.36995 0.777269,-1.45981 1.777783,-1.53376 2.159661,-0.15961 4.367919,2.2322 4.564031,4.94341 0.106862,1.47736 0.06469,1.61287 -0.793179,2.54897 -0.762722,0.83227 -1.112708,1.00653 -2.212549,1.10163 -0.99831,0.0863 -1.509919,-0.0148 -2.168818,-0.42852 z m 2.687375,-2.46747 c 0.22624,-0.3615 0.172987,-0.68272 -0.237561,-1.433 -0.963544,-1.76088 -1.805062,-1.84189 -2.132386,-0.20528 -0.319257,1.59629 1.576208,2.90657 2.369947,1.63828 z m 19.304021,2.10351 c -0.995749,-0.91253 -1.020749,-0.98019 -1.020749,-2.76246 0,-1.5725 0.111723,-2.00773 0.801984,-3.12419 1.429001,-2.31136 3.777271,-3.24929 4.763164,-1.90248 0.419002,0.57239 0.431191,0.53419 0.316584,-0.99218 -0.06556,-0.87313 -0.339021,-3.27214 -0.607695,-5.33113 -0.388448,-2.97686 -0.424283,-3.884575 -0.174963,-4.431772 0.403169,-0.88486 1.484347,-0.935035 2.000316,-0.09283 0.573138,0.935511 1.579801,9.793022 1.456727,12.817572 -0.08721,2.14328 -0.219183,2.79732 -0.758968,3.76138 -1.032364,1.8438 -2.34951,2.74716 -4.200776,2.88107 -1.479206,0.10699 -1.604553,0.0669 -2.575624,-0.82298 z m 3.309607,-1.88391 c 0.793311,-0.41024 1.502862,-1.80894 1.717844,-3.3863 0.134298,-0.98536 0.13357,-0.98621 -0.491715,-0.57651 -0.488026,0.31977 -0.748098,0.34507 -1.178586,0.11468 -0.703572,-0.37654 -0.956254,-0.20963 -1.603555,1.05918 -0.592479,1.16135 -0.681135,2.37684 -0.207886,2.85009 0.416468,0.41647 0.87076,0.40072 1.763898,-0.0611 z m 54.767001,1.31814 c -1.09751,-0.74577 -2.48681,-2.71984 -2.91131,-4.13672 -0.61873,-2.06514 0.59805,-3.44158 3.20936,-3.63046 1.82062,-0.1317 1.72721,0.10507 1.28093,-3.24682 -0.34465,-2.58858 -0.16331,-3.15467 1.01053,-3.15467 0.807,0 0.97844,0.47138 1.39577,3.83773 l 0.32817,2.64711 1.23522,0.3956 c 1.15994,0.37149 1.23522,0.45204 1.23522,1.32164 0,0.90031 -0.0312,0.92831 -1.12448,1.0074 l -1.12448,0.0814 -0.006,1.10927 c -0.0219,3.84221 -1.99898,5.4875 -4.52862,3.76856 z m 1.98832,-2.82466 c 0.0909,-0.45475 0.16536,-1.16913 0.16536,-1.5875 0,-0.72515 -0.0556,-0.76068 -1.19062,-0.76068 -0.98205,0 -1.19063,0.0858 -1.19063,0.48947 0,0.53951 1.45492,2.68553 1.82067,2.68553 0.12642,0 0.30427,-0.37207 0.39522,-0.82682 z m -29.551572,-5.63418 c -1.137388,-0.33651 -2.20895,-0.75283 -2.38125,-0.92517 -0.172299,-0.17233 -0.326149,-0.8729 -0.341884,-1.55681 -0.01574,-0.68391 -0.121518,-1.8112 -0.235066,-2.50509 -0.330118,-2.01734 -0.0013,-2.21511 4.049048,-2.43633 3.499319,-0.19112 4.680289,0 4.990185,0.80758 0.08967,0.23367 -0.03244,1.23476 -0.271365,2.22464 -0.238919,0.98987 -0.434398,2.26226 -0.434398,2.82752 0,0.56527 -0.185346,1.29237 -0.411877,1.61579 -0.548661,0.78332 -2.198079,0.766 -4.963393,-0.0521 z m 11.328395,0.46663 c -1.07102,-0.29484 -1.375683,-0.84958 -1.54323,-2.80994 -0.08984,-1.05122 -0.24016,-2.57311 -0.334034,-3.38198 -0.229809,-1.98015 0.148863,-2.36173 2.359184,-2.37731 0.89911,-0.006 2.12059,-0.10573 2.7144,-0.22086 1.977329,-0.383391 2.140614,-0.17935 2.340002,2.92415 0.325397,5.06482 0.349998,4.73618 -0.396508,5.29702 -0.695989,0.52288 -3.984709,0.88691 -5.139814,0.56892 z"
         id="path912"
         inkscape:connector-curvature="0" />
    </g>
  </g>
</svg>
