<?xml version="1.0" encoding="UTF-8" standalone="no"?>
<!-- Created with Inkscape (http://www.inkscape.org/) -->

<svg
   xmlns:dc="http://purl.org/dc/elements/1.1/"
   xmlns:cc="http://creativecommons.org/ns#"
   xmlns:rdf="http://www.w3.org/1999/02/22-rdf-syntax-ns#"
   xmlns:svg="http://www.w3.org/2000/svg"
   xmlns="http://www.w3.org/2000/svg"
   xmlns:sodipodi="http://sodipodi.sourceforge.net/DTD/sodipodi-0.dtd"
   xmlns:inkscape="http://www.inkscape.org/namespaces/inkscape"
   width="187.26567mm"
   height="28.572538mm"
   viewBox="0 0 187.26567 28.572538"
   version="1.1"
   id="svg8"
   sodipodi:docname="FreeWallpaperArt.svg"
   inkscape:version="0.92.5 (2060ec1f9f, 2020-04-08)">
  <defs
     id="defs2" />
  <sodipodi:namedview
     id="base"
     pagecolor="#ffffff"
     bordercolor="#666666"
     borderopacity="1.0"
     inkscape:pageopacity="0.0"
     inkscape:pageshadow="2"
     inkscape:zoom="1.754102"
     inkscape:cx="253.42068"
     inkscape:cy="-103.99822"
     inkscape:document-units="mm"
     inkscape:current-layer="layer1"
     showgrid="false"
     inkscape:window-width="1848"
     inkscape:window-height="1016"
     inkscape:window-x="72"
     inkscape:window-y="27"
     inkscape:window-maximized="1"
     fit-margin-top="0"
     fit-margin-left="0"
     fit-margin-right="0"
     fit-margin-bottom="0" />
  <metadata
     id="metadata5">
    <rdf:RDF>
      <cc:Work
         rdf:about="">
        <dc:format>image/svg+xml</dc:format>
        <dc:type
           rdf:resource="http://purl.org/dc/dcmitype/StillImage" />
        <dc:title></dc:title>
      </cc:Work>
    </rdf:RDF>
  </metadata>
  <g
     inkscape:label="Layer 1"
     inkscape:groupmode="layer"
     id="layer1"
     transform="translate(32.208714,-176.01353)">
    <g
       id="g948"
       transform="translate(9.9541481,-120.99253)">
      <path
         style="fill:#a1a1a1;stroke-width:0.26458335"
         d="m 54.973445,323.98995 c 0,-0.50932 0.05445,-0.71768 0.121002,-0.46302 0.06655,0.25466 0.06655,0.67138 0,0.92604 -0.06655,0.25466 -0.121002,0.0463 -0.121002,-0.46302 z m 20.862748,0.19562 c 0.06064,-0.0379 0.4079,-0.30582 0.771702,-0.59531 l 0.661459,-0.52635 -0.504029,0.59531 c -0.277214,0.32742 -0.62448,0.59531 -0.7717,0.59531 -0.147222,0 -0.218064,-0.031 -0.157432,-0.069 z m -115.165407,-0.37636 c 0.190996,-0.0764 0.419199,-0.067 0.507118,0.0209 0.08792,0.0879 -0.06835,0.15045 -0.347266,0.13896 -0.308224,-0.0127 -0.370919,-0.0754 -0.159852,-0.15985 z m -1.01403,-0.48711 c -0.184076,-0.2218 -0.283445,-0.45451 -0.220819,-0.51714 0.06263,-0.0626 0.259195,0.11885 0.43682,0.40327 0.384126,0.61509 0.256019,0.68262 -0.216001,0.11387 z m 2.148534,-0.0477 c 0.192655,-0.3208 0.407233,-0.52633 0.47684,-0.45672 0.06961,0.0696 -0.08802,0.33208 -0.350281,0.58328 -0.455596,0.43637 -0.461235,0.43074 -0.126559,-0.12656 z m 36.4197928,-1.31174 c 0.1819011,-0.0734 0.4795573,-0.0734 0.6614584,0 0.18190101,0.0734 0.033073,0.13345 -0.3307292,0.13345 -0.3638021,0 -0.5126302,-0.06 -0.3307292,-0.13345 z m 2.1166667,0 c 0.18190104,-0.0734 0.47955729,-0.0734 0.6614583,0 0.1819011,0.0734 0.033073,0.13345 -0.33072913,0.13345 -0.36380209,0 -0.51263021,-0.06 -0.33072917,-0.13345 z m 57.5474515,-0.75081 c 0.0029,-0.58209 0.05712,-0.78906 0.120407,-0.45994 0.06329,0.32912 0.06088,0.80537 -0.0053,1.05833 -0.06622,0.25297 -0.118004,-0.0163 -0.115067,-0.59839 z m 19.077194,-1.5875 c -7.94e-4,-1.30969 0.04393,-1.87883 0.09942,-1.26476 0.05549,0.61407 0.05615,1.68564 0.0016,2.38125 -0.0548,0.69562 -0.100205,0.19319 -0.10101,-1.11649 z m -117.791723,1.4552 c 0,-0.3638 0.06005,-0.51263 0.133452,-0.33072 0.0734,0.1819 0.0734,0.47955 0,0.66145 -0.0734,0.18191 -0.133452,0.0331 -0.133452,-0.33073 z m 68.700281,0.34843 c 0.190994,-0.0764 0.4192,-0.067 0.507119,0.0209 0.08792,0.0879 -0.06835,0.15045 -0.347266,0.13896 -0.308226,-0.0127 -0.370919,-0.0754 -0.159853,-0.15985 z m -65.789865,-0.61301 c 0,-0.3638 0.06005,-0.51263 0.133453,-0.33073 0.0734,0.1819 0.0734,0.47956 0,0.66146 -0.0734,0.1819 -0.133453,0.0331 -0.133453,-0.33073 z m 23.704578,0.34244 c 0.327422,-0.0631 0.863203,-0.0631 1.190625,0 0.327422,0.0631 0.05953,0.11467 -0.595312,0.11467 -0.654844,0 -0.922735,-0.0516 -0.595313,-0.11467 z m 153.726004,-5.3e-4 c 0.32912,-0.0633 0.80537,-0.0609 1.05833,0.005 0.25297,0.0662 -0.0163,0.118 -0.5984,0.11507 -0.58208,-0.003 -0.78905,-0.0571 -0.45993,-0.12041 z m -167.13272,-0.76083 c 0.01269,-0.30823 0.07539,-0.37092 0.159853,-0.15985 0.07643,0.19099 0.06703,0.41919 -0.02089,0.50711 -0.08792,0.0879 -0.150453,-0.0684 -0.138965,-0.34726 z m 101.925682,-1.83004 c 0.0016,-0.87312 0.05088,-1.19841 0.109765,-0.72286 0.05889,0.47555 0.05767,1.18992 -0.0027,1.5875 -0.06037,0.39757 -0.108551,0.008 -0.107066,-0.86464 z m -98.994377,0.66146 c 0,-0.3638 0.06005,-0.51263 0.133452,-0.33073 0.0734,0.1819 0.0734,0.47956 0,0.66146 -0.0734,0.1819 -0.133452,0.0331 -0.133452,-0.33073 z m 61.412738,0.0812 c 0.257431,-0.0671 0.614619,-0.0627 0.79375,0.01 0.179131,0.0725 -0.03149,0.12736 -0.468056,0.12197 -0.436562,-0.005 -0.583126,-0.0647 -0.325694,-0.13177 z M -41.1108,318.80853 c 0.0127,-0.30823 0.07539,-0.37092 0.159853,-0.15985 0.07643,0.19099 0.06703,0.41919 -0.02089,0.50711 -0.08792,0.0879 -0.150453,-0.0684 -0.138965,-0.34726 z m 2.910417,0 c 0.01269,-0.30823 0.07539,-0.37092 0.159852,-0.15985 0.07643,0.19099 0.06703,0.41919 -0.02089,0.50711 -0.08792,0.0879 -0.150453,-0.0684 -0.138964,-0.34726 z m 10.31875,0 c 0.01269,-0.30823 0.07539,-0.37092 0.159852,-0.15985 0.07643,0.19099 0.06703,0.41919 -0.02089,0.50711 -0.08792,0.0879 -0.150453,-0.0684 -0.138964,-0.34726 z m 26.6358825,0.24369 c 0.181901,-0.0734 0.47955729,-0.0734 0.66145833,0 0.18190104,0.0734 0.0330729,0.13346 -0.33072916,0.13346 -0.36380207,0 -0.51263017,-0.0601 -0.33072917,-0.13346 z m 1.32291667,0 c 0.18190104,-0.0734 0.47955729,-0.0734 0.66145833,0 0.18190104,0.0734 0.0330729,0.13346 -0.33072917,0.13346 -0.36380208,0 -0.5126302,-0.0601 -0.33072916,-0.13346 z M 137.24906,318.56599 c 0.005,-0.43656 0.0647,-0.58312 0.13177,-0.32569 0.0671,0.25743 0.0627,0.61462 -0.01,0.79375 -0.0725,0.17913 -0.12737,-0.0315 -0.12197,-0.46806 z m -118.564026,-0.022 c 0.0127,-0.30822 0.07539,-0.37092 0.159851,-0.15985 0.07643,0.19099 0.06703,0.4192 -0.02088,0.50712 -0.08792,0.0879 -0.150452,-0.0683 -0.138964,-0.34727 z m 15.961265,-0.17639 -0.504029,-0.59532 0.595313,0.50403 c 0.559445,0.47366 0.715761,0.6866 0.504028,0.6866 -0.05021,0 -0.318098,-0.26789 -0.595312,-0.59531 z m -48.719306,-0.11721 c 0.257431,-0.0671 0.614619,-0.0627 0.79375,0.01 0.179131,0.0725 -0.03149,0.12736 -0.468056,0.12197 -0.436562,-0.005 -0.583126,-0.0647 -0.325694,-0.13178 z m 158.964287,-0.23557 c 0.0127,-0.30823 0.0754,-0.37092 0.15985,-0.15985 0.0764,0.19099 0.067,0.41919 -0.0209,0.50711 -0.0879,0.0879 -0.15045,-0.0683 -0.13897,-0.34726 z m -161.008543,-0.35655 c -0.08372,-0.13546 -0.05106,-0.30882 0.07258,-0.38523 0.123643,-0.0764 0.224803,0.0344 0.224803,0.2463 0,0.44613 -0.08343,0.48511 -0.297381,0.13893 z m 145.735743,-2.00265 c -8e-4,-1.30969 0.0439,-1.87883 0.0994,-1.26476 0.0555,0.61407 0.0562,1.68564 0.002,2.38125 -0.0548,0.69562 -0.10021,0.19319 -0.10101,-1.11649 z m -76.724112,-0.79375 c 5.29e-4,-1.60073 0.04418,-2.22146 0.09684,-1.37941 0.05266,0.84206 0.05218,2.15175 -0.0011,2.91042 -0.05329,0.75867 -0.09638,0.0697 -0.09578,-1.53101 z m -81.040585,2.09461 c 0.0127,-0.30822 0.07539,-0.37092 0.159853,-0.15985 0.07643,0.191 0.06703,0.4192 -0.02089,0.50712 -0.08792,0.0879 -0.150453,-0.0684 -0.138964,-0.34727 z m 89.408279,-0.50711 c 0.493654,-0.50933 0.957085,-0.92605 1.029846,-0.92605 0.07276,0 -0.271608,0.41672 -0.765263,0.92605 -0.493654,0.50932 -0.957085,0.92604 -1.029845,0.92604 -0.07276,0 0.271608,-0.41672 0.765262,-0.92604 z m 32.758724,0.7453 c 0.190995,-0.0764 0.419201,-0.067 0.507119,0.0209 0.08792,0.0879 -0.06835,0.15045 -0.347266,0.13896 -0.308226,-0.0127 -0.370919,-0.0754 -0.159853,-0.15985 z m 32.614244,-0.23819 c 0.0127,-0.30822 0.0754,-0.37092 0.15985,-0.15985 0.0764,0.191 0.067,0.4192 -0.0209,0.50712 -0.0879,0.0879 -0.15045,-0.0684 -0.13897,-0.34727 z M -41.375383,316.6919 c 0.01269,-0.30822 0.07539,-0.37092 0.159852,-0.15985 0.07643,0.19099 0.06703,0.4192 -0.02089,0.50712 -0.08792,0.0879 -0.150453,-0.0684 -0.138964,-0.34727 z m 32.208669,0.23818 c 0.1909947,-0.0764 0.4191979,-0.067 0.5071189,0.0209 0.087918,0.0879 -0.068352,0.15046 -0.3472656,0.13897 -0.3082264,-0.0127 -0.3709194,-0.0754 -0.1598533,-0.15986 z m 74.3775,-0.54686 -0.641432,-0.7276 0.727604,0.64143 c 0.400182,0.35279 0.727604,0.68021 0.727604,0.7276 0,0.20751 -0.21426,0.0386 -0.813776,-0.64143 z m 27.767526,0.26458 c -0.329108,-0.41964 -0.319749,-0.429 0.0999,-0.0999 0.44073,0.34564 0.580887,0.56291 0.363125,0.56291 -0.05494,0 -0.263301,-0.20835 -0.463021,-0.46302 z M -24.44205,316.42728 c 0.01269,-0.30823 0.07539,-0.37092 0.159853,-0.15985 0.07643,0.19099 0.06703,0.41919 -0.02089,0.50711 -0.08792,0.0879 -0.150453,-0.0684 -0.138965,-0.34726 z m 71.879633,0.24369 c 0.181901,-0.0734 0.479557,-0.0734 0.661458,0 0.181901,0.0734 0.03307,0.13345 -0.330729,0.13345 -0.363802,0 -0.51263,-0.06 -0.330729,-0.13345 z m -61.052604,-0.75081 c 0.341775,-0.3638 0.680939,-0.66146 0.7537,-0.66146 0.07276,0 -0.147341,0.29766 -0.489117,0.66146 -0.341776,0.3638 -0.68094,0.66146 -0.7537,0.66146 -0.07276,0 0.147341,-0.29766 0.489117,-0.66146 z m 10.004557,0.48072 c 0.1909947,-0.0764 0.4191979,-0.067 0.5071189,0.0209 0.087918,0.0879 -0.068353,0.15045 -0.3472656,0.13896 -0.3082264,-0.0127 -0.3709194,-0.0754 -0.1598533,-0.15985 z m 94.191667,0 c 0.190994,-0.0764 0.4192,-0.067 0.507119,0.0209 0.08792,0.0879 -0.06835,0.15045 -0.347266,0.13896 -0.308226,-0.0127 -0.370919,-0.0754 -0.159853,-0.15985 z m -110.504449,-0.61301 c 0,-0.3638 0.06005,-0.51263 0.133453,-0.33073 0.0734,0.1819 0.0734,0.47956 0,0.66146 -0.0734,0.1819 -0.133453,0.0331 -0.133453,-0.33073 z m -18.785416,-0.26459 c 0,-0.3638 0.06005,-0.51263 0.133453,-0.33072 0.0734,0.1819 0.0734,0.47955 0,0.66145 -0.0734,0.1819 -0.133453,0.0331 -0.133453,-0.33073 z m 175.957722,-0.13229 c 0.005,-0.43656 0.0647,-0.58312 0.13177,-0.32569 0.0671,0.25743 0.0627,0.61462 -0.01,0.79375 -0.0725,0.17913 -0.12735,-0.0315 -0.12196,-0.46806 z m -88.136942,-0.022 c 0.0127,-0.30823 0.07539,-0.37092 0.15985,-0.15986 0.07643,0.191 0.06703,0.4192 -0.02088,0.50712 -0.08792,0.0879 -0.150453,-0.0684 -0.138965,-0.34726 z m 21.919501,-0.30869 -0.641432,-0.7276 0.727604,0.64143 c 0.680056,0.59952 0.84894,0.81378 0.641432,0.81378 -0.04739,0 -0.374814,-0.32742 -0.727604,-0.72761 z m 24.705561,-0.59531 c 0,-0.80036 0.0496,-1.12779 0.110223,-0.7276 0.06062,0.40018 0.06062,1.05502 0,1.45521 -0.06062,0.40018 -0.110223,0.0728 -0.110223,-0.72761 z m 30.63327,0.90399 c 0.0127,-0.30822 0.0754,-0.37092 0.15985,-0.15985 0.0764,0.191 0.067,0.4192 -0.0209,0.50712 -0.0879,0.0879 -0.15046,-0.0684 -0.13897,-0.34727 z M -7.7328047,314.72953 c 0,-0.50932 0.054451,-0.71768 0.1210019,-0.46302 0.066548,0.25467 0.066548,0.67138 0,0.92605 -0.066551,0.25466 -0.1210019,0.0463 -0.1210019,-0.46303 z M -28.4108,314.83978 c 0.01269,-0.30823 0.07539,-0.37092 0.159853,-0.15985 0.07643,0.19099 0.06703,0.41919 -0.02089,0.50711 -0.08792,0.0879 -0.150453,-0.0684 -0.138965,-0.34726 z m 71.912028,-0.0441 c -0.329107,-0.41964 -0.319749,-0.429 0.0999,-0.0999 0.254662,0.19971 0.463021,0.40807 0.463021,0.46302 0,0.21776 -0.217273,0.0776 -0.562917,-0.36313 z m 14.800808,0.28228 c 0.190995,-0.0764 0.419201,-0.067 0.507119,0.0209 0.08792,0.0879 -0.06835,0.15045 -0.347266,0.13896 -0.308226,-0.0127 -0.370919,-0.0754 -0.159853,-0.15985 z m -99.921114,-0.61301 c 0,-0.3638 0.06005,-0.51263 0.133452,-0.33073 0.0734,0.1819 0.0734,0.47956 0,0.66146 -0.0734,0.1819 -0.133452,0.0331 -0.133452,-0.33073 z m 59.510362,0.11024 c 0.0127,-0.30822 0.07539,-0.37092 0.159851,-0.15985 0.07643,0.191 0.06703,0.4192 -0.02088,0.50712 -0.08792,0.0879 -0.150452,-0.0684 -0.138964,-0.34727 z m 64.239111,-0.0441 c -0.329107,-0.41965 -0.319749,-0.42901 0.0999,-0.0999 0.254662,0.19972 0.463021,0.40808 0.463021,0.46302 0,0.21776 -0.217273,0.0776 -0.562917,-0.36312 z m 58.019275,-0.33073 c 0,-0.3638 0.0601,-0.51263 0.13345,-0.33073 0.0734,0.1819 0.0734,0.47956 0,0.66146 -0.0734,0.1819 -0.13345,0.0331 -0.13345,-0.33073 z M -12.495305,313.6712 c 0,-0.50932 0.05445,-0.71768 0.121002,-0.46302 0.06655,0.25466 0.06655,0.67138 0,0.92604 -0.06655,0.25466 -0.121002,0.0463 -0.121002,-0.46302 z m 54.687341,0.0661 -0.641432,-0.72761 0.727604,0.64144 c 0.680056,0.59951 0.848939,0.81377 0.641432,0.81377 -0.04739,0 -0.374814,-0.32742 -0.727604,-0.7276 z m 13.063894,-0.59532 c 0,-0.80036 0.0496,-1.12778 0.110223,-0.7276 0.06062,0.40018 0.06062,1.05503 0,1.45521 -0.06062,0.40018 -0.110223,0.0728 -0.110223,-0.72761 z m 59.71655,1.05003 c 0,-0.14095 0.17859,-0.25628 0.39687,-0.25628 0.21828,0 0.39688,0.0468 0.39688,0.10399 0,0.0572 -0.1786,0.17252 -0.39688,0.25628 -0.21828,0.0838 -0.39687,0.037 -0.39687,-0.10399 z m -131.762501,-0.0916 c 0,-0.0549 0.208359,-0.2633 0.463021,-0.46302 0.419645,-0.32911 0.429003,-0.31975 0.0999,0.0999 -0.345644,0.44073 -0.562917,0.58088 -0.562917,0.36312 z m 11.9062497,-0.15638 c 0,-0.14096 0.1785937,-0.18775 0.396875,-0.10399 0.2182812,0.0838 0.396875,0.19909 0.396875,0.25628 0,0.0572 -0.1785938,0.10399 -0.396875,0.10399 -0.2182813,0 -0.396875,-0.11533 -0.396875,-0.25628 z m 96.7165083,0.01 c -0.08372,-0.13547 -0.03122,-0.32109 0.116676,-0.41249 0.147894,-0.0914 0.268899,0.0194 0.268899,0.2463 0,0.46474 -0.158766,0.53317 -0.385575,0.16619 z m -46.424786,-0.43721 c 0.0127,-0.30822 0.07539,-0.37092 0.159851,-0.15985 0.07643,0.19099 0.06703,0.4192 -0.02088,0.50712 -0.08792,0.0879 -0.150453,-0.0684 -0.138965,-0.34727 z m 80.718799,-0.11024 c 0,-0.3638 0.0601,-0.51263 0.13346,-0.33073 0.0734,0.1819 0.0734,0.47956 0,0.66146 -0.0734,0.1819 -0.13346,0.0331 -0.13346,-0.33073 z m -51.640355,-0.97941 c -0.0701,-0.75695 -0.03052,-1.27914 0.08795,-1.16042 0.118472,0.11872 0.175829,0.73804 0.127458,1.37628 l -0.08795,1.16042 z m 15.813688,1.06876 c 0.181901,-0.0734 0.479557,-0.0734 0.661458,0 0.181901,0.0734 0.03307,0.13345 -0.330729,0.13345 -0.363802,0 -0.51263,-0.06 -0.330729,-0.13345 z m -27.119215,-1.01539 c 0.0029,-0.58209 0.05712,-0.78906 0.120407,-0.45994 0.06329,0.32912 0.06088,0.80537 -0.0053,1.05833 -0.06622,0.25297 -0.118004,-0.0163 -0.115067,-0.59839 z m 74.302082,0.50711 c 0.0127,-0.30822 0.0754,-0.37092 0.15985,-0.15985 0.0764,0.191 0.067,0.4192 -0.0209,0.50712 -0.0879,0.0879 -0.15046,-0.0684 -0.13897,-0.34727 z M 37.187397,312.74807 c -0.179829,-0.21668 -0.450927,-0.31734 -0.602446,-0.2237 -0.159983,0.0989 -0.196331,0.0422 -0.0867,-0.13521 0.271627,-0.4395 0.513734,-0.37864 0.889905,0.22371 0.387604,0.62065 0.268624,0.70078 -0.200763,0.1352 z m -65.822284,-0.66437 c 0,-0.50932 0.05445,-0.71768 0.121,-0.46302 0.06655,0.25466 0.06655,0.67138 0,0.92604 -0.06655,0.25466 -0.121,0.0463 -0.121,-0.46302 z m 92.299088,0.37483 c 0.0127,-0.30823 0.07539,-0.37092 0.159851,-0.15986 0.07643,0.191 0.06703,0.4192 -0.02088,0.50712 -0.08792,0.0879 -0.150453,-0.0684 -0.138965,-0.34726 z m 2.666719,-0.11025 c 0,-0.3638 0.06006,-0.51263 0.133454,-0.33072 0.0734,0.1819 0.0734,0.47955 0,0.66145 -0.0734,0.1819 -0.133454,0.0331 -0.133454,-0.33073 z m 6.274475,0.0661 c -0.329107,-0.41964 -0.319749,-0.429 0.0999,-0.0999 0.44073,0.34564 0.580888,0.56291 0.363125,0.56291 -0.05494,0 -0.2633,-0.20836 -0.463021,-0.46302 z m -98.634945,-0.22049 c 0.0127,-0.30822 0.07539,-0.37092 0.159853,-0.15985 0.07643,0.191 0.06703,0.4192 -0.02089,0.50712 -0.08792,0.0879 -0.150453,-0.0683 -0.138965,-0.34727 z m 74.10422,-0.11024 c 0,-0.3638 0.06006,-0.51263 0.133454,-0.33073 0.0734,0.1819 0.0734,0.47956 0,0.66146 -0.0734,0.1819 -0.133454,0.0331 -0.133454,-0.33073 z m 20.035116,-0.20675 c -0.08716,-0.52578 -0.04834,-0.77261 0.09845,-0.62583 0.133308,0.13331 0.198078,0.52401 0.143934,0.86821 -0.08331,0.52961 -0.120579,0.49235 -0.242382,-0.24238 z m 72.283584,0.31699 c 0.0127,-0.30822 0.0754,-0.37092 0.15985,-0.15985 0.0764,0.191 0.067,0.4192 -0.0209,0.50712 -0.0879,0.0879 -0.15045,-0.0683 -0.13896,-0.34727 z m -182.267228,-0.50711 c 0.0054,-0.43657 0.06469,-0.58313 0.131774,-0.3257 0.06708,0.25743 0.06267,0.61462 -0.0098,0.79375 -0.07248,0.17913 -0.127363,-0.0315 -0.121971,-0.46805 z m 21.665142,-0.022 c 0.0127,-0.30823 0.07539,-0.37092 0.159851,-0.15985 0.07643,0.19099 0.06703,0.41919 -0.02088,0.50711 -0.08792,0.0879 -0.150452,-0.0684 -0.138964,-0.34726 z m 37.570834,0 c 0.0127,-0.30823 0.07539,-0.37092 0.15985,-0.15985 0.07643,0.19099 0.06703,0.41919 -0.02088,0.50711 -0.08792,0.0879 -0.150453,-0.0684 -0.138965,-0.34726 z m 74.347916,0 c 0.0127,-0.30823 0.07539,-0.37092 0.159851,-0.15985 0.07643,0.19099 0.06703,0.41919 -0.02088,0.50711 -0.08792,0.0879 -0.150452,-0.0684 -0.138964,-0.34726 z m 4.233334,0 c 0.0127,-0.30823 0.07539,-0.37092 0.15985,-0.15985 0.07643,0.19099 0.06703,0.41919 -0.02088,0.50711 -0.08792,0.0879 -0.150453,-0.0684 -0.138965,-0.34726 z m 34.110362,0.31903 c 0,-0.055 0.20836,-0.26331 0.46302,-0.46302 0.41964,-0.32911 0.429,-0.31975 0.0999,0.0999 -0.34565,0.44073 -0.56292,0.58089 -0.56292,0.36313 z m -72.231251,-0.42928 c 0,-0.14552 0.12609,-0.26458 0.280199,-0.26458 0.154109,0 0.206613,0.11906 0.116676,0.26458 -0.08994,0.14553 -0.216027,0.26459 -0.280199,0.26459 -0.06417,0 -0.116676,-0.11906 -0.116676,-0.26459 z m -12.638617,-0.79375 c 0,-0.50932 0.05445,-0.71768 0.121002,-0.46302 0.06655,0.25466 0.06655,0.67138 0,0.92605 -0.06655,0.25466 -0.121002,0.0463 -0.121002,-0.46303 z m 13.768131,0.6104 c 0.257431,-0.0671 0.614619,-0.0627 0.79375,0.01 0.179131,0.0725 -0.03149,0.12737 -0.468056,0.12197 -0.436562,-0.005 -0.583126,-0.0647 -0.325694,-0.13177 z m 66.910177,-0.34581 c 0,-0.3638 0.0601,-0.51263 0.13345,-0.33073 0.0734,0.1819 0.0734,0.47956 0,0.66146 -0.0734,0.1819 -0.13345,0.0331 -0.13345,-0.33073 z m -85.899066,-0.42006 -0.79375,-0.68201 0.859896,0.56905 c 0.472942,0.31298 0.859895,0.62047 0.859895,0.68333 0,0.19805 -0.112043,0.12904 -0.926041,-0.57037 z m 50.801873,0.42309 c -0.09269,-0.14998 0.01352,-0.19434 0.248968,-0.10399 0.458369,0.1759 0.542234,0.36554 0.161649,0.36554 -0.136932,0 -0.321712,-0.1177 -0.410617,-0.26155 z m -97.5008317,-0.0858 c 0,-0.0455 0.3869532,-0.43249 0.8598959,-0.8599 l 0.8598958,-0.7771 -0.7771051,0.85989 c -0.7243709,0.80155 -0.9426866,0.98151 -0.9426866,0.77711 z m 6.9863203,-0.51252 -0.5040286,-0.59532 0.5953125,0.50403 c 0.55944558,0.47366 0.7157614,0.6866 0.5040286,0.6866 -0.0502073,0 -0.31809795,-0.26789 -0.5953125,-0.59531 z m -39.5300706,0.0505 c 0,-0.15411 0.119063,-0.20662 0.264584,-0.11668 0.145521,0.0899 0.264583,0.21603 0.264583,0.2802 0,0.0642 -0.119062,0.11667 -0.264583,0.11667 -0.145521,0 -0.264584,-0.12609 -0.264584,-0.28019 z m 89.253539,-1.57189 c 0,-1.09141 0.0467,-1.53789 0.103786,-0.99219 0.05708,0.54571 0.05708,1.43868 0,1.98438 -0.05708,0.5457 -0.103786,0.0992 -0.103786,-0.99219 z m 83.188646,1.67686 c 0.1819,-0.0734 0.47956,-0.0734 0.66146,0 0.1819,0.0734 0.0331,0.13345 -0.33073,0.13345 -0.3638,0 -0.51263,-0.0601 -0.33073,-0.13345 z m 7.49537,-0.2437 c 0.0127,-0.30822 0.0754,-0.37092 0.15985,-0.15985 0.0764,0.19099 0.067,0.4192 -0.0209,0.50712 -0.0879,0.0879 -0.15046,-0.0683 -0.13897,-0.34727 z m -178.664247,-0.0264 c 0.190996,-0.0764 0.419199,-0.067 0.507118,0.0209 0.08792,0.0879 -0.06835,0.15045 -0.347266,0.13896 -0.308224,-0.0127 -0.370919,-0.0754 -0.159852,-0.15985 z m 15.08125,0 c 0.190994,-0.0764 0.419198,-0.067 0.507119,0.0209 0.08792,0.0879 -0.06835,0.15045 -0.347266,0.13896 -0.308226,-0.0127 -0.370919,-0.0754 -0.159853,-0.15985 z m 43.75744,-0.48072 c 0.0054,-0.43656 0.06469,-0.58312 0.131773,-0.32569 0.06708,0.25743 0.06267,0.61462 -0.0098,0.79375 -0.07247,0.17913 -0.12735,-0.0315 -0.121957,-0.46806 z m 41.330573,0.0661 -0.504029,-0.59531 0.595312,0.50402 c 0.559446,0.47367 0.715762,0.6866 0.504029,0.6866 -0.05021,0 -0.318098,-0.26789 -0.595312,-0.59531 z m 18.678263,0.33073 c 0,-0.14552 0.126089,-0.26459 0.280199,-0.26459 0.154109,0 0.206613,0.11907 0.116676,0.26459 -0.08994,0.14552 -0.216027,0.26458 -0.280199,0.26458 -0.06417,0 -0.116676,-0.11906 -0.116676,-0.26458 z m 39.852861,0.0535 c -0.0717,-0.11609 -0.0211,-0.38398 0.11263,-0.59531 0.18978,-0.3 0.24396,-0.25373 0.24712,0.21107 0.004,0.61199 -0.13026,0.75556 -0.35975,0.38424 z m -153.832564,-0.47707 c -0.187638,-0.20361 -0.224431,-0.37019 -0.08176,-0.37019 0.274755,0 0.672499,0.50329 0.515562,0.65237 -0.05095,0.0484 -0.246162,-0.0786 -0.433802,-0.28218 z m 58.383452,-0.0395 c -0.329107,-0.41965 -0.319749,-0.42901 0.0999,-0.0999 0.440729,0.34565 0.580887,0.56292 0.363124,0.56292 -0.05494,0 -0.2633,-0.20836 -0.463021,-0.46302 z m 22.574915,-0.19844 c 0.0054,-0.43656 0.06469,-0.58313 0.131773,-0.32569 0.06708,0.25743 0.06267,0.61461 -0.0098,0.79375 -0.07247,0.17913 -0.12735,-0.0315 -0.121957,-0.46806 z m 36.460919,0.56156 c 0,-0.0549 0.15875,-0.23164 0.352777,-0.39267 0.267031,-0.22162 0.352779,-0.19734 0.352779,0.0999 0,0.21597 -0.15875,0.39268 -0.352779,0.39268 -0.194027,0 -0.352777,-0.045 -0.352777,-0.0999 z m -119.376693,-0.34543 c 0.190996,-0.0764 0.4192,-0.067 0.507118,0.0209 0.08792,0.0879 -0.06835,0.15046 -0.347265,0.13897 -0.308225,-0.0127 -0.37092,-0.0754 -0.159853,-0.15986 z m 161.374891,-0.11667 c 0.17947,-0.18082 0.39297,-0.26212 0.47443,-0.18065 0.0815,0.0815 -0.0654,0.2294 -0.32632,0.32876 -0.37708,0.14359 -0.40747,0.1132 -0.14811,-0.14811 z m 9.08727,-0.65068 c 0.0127,-0.30822 0.0754,-0.37092 0.15985,-0.15985 0.0764,0.191 0.067,0.4192 -0.0209,0.50712 -0.0879,0.0879 -0.15045,-0.0684 -0.13897,-0.34727 z m -139.2413274,-0.0264 c 0.1909948,-0.0764 0.4191979,-0.067 0.507119,0.0209 0.087918,0.0879 -0.068353,0.15046 -0.3472657,0.13897 -0.3082263,-0.0127 -0.3709193,-0.0754 -0.1598533,-0.15986 z m 1.0417969,0.006 c 0.181901,-0.0734 0.4795573,-0.0734 0.6614583,0 0.1819011,0.0734 0.033073,0.13346 -0.3307291,0.13346 -0.3638021,0 -0.5126302,-0.0601 -0.3307292,-0.13346 z m 19.6662015,-0.24369 c 0.0127,-0.30822 0.07539,-0.37092 0.159851,-0.15985 0.07643,0.19099 0.06703,0.4192 -0.02088,0.50712 -0.08792,0.0879 -0.150453,-0.0684 -0.138965,-0.34727 z m 35.769923,-0.63941 c 0,-0.65484 0.0516,-0.92273 0.114662,-0.59531 0.06307,0.32742 0.06307,0.8632 0,1.19062 -0.06306,0.32743 -0.114662,0.0595 -0.114662,-0.59531 z m 12.363355,0.95844 c 0,-0.0549 0.208359,-0.2633 0.46302,-0.46302 0.419646,-0.32911 0.429004,-0.31975 0.0999,0.0999 -0.345644,0.44073 -0.562917,0.58089 -0.562917,0.36313 z m -107.094866,-0.95844 c 0,-0.50932 0.05445,-0.71768 0.121,-0.46302 0.06655,0.25466 0.06655,0.67138 0,0.92604 -0.06655,0.25466 -0.121,0.0463 -0.121,-0.46302 z m 2.645833,0 c 0,-0.50932 0.05445,-0.71768 0.121,-0.46302 0.06655,0.25466 0.06655,0.67138 0,0.92604 -0.06655,0.25466 -0.121,0.0463 -0.121,-0.46302 z m 119.372853,0.19844 -0.504029,-0.59531 0.595313,0.50402 c 0.559445,0.47367 0.715761,0.6866 0.504028,0.6866 -0.05021,0 -0.318098,-0.26789 -0.595312,-0.59531 z m 56.744511,-0.39688 c -0.32911,-0.41964 -0.31975,-0.429 0.0999,-0.0999 0.25466,0.19972 0.46302,0.40808 0.46302,0.46302 0,0.21776 -0.21727,0.0776 -0.56292,-0.36313 z m 6.53305,0.0114 c -0.14358,-0.37708 -0.11319,-0.40747 0.14812,-0.14811 0.18082,0.17948 0.26211,0.39297 0.18065,0.47443 -0.0815,0.0815 -0.22941,-0.0654 -0.32877,-0.32632 z M 20.537118,307.69603 c 0.0127,-0.30823 0.07539,-0.37092 0.15985,-0.15986 0.07643,0.191 0.06703,0.4192 -0.02087,0.50712 -0.08792,0.0879 -0.150453,-0.0684 -0.138965,-0.34726 z m 47.008798,-0.0209 c 0.181901,-0.0734 0.479557,-0.0734 0.661458,0 0.181902,0.0734 0.03307,0.13345 -0.330729,0.13345 -0.363802,0 -0.51263,-0.06 -0.330729,-0.13345 z m 65.616664,0 c 0.1819,-0.0734 0.47956,-0.0734 0.66146,0 0.1819,0.0734 0.0331,0.13345 -0.33073,0.13345 -0.3638,0 -0.51263,-0.06 -0.33073,-0.13345 z M 16.568368,307.16686 c 0.0127,-0.30822 0.07539,-0.37092 0.15985,-0.15985 0.07643,0.19099 0.06703,0.4192 -0.02087,0.50712 -0.08792,0.0879 -0.150453,-0.0684 -0.138965,-0.34727 z m 60.904458,0.23557 c 0.257432,-0.0671 0.614619,-0.0627 0.79375,0.01 0.179131,0.0725 -0.03149,0.12737 -0.468056,0.12197 -0.436562,-0.005 -0.583125,-0.0647 -0.325694,-0.13177 z M 44.93718,305.7337 c 0,-0.80036 0.0496,-1.12779 0.110223,-0.7276 0.06062,0.40018 0.06062,1.05502 0,1.4552 -0.06062,0.40019 -0.110223,0.0728 -0.110223,-0.7276 z m -24.664646,0.63941 c 0.0127,-0.30822 0.07539,-0.37092 0.159851,-0.15985 0.07643,0.19099 0.06703,0.4192 -0.02088,0.50712 -0.08792,0.0879 -0.150452,-0.0683 -0.138964,-0.34727 z m 27.306868,-1.03628 c 0.0021,-0.72761 0.05337,-0.99386 0.114186,-0.59168 0.06082,0.40218 0.05919,0.9975 -0.0036,1.32292 -0.06282,0.32542 -0.112572,-0.004 -0.110588,-0.73124 z m -84.527366,0.7453 c 0.190996,-0.0764 0.419199,-0.067 0.507118,0.0209 0.08792,0.0879 -0.06835,0.15045 -0.347266,0.13896 -0.308224,-0.0127 -0.370919,-0.0754 -0.159852,-0.15985 z m 132.076693,0.0979 c 0,-0.0455 0.386953,-0.43249 0.859895,-0.8599 l 0.859896,-0.7771 -0.777105,0.85989 c -0.724371,0.80154 -0.942686,0.98151 -0.942686,0.77711 z m 9.409721,-0.25935 c 0.0994,-0.26094 0.2473,-0.40778 0.32876,-0.32632 0.0815,0.0815 1.7e-4,0.29495 -0.18065,0.47443 -0.26131,0.25936 -0.2917,0.22897 -0.14811,-0.14811 z m 34.03766,-0.0281 c 0.18764,-0.20361 0.38285,-0.33059 0.4338,-0.28219 0.15694,0.14908 -0.24081,0.65238 -0.51556,0.65238 -0.14267,0 -0.10588,-0.16659 0.0818,-0.37019 z m 2.87559,-0.0487 c 0.0127,-0.30822 0.0754,-0.37092 0.15985,-0.15985 0.0764,0.191 0.067,0.4192 -0.0209,0.50712 -0.0879,0.0879 -0.15046,-0.0684 -0.13897,-0.34727 z m -176.42679,-0.029 c 0.257431,-0.0671 0.614618,-0.0627 0.79375,0.01 0.179131,0.0725 -0.03149,0.12737 -0.468056,0.12197 -0.436563,-0.005 -0.583125,-0.0647 -0.325694,-0.13177 z m 2.789626,-0.26197 c 0.190996,-0.0764 0.419199,-0.067 0.507118,0.0209 0.08792,0.0879 -0.06835,0.15045 -0.347266,0.13896 -0.308224,-0.0127 -0.370919,-0.0754 -0.159852,-0.15985 z m 48.51994,-0.48072 c 0.0054,-0.43656 0.06469,-0.58312 0.131773,-0.32569 0.06708,0.25743 0.06267,0.61462 -0.0098,0.79375 -0.07246,0.17913 -0.127349,-0.0315 -0.121957,-0.46806 z m 88.203974,-0.5839 c -0.14359,-0.37708 -0.1132,-0.40747 0.14811,-0.14811 0.18082,0.17947 0.26212,0.39297 0.18065,0.47443 -0.0815,0.0815 -0.2294,-0.0654 -0.32876,-0.32632 z m -84.795082,-1.02565 c 0.0127,-0.30822 0.07539,-0.37092 0.15985,-0.15985 0.07643,0.191 0.06703,0.4192 -0.02088,0.50712 -0.08792,0.0879 -0.150453,-0.0684 -0.138965,-0.34727 z m 32.613562,-1.56545 c 0.0011,-1.16416 0.04748,-1.6075 0.103371,-0.98519 0.05589,0.62231 0.0551,1.57481 -0.0019,2.11667 -0.05675,0.54185 -0.102478,0.0327 -0.101518,-1.13148 z m -36.053146,1.03629 c 0.0127,-0.30823 0.07539,-0.37092 0.159851,-0.15986 0.07643,0.191 0.06703,0.4192 -0.02088,0.50712 -0.08792,0.0879 -0.150452,-0.0684 -0.138964,-0.34726 z m 125.941666,-0.79375 c 0.0127,-0.30823 0.0754,-0.37092 0.15985,-0.15986 0.0764,0.191 0.067,0.4192 -0.0209,0.50712 -0.0879,0.0879 -0.15046,-0.0683 -0.13897,-0.34726 z m -1.39341,-1.6139 c 0.19099,-0.0764 0.4192,-0.067 0.50711,0.0209 0.0879,0.0879 -0.0684,0.15045 -0.34726,0.13896 -0.30823,-0.0127 -0.37092,-0.0754 -0.15985,-0.15985 z m -122.64588,-0.2672 c 0.257431,-0.0671 0.614619,-0.0627 0.79375,0.01 0.17913,0.0725 -0.03149,0.12736 -0.468056,0.12197 -0.436563,-0.005 -0.583126,-0.0647 -0.325694,-0.13177 z m 27.110346,-0.11406 c 0.179477,-0.18082 0.392969,-0.26212 0.474432,-0.18065 0.08146,0.0815 -0.06538,0.2294 -0.326319,0.32876 -0.377084,0.14359 -0.407474,0.1132 -0.148113,-0.14811 z m -9.433555,-0.65068 c 0.0127,-0.30822 0.07539,-0.37092 0.159851,-0.15985 0.07643,0.191 0.06703,0.4192 -0.02088,0.50712 -0.08792,0.0879 -0.150453,-0.0684 -0.138965,-0.34727 z m 16.145256,-0.453 c -0.334677,-0.5573 -0.329039,-0.56293 0.126558,-0.12656 0.262263,0.2512 0.419888,0.51367 0.350282,0.58328 -0.06961,0.0696 -0.284184,-0.13592 -0.47684,-0.45672 z M 32.819354,297.7962 c 0.26339,-0.29104 0.538421,-0.52917 0.611182,-0.52917 0.07276,0 -0.08321,0.23813 -0.346599,0.52917 -0.26339,0.29104 -0.538422,0.52917 -0.611182,0.52917 -0.07276,0 0.08321,-0.23813 0.346599,-0.52917 z m 1.950624,-0.19844 c -0.329107,-0.41964 -0.319749,-0.429 0.0999,-0.0999 0.44073,0.34564 0.580888,0.56291 0.363125,0.56291 -0.05494,0 -0.2633,-0.20836 -0.463021,-0.46302 z m 83.833172,-0.0795 c 0.32338,-0.3403 0.63914,-0.56581 0.70169,-0.50113 0.0626,0.0647 -0.20203,0.3431 -0.58796,0.61873 l -0.70169,0.50113 z"
         id="path954"
         inkscape:connector-curvature="0" />
      <path
         style="fill:#5e5e5e;stroke-width:0.26458335"
         d="m 55.407478,325.11443 c -0.329107,-0.41964 -0.319749,-0.429 0.0999,-0.0999 0.254662,0.19973 0.463021,0.40808 0.463021,0.46303 0,0.21776 -0.217273,0.0776 -0.562917,-0.36313 z m 1.356667,0.36313 c 0,-0.0549 0.20836,-0.2633 0.463021,-0.46303 0.419645,-0.3291 0.429004,-0.31974 0.0999,0.0999 -0.345643,0.44073 -0.562917,0.58089 -0.562917,0.36313 z m 20.159914,-2.94282 c 0.0054,-0.43656 0.06469,-0.58312 0.131773,-0.32569 0.06708,0.25743 0.06267,0.61462 -0.0098,0.79375 -0.07248,0.17913 -0.127362,-0.0315 -0.12197,-0.46806 z m -103.024106,0.21614 c 0.190996,-0.0764 0.419199,-0.067 0.507118,0.0209 0.08792,0.0879 -0.06835,0.15046 -0.347266,0.13897 -0.308224,-0.0127 -0.370919,-0.0754 -0.159852,-0.15985 z m 100.408679,-1.27447 c 0.0016,-0.87313 0.05088,-1.19841 0.109765,-0.72287 0.05889,0.47555 0.05767,1.18993 -0.0027,1.5875 -0.06037,0.39758 -0.108551,0.008 -0.107066,-0.86463 z m -112.21374,0.52917 c 0.0054,-0.43657 0.06469,-0.58313 0.131774,-0.3257 0.06708,0.25743 0.06267,0.61462 -0.0098,0.79375 -0.07248,0.17913 -0.127363,-0.0315 -0.121971,-0.46805 z m 37.18852417,-0.0429 c 0.18190104,-0.0734 0.47955729,-0.0734 0.66145833,0 0.18190104,0.0734 0.03307292,0.13345 -0.33072917,0.13345 -0.36380208,0 -0.51263021,-0.06 -0.33072916,-0.13345 z M -24.660798,320.68266 c 0.0029,-0.58208 0.05712,-0.78905 0.120406,-0.45994 0.06329,0.32912 0.06088,0.80537 -0.0053,1.05834 -0.06622,0.25296 -0.118004,-0.0163 -0.115067,-0.5984 z m 79.941837,-2.64583 c 5.3e-4,-2.0373 0.04194,-2.83576 0.0923,-1.77437 0.05035,1.0614 0.05001,2.72827 -7.94e-4,3.70417 -0.05072,0.9759 -0.09191,0.10749 -0.0915,-1.9298 z m 82.676441,2.3151 c -0.32911,-0.41964 -0.31975,-0.429 0.0999,-0.0999 0.44073,0.34565 0.58089,0.56292 0.36313,0.56292 -0.0549,0 -0.2633,-0.20836 -0.46302,-0.46302 z m -178.803697,-0.22048 c 0.0127,-0.30823 0.07539,-0.37092 0.159853,-0.15986 0.07643,0.191 0.06703,0.4192 -0.02089,0.50712 -0.08792,0.0879 -0.150453,-0.0683 -0.138964,-0.34726 z m 35.1349454,-0.30869 c -0.3291073,-0.41964 -0.3197489,-0.429 0.099896,-0.0999 0.2546615,0.19972 0.4630208,0.40808 0.4630208,0.46302 0,0.21776 -0.2172732,0.0776 -0.5629169,-0.36313 z m -2.8766664,-0.16604 c 0,-0.0549 0.2083594,-0.2633 0.4630208,-0.46302 0.4196451,-0.32911 0.4290034,-0.31975 0.099896,0.0999 -0.3456437,0.44073 -0.5629169,0.58088 -0.5629168,0.36312 z m 119.822498,-0.62771 c -0.31581,-0.40269 -0.31142,-0.42364 0.0337,-0.16076 0.21828,0.16624 0.635,0.36079 0.92604,0.43233 0.50261,0.12354 0.50092,0.13161 -0.0337,0.16076 -0.3096,0.0169 -0.72632,-0.17766 -0.92604,-0.43233 z m -60.09281,-0.24137 c 0.181901,-0.0734 0.479557,-0.0734 0.661458,0 0.181901,0.0734 0.03307,0.13345 -0.330729,0.13345 -0.363802,0 -0.512631,-0.06 -0.330729,-0.13345 z m 76.72917,0 c 0.1819,-0.0734 0.47955,-0.0734 0.66145,0 0.18191,0.0734 0.0331,0.13345 -0.33072,0.13345 -0.36381,0 -0.51263,-0.06 -0.33073,-0.13345 z m -152.537057,-0.88311 c 0,-0.50932 0.05445,-0.71768 0.121,-0.46302 0.06655,0.25467 0.06655,0.67138 0,0.92605 -0.06655,0.25466 -0.121,0.0463 -0.121,-0.46303 z m 16.8928379,0.37483 c 0.0127,-0.30822 0.07539,-0.37092 0.1598506,-0.15985 0.07643,0.19099 0.067032,0.4192 -0.020876,0.50712 -0.087921,0.0879 -0.1504527,-0.0683 -0.1389645,-0.34727 z m 47.2072361,-0.11024 c 0.26339,-0.29104 0.538422,-0.52917 0.611182,-0.52917 0.07276,0 -0.08321,0.23813 -0.346599,0.52917 -0.26339,0.29104 -0.538421,0.52916 -0.611182,0.52916 -0.07276,0 0.08321,-0.23812 0.346599,-0.52916 z M -41.1108,318.01478 c 0.0127,-0.30823 0.07539,-0.37092 0.159853,-0.15985 0.07643,0.19099 0.06703,0.41919 -0.02089,0.50711 -0.08792,0.0879 -0.150453,-0.0683 -0.138965,-0.34726 z m 37.3925156,-0.17639 -0.5040286,-0.59531 0.5953125,0.50402 c 0.5594456,0.47367 0.7157614,0.6866 0.5040286,0.6866 -0.050207,0 -0.318098,-0.26789 -0.5953125,-0.59531 z m 7.7642006,0.42008 c 0.181901,-0.0734 0.4795573,-0.0734 0.6614583,0 0.181901,0.0734 0.033073,0.13346 -0.3307292,0.13346 -0.363802,0 -0.5126302,-0.0601 -0.3307291,-0.13346 z m -42.5108832,-0.50828 c 0.0127,-0.30822 0.07539,-0.37091 0.159853,-0.15985 0.07643,0.191 0.06703,0.4192 -0.02089,0.50712 -0.08792,0.0879 -0.150453,-0.0684 -0.138964,-0.34727 z m 161.341197,-0.0441 c -0.32911,-0.41965 -0.31975,-0.42901 0.0999,-0.0999 0.44073,0.34564 0.58089,0.56292 0.36313,0.56292 -0.0549,0 -0.2633,-0.20836 -0.46302,-0.46302 z m 14.38797,-0.72761 c 0.003,-0.58208 0.0571,-0.78905 0.12041,-0.45993 0.0633,0.32912 0.0609,0.80537 -0.005,1.05833 -0.0662,0.25297 -0.118,-0.0163 -0.11506,-0.5984 z m 2.64583,-0.26458 c 0.003,-0.58208 0.0571,-0.78905 0.12041,-0.45994 0.0633,0.32912 0.0609,0.80537 -0.005,1.05834 -0.0662,0.25296 -0.11801,-0.0163 -0.11507,-0.5984 z m -96.083906,0.21047 c 0.192656,-0.3208 0.407233,-0.52633 0.47684,-0.45672 0.06961,0.0696 -0.08802,0.33208 -0.350282,0.58328 -0.455597,0.43637 -0.461235,0.43073 -0.126558,-0.12656 z m 23.190626,0.27576 c 0.181901,-0.0734 0.479557,-0.0734 0.661458,0 0.181901,0.0734 0.03307,0.13345 -0.330729,0.13345 -0.363802,0 -0.512631,-0.06 -0.330729,-0.13345 z m 9.876618,-0.2437 c 0.0127,-0.30822 0.07539,-0.37092 0.15985,-0.15985 0.07643,0.191 0.06703,0.4192 -0.02088,0.50712 -0.08792,0.0879 -0.150453,-0.0684 -0.138965,-0.34727 z m -7.561514,-0.63941 c 0.26339,-0.29104 0.538421,-0.52916 0.611182,-0.52916 0.07276,0 -0.08321,0.23812 -0.346599,0.52916 -0.26339,0.29105 -0.538422,0.52917 -0.611182,0.52917 -0.07276,0 0.08321,-0.23812 0.346599,-0.52917 z m -97.478071,-0.15434 c 0.0127,-0.30822 0.07539,-0.37092 0.159853,-0.15985 0.07643,0.191 0.06703,0.4192 -0.02089,0.50712 -0.08792,0.0879 -0.150453,-0.0683 -0.138964,-0.34727 z m 76.443696,0.31903 c 0,-0.0549 0.208359,-0.2633 0.46302,-0.46302 0.419646,-0.32911 0.429004,-0.31975 0.0999,0.0999 -0.345644,0.44073 -0.562917,0.58088 -0.562917,0.36312 z m 38.314974,-0.0808 c 0.190994,-0.0764 0.4192,-0.067 0.507119,0.0209 0.08792,0.0879 -0.06835,0.15045 -0.347266,0.13896 -0.308226,-0.0127 -0.370919,-0.0754 -0.159853,-0.15985 z m 3.175,0 c 0.190994,-0.0764 0.4192,-0.067 0.507119,0.0209 0.08792,0.0879 -0.06835,0.15045 -0.347266,0.13896 -0.308226,-0.0127 -0.370919,-0.0754 -0.159853,-0.15985 z m -131.162836,-0.50277 c 0.01269,-0.30822 0.07539,-0.37092 0.159852,-0.15985 0.07643,0.19099 0.06703,0.4192 -0.02089,0.50712 -0.08792,0.0879 -0.150453,-0.0684 -0.138964,-0.34727 z m 114.14682,0.15434 c -0.431379,-0.18537 -0.446487,-0.23083 -0.08176,-0.24599 0.246074,-0.0102 0.520992,0.10047 0.610929,0.24599 0.188028,0.30424 0.178834,0.30424 -0.529167,0 z m -22.560492,-1.32292 c 0,-0.50932 0.05445,-0.71768 0.121002,-0.46302 0.06655,0.25467 0.06655,0.67138 0,0.92605 -0.06655,0.25466 -0.121002,0.0463 -0.121002,-0.46303 z m -49.93534133,0 c 0.26339006,-0.29104 0.53842179,-0.52916 0.61118221,-0.52916 0.0727604,0 -0.0832088,0.23812 -0.34659888,0.52916 -0.26339006,0.29105 -0.53842179,0.52917 -0.61118221,0.52917 -0.07276041,0 0.08320881,-0.23812 0.34659888,-0.52917 z M 35.913643,314.59724 c 0.0054,-0.43656 0.06469,-0.58312 0.131773,-0.32569 0.06708,0.25743 0.06267,0.61462 -0.0098,0.79375 -0.07247,0.17913 -0.12735,-0.0315 -0.121957,-0.46806 z m 21.749599,0.28977 c -0.07845,-0.20442 -0.101,-0.76997 -0.05012,-1.25677 0.08111,-0.77602 0.108095,-0.73022 0.218988,0.37169 0.129701,1.28885 0.082,1.53885 -0.168868,0.88508 z m -36.770868,-0.24838 c -0.07503,-0.19552 -0.09975,-1.23732 -0.05495,-2.31511 l 0.08147,-1.95961 0.129395,2.31572 c 0.128936,2.30751 0.102975,2.63367 -0.155919,1.959 z m 70.957096,-0.39803 -0.501134,-0.70169 0.618728,0.58796 c 0.340299,0.32338 0.565808,0.63914 0.501131,0.70169 -0.06467,0.0626 -0.343101,-0.20203 -0.618725,-0.58796 z m 34.52098,0.33459 c 0.0127,-0.30822 0.0754,-0.37092 0.15985,-0.15985 0.0764,0.191 0.067,0.4192 -0.0209,0.50712 -0.0879,0.0879 -0.15046,-0.0684 -0.13897,-0.34727 z m -88.085363,-0.37482 c 0,-0.3638 0.06006,-0.51263 0.133453,-0.33073 0.0734,0.1819 0.0734,0.47956 0,0.66146 -0.0734,0.1819 -0.133453,0.0331 -0.133453,-0.33073 z m 28.700558,0.32128 c -0.07067,-0.11434 0.09216,-0.20789 0.361834,-0.20789 0.269674,0 0.432498,0.0935 0.361833,0.20789 -0.07066,0.11434 -0.233489,0.20788 -0.361833,0.20788 -0.128344,0 -0.291172,-0.0935 -0.361834,-0.20788 z M -28.4108,314.04603 c 0.01269,-0.30823 0.07539,-0.37092 0.159853,-0.15985 0.07643,0.19099 0.06703,0.41919 -0.02089,0.50711 -0.08792,0.0879 -0.150453,-0.0683 -0.138965,-0.34726 z m 102.922918,0 c 0.0127,-0.30823 0.07539,-0.37092 0.15985,-0.15985 0.07643,0.19099 0.06703,0.41919 -0.02088,0.50711 -0.08792,0.0879 -0.150453,-0.0683 -0.138965,-0.34726 z m -116.152085,-0.52917 c 0.0127,-0.30822 0.07539,-0.37092 0.159853,-0.15985 0.07643,0.19099 0.06703,0.4192 -0.02089,0.50712 -0.08792,0.0879 -0.150453,-0.0684 -0.138964,-0.34727 z m 129.430146,0.22906 c 0.402183,-0.0608 0.997495,-0.0592 1.322917,0.004 0.325421,0.0628 -0.0036,0.11256 -0.731242,0.11057 -0.727604,-0.002 -0.993857,-0.0534 -0.591675,-0.11419 z m -14.655617,-0.53774 c -0.329108,-0.41964 -0.319749,-0.429 0.0999,-0.0999 0.44073,0.34564 0.580887,0.56291 0.363125,0.56291 -0.05494,0 -0.263301,-0.20836 -0.463021,-0.46302 z m 66.994218,0.0441 c 0.0127,-0.30823 0.0754,-0.37092 0.15985,-0.15985 0.0764,0.19099 0.067,0.41919 -0.0209,0.50711 -0.0879,0.0879 -0.15045,-0.0684 -0.13897,-0.34726 z m -62.991718,0.0544 c 0,-0.0549 0.208359,-0.2633 0.463021,-0.46302 0.419645,-0.32911 0.429003,-0.31975 0.0999,0.0999 -0.345644,0.44073 -0.562917,0.58088 -0.562917,0.36312 z M 1.2225342,312.72311 c 0.0127,-0.30822 0.07539,-0.37092 0.1598507,-0.15985 0.07643,0.19099 0.067032,0.4192 -0.020876,0.50712 -0.087921,0.0879 -0.1504526,-0.0684 -0.1389644,-0.34727 z m 44.1854168,0 c 0.0127,-0.30822 0.07539,-0.37092 0.159851,-0.15985 0.07643,0.19099 0.06703,0.4192 -0.02088,0.50712 -0.08792,0.0879 -0.150453,-0.0684 -0.138965,-0.34727 z m 50.270833,0 c 0.0127,-0.30822 0.07539,-0.37092 0.159851,-0.15985 0.07643,0.19099 0.06703,0.4192 -0.02088,0.50712 -0.08792,0.0879 -0.150452,-0.0684 -0.138964,-0.34727 z m -120.935472,-1.03628 c 0.341774,-0.36381 0.680939,-0.66146 0.753699,-0.66146 0.07276,0 -0.147341,0.29765 -0.489116,0.66146 -0.341774,0.3638 -0.680939,0.66145 -0.753699,0.66145 -0.07276,0 0.147342,-0.29765 0.489116,-0.66145 z m 62.044792,0.13229 c 0.08994,-0.14552 0.216027,-0.26459 0.280199,-0.26459 0.06417,0 0.116676,0.11907 0.116676,0.26459 0,0.14552 -0.12609,0.26458 -0.280199,0.26458 -0.15411,0 -0.206613,-0.11906 -0.116676,-0.26458 z m 44.053125,-0.64585 c 0,-0.35521 0.09752,-0.70611 0.216709,-0.77977 0.11919,-0.0737 0.165206,0.21696 0.102262,0.64584 -0.138785,0.94559 -0.318971,1.02125 -0.318971,0.13393 z m 59.552141,0.22692 c 0.0127,-0.30822 0.0754,-0.37092 0.15985,-0.15985 0.0764,0.191 0.067,0.4192 -0.0209,0.50712 -0.0879,0.0879 -0.15045,-0.0684 -0.13896,-0.34727 z m -52.540683,-0.37482 c 0.26339,-0.29104 0.538422,-0.52917 0.611182,-0.52917 0.07276,0 -0.08321,0.23813 -0.346599,0.52917 -0.26339,0.29104 -0.538421,0.52916 -0.611182,0.52916 -0.07276,0 0.08321,-0.23812 0.346599,-0.52916 z m -108.645209,-0.19844 c -0.329107,-0.41964 -0.319749,-0.429 0.0999,-0.0999 0.254661,0.19971 0.46302,0.40807 0.46302,0.46302 0,0.21776 -0.217273,0.0776 -0.562917,-0.36313 z m -21.09114,-0.33073 c 0,-0.3638 0.06005,-0.51263 0.133453,-0.33073 0.0734,0.1819 0.0734,0.47956 0,0.66146 -0.0734,0.1819 -0.133453,0.0331 -0.133453,-0.33073 z m 25.688953,0.34678 c 0.254662,-0.0666 0.67138,-0.0666 0.926042,0 0.254661,0.0666 0.0463,0.121 -0.463021,0.121 -0.509323,0 -0.717682,-0.0544 -0.463021,-0.121 z m 63.98391,-0.23654 c 0.0127,-0.30822 0.07539,-0.37092 0.159851,-0.15985 0.07643,0.191 0.06703,0.4192 -0.02088,0.50712 -0.08792,0.0879 -0.150453,-0.0684 -0.138965,-0.34727 z m 73.289579,0 c 0.0127,-0.30822 0.0754,-0.37092 0.15985,-0.15985 0.0764,0.191 0.067,0.4192 -0.0209,0.50712 -0.0879,0.0879 -0.15045,-0.0684 -0.13897,-0.34727 z m -68.486585,-0.63941 c 0,-0.50932 0.05445,-0.71768 0.121002,-0.46302 0.06655,0.25466 0.06655,0.67138 0,0.92605 -0.06655,0.25466 -0.121002,0.0463 -0.121002,-0.46303 z m -17.391591,0 c 0.26339,-0.29104 0.538421,-0.52916 0.611182,-0.52916 0.07276,0 -0.08321,0.23812 -0.346599,0.52916 -0.26339,0.29105 -0.538422,0.52917 -0.611182,0.52917 -0.07276,0 0.08321,-0.23812 0.346599,-0.52917 z m -12.567709,0.16469 c 0,-0.0549 0.20836,-0.2633 0.463021,-0.46302 0.419645,-0.32911 0.429004,-0.31975 0.0999,0.0999 -0.345643,0.44073 -0.562917,0.58088 -0.562917,0.36312 z m 48.120417,-0.36312 c -0.329108,-0.41965 -0.319749,-0.42901 0.0999,-0.0999 0.44073,0.34565 0.580887,0.56292 0.363125,0.56292 -0.05494,0 -0.263301,-0.20836 -0.463021,-0.46302 z m -25.579253,-0.46302 c 0.0054,-0.43657 0.06469,-0.58313 0.131773,-0.3257 0.06708,0.25743 0.06267,0.61462 -0.0098,0.79375 -0.07246,0.17913 -0.127349,-0.0315 -0.121957,-0.46805 z m 82.101541,0.39687 c -0.43138,-0.18537 -0.44648,-0.23083 -0.0818,-0.24599 0.24608,-0.0102 0.52099,0.10047 0.61093,0.24599 0.18803,0.30424 0.17883,0.30424 -0.52917,0 z m 0.92605,0.16469 c 0,-0.0549 0.20835,-0.2633 0.46302,-0.46302 0.41964,-0.32911 0.429,-0.31975 0.0999,0.0999 -0.34564,0.44073 -0.56291,0.58089 -0.56291,0.36313 z m 12.43541,-0.14907 c 0,-0.13694 0.1177,-0.32171 0.26156,-0.41062 0.14998,-0.0927 0.19433,0.0135 0.10398,0.24897 -0.17589,0.45837 -0.36554,0.54223 -0.36554,0.16165 z M -39.5233,309.28353 c 0.0127,-0.30823 0.07539,-0.37092 0.159853,-0.15986 0.07643,0.191 0.06703,0.4192 -0.02089,0.50712 -0.08792,0.0879 -0.150453,-0.0684 -0.138965,-0.34726 z m 63.429503,-0.0264 c 0.190994,-0.0764 0.4192,-0.067 0.507119,0.0209 0.08792,0.0879 -0.06835,0.15045 -0.347266,0.13896 -0.308226,-0.0127 -0.370919,-0.0754 -0.159853,-0.15985 z m 64.914301,-0.34843 c 0,-0.3638 0.06006,-0.51263 0.133453,-0.33073 0.0734,0.1819 0.0734,0.47956 0,0.66146 -0.0734,0.1819 -0.133453,0.0331 -0.133453,-0.33073 z m -51.701671,0.0894 c 0.181901,-0.0734 0.479557,-0.0734 0.661458,0 0.181901,0.0734 0.03307,0.13345 -0.330729,0.13345 -0.363802,0 -0.51263,-0.0601 -0.330729,-0.13345 z m 21.71237,-0.006 c 0.190994,-0.0764 0.4192,-0.067 0.507119,0.0209 0.08792,0.0879 -0.06835,0.15046 -0.347266,0.13897 -0.308226,-0.0127 -0.370919,-0.0754 -0.159853,-0.15985 z m 1.322916,0 c 0.190995,-0.0764 0.419201,-0.067 0.507119,0.0209 0.08792,0.0879 -0.06835,0.15046 -0.347265,0.13897 -0.308227,-0.0127 -0.37092,-0.0754 -0.159854,-0.15985 z m -39.617001,-0.50276 c 0.0127,-0.30823 0.07539,-0.37092 0.15985,-0.15986 0.07643,0.191 0.06703,0.4192 -0.02087,0.50712 -0.08792,0.0879 -0.150453,-0.0684 -0.138965,-0.34726 z m 61.362444,0.33613 c 0,-0.0455 0.386953,-0.43249 0.859896,-0.8599 l 0.859896,-0.7771 -0.777105,0.85989 c -0.724371,0.80155 -0.942687,0.98152 -0.942687,0.77711 z m -34.344253,-1.637 c 0.0054,-0.43656 0.06469,-0.58313 0.131773,-0.32569 0.06708,0.25743 0.06267,0.61461 -0.0098,0.79375 -0.07246,0.17913 -0.127349,-0.0315 -0.121957,-0.46806 z m 88.874791,-0.0132 c -0.0357,-0.73394 0.46816,-1.18391 1.28332,-1.14609 0.63473,0.0294 0.62838,0.0412 -0.10727,0.19899 -0.53331,0.11437 -0.84042,0.37784 -0.96581,0.82859 -0.15415,0.55409 -0.18813,0.57325 -0.21024,0.11851 z m -178.568541,-0.51594 c 0.0054,-0.43656 0.06469,-0.58312 0.131774,-0.32569 0.06708,0.25743 0.06267,0.61462 -0.0098,0.79375 -0.07248,0.17913 -0.127363,-0.0315 -0.121971,-0.46806 z m 92.108105,-1.19062 c 0,-0.94589 0.04802,-1.33284 0.106714,-0.8599 0.05869,0.47294 0.05869,1.24685 0,1.71979 -0.05869,0.47295 -0.106714,0.086 -0.106714,-0.85989 z m 35.832502,0.8831 c 0.181901,-0.0734 0.479557,-0.0734 0.661458,0 0.181902,0.0734 0.03307,0.13345 -0.330729,0.13345 -0.363802,0 -0.51263,-0.0601 -0.330729,-0.13345 z m 15.348914,-0.0119 c 0.32912,-0.0633 0.80537,-0.0609 1.05834,0.005 0.25296,0.0662 -0.0163,0.118 -0.5984,0.11507 -0.58208,-0.003 -0.78905,-0.0571 -0.45994,-0.12041 z m -137.040711,-0.52278 c 0.190996,-0.0764 0.4192,-0.067 0.507118,0.0209 0.08792,0.0879 -0.06835,0.15046 -0.347265,0.13897 -0.308225,-0.0127 -0.37092,-0.0754 -0.159853,-0.15986 z m 2.910417,-0.26458 c 0.190996,-0.0764 0.419199,-0.067 0.507118,0.0209 0.08792,0.0879 -0.06835,0.15045 -0.347266,0.13896 -0.308224,-0.0127 -0.370919,-0.0754 -0.159852,-0.15985 z m 85.312165,-0.7453 c 0.0029,-0.58208 0.05712,-0.78906 0.120407,-0.45994 0.06329,0.32912 0.06088,0.80537 -0.0053,1.05834 -0.06622,0.25296 -0.117999,-0.0163 -0.115062,-0.5984 z M 16.32467,303.88162 c 0,-0.3638 0.06006,-0.51263 0.133454,-0.33073 0.0734,0.1819 0.0734,0.47956 0,0.66146 -0.0734,0.1819 -0.133454,0.0331 -0.133454,-0.33073 z m 83.500413,-0.17523 c 0.181897,-0.0734 0.479557,-0.0734 0.661457,0 0.1819,0.0734 0.0331,0.13345 -0.33073,0.13345 -0.3638,0 -0.512628,-0.06 -0.330727,-0.13345 z m -80.346299,-1.30203 c 0.0127,-0.30822 0.07539,-0.37092 0.159851,-0.15985 0.07643,0.19099 0.06703,0.4192 -0.02088,0.50712 -0.08792,0.0879 -0.150452,-0.0683 -0.138964,-0.34727 z m 25.4,-1.05833 c 0.0127,-0.30823 0.07539,-0.37092 0.159851,-0.15986 0.07643,0.191 0.06703,0.4192 -0.02088,0.50712 -0.08792,0.0879 -0.150452,-0.0684 -0.138964,-0.34726 z m 5.057775,-0.7717 c 0.0054,-0.43657 0.06469,-0.58313 0.131773,-0.3257 0.06708,0.25743 0.06267,0.61462 -0.0098,0.79375 -0.07246,0.17913 -0.127349,-0.0315 -0.121957,-0.46805 z m 0.213003,-1.29052 c 0,-0.055 0.208359,-0.26331 0.463021,-0.46303 0.419645,-0.3291 0.429003,-0.31974 0.0999,0.0999 -0.345644,0.44073 -0.562917,0.58089 -0.562917,0.36313 z m -16.470313,-1.92742 c 0.181902,-0.0734 0.479558,-0.0734 0.661459,0 0.181901,0.0734 0.03307,0.13345 -0.330729,0.13345 -0.363802,0 -0.512631,-0.06 -0.33073,-0.13345 z"
         id="path952"
         inkscape:connector-curvature="0" />
      <path
         style="fill:#0b0b0b;stroke-width:0.26458335"
         d="m 55.638023,325.11443 c -0.36376,-0.40645 -0.393012,-1.32275 -0.239443,-7.5003 0.185566,-7.46476 0.269018,-7.91168 1.477336,-7.91168 0.316881,0 0.689255,-0.10863 0.8275,-0.24139 0.257326,-0.24712 1.537044,-0.39481 2.826867,-0.32624 1.060042,0.0564 2.306531,1.29787 2.495293,2.48533 0.393388,2.47474 -1.524262,5.42086 -3.92136,6.02446 l -1.228686,0.30939 -0.09267,3.25497 c -0.07821,2.7471 -0.171312,3.34184 -0.596699,3.81172 -0.613809,0.67803 -1.00407,0.70166 -1.548135,0.0937 z m 3.714597,-10.26867 c 1.201346,-0.84145 1.830334,-3.06191 0.96176,-3.39521 -0.230182,-0.0883 -0.875549,-0.1606 -1.434147,-0.1606 h -1.015635 l -0.181928,1.69882 c -0.100063,0.93435 -0.10251,1.82732 -0.0055,1.98437 0.252473,0.40852 0.990401,0.35241 1.675394,-0.12738 z m 15.456109,8.82669 c -0.209127,-0.20913 -0.3175,-1.32846 -0.3175,-3.27931 0,-2.90327 -0.01516,-2.97805 -0.767612,-3.78354 -0.422188,-0.45195 -0.948833,-0.82173 -1.170324,-0.82173 -0.221493,0 -0.751258,-0.29328 -1.177258,-0.65174 l -0.774544,-0.65173 -0.362527,0.67738 c -0.642866,1.20121 -1.773459,1.949 -2.946691,1.949 -1.424437,0 -2.659218,-1.2551 -3.118567,-3.16988 -0.573344,-2.38997 0.355217,-4.77787 2.19796,-5.65231 1.56446,-0.74238 2.156841,-0.58357 3.687609,0.98859 1.468692,1.50841 3.902787,4.76719 3.902787,5.22508 0,0.14926 0.148828,0.22228 0.330729,0.16227 0.446043,-0.14713 0.58292,-3.05304 0.179329,-3.80716 -0.65402,-1.22205 1.346976,-3.27159 3.194109,-3.27159 3.938436,0 4.254082,5.33546 0.479562,8.10621 l -1.273312,0.9347 v 3.36413 c 0,3.53127 -0.139293,3.99913 -1.190625,3.99913 -0.305594,0 -0.6985,-0.14287 -0.873125,-0.3175 z m -6.78629,-9.86046 c 0.536196,-1.2833 0.487537,-2.61034 -0.115732,-3.15629 -0.474514,-0.42943 -0.526663,-0.41666 -1.058333,0.25925 -0.656262,0.83431 -0.704649,1.63145 -0.175855,2.89704 0.485267,1.1614 0.864653,1.1614 1.34992,0 z m 10.058426,-1.49805 c 0.225978,-0.437 0.37396,-1.11406 0.328848,-1.50458 -0.06495,-0.56225 -0.241046,-0.72819 -0.846029,-0.79727 -0.620993,-0.0709 -0.732427,-0.005 -0.595312,0.35237 0.09278,0.24178 0.16869,1.0322 0.16869,1.7565 0,1.43827 0.271166,1.49371 0.943803,0.19298 z m -117.945142,11.13161 c -0.24881,-0.14505 -0.512336,-0.64745 -0.585613,-1.11644 -0.633333,-4.05344 -1.92703,-18.34879 -1.68264,-18.59318 0.232886,-0.23288 11.707723,-4.04252 11.871473,-3.94132 0.0998,0.0617 0.382652,0.85766 0.628563,1.76885 0.809808,3.00062 0.08286,3.66333 -4.523072,4.12338 -1.474643,0.14729 -3.303329,0.48598 -4.063747,0.75264 l -1.382579,0.48485 0.126492,1.79538 c 0.06957,0.98746 0.190173,1.85906 0.268005,1.93689 0.07783,0.0778 1.465268,-0.12223 3.083192,-0.44458 1.617923,-0.32236 3.021032,-0.50675 3.11802,-0.40976 0.09699,0.097 0.18366,0.73929 0.192606,1.42733 l 0.01626,1.25099 -2.261448,0.55405 c -2.599923,0.63698 -3.692115,1.24544 -3.69067,2.05606 5.56e-4,0.31069 0.177069,1.63645 0.392256,2.94614 0.563859,3.43181 0.530162,5.07135 -0.111286,5.41465 -0.623321,0.33359 -0.814826,0.33277 -1.395816,-0.006 z m 13.075691,-1.10924 c -0.32125,-0.38808 -0.693559,-2.34142 -1.244935,-6.53162 -0.566683,-4.30653 -0.542565,-4.72488 0.294373,-5.10621 0.611228,-0.27849 0.75102,-0.24332 1.190625,0.29957 0.273947,0.33831 0.498085,0.8634 0.498085,1.16687 0,0.50551 0.07207,0.48354 0.859896,-0.26215 0.472943,-0.44765 1.119959,-0.94725 1.437814,-1.11024 0.912615,-0.46795 2.583982,-0.36636 3.085241,0.18753 0.894177,0.98805 0.338489,1.86783 -1.353482,2.14285 -1.793952,0.2916 -2.706552,2.55952 -2.706552,6.72611 0,1.34512 -0.121864,2.30488 -0.3175,2.50051 -0.414318,0.41432 -1.39581,0.40688 -1.743565,-0.0132 z m 46.238827,-0.60454 c -0.185367,-0.22335 -0.42958,-1.32468 -0.542692,-2.4474 -0.113115,-1.12271 -0.634058,-4.24395 -1.157656,-6.93609 -1.610563,-8.28091 -1.478134,-11.63578 0.468128,-11.85922 0.996913,-0.11445 1.581719,0.40703 1.412787,1.2598 -0.07382,0.37265 0.105278,1.86817 0.398003,3.32338 0.292721,1.45521 0.594905,4.19365 0.671517,6.08542 0.07661,1.89177 0.220766,3.52833 0.320337,3.6368 0.09957,0.10847 0.516884,-0.84403 0.927364,-2.11667 0.854604,-2.64958 1.270217,-3.23992 2.280976,-3.23992 0.979469,0 1.199094,0.33698 1.983279,3.04304 0.999554,3.44925 1.019736,3.46397 1.948839,1.42129 0.980591,-2.15588 2.982241,-8.8304 3.741394,-12.47571 0.309745,-1.48734 0.73479,-2.97214 0.944541,-3.29956 0.563645,-0.87984 1.712233,-0.79133 2.43608,0.18772 0.709557,0.95973 0.715547,1.22209 0.06166,2.70031 -0.284493,0.64314 -1.069623,3.42648 -1.744731,6.18519 -2.823044,11.53586 -4.121846,14.52487 -6.096122,14.02936 -0.654383,-0.16424 -1.85642,-2.2425 -2.891655,-4.99953 -0.55938,-1.48973 -0.516491,-1.54093 -1.846189,2.20372 -0.54257,1.52797 -1.170143,2.98649 -1.394608,3.24115 -0.503735,0.57151 -1.470416,0.60014 -1.921253,0.0569 z m -22.8935175,-0.48653 c -3.5559524,-1.65584 -5.1197483,-6.35303 -3.2453871,-9.74819 1.2809644,-2.3203 3.6731655,-2.98479 5.94735975,-1.65202 2.03074325,1.1901 2.58363505,3.37793 1.19085518,4.7123 -0.8252751,0.79067 -3.10814773,1.7597 -4.14553663,1.7597 -0.9472718,0 -0.8377211,0.69465 0.2750714,1.74415 1.3923777,1.31318 2.93417625,1.45795 6.5528904,0.61529 1.6475022,-0.38364 2.3550616,-0.19722 2.5246304,0.66517 0.1473703,0.74949 -0.7383648,1.44821 -2.5420188,2.0053 -2.37678645,0.73412 -4.8451452,0.69584 -6.5578646,-0.1017 z m 1.403776,-7.75839 c 0.4729427,-0.22281 0.8598958,-0.56708 0.8598958,-0.76504 0,-0.37793 -1.3018214,-1.16728 -1.9251162,-1.16728 -0.5319184,0 -1.4461014,1.07329 -1.6650018,1.95478 l -0.1897592,0.76415 1.0300415,-0.19075 c 0.5665258,-0.10492 1.4169972,-0.37305 1.8899399,-0.59586 z m -14.1221355,7.18126 c -3.144237,-1.16495 -4.402082,-4.78581 -2.70901,-7.79822 0.699002,-1.24371 1.737119,-1.84452 3.187057,-1.84452 1.84351,0 3.104462,1.08215 3.118487,2.6763 0.01088,1.2352 -0.743511,2.1866 -2.398937,3.02547 -0.713248,0.36143 -1.296816,0.76255 -1.296816,0.89139 0,0.33474 1.508557,0.81517 2.559635,0.81517 0.491241,0 1.574803,-0.25037 2.407912,-0.55637 2.1536344,-0.79104 2.6562289,-0.87212 3.1037664,-0.5007 0.5368977,0.44559 0.4982501,1.4111 -0.077335,1.932 -1.585169,1.43456 -5.7543674,2.15249 -7.8947594,1.35948 z m 1.223698,-6.86999 c 0,-0.61645 -1.23508,-0.47407 -1.70479,0.19654 -0.744823,1.06338 -0.513323,1.32655 0.646457,0.73487 0.582083,-0.29695 1.058333,-0.71609 1.058333,-0.93141 z m 153.109218,6.49617 c -0.65667,-0.7804 -0.70914,-1.0227 -0.70815,-3.26995 7.9e-4,-2.08501 0.53191,-6.55375 0.93497,-7.86844 0.0848,-0.27675 -0.15921,-0.54023 -0.73525,-0.79375 -0.69733,-0.30691 -0.86225,-0.5313 -0.86225,-1.17324 0,-0.74113 0.0726,-0.79905 1.09433,-0.87364 l 1.09432,-0.0799 0.46321,-2.38479 c 0.58464,-3.00994 1.28309,-3.80145 2.38347,-2.70106 0.31176,0.31175 0.3955,0.68393 0.28277,1.25677 -0.0881,0.44762 -0.32477,1.62206 -0.52598,2.60988 l -0.36584,1.79603 1.02801,0.52445 c 0.75522,0.38529 1.02801,0.68995 1.02801,1.14814 0,0.95283 -0.66973,1.38047 -1.60757,1.02647 -0.42427,-0.16014 -0.81711,-0.21241 -0.87298,-0.11614 -0.45586,0.78545 -1.0159,8.53395 -0.64401,8.91038 0.10051,0.10174 0.844,-0.19335 1.6522,-0.65576 1.56709,-0.8966 2.42935,-0.95783 2.90054,-0.20596 0.73677,1.17563 -2.00761,3.37631 -4.46453,3.58006 -1.27271,0.10554 -1.41452,0.0557 -2.07527,-0.72957 z m -102.759393,-1.5698 c -2.438408,-1.53138 -2.485374,-6.14874 -0.08694,-8.54718 0.818941,-0.81894 1.192668,-1.00328 2.027341,-0.99997 1.177568,0.005 1.484323,0.16261 1.919057,0.98813 0.172427,0.32742 0.4859,0.59531 0.696611,0.59531 0.210709,0 0.68104,0.58794 1.045178,1.30654 0.364141,0.71859 1.19025,1.74804 1.835801,2.28765 1.34067,1.12066 1.582759,1.69732 1.03867,2.47411 -0.484958,0.69238 -1.041644,0.6888 -2.19464,-0.0141 -0.697074,-0.42495 -0.943652,-0.47534 -1.031808,-0.21087 -0.06371,0.19114 -0.548932,0.81181 -1.078262,1.37929 -1.214099,1.30157 -2.823271,1.58748 -4.171008,0.74107 z m 2.775124,-3.31825 c 0.41768,-1.27923 0.202706,-2.42879 -0.487979,-2.6094 -0.32086,-0.0839 -0.517215,-0.36747 -0.522467,-0.75451 -0.0082,-0.60621 -0.01722,-0.60843 -0.402288,-0.0991 -0.708097,0.93664 -0.994389,2.52701 -0.657387,3.65183 0.266814,0.89055 0.394825,1.00838 1.017384,0.9365 0.566806,-0.0654 0.781677,-0.29513 1.052737,-1.12532 z m 73.093999,3.43963 c -0.25342,-0.30534 0.13469,-1.69288 1.94265,-6.94531 2.71998,-7.90201 5.18319,-14.09224 5.74978,-14.44964 0.66335,-0.41843 1.72199,-0.002 2.04846,0.80494 0.64103,1.58532 4.03267,16.64398 4.09478,18.18059 0.0361,0.89331 -0.0659,1.1051 -0.7008,1.45521 -0.70927,0.39112 -0.76993,0.3789 -1.33432,-0.26897 -0.37094,-0.42581 -0.71531,-1.36242 -0.92416,-2.51354 -0.55062,-3.03486 -2.46029,-11.5986 -2.67156,-11.98035 -0.12307,-0.22237 -0.8147,1.20263 -1.84306,3.79736 -0.90535,2.28431 -1.59716,4.20221 -1.53738,4.26199 0.0598,0.0598 0.92509,-0.1986 1.92291,-0.57418 1.43241,-0.53916 1.94211,-0.6246 2.4219,-0.40599 0.69647,0.31733 0.79727,1.12442 0.20213,1.61834 -0.62967,0.52258 -4.41836,2.10946 -5.03636,2.10946 -0.45179,0 -0.71161,0.42218 -1.42481,2.31511 -0.47975,1.27331 -0.99104,2.46393 -1.13621,2.64583 -0.35735,0.44778 -1.38457,0.41833 -1.77395,-0.0509 z m -60.821224,-0.61061 c -0.225404,-0.43932 -0.494654,-11.68988 -0.393562,-16.44493 0.03847,-1.8096 0.143144,-2.31944 0.562236,-2.73854 0.405927,-0.40592 0.625206,-0.45596 1.035611,-0.23632 0.563674,0.30167 0.497568,-0.59417 1.038421,14.07244 0.192503,5.22025 0.06758,5.81037 -1.230013,5.81037 -0.471332,0 -0.868241,-0.18147 -1.012693,-0.46302 z m 76.753754,-0.14996 c -0.15361,-0.33715 -0.49223,-2.17386 -0.75249,-4.08158 -0.54479,-3.99351 -0.42103,-4.46787 1.09167,-4.18408 0.60718,0.11391 0.94212,0.0342 1.2076,-0.28736 0.53605,-0.64932 2.28127,-1.35565 3.86846,-1.56567 1.6579,-0.21937 2.80395,0.33103 2.66668,1.2807 -0.10213,0.70656 -1.01739,1.18172 -2.67883,1.39073 -0.87099,0.10956 -1.53917,0.39753 -2.11385,0.911 -0.82544,0.73753 -0.84268,0.8015 -0.9754,3.6193 -0.0743,1.57767 -0.23143,3.01731 -0.34916,3.19922 -0.37638,0.58153 -1.6548,0.39786 -1.96468,-0.28226 z m -33.900956,-1.32809 c -0.492657,-0.59361 -1.057103,-2.46057 -1.244383,-4.1159 -0.138544,-1.22457 -0.287076,-1.59936 -0.673923,-1.70052 -0.762828,-0.19949 -0.878044,-0.89346 -0.350716,-2.11246 0.922507,-2.13252 1.845247,-2.60959 2.65552,-1.37296 l 0.434633,0.66334 0.722054,-1.12636 c 1.457169,-2.27309 3.28182,-3.17564 6.481401,-3.20596 2.40537,-0.0228 3.31656,0.32413 3.31656,1.26276 0,0.97363 -0.62054,1.26437 -2.84457,1.33279 -1.31438,0.0404 -2.422706,0.23466 -3.057248,0.53577 -1.786216,0.84762 -3.080904,3.95759 -3.089884,7.42222 -0.0026,1.00928 -0.155347,1.81067 -0.41601,2.18282 -0.458213,0.65419 -1.48205,0.77835 -1.933434,0.23446 z m -46.675474,-0.6391 c -0.230706,-0.25492 -0.539573,-0.7794 -0.686366,-1.16551 -0.318252,-0.83706 -0.81144,-6.85484 -0.898422,-10.96235 -0.06522,-3.07964 0.151778,-3.8128 1.12849,-3.8128 0.986692,0 1.171654,0.72002 1.36933,5.33058 0.229722,5.358 0.616177,8.37345 1.148511,8.96167 0.52551,0.58069 0.494816,1.14363 -0.09128,1.67404 -0.627632,0.56799 -1.442636,0.5574 -1.970265,-0.0256 z m 40.024952,0.29655 c -3.821065,-0.7311 -5.962684,-3.00757 -5.441746,-5.7844 0.21818,-1.16301 2.004838,-3.2215 3.250435,-3.74499 2.267691,-0.95305 4.307978,-0.0103 4.307978,1.9905 0,1.61063 -1.515761,3.13886 -3.702455,3.7329 -0.662887,0.18008 -0.662776,0.18037 0.262871,0.67987 0.720426,0.38876 1.489716,0.50141 3.464693,0.50733 2.671169,0.008 3.414474,0.27459 3.414474,1.22455 0,0.26986 -0.271825,0.66877 -0.604054,0.88646 -0.622695,0.408 -3.781092,0.73186 -4.952196,0.50778 z m -0.859896,-6.64848 c 0.327422,-0.21405 0.595313,-0.49454 0.595313,-0.62333 0,-0.48873 -0.818425,-0.20321 -1.649471,0.57544 -0.816015,0.76457 -0.827283,0.79924 -0.202613,0.62333 0.363802,-0.10245 0.929349,-0.3614 1.256771,-0.57544 z"
         id="path950"
         inkscape:connector-curvature="0" />
    </g>
  </g>
</svg>
