<?xml version="1.0" encoding="UTF-8" standalone="no"?>
<!-- Created with Inkscape (http://www.inkscape.org/) -->

<svg
   xmlns:dc="http://purl.org/dc/elements/1.1/"
   xmlns:cc="http://creativecommons.org/ns#"
   xmlns:rdf="http://www.w3.org/1999/02/22-rdf-syntax-ns#"
   xmlns:svg="http://www.w3.org/2000/svg"
   xmlns="http://www.w3.org/2000/svg"
   xmlns:sodipodi="http://sodipodi.sourceforge.net/DTD/sodipodi-0.dtd"
   xmlns:inkscape="http://www.inkscape.org/namespaces/inkscape"
   width="43.65625mm"
   height="34.924999mm"
   viewBox="0 0 43.656249 34.925"
   version="1.1"
   id="svg8"
   sodipodi:docname="mug.svg"
   inkscape:version="0.92.5 (2060ec1f9f, 2020-04-08)">
  <defs
     id="defs2" />
  <sodipodi:namedview
     id="base"
     pagecolor="#ffffff"
     bordercolor="#666666"
     borderopacity="1.0"
     inkscape:pageopacity="0.0"
     inkscape:pageshadow="2"
     inkscape:zoom="1.754102"
     inkscape:cx="234.44424"
     inkscape:cy="-37.428231"
     inkscape:document-units="mm"
     inkscape:current-layer="g1054"
     showgrid="false"
     inkscape:window-width="1848"
     inkscape:window-height="1016"
     inkscape:window-x="72"
     inkscape:window-y="27"
     inkscape:window-maximized="1"
     fit-margin-top="0"
     fit-margin-left="0"
     fit-margin-right="0"
     fit-margin-bottom="0" />
  <metadata
     id="metadata5">
    <rdf:RDF>
      <cc:Work
         rdf:about="">
        <dc:format>image/svg+xml</dc:format>
        <dc:type
           rdf:resource="http://purl.org/dc/dcmitype/StillImage" />
        <dc:title></dc:title>
      </cc:Work>
    </rdf:RDF>
  </metadata>
  <g
     inkscape:label="Layer 1"
     inkscape:groupmode="layer"
     id="layer1"
     transform="translate(0.48973423,-265.10623)">
    <g
       id="g1054"
       transform="translate(-1.0558584,2.4133906)">
      <g
         id="g1103"
         transform="translate(0.71213941,0.50556883)">
        <path
           style="fill:#a0a0a0;stroke-width:0.26458332"
           d="m 17.553195,288.46316 c 0.254661,-0.0666 0.67138,-0.0666 0.926041,0 0.254662,0.0666 0.0463,0.121 -0.46302,0.121 -0.509323,0 -0.717683,-0.0544 -0.463021,-0.121 z m 2.650869,-0.26555 c 0.25743,-0.0671 0.614618,-0.0627 0.79375,0.01 0.179131,0.0725 -0.03149,0.12736 -0.468057,0.12197 -0.436562,-0.005 -0.583125,-0.0647 -0.325693,-0.13177 z m 3.967352,-0.27109 c 0.402183,-0.0608 0.997496,-0.0592 1.322917,0.004 0.32542,0.0628 -0.0036,0.11256 -0.731243,0.11057 -0.727604,-0.002 -0.993857,-0.0534 -0.591674,-0.11418 z m -8.729852,-2.63933 c 0.25743,-0.0671 0.614618,-0.0627 0.79375,0.01 0.179131,0.0725 -0.03149,0.12737 -0.468057,0.12198 -0.436562,-0.005 -0.583124,-0.0647 -0.325693,-0.13178 z m 5.418922,0.008 c 0.181901,-0.0734 0.479558,-0.0734 0.661459,0 0.181901,0.0734 0.03307,0.13345 -0.330729,0.13345 -0.363803,0 -0.512631,-0.06 -0.33073,-0.13345 z m 3.178085,-0.27649 c 0.329119,-0.0633 0.805369,-0.0609 1.058333,0.005 0.252965,0.0662 -0.01631,0.11801 -0.598397,0.11507 -0.582083,-0.003 -0.789054,-0.0571 -0.459936,-0.12041 z m -4.943134,-2.08387 c 0.0127,-0.30823 0.07539,-0.37092 0.159852,-0.15986 0.07643,0.191 0.06703,0.4192 -0.02089,0.50712 -0.08792,0.0879 -0.150453,-0.0684 -0.138965,-0.34726 z m 7.672916,-0.26459 c 0.01269,-0.30822 0.07539,-0.37092 0.159853,-0.15985 0.07643,0.191 0.06703,0.4192 -0.02089,0.50712 -0.08792,0.0879 -0.150453,-0.0683 -0.138964,-0.34727 z m -10.699901,-0.24253 c 0.08376,-0.21828 0.199088,-0.39688 0.256279,-0.39688 0.05719,0 0.103985,0.1786 0.103985,0.39688 0,0.21828 -0.115326,0.39687 -0.25628,0.39687 -0.140954,0 -0.187747,-0.17859 -0.103984,-0.39687 z m 13.89579,-1.19063 c 0,-0.3638 0.06005,-0.51263 0.133452,-0.33073 0.0734,0.1819 0.0734,0.47956 0,0.66146 -0.0734,0.1819 -0.133452,0.0331 -0.133452,-0.33073 z m -2.931305,-0.41892 c 0.0127,-0.30823 0.07539,-0.37092 0.159852,-0.15985 0.07643,0.19099 0.06703,0.4192 -0.02089,0.50711 -0.08792,0.0879 -0.150452,-0.0684 -0.138964,-0.34726 z m -12.52686,-1.73058 c 0.179475,-0.18082 0.39297,-0.26211 0.474431,-0.18065 0.08146,0.0815 -0.06538,0.22941 -0.326319,0.32877 -0.377084,0.14358 -0.407475,0.11319 -0.148112,-0.14812 z m 15.722748,-0.23175 c 0,-0.3638 0.06005,-0.51263 0.133452,-0.33073 0.0734,0.1819 0.0734,0.47956 0,0.66146 -0.0734,0.1819 -0.133452,0.0331 -0.133452,-0.33073 z m -2.910417,-0.26458 c 0,-0.3638 0.06005,-0.51263 0.133453,-0.33073 0.0734,0.1819 0.0734,0.47956 0,0.66146 -0.0734,0.1819 -0.133453,0.0331 -0.133453,-0.33073 z m -9.566776,-0.92604 c 0,-0.21828 0.115326,-0.39688 0.25628,-0.39688 0.140953,0 0.187746,0.1786 0.103984,0.39688 -0.08376,0.21828 -0.199088,0.39687 -0.25628,0.39687 -0.05719,0 -0.103984,-0.17859 -0.103984,-0.39687 z m -5.55625,0.0324 c 0,-0.0549 0.20836,-0.2633 0.463021,-0.46302 0.419644,-0.3291 0.429002,-0.31975 0.0999,0.0999 -0.345644,0.44073 -0.562916,0.58089 -0.562916,0.36312 z m 9.210807,-0.34542 c 0.190997,-0.0764 0.4192,-0.067 0.507119,0.0209 0.08792,0.0879 -0.06835,0.15046 -0.347266,0.13897 -0.308225,-0.0127 -0.370919,-0.0754 -0.159853,-0.15985 z m 9.097023,-1.00989 c 0.0054,-0.43656 0.06469,-0.58312 0.131774,-0.32569 0.06708,0.25743 0.06267,0.61462 -0.0098,0.79375 -0.07248,0.17913 -0.127363,-0.0315 -0.121971,-0.46806 z m -3.057677,0 c -0.08376,-0.21828 -0.03697,-0.39687 0.103984,-0.39687 0.140954,0 0.25628,0.17859 0.25628,0.39687 0,0.21828 -0.04679,0.39688 -0.103984,0.39688 -0.05719,0 -0.172517,-0.1786 -0.25628,-0.39688 z m -12.984184,-0.73901 c 0.09936,-0.26094 0.247304,-0.40779 0.328766,-0.32632 0.08146,0.0815 1.68e-4,0.29495 -0.180653,0.47443 -0.261307,0.25936 -0.291698,0.22897 -0.148113,-0.14811 z m 5.886505,-0.89694 c 0.190996,-0.0764 0.419199,-0.067 0.507118,0.0209 0.08792,0.0879 -0.06835,0.15045 -0.347265,0.13897 -0.308225,-0.0127 -0.37092,-0.0754 -0.159853,-0.15986 z m 5.475441,-1.40373 c -0.09269,-0.14998 0.01351,-0.19433 0.248968,-0.10398 0.458369,0.17589 0.542234,0.36554 0.161649,0.36554 -0.136933,0 -0.321711,-0.1177 -0.410617,-0.26156 z m -6.550311,-0.44284 c 0.181901,-0.0734 0.479558,-0.0734 0.661459,0 0.181901,0.0734 0.03307,0.13345 -0.330729,0.13345 -0.363803,0 -0.512631,-0.0601 -0.33073,-0.13345 z m 5.308203,-0.006 c 0.190997,-0.0764 0.4192,-0.067 0.507119,0.0209 0.08792,0.0879 -0.06835,0.15045 -0.347266,0.13896 -0.308225,-0.0127 -0.370919,-0.0754 -0.159853,-0.15985 z m -4.641709,-2.91303 c 0.257431,-0.0671 0.614619,-0.0627 0.79375,0.01 0.179132,0.0725 -0.03149,0.12737 -0.468056,0.12197 -0.436563,-0.005 -0.583125,-0.0647 -0.325694,-0.13177 z"
           id="path1109"
           inkscape:connector-curvature="0" />
        <path
           style="fill:#5f5f5f;stroke-width:0.26458332"
           d="m 19.289523,288.20022 c 0.190996,-0.0764 0.419199,-0.067 0.507118,0.0209 0.08792,0.0879 -0.06835,0.15045 -0.347266,0.13896 -0.308224,-0.0127 -0.370919,-0.0754 -0.159852,-0.15985 z m 3.295791,-0.2672 c 0.25743,-0.0671 0.614618,-0.0627 0.79375,0.01 0.179131,0.0725 -0.03149,0.12736 -0.468057,0.12197 -0.436562,-0.005 -0.583125,-0.0647 -0.325693,-0.13178 z m -3.295791,-2.37863 c 0.190996,-0.0764 0.419199,-0.067 0.507118,0.0209 0.08792,0.0879 -0.06835,0.15045 -0.347266,0.13896 -0.308224,-0.0127 -0.370919,-0.0754 -0.159852,-0.15985 z m 2.629297,-0.25907 c 0.181901,-0.0734 0.479557,-0.0734 0.661458,0 0.181901,0.0734 0.03307,0.13345 -0.330729,0.13345 -0.363802,0 -0.51263,-0.06 -0.330729,-0.13345 z m -2.777548,-1.0154 c 0.0029,-0.58208 0.05712,-0.78905 0.120406,-0.45994 0.06329,0.32912 0.06088,0.80537 -0.0053,1.05834 -0.06622,0.25296 -0.118003,-0.0163 -0.115067,-0.5984 z m -6.574153,-0.46302 -0.504028,-0.59531 0.595312,0.50403 c 0.559447,0.47366 0.715762,0.68659 0.504028,0.68659 -0.05021,0 -0.318097,-0.26789 -0.595312,-0.59531 z m 17.111651,-1.41111 c 0.0127,-0.30823 0.07539,-0.37092 0.159853,-0.15985 0.07643,0.19099 0.06703,0.4192 -0.02089,0.50711 -0.08792,0.0879 -0.150453,-0.0683 -0.138965,-0.34726 z m -2.645833,-0.79375 c 0.0127,-0.30823 0.07539,-0.37092 0.159852,-0.15985 0.07643,0.19099 0.06703,0.4192 -0.02089,0.50711 -0.08792,0.0879 -0.150452,-0.0684 -0.138964,-0.34726 z m -15.564581,-0.7717 c 0.0029,-0.58209 0.05712,-0.78906 0.120406,-0.45994 0.06329,0.32912 0.06088,0.80537 -0.0053,1.05833 -0.06622,0.25297 -0.118003,-0.0163 -0.115066,-0.59839 z m 18.474997,-0.55122 c 0.0127,-0.30822 0.07539,-0.37092 0.159853,-0.15985 0.07643,0.191 0.06703,0.4192 -0.02089,0.50712 -0.08792,0.0879 -0.150453,-0.0684 -0.138964,-0.34727 z m -2.645833,-0.79375 c 0.0127,-0.30822 0.07539,-0.37092 0.159853,-0.15985 0.07643,0.191 0.06703,0.4192 -0.02089,0.50712 -0.08792,0.0879 -0.150453,-0.0684 -0.138965,-0.34727 z m -8.801747,-2.14306 c 0.190996,-0.0764 0.419199,-0.067 0.507118,0.0209 0.08792,0.0879 -0.06835,0.15046 -0.347266,0.13897 -0.308224,-0.0127 -0.370919,-0.0754 -0.159852,-0.15985 z m 1.835547,0.006 c 0.181901,-0.0734 0.479557,-0.0734 0.661458,0 0.181901,0.0734 0.03307,0.13345 -0.330729,0.13345 -0.363802,0 -0.51263,-0.06 -0.330729,-0.13345 z m 7.230783,-0.2437 c 0.0127,-0.30822 0.07539,-0.37092 0.159853,-0.15985 0.07643,0.191 0.06703,0.4192 -0.02089,0.50712 -0.08792,0.0879 -0.150453,-0.0684 -0.138964,-0.34727 z m 2.971515,-2.88837 c 0.0015,-0.87312 0.05088,-1.19841 0.109766,-0.72286 0.05889,0.47555 0.05767,1.18992 -0.0027,1.5875 -0.06037,0.39757 -0.108552,0.008 -0.107067,-0.86464 z m -10.064971,-1.37397 c 0.257431,-0.0671 0.614618,-0.0627 0.79375,0.01 0.179131,0.0725 -0.03149,0.12736 -0.468056,0.12197 -0.436563,-0.005 -0.583125,-0.0647 -0.325694,-0.13177 z m 1.982424,-0.26836 c 0.329119,-0.0633 0.805369,-0.0609 1.058333,0.005 0.252965,0.0662 -0.01631,0.118 -0.598397,0.11506 -0.582083,-0.003 -0.789054,-0.0571 -0.459936,-0.1204 z m -6.022355,-0.73892 c 0.341774,-0.3638 0.680939,-0.66145 0.753699,-0.66145 0.07276,0 -0.147342,0.29765 -0.489116,0.66145 -0.341774,0.36381 -0.680939,0.66146 -0.7537,0.66146 -0.07276,0 0.147342,-0.29765 0.489117,-0.66146 z m 4.696354,-1.89502 c 0.181901,-0.0734 0.479557,-0.0734 0.661458,0 0.181901,0.0734 0.03307,0.13346 -0.330729,0.13346 -0.363802,0 -0.51263,-0.0601 -0.330729,-0.13346 z m 2.910416,0 c 0.181901,-0.0734 0.479558,-0.0734 0.661459,0 0.181901,0.0734 0.03307,0.13346 -0.33073,0.13346 -0.363802,0 -0.51263,-0.0601 -0.330729,-0.13346 z"
           id="path1107"
           inkscape:connector-curvature="0" />
        <path
           style="fill:#0a0a0a;stroke-width:0.26458332"
           d="m 16.555207,287.74778 c -0.430536,-0.65708 -0.429813,-1.02482 0.0041,-2.0788 0.157723,-0.38312 0.04729,-0.46302 -0.639939,-0.46302 -1.158557,0 -2.395369,-0.58187 -3.314854,-1.5595 -1.063001,-1.13023 -1.276142,-3.62016 -0.448723,-5.24204 0.510784,-1.00122 1.937264,-2.45887 2.406286,-2.45887 0.115179,0 0.406271,-0.70158 0.646869,-1.55907 0.53036,-1.89019 2.11774,-3.52188 3.907778,-4.01686 1.953056,-0.54006 6.204264,-0.40579 7.895335,0.24938 0.800364,0.31008 1.704646,0.56384 2.009513,0.56391 1.099864,2.7e-4 1.43007,0.7774 1.43007,3.36563 0,3.4485 -0.902741,9.84435 -1.57565,11.16336 -0.8497,1.66555 -1.48881,1.9436 -5.000092,2.1753 -1.694852,0.11184 -3.933531,0.28163 -4.974842,0.3773 -1.834845,0.16859 -1.907264,0.15264 -2.345841,-0.51672 z m 6.54537,-2.42805 c 3.280707,-0.21382 3.45357,-0.32517 3.873419,-2.49502 0.372412,-1.92469 0.902521,-6.63206 0.762609,-6.77197 -0.06069,-0.0607 -1.46893,0.19917 -3.129428,0.57745 -1.660497,0.37829 -3.88229,0.69605 -4.937316,0.70613 -1.360633,0.013 -1.918229,0.11562 -1.918229,0.35302 0,0.18408 0.297356,1.44461 0.660791,2.80118 0.363435,1.35656 0.661092,3.10447 0.661459,3.88423 6.35e-4,1.33639 0.03483,1.40948 0.595979,1.27376 0.327422,-0.0792 1.871244,-0.22714 3.430716,-0.32878 z M 16.428716,282.545 c 0,-0.75331 -0.666111,-2.83157 -1.079201,-3.36709 l -0.465986,-0.6041 -0.418032,0.59682 c -0.564565,0.80603 -0.539864,2.4076 0.04499,2.91709 0.789853,0.68808 1.91823,0.95707 1.91823,0.45728 z m 6.267435,-8.06909 c 4.333416,-0.98889 4.585456,-1.20265 1.99687,-1.69356 -2.1325,-0.40442 -5.537018,-0.0565 -6.358111,0.64979 -1.611027,1.38575 0.572588,1.90835 4.361241,1.04377 z"
           id="path1105"
           inkscape:connector-curvature="0" />
      </g>
    </g>
  </g>
</svg>
