<?xml version="1.0" encoding="UTF-8" standalone="no"?>
<!-- Created with Inkscape (http://www.inkscape.org/) -->

<svg
   xmlns:dc="http://purl.org/dc/elements/1.1/"
   xmlns:cc="http://creativecommons.org/ns#"
   xmlns:rdf="http://www.w3.org/1999/02/22-rdf-syntax-ns#"
   xmlns:svg="http://www.w3.org/2000/svg"
   xmlns="http://www.w3.org/2000/svg"
   xmlns:sodipodi="http://sodipodi.sourceforge.net/DTD/sodipodi-0.dtd"
   xmlns:inkscape="http://www.inkscape.org/namespaces/inkscape"
   width="43.65625mm"
   height="34.924999mm"
   viewBox="0 0 43.656249 34.925"
   version="1.1"
   id="svg8"
   sodipodi:docname="shirt.svg"
   inkscape:version="0.92.5 (2060ec1f9f, 2020-04-08)">
  <defs
     id="defs2" />
  <sodipodi:namedview
     id="base"
     pagecolor="#ffffff"
     bordercolor="#666666"
     borderopacity="1.0"
     inkscape:pageopacity="0.0"
     inkscape:pageshadow="2"
     inkscape:zoom="1.754102"
     inkscape:cx="234.44424"
     inkscape:cy="-37.428231"
     inkscape:document-units="mm"
     inkscape:current-layer="g1054"
     showgrid="false"
     inkscape:window-width="1848"
     inkscape:window-height="1016"
     inkscape:window-x="72"
     inkscape:window-y="27"
     inkscape:window-maximized="1"
     fit-margin-top="0"
     fit-margin-left="0"
     fit-margin-right="0"
     fit-margin-bottom="0" />
  <metadata
     id="metadata5">
    <rdf:RDF>
      <cc:Work
         rdf:about="">
        <dc:format>image/svg+xml</dc:format>
        <dc:type
           rdf:resource="http://purl.org/dc/dcmitype/StillImage" />
        <dc:title></dc:title>
      </cc:Work>
    </rdf:RDF>
  </metadata>
  <g
     inkscape:label="Layer 1"
     inkscape:groupmode="layer"
     id="layer1"
     transform="translate(0.48973423,-265.10623)">
    <g
       id="g1054"
       transform="translate(-1.0558584,2.4133906)">
      <path
         style="fill:#a558eb;stroke-width:0.26458335;stroke:#a558eb;stroke-opacity:1"
         d="m 24.755054,290.92079 c 0.181901,-0.0734 0.479557,-0.0734 0.661458,0 0.181901,0.0734 0.03307,0.13345 -0.330729,0.13345 -0.363802,0 -0.51263,-0.06 -0.330729,-0.13345 z m 2.489172,-2.73519 c 0,-0.3638 0.06005,-0.51263 0.133452,-0.33073 0.0734,0.1819 0.0734,0.47956 0,0.66146 -0.0734,0.1819 -0.133452,0.0331 -0.133452,-0.33073 z m -8.686413,-0.55393 c 0.558138,-2.09069 0.756524,-4.94514 0.447235,-6.43498 -0.534948,-2.57683 -1.748292,-3.32939 -3.695841,-2.29229 -0.907595,0.48331 -0.915869,0.4826 -1.389062,-0.11897 -0.703381,-0.8942 -0.603432,-1.08013 0.780742,-1.45237 0.691224,-0.18588 1.360465,-0.43007 1.487202,-0.54263 0.126737,-0.11256 0.666921,0.0229 1.200408,0.30093 1.325261,0.69076 3.101305,0.89269 4.525024,0.51446 0.865878,-0.23003 1.568568,-0.70637 2.592216,-1.75721 l 1.40433,-1.44163 1.594647,1.33246 c 0.877057,0.73285 1.776688,1.43433 1.999182,1.55884 0.332229,0.18593 0.347668,0.33264 0.08638,0.82087 -0.280744,0.52458 -0.453717,0.57416 -1.470937,0.42162 -1.71005,-0.25644 -3.205329,0.23122 -3.71175,1.21053 -0.485684,0.93921 -0.58409,3.21904 -0.264129,6.1192 l 0.226225,2.05052 -1.957053,0.003 c -1.07638,0.002 -2.422294,0.0798 -2.990922,0.17367 -0.993083,0.16403 -1.027162,0.14565 -0.863893,-0.46593 z m -8.267809,-9.65458 c 0.0127,-0.30822 0.07539,-0.37092 0.159852,-0.15985 0.07643,0.191 0.06703,0.4192 -0.02089,0.50712 -0.08792,0.0879 -0.150453,-0.0684 -0.138965,-0.34727 z"
         id="path1060"
         inkscape:connector-curvature="0" />
      <path
         style="fill:#6f3c9b;stroke-width:0.26458335"
         d="m 17.082137,291.18537 c 0.181901,-0.0734 0.479557,-0.0734 0.661458,0 0.181901,0.0734 0.03307,0.13345 -0.330729,0.13345 -0.363802,0 -0.51263,-0.06 -0.330729,-0.13345 z m 2.66237,-0.27009 c 0.190996,-0.0764 0.419199,-0.067 0.507118,0.0209 0.08792,0.0879 -0.06835,0.15045 -0.347266,0.13896 -0.308224,-0.0127 -0.370919,-0.0754 -0.159852,-0.15985 z M 15.093,289.50852 c 0,-0.50933 0.05445,-0.71768 0.121,-0.46302 0.06655,0.25466 0.06655,0.67138 0,0.92604 -0.06655,0.25466 -0.121,0.0463 -0.121,-0.46302 z m 3.113616,-1.45521 c 0,-0.21828 0.04679,-0.39688 0.103984,-0.39688 0.05719,0 0.172517,0.1786 0.25628,0.39688 0.08376,0.21828 0.03697,0.39687 -0.103984,0.39687 -0.140954,0 -0.25628,-0.17859 -0.25628,-0.39687 z m 2.186451,-0.0576 c 0.402183,-0.0608 0.997495,-0.0592 1.322916,0.004 0.325421,0.0628 -0.0036,0.11256 -0.731242,0.11058 -0.727604,-0.002 -0.993858,-0.0534 -0.591674,-0.11419 z m 3.421545,0.0257 c 0.296164,-0.0883 0.484812,-0.4884 0.555119,-1.1774 l 0.106499,-1.04367 -0.02595,1.12416 c -0.02124,0.92003 -0.122041,1.13383 -0.55512,1.1774 -0.384933,0.0387 -0.406887,0.0168 -0.08055,-0.0805 z m 3.439418,-1.02651 c 0.0054,-0.43657 0.06469,-0.58313 0.131774,-0.3257 0.06708,0.25743 0.06267,0.61462 -0.0098,0.79375 -0.07248,0.17913 -0.127363,-0.0315 -0.121971,-0.46805 z m -8.761942,-0.022 c 0.01269,-0.30823 0.07539,-0.37092 0.159852,-0.15985 0.07643,0.19099 0.06703,0.41919 -0.02089,0.50711 -0.08792,0.0879 -0.150453,-0.0684 -0.138964,-0.34726 z m 0.264583,-1.32292 c 0.0127,-0.30822 0.07539,-0.37092 0.159852,-0.15985 0.07643,0.19099 0.06703,0.4192 -0.02089,0.50712 -0.08792,0.0879 -0.150453,-0.0684 -0.138965,-0.34727 z m 5.291667,-0.79375 c 0.01269,-0.30822 0.07539,-0.37092 0.159852,-0.15985 0.07643,0.19099 0.06703,0.4192 -0.02089,0.50712 -0.08792,0.0879 -0.150453,-0.0684 -0.138964,-0.34727 z m -7.916612,-0.90399 c 0,-0.3638 0.06005,-0.51263 0.133452,-0.33073 0.0734,0.1819 0.0734,0.47956 0,0.66146 -0.0734,0.1819 -0.133452,0.0331 -0.133452,-0.33073 z m 2.944315,-0.92604 c 0.002,-0.72761 0.05337,-0.99386 0.114185,-0.59168 0.06082,0.40218 0.05919,0.9975 -0.0036,1.32292 -0.0628,0.32542 -0.112561,-0.004 -0.110574,-0.73124 z m 7.639018,0.39687 c 0,-0.3638 0.06005,-0.51263 0.133453,-0.33073 0.0734,0.1819 0.0734,0.47956 0,0.66146 -0.0734,0.1819 -0.133453,0.0331 -0.133453,-0.33073 z m -2.885469,-0.66146 c 0.0029,-0.58208 0.05712,-0.78905 0.120406,-0.45993 0.06329,0.32911 0.06088,0.80536 -0.0053,1.05833 -0.06622,0.25296 -0.118003,-0.0163 -0.115066,-0.5984 z m -7.708949,-0.21405 c -0.01936,-0.30191 -0.152806,-0.40969 -0.361421,-0.29191 -0.262563,0.14823 -0.263472,0.11419 -0.0044,-0.16519 0.405621,-0.43742 0.688072,-0.19262 0.521511,0.45201 -0.119182,0.46126 -0.126414,0.46149 -0.15568,0.005 z m 10.57353,-0.60175 c 0.0127,-0.30822 0.07539,-0.37092 0.159853,-0.15985 0.07643,0.191 0.06703,0.4192 -0.02089,0.50712 -0.08792,0.0879 -0.150453,-0.0684 -0.138965,-0.34727 z m -2.645833,-1.32291 c 0.01269,-0.30823 0.07539,-0.37092 0.159852,-0.15986 0.07643,0.191 0.06703,0.4192 -0.02089,0.50712 -0.08792,0.0879 -0.150453,-0.0684 -0.138964,-0.34726 z m -6.140054,-1.6316 c -0.329108,-0.41964 -0.319749,-0.429 0.0999,-0.0999 0.254661,0.19972 0.46302,0.40808 0.46302,0.46303 0,0.21776 -0.217272,0.0776 -0.562915,-0.36313 z m 10.617082,-0.16758 c 0,-0.0558 0.23829,-0.16375 0.529532,-0.23991 0.291243,-0.0762 0.46281,-0.0305 0.38126,0.10144 -0.142412,0.23042 -0.910792,0.34725 -0.910792,0.13847 z m -12.099652,-0.3465 c 0.257431,-0.0671 0.614618,-0.0627 0.79375,0.01 0.179132,0.0725 -0.03149,0.12736 -0.468056,0.12197 -0.436563,-0.005 -0.583125,-0.0647 -0.325694,-0.13177 z m 10.313715,9.7e-4 c 0.254661,-0.0666 0.67138,-0.0666 0.926042,0 0.254661,0.0666 0.0463,0.121 -0.463021,0.121 -0.509323,0 -0.717683,-0.0544 -0.463021,-0.121 z M 19.72797,277.6801 c 0.327422,-0.0631 0.863203,-0.0631 1.190625,0 0.327422,0.0631 0.05953,0.11466 -0.595312,0.11466 -0.654844,0 -0.922735,-0.0516 -0.595313,-0.11466 z m 13.072505,-0.60703 c 0,-0.3638 0.06005,-0.51263 0.133453,-0.33073 0.0734,0.1819 0.0734,0.47956 0,0.66146 -0.0734,0.1819 -0.133453,0.0331 -0.133453,-0.33073 z m -15.518028,0.003 c -0.09269,-0.14998 0.01351,-0.19434 0.248969,-0.10398 0.458369,0.17589 0.542233,0.36553 0.161648,0.36553 -0.136932,0 -0.32171,-0.1177 -0.410617,-0.26155 z m -1.721664,-0.10701 c 0,-0.0572 0.184777,-0.17489 0.410617,-0.26156 0.235459,-0.0904 0.341662,-0.046 0.248968,0.10399 -0.155379,0.25141 -0.659585,0.37186 -0.659585,0.15757 z m 7.672917,0.004 c 0,-0.055 0.208359,-0.26331 0.46302,-0.46302 0.419644,-0.32911 0.429003,-0.31975 0.0999,0.0999 -0.345643,0.44073 -0.562915,0.58089 -0.562915,0.36313 z m 4.869653,-0.76001 -0.504028,-0.59531 0.595312,0.50403 c 0.559447,0.47366 0.715762,0.6866 0.504028,0.6866 -0.05021,0 -0.318097,-0.26789 -0.595312,-0.59532 z m -3.546737,-0.56291 c 0,-0.0549 0.20836,-0.2633 0.463021,-0.46302 0.419644,-0.32911 0.429002,-0.31975 0.0999,0.0999 -0.345644,0.44073 -0.562916,0.58089 -0.562916,0.36313 z m 1.959237,-0.76 -0.504028,-0.59531 0.595312,0.50402 c 0.559447,0.47367 0.715762,0.6866 0.504028,0.6866 -0.05021,0 -0.318097,-0.26789 -0.595312,-0.59531 z m -8.547258,-0.80579 c -0.334677,-0.55729 -0.329038,-0.56293 0.126558,-0.12655 0.262262,0.25119 0.419889,0.51367 0.350282,0.58328 -0.06961,0.0696 -0.284185,-0.13592 -0.47684,-0.45673 z m -1.415625,-0.62621 c 0.181901,-0.0734 0.479558,-0.0734 0.661459,0 0.181901,0.0734 0.03307,0.13345 -0.33073,0.13345 -0.363802,0 -0.51263,-0.06 -0.330729,-0.13345 z"
         id="path1058"
         inkscape:connector-curvature="0" />
      <path
         style="fill:#0e0d0f;stroke-width:0.26458335"
         d="m 16.006088,290.97321 c -0.762601,-0.37791 -0.868237,-1.70327 -0.308061,-3.86506 0.518216,-1.99986 0.827167,-5.27589 0.496443,-5.26413 -0.130247,0.005 -0.467928,0.18322 -0.750403,0.39687 -1.278749,0.9672 -2.418882,0.35503 -4.118923,-2.21156 -0.922099,-1.39212 -1.002583,-2.47441 -0.272989,-3.67099 0.582372,-0.95512 1.395593,-1.42788 3.318003,-1.92889 0.727604,-0.18963 1.436026,-0.44629 1.574271,-0.57036 0.538888,-0.48362 1.622442,-0.2173 2.311687,0.56818 0.588717,0.67091 0.889268,0.79375 1.942129,0.79375 1.106862,0 1.352689,-0.11484 2.206686,-1.03086 0.528583,-0.56697 1.199185,-1.34135 1.490227,-1.72084 0.291042,-0.37948 0.89801,-0.7603 1.348818,-0.84625 0.712349,-0.13581 1.11474,0.0689 3.073732,1.56359 1.239745,0.94592 2.656838,1.9263 3.149098,2.17861 1.641562,0.8414 1.668309,1.3605 0.228425,4.43313 -1.225106,2.61431 -1.627442,2.8723 -3.147257,2.01812 -1.527999,-0.85879 -1.961697,-0.57928 -1.776659,1.14502 0.0819,0.76318 0.22735,2.59305 0.323226,4.06638 0.162877,2.50294 0.137406,2.71568 -0.388053,3.24114 -0.504865,0.50487 -0.866746,0.56376 -3.538934,0.57596 -1.63711,0.007 -3.788207,0.10378 -4.780216,0.214 -1.163016,0.12924 -2.008808,0.0988 -2.38125,-0.0858 z m 5.904695,-2.87621 2.513542,-0.0851 -0.03311,-1.16989 c -0.01821,-0.64345 -0.121312,-2.06287 -0.229119,-3.15428 -0.38866,-3.93467 0.490968,-5.19798 3.453707,-4.96016 1.686293,0.13536 1.728375,0.12291 2.115583,-0.62586 0.217287,-0.42019 0.299379,-0.76398 0.182425,-0.76398 -0.116951,0 -1.098292,-0.72185 -2.180756,-1.60411 l -1.968118,-1.60411 -0.536939,0.74422 c -0.819065,1.13524 -1.772669,1.96703 -2.713408,2.36679 -1.220728,0.51874 -3.346093,0.44716 -4.788096,-0.16125 -1.2135,-0.512 -1.270397,-0.51283 -2.694882,-0.0394 -1.601793,0.53237 -1.858727,0.96261 -1.119798,1.87515 0.471963,0.58285 0.520396,0.58928 1.32089,0.17533 1.084435,-0.56078 2.261648,-0.54659 2.763143,0.0333 1.043776,1.20697 1.313677,4.44007 0.612932,7.34219 -0.49679,2.05745 -0.500946,2.01753 0.193146,1.85539 0.327422,-0.0765 1.726406,-0.17738 3.108854,-0.2242 z"
         id="path1056"
         inkscape:connector-curvature="0" />
    </g>
  </g>
</svg>
