<?xml version="1.0" encoding="UTF-8" standalone="no"?>
<!-- Created with Inkscape (http://www.inkscape.org/) -->

<svg
   xmlns:dc="http://purl.org/dc/elements/1.1/"
   xmlns:cc="http://creativecommons.org/ns#"
   xmlns:rdf="http://www.w3.org/1999/02/22-rdf-syntax-ns#"
   xmlns:svg="http://www.w3.org/2000/svg"
   xmlns="http://www.w3.org/2000/svg"
   xmlns:sodipodi="http://sodipodi.sourceforge.net/DTD/sodipodi-0.dtd"
   xmlns:inkscape="http://www.inkscape.org/namespaces/inkscape"
   width="131.27167mm"
   height="36.207638mm"
   viewBox="0 0 131.27167 36.207638"
   version="1.1"
   id="svg8"
   inkscape:version="0.92.5 (2060ec1f9f, 2020-04-08)"
   sodipodi:docname="ShopMerch.svg">
  <defs
     id="defs2" />
  <sodipodi:namedview
     id="base"
     pagecolor="#ffffff"
     bordercolor="#666666"
     borderopacity="1.0"
     inkscape:pageopacity="0.0"
     inkscape:pageshadow="2"
     inkscape:zoom="1.754102"
     inkscape:cx="255.06815"
     inkscape:cy="-80.935934"
     inkscape:document-units="mm"
     inkscape:current-layer="layer1"
     showgrid="false"
     fit-margin-top="0"
     fit-margin-left="0"
     fit-margin-right="0"
     fit-margin-bottom="0"
     inkscape:window-width="1848"
     inkscape:window-height="1016"
     inkscape:window-x="72"
     inkscape:window-y="27"
     inkscape:window-maximized="1" />
  <metadata
     id="metadata5">
    <rdf:RDF>
      <cc:Work
         rdf:about="">
        <dc:format>image/svg+xml</dc:format>
        <dc:type
           rdf:resource="http://purl.org/dc/dcmitype/StillImage" />
        <dc:title></dc:title>
      </cc:Work>
    </rdf:RDF>
  </metadata>
  <g
     inkscape:label="Layer 1"
     inkscape:groupmode="layer"
     id="layer1"
     transform="translate(-13.145557,-64.06782)">
    <g
       id="g864"
       transform="translate(41.047684,1.6149678)">
      <path
         style="fill:#a0a0a0;stroke-width:0.26458335"
         d="m 12.031444,98.527038 c 0.181901,-0.0734 0.479557,-0.0734 0.661458,0 0.181901,0.0734 0.03307,0.133454 -0.330729,0.133454 -0.363802,0 -0.51263,-0.06006 -0.330729,-0.133454 z m 1.124479,-0.189251 c 0,-0.05494 0.208359,-0.2633 0.463021,-0.463021 0.419645,-0.329107 0.429003,-0.319749 0.0999,0.0999 -0.345644,0.44073 -0.562917,0.580888 -0.562917,0.363125 z m -2.573772,-2.281354 c 0,-0.654843 0.0516,-0.922734 0.114663,-0.595312 0.06307,0.327422 0.06307,0.863203 0,1.190625 -0.06306,0.327422 -0.114663,0.05953 -0.114663,-0.595313 z m 3.938464,-0.79375 c 0,-0.363802 0.06006,-0.51263 0.133453,-0.330729 0.0734,0.181901 0.0734,0.479557 0,0.661458 -0.0734,0.181902 -0.133453,0.03307 -0.133453,-0.330729 z m -3.694362,-3.042708 c 0.0054,-0.436563 0.06469,-0.583126 0.131773,-0.325694 0.06708,0.257432 0.06267,0.614619 -0.0098,0.79375 -0.07248,0.179131 -0.127362,-0.03149 -0.12197,-0.468056 z m 2.92022,-1.719792 c 0,-0.509323 0.05445,-0.717682 0.121002,-0.463021 0.06655,0.254662 0.06655,0.671381 0,0.926042 -0.06655,0.254662 -0.121002,0.0463 -0.121002,-0.463021 z m -2.655636,-1.190625 c 0.0054,-0.436562 0.06469,-0.583125 0.131773,-0.325694 0.06708,0.257432 0.06267,0.614619 -0.0098,0.79375 -0.07248,0.179131 -0.127363,-0.03149 -0.121971,-0.468056 z m -23.930228,0.221647 c 0.181901,-0.0734 0.479557,-0.0734 0.661458,0 0.181901,0.0734 0.03307,0.133453 -0.330729,0.133453 -0.363802,0 -0.512631,-0.06006 -0.330729,-0.133453 z M 100.69926,88.714246 c -0.32911,-0.419645 -0.31975,-0.429004 0.0999,-0.0999 0.44073,0.345643 0.58089,0.562917 0.36312,0.562917 -0.0549,0 -0.2633,-0.20836 -0.46302,-0.463021 z m 2.17698,0.01204 c 0.19266,-0.320804 0.40723,-0.526327 0.47684,-0.456721 0.0696,0.06961 -0.088,0.332081 -0.35028,0.58328 -0.4556,0.436374 -0.46124,0.430736 -0.12656,-0.126559 z M 33.495091,88.449663 c -0.315815,-0.402694 -0.311418,-0.423641 0.03375,-0.160764 0.218281,0.166243 0.635,0.360791 0.926042,0.432329 0.50261,0.123545 0.500917,0.131612 -0.03375,0.160764 -0.309602,0.01688 -0.726321,-0.177668 -0.926041,-0.432329 z m 20.693299,0.129471 c 0.06064,-0.03793 0.4079,-0.305822 0.771702,-0.595313 l 0.661459,-0.526346 -0.504029,0.595312 c -0.277214,0.327422 -0.62448,0.595313 -0.7717,0.595313 -0.147222,0 -0.218064,-0.03104 -0.157432,-0.06897 z m -76.800829,-0.376357 c 0.190996,-0.07643 0.419199,-0.06703 0.507118,0.02088 0.08792,0.08792 -0.06835,0.150452 -0.347265,0.138964 -0.308225,-0.0127 -0.37092,-0.07539 -0.159853,-0.15985 z m 8.558053,-0.348427 c 0,-0.363802 0.06005,-0.51263 0.133452,-0.330729 0.0734,0.181901 0.0734,0.479557 0,0.661458 -0.0734,0.181901 -0.133452,0.03307 -0.133452,-0.330729 z m 66.599478,0.06615 c -0.329107,-0.419645 -0.319749,-0.429004 0.0999,-0.0999 0.254662,0.19972 0.463021,0.40808 0.463021,0.463021 0,0.217762 -0.217273,0.07761 -0.562917,-0.363125 z M 18.44759,87.225287 c 0,-0.05494 0.208359,-0.2633 0.463021,-0.463021 0.419645,-0.329107 0.429003,-0.319749 0.0999,0.0999 -0.345644,0.44073 -0.562917,0.580888 -0.562917,0.363125 z m 72.726671,-0.363125 c -0.329107,-0.419645 -0.319749,-0.429003 0.0999,-0.0999 0.44073,0.345644 0.580888,0.562917 0.363125,0.562917 -0.05494,0 -0.2633,-0.208359 -0.463021,-0.463021 z m -79.803699,-1.25677 c 0.0029,-0.582084 0.05712,-0.789054 0.120407,-0.459936 0.06329,0.329118 0.06088,0.805368 -0.0053,1.058333 -0.06622,0.252966 -0.118004,-0.01632 -0.115067,-0.598397 z m 2.669813,-1.322917 c 0.0011,-1.164167 0.04748,-1.607505 0.10337,-0.985195 0.05589,0.622311 0.05511,1.574811 -0.0019,2.116667 -0.05685,0.541856 -0.102582,0.0327 -0.101621,-1.131472 z m 46.690942,1.803635 c 0.190995,-0.07643 0.4192,-0.06703 0.507119,0.02088 0.08792,0.08792 -0.06835,0.150453 -0.347266,0.138965 -0.308226,-0.0127 -0.370919,-0.07539 -0.159853,-0.159851 z m 2.645833,0 c 0.190995,-0.07643 0.419201,-0.06703 0.507119,0.02088 0.08792,0.08792 -0.06835,0.150453 -0.347265,0.138965 -0.308227,-0.0127 -0.37092,-0.07539 -0.159854,-0.159851 z m 18.256251,0 c 0.190995,-0.07643 0.419201,-0.06703 0.507119,0.02088 0.08792,0.08792 -0.06835,0.150453 -0.347265,0.138965 -0.308227,-0.0127 -0.37092,-0.07539 -0.159854,-0.159851 z m 3.968751,0 c 0.190995,-0.07643 0.4192,-0.06703 0.507119,0.02088 0.08792,0.08792 -0.06835,0.150453 -0.347266,0.138965 -0.308226,-0.0127 -0.370919,-0.07539 -0.159853,-0.159851 z M 69.755771,85.274663 c -0.298067,-0.393904 -0.295003,-0.413653 0.02053,-0.132292 0.203986,0.181901 0.620917,0.330729 0.92651,0.330729 0.305594,0 0.722525,-0.148828 0.92651,-0.330729 0.315524,-0.281361 0.318588,-0.261612 0.02053,0.132292 -0.192701,0.254661 -0.618866,0.46302 -0.947031,0.46302 -0.328165,0 -0.75433,-0.208359 -0.947031,-0.46302 z m 18.012657,0.363124 c 0,-0.05494 0.208359,-0.2633 0.463021,-0.463021 0.419645,-0.329107 0.429003,-0.319749 0.0999,0.0999 -0.345644,0.440729 -0.562917,0.580887 -0.562917,0.363124 z m -101.314536,-0.58361 c 0.0127,-0.308226 0.07539,-0.370919 0.159853,-0.159853 0.07643,0.190995 0.06703,0.419198 -0.02089,0.507119 -0.08792,0.08792 -0.150453,-0.06835 -0.138963,-0.347266 z M 16.992381,84.67935 c 0.26339,-0.291042 0.538422,-0.529167 0.611183,-0.529167 0.07276,0 -0.08321,0.238125 -0.346599,0.529167 -0.26339,0.291042 -0.538422,0.529167 -0.611182,0.529167 -0.07276,0 0.08321,-0.238125 0.346598,-0.529167 z m -34.74113,-0.396875 c 0.0054,-0.436563 0.06469,-0.583126 0.131774,-0.325694 0.06708,0.257432 0.06267,0.614619 -0.0098,0.79375 -0.07248,0.179131 -0.127363,-0.03149 -0.121971,-0.468056 z m 22.1238118,0.480719 c 0.1909948,-0.07643 0.419198,-0.06703 0.507119,0.02088 0.087918,0.08792 -0.068352,0.150453 -0.3472656,0.138965 -0.3082264,-0.0127 -0.3709194,-0.07539 -0.1598534,-0.159851 z M 88.583067,84.260427 c 0.0127,-0.308226 0.07539,-0.370919 0.159851,-0.159853 0.07643,0.190995 0.06703,0.419198 -0.02088,0.507119 -0.08792,0.08792 -0.150453,-0.06835 -0.138965,-0.347266 z m -101.843703,-0.63941 c 0,-0.363802 0.06005,-0.512631 0.133452,-0.330729 0.0734,0.181901 0.0734,0.479557 0,0.661458 -0.0734,0.181901 -0.133452,0.03307 -0.133452,-0.330729 z m 19.5373917,0.42927 c 0,-0.05494 0.2083594,-0.2633 0.4630208,-0.463021 0.4196451,-0.329107 0.4290034,-0.319749 0.099896,0.0999 -0.3456437,0.44073 -0.5629169,0.580888 -0.5629169,0.363125 z M -6.4023571,83.202094 c 0.012695,-0.308226 0.075391,-0.370919 0.1598525,-0.159853 0.07643,0.190994 0.067031,0.419198 -0.020889,0.507119 -0.087919,0.08792 -0.1504529,-0.06835 -0.1389635,-0.347266 z M 20.870615,83.09185 c 0,-0.363802 0.06005,-0.51263 0.133453,-0.330729 0.0734,0.181901 0.0734,0.479557 0,0.661458 -0.0734,0.181901 -0.133453,0.03307 -0.133453,-0.330729 z M -3.4710533,82.827267 c 0,-0.363802 0.060055,-0.512631 0.1334532,-0.330729 0.073398,0.181901 0.073398,0.479557 0,0.661458 -0.073398,0.181901 -0.1334532,0.03307 -0.1334532,-0.330729 z m 66.3190373,0.348427 c 0.190994,-0.07643 0.4192,-0.06703 0.507119,0.02088 0.08792,0.08792 -0.06835,0.150453 -0.347266,0.138965 -0.308227,-0.0127 -0.37092,-0.07539 -0.159853,-0.159851 z m 5.118468,-0.348427 c 0,-0.363802 0.06005,-0.512631 0.133453,-0.330729 0.0734,0.181901 0.0734,0.479557 0,0.661458 -0.0734,0.181901 -0.133453,0.03307 -0.133453,-0.330729 z m -16.689638,-0.15434 c 0.0127,-0.308226 0.07539,-0.370919 0.159851,-0.159853 0.07643,0.190995 0.06703,0.419198 -0.02088,0.507119 -0.08792,0.08792 -0.150452,-0.06835 -0.138964,-0.347266 z m 17.747971,-0.110244 c 0,-0.363802 0.06006,-0.51263 0.133453,-0.330729 0.0734,0.181901 0.0734,0.479557 0,0.661458 -0.0734,0.181902 -0.133453,0.03307 -0.133453,-0.330729 z m 17.75649,0.345813 c 0.257432,-0.06708 0.61462,-0.06267 0.79375,0.0098 0.179131,0.07248 -0.03149,0.127362 -0.468055,0.12197 -0.436563,-0.0054 -0.583126,-0.06469 -0.325695,-0.131773 z m -68.57738,-0.500152 c 0.0127,-0.308226 0.07539,-0.370919 0.159851,-0.159853 0.07643,0.190994 0.06703,0.419198 -0.02088,0.507119 -0.08792,0.08792 -0.150452,-0.06835 -0.138964,-0.347266 z m 35.983336,0 c 0.0127,-0.308226 0.07539,-0.370919 0.159851,-0.159853 0.07643,0.190994 0.06703,0.419198 -0.02088,0.507119 -0.08792,0.08792 -0.150452,-0.06835 -0.138964,-0.347266 z m 5.401914,0.152471 c -0.18378,-0.297362 0.59106,-0.687046 0.850413,-0.427693 0.09074,0.09074 -0.04048,0.164978 -0.291608,0.164978 -0.251124,0 -0.383003,0.119063 -0.293066,0.264583 0.08994,0.145521 0.10399,0.264584 0.03123,0.264584 -0.07276,0 -0.206396,-0.119904 -0.296968,-0.266452 z M 20.849729,81.879177 c 0.0127,-0.308225 0.07539,-0.37092 0.159851,-0.159853 0.07643,0.190995 0.06703,0.419198 -0.02088,0.507119 -0.08792,0.08792 -0.150453,-0.06835 -0.138965,-0.347266 z m 39.931197,0.314939 c 0,-0.05719 0.184777,-0.174889 0.410618,-0.261554 0.235458,-0.09035 0.341661,-0.046 0.248967,0.103984 -0.155379,0.25141 -0.659585,0.371859 -0.659585,0.15757 z m 30.271823,-4.526224 c 2.64e-4,-2.619375 0.03987,-3.65515 0.08799,-2.301722 0.04812,1.353429 0.04789,3.496554 -5.3e-4,4.7625 -0.04837,1.265947 -0.08774,0.158597 -0.08746,-2.460778 z M 67.39551,81.768933 c -0.238466,-0.154109 -0.2711,-0.258097 -0.08176,-0.260531 0.173313,-0.0022 0.3887,0.11501 0.478637,0.260531 0.203015,0.328488 0.111421,0.328488 -0.396875,0 z m -89.851187,-0.595312 -0.504028,-0.595313 0.595313,0.504028 c 0.559447,0.473662 0.715762,0.686597 0.504028,0.686597 -0.05021,0 -0.318097,-0.26789 -0.595313,-0.595312 z m 9.479232,-0.463021 c 0,-0.509323 0.05445,-0.717682 0.121,-0.463021 0.06655,0.254662 0.06655,0.67138 0,0.926042 -0.06655,0.254661 -0.121,0.0463 -0.121,-0.463021 z m 14.441091,0.613009 c 0.1909948,-0.07643 0.4191979,-0.06703 0.5071189,0.02089 0.087918,0.08792 -0.068352,0.150453 -0.3472656,0.138965 -0.3082264,-0.0127 -0.3709194,-0.07539 -0.1598533,-0.159855 z m 1.3063803,-0.304328 c 0.2546614,-0.266789 0.5097542,-0.44826 0.5668698,-0.403269 0.1562973,0.123113 -0.5308547,0.888338 -0.7977029,0.888338 -0.1277038,0 -0.023828,-0.218281 0.2308331,-0.485069 z m 13.6310777,0.301715 c 0.257432,-0.06708 0.614619,-0.06267 0.79375,0.0098 0.179131,0.07247 -0.03149,0.127362 -0.468056,0.12197 -0.436562,-0.0054 -0.583126,-0.06469 -0.325694,-0.131774 z m 27.908508,0.0081 c 0.181902,-0.0734 0.479558,-0.0734 0.661459,0 0.181901,0.0734 0.03307,0.133453 -0.330729,0.133453 -0.363802,0 -0.512631,-0.06005 -0.33073,-0.133453 z m -1.4142,-0.684667 -0.504029,-0.595312 0.595313,0.504028 c 0.559445,0.473662 0.715761,0.686597 0.504028,0.686597 -0.05021,0 -0.318098,-0.267891 -0.595312,-0.595313 z m 8.156313,-0.463021 c 0,-0.509323 0.05445,-0.717682 0.121002,-0.463021 0.06655,0.254662 0.06655,0.671381 0,0.926042 -0.06655,0.254662 -0.121002,0.0463 -0.121002,-0.463021 z m 4.776791,-0.396875 c 0.0021,-0.727604 0.05337,-0.993857 0.114186,-0.591674 0.06082,0.402183 0.05919,0.997495 -0.0036,1.322917 -0.06282,0.32542 -0.112572,-0.0036 -0.110588,-0.731243 z m 12.909799,0.771702 c 0.0127,-0.308225 0.07539,-0.37092 0.159851,-0.159853 0.07643,0.190996 0.06703,0.4192 -0.02087,0.507118 -0.08792,0.08792 -0.150453,-0.06835 -0.138965,-0.347265 z m 6.660418,-0.507118 c 0.0029,-0.582084 0.05712,-0.789055 0.120407,-0.459936 0.06329,0.329118 0.06088,0.805368 -0.0053,1.058333 -0.06622,0.252965 -0.117999,-0.01631 -0.115062,-0.598397 z m -3.199948,0.132291 c 0,-0.363802 0.06005,-0.51263 0.133453,-0.330729 0.0734,0.181901 0.0734,0.479557 0,0.661459 -0.0734,0.181901 -0.133453,0.03307 -0.133453,-0.33073 z M 53.963142,79.652267 c 0,-0.509323 0.05445,-0.717683 0.121002,-0.463021 0.06655,0.254661 0.06655,0.67138 0,0.926041 -0.06655,0.254662 -0.121002,0.0463 -0.121002,-0.46302 z m 24.036591,0.374826 c 0.0127,-0.308224 0.07539,-0.370919 0.15985,-0.159852 0.07643,0.190996 0.06703,0.419199 -0.02088,0.507118 -0.08792,0.08792 -0.150453,-0.06835 -0.138965,-0.347266 z M 2.9864738,79.46524 c -0.143584,-0.377084 -0.113194,-0.407475 0.1481138,-0.148112 0.1808216,0.179476 0.2621148,0.39297 0.1806522,0.474431 -0.081463,0.08146 -0.229407,-0.06538 -0.328766,-0.326319 z m 0.9751776,0.269226 c 0.2546614,-0.06655 0.6713802,-0.06655 0.9260417,0 0.2546615,0.06655 0.046302,0.121 -0.4630209,0.121 -0.5093229,0 -0.7176823,-0.05445 -0.4630208,-0.121 z m 92.2734436,0.08249 c 0,-0.05494 0.20836,-0.263301 0.463021,-0.463021 0.419645,-0.329107 0.429003,-0.319749 0.0999,0.0999 -0.345644,0.440729 -0.562917,0.580887 -0.562917,0.363126 z m -118.143562,-2.347501 -1.844988,-1.918229 1.91823,1.844987 c 1.781651,1.713625 2.039061,1.991471 1.844987,1.991471 -0.04028,0 -0.903486,-0.863203 -1.918229,-1.918229 z m 80.593615,1.499306 c 0.0127,-0.308225 0.07539,-0.37092 0.159851,-0.159853 0.07643,0.190996 0.06703,0.4192 -0.02088,0.507118 -0.08792,0.08792 -0.150452,-0.06835 -0.138964,-0.347265 z m 9.789584,-0.264584 c 0.0127,-0.308224 0.07539,-0.370919 0.159851,-0.159852 0.07643,0.190996 0.06703,0.419199 -0.02088,0.507118 -0.08792,0.08792 -0.150452,-0.06835 -0.138964,-0.347266 z M 2.5934776,78.439593 c 0.0127,-0.308224 0.07539,-0.370919 0.1598507,-0.159852 0.07643,0.190996 0.067032,0.419199 -0.020876,0.507118 C 2.6445316,78.874777 2.582,78.718508 2.5934882,78.439593 Z m 13.8035914,0.236539 c 0.254661,-0.06655 0.67138,-0.06655 0.926042,0 0.254661,0.06655 0.0463,0.121001 -0.463021,0.121001 -0.509323,0 -0.717683,-0.05445 -0.463021,-0.121001 z M -10.09672,77.998621 c 0.02336,-0.453029 0.05976,-0.483874 0.1523157,-0.129053 0.066893,0.256444 0.2500717,0.386876 0.4070633,0.289849 0.1697038,-0.104882 0.2088931,-0.05256 0.096653,0.129053 -0.3142827,0.508519 -0.688665,0.34311 -0.656032,-0.289849 z m -15.410275,-0.132292 c -0.329108,-0.419644 -0.31975,-0.429002 0.09989,-0.09989 0.44073,0.345644 0.580888,0.562916 0.363126,0.562916 -0.05494,0 -0.263301,-0.208359 -0.46302,-0.463021 z m 12.795133,-0.595312 c 0,-0.509323 0.05445,-0.717683 0.121001,-0.463021 0.06655,0.254661 0.06655,0.67138 0,0.926041 -0.06655,0.254662 -0.121001,0.0463 -0.121001,-0.46302 z m 107.094874,0.132291 c 0.341775,-0.363802 0.680939,-0.661458 0.7537,-0.661458 0.07276,0 -0.147341,0.297656 -0.489117,0.661458 -0.341775,0.363802 -0.68094,0.661459 -0.7537,0.661459 -0.07276,0 0.147341,-0.297657 0.489117,-0.661459 z M 2.8371721,77.700289 c 0,-0.05494 0.2083594,-0.263302 0.4630209,-0.463021 0.419645,-0.329108 0.4290034,-0.319749 0.099896,0.0999 -0.3456438,0.440729 -0.562917,0.580887 -0.562917,0.363126 z m 9.9880219,-0.07533 c 0.181901,-0.0734 0.479557,-0.0734 0.661458,0 0.181901,0.0734 0.03307,0.133452 -0.330729,0.133452 -0.363802,0 -0.51263,-0.06005 -0.330729,-0.133452 z m 46.368232,0.09244 c 0,-0.04554 0.386953,-0.432488 0.859896,-0.859896 l 0.859896,-0.777105 -0.777105,0.859895 c -0.724371,0.801544 -0.942687,0.981513 -0.942687,0.777106 z M -7.5477244,77.360371 c 0.181901,-0.0734 0.4795573,-0.0734 0.6614583,0 0.1819011,0.0734 0.033073,0.133453 -0.3307292,0.133453 -0.3638021,0 -0.5126302,-0.06005 -0.3307291,-0.133453 z M 35.93098,77.116676 c 0.0127,-0.308224 0.07539,-0.370919 0.159851,-0.159852 0.07643,0.190996 0.06703,0.419199 -0.02088,0.507118 -0.08792,0.08792 -0.150453,-0.06835 -0.138965,-0.347266 z m 32.279169,-0.264583 c 0.0127,-0.308224 0.07539,-0.370919 0.15985,-0.159852 0.07643,0.190996 0.06703,0.419199 -0.02088,0.507118 -0.08792,0.08792 -0.150453,-0.06835 -0.138965,-0.347266 z m 15.787966,0.243695 c 0.181901,-0.0734 0.479558,-0.0734 0.661459,0 0.181901,0.0734 0.03307,0.133452 -0.33073,0.133452 -0.363802,0 -0.51263,-0.06005 -0.330729,-0.133452 z M 4.4958531,76.823079 c 0.2574316,-0.06708 0.6146192,-0.06267 0.79375,0.0098 0.1791309,0.07248 -0.031493,0.127362 -0.4680559,0.12197 -0.4365625,-0.0054 -0.5831258,-0.06469 -0.3256941,-0.131774 z M 38.841397,76.58751 c 0.0127,-0.308225 0.07539,-0.37092 0.15985,-0.159853 0.07643,0.190996 0.06703,0.4192 -0.02087,0.507118 -0.08792,0.08792 -0.150453,-0.06835 -0.138965,-0.347265 z m 11.957424,-0.903993 c 0,-0.654844 0.0516,-0.922735 0.114662,-0.595313 0.06307,0.327422 0.06307,0.863203 0,1.190625 -0.06306,0.327422 -0.114662,0.05953 -0.114662,-0.595312 z m 2.914028,-0.396875 c 0.0021,-0.727604 0.05337,-0.993858 0.114186,-0.591675 0.06082,0.402183 0.05919,0.997496 -0.0036,1.322917 -0.06282,0.325421 -0.112572,-0.0036 -0.110588,-0.731242 z m 31.695218,0.771701 c 0.0127,-0.308224 0.07539,-0.370919 0.15985,-0.159852 0.07643,0.190996 0.06703,0.419199 -0.02087,0.507118 -0.08792,0.08792 -0.150453,-0.06835 -0.138965,-0.347266 z M 36.195563,75.79376 c 0.0127,-0.308225 0.07539,-0.37092 0.159851,-0.159853 0.07643,0.190996 0.06703,0.4192 -0.02088,0.507118 -0.08792,0.08792 -0.150452,-0.06835 -0.138964,-0.347265 z m 60.783673,0.238183 c 0.190995,-0.07643 0.4192,-0.06703 0.507119,0.02089 0.08792,0.08792 -0.06835,0.150453 -0.347266,0.138964 -0.308226,-0.01269 -0.370919,-0.07539 -0.159853,-0.159852 z M 57.076759,75.865309 c 0,-0.04553 0.386953,-0.432487 0.859896,-0.859895 l 0.859896,-0.777106 -0.777105,0.859896 c -0.724371,0.801543 -0.942687,0.981512 -0.942687,0.777105 z m 16.933335,-0.578667 c 0.341775,-0.363802 0.680939,-0.661459 0.7537,-0.661459 0.07276,0 -0.147341,0.297657 -0.489117,0.661459 -0.341776,0.363802 -0.68094,0.661458 -0.7537,0.661458 -0.07276,0 0.147341,-0.297656 0.489117,-0.661458 z M -26.734779,74.889767 c 0,-0.509323 0.05445,-0.717683 0.121,-0.463021 0.06655,0.254661 0.06655,0.67138 0,0.926042 -0.06655,0.254661 -0.121,0.0463 -0.121,-0.463021 z m 111.55904,0.06614 c -0.329107,-0.419643 -0.319749,-0.429002 0.0999,-0.09989 0.254661,0.199719 0.463021,0.408078 0.463021,0.463021 0,0.217761 -0.217273,0.0776 -0.562917,-0.363127 z M 70.272176,74.691329 c -0.321286,-0.409674 -0.314594,-0.42518 0.05809,-0.134587 0.231669,0.180638 0.51865,0.24017 0.637731,0.132292 0.119083,-0.107878 0.130868,-0.04731 0.02619,0.134587 -0.246007,0.427484 -0.289213,0.419568 -0.722013,-0.132292 z m 23.407788,-1.785937 c 0.0011,-1.164167 0.04748,-1.607504 0.10337,-0.985194 0.05589,0.62231 0.0551,1.57481 -0.0019,2.116667 -0.05675,0.541856 -0.102478,0.03269 -0.101517,-1.131473 z m -117.56571,1.619897 c 0,-0.05494 0.208359,-0.263302 0.46302,-0.463021 0.419644,-0.329108 0.429003,-0.319749 0.0999,0.09989 -0.345643,0.44073 -0.562915,0.580888 -0.562915,0.363127 z m 63.356833,-0.182292 c -0.09592,-0.155202 -0.117655,-0.338931 -0.0483,-0.408286 0.06935,-0.06935 0.196601,0.05763 0.282773,0.282186 0.178906,0.466225 0.02643,0.548232 -0.234473,0.1261 z m 37.135231,0.101446 c 0.190995,-0.07643 0.4192,-0.06703 0.507119,0.02089 0.08792,0.08792 -0.06835,0.150453 -0.347266,0.138964 -0.308226,-0.0127 -0.370919,-0.07539 -0.159853,-0.159852 z m -7.408334,-0.264584 c 0.190995,-0.07643 0.419201,-0.06703 0.507119,0.02089 0.08792,0.08792 -0.06835,0.150453 -0.347266,0.138965 -0.308226,-0.0127 -0.370919,-0.07539 -0.159853,-0.159853 z m 8.807421,-0.270247 c 0.192657,-0.320804 0.407234,-0.526328 0.476841,-0.456721 0.06961,0.06961 -0.08802,0.332083 -0.350282,0.58328 -0.455597,0.436373 -0.461235,0.430735 -0.126559,-0.126559 z m 3.482806,0.261128 c 0.402183,-0.06082 0.997495,-0.05919 1.322917,0.0036 0.325422,0.0628 -0.0037,0.11256 -0.731242,0.110573 -0.727604,-0.002 -0.993857,-0.05337 -0.591675,-0.114185 z m -93.910053,-2.323682 c 0.0012,-1.018646 0.049,-1.402943 0.106272,-0.853994 0.05728,0.548949 0.05632,1.382386 -0.0021,1.852083 -0.05844,0.469697 -0.105303,0.02056 -0.104129,-0.998089 z m 84.447561,1.190625 c 0.26339,-0.291041 0.538421,-0.529166 0.611182,-0.529166 0.07276,0 -0.08321,0.238125 -0.346599,0.529166 -0.26339,0.291042 -0.538422,0.529167 -0.611182,0.529167 -0.07276,0 0.08321,-0.238125 0.346599,-0.529167 z M -9.8210524,72.7731 c 0,-0.363802 0.060053,-0.51263 0.1334522,-0.330729 0.073399,0.181901 0.073399,0.479557 0,0.661458 -0.073399,0.181901 -0.1334522,0.03307 -0.1334522,-0.330729 z m 71.3326674,0.342037 c 0.329118,-0.06329 0.805368,-0.06088 1.058334,0.0053 0.252965,0.06622 -0.01633,0.118004 -0.598398,0.115067 -0.582083,-0.0029 -0.789054,-0.05712 -0.459936,-0.120406 z m -77.922882,-0.259838 c 0.254662,-0.06655 0.671381,-0.06655 0.926042,0 0.254661,0.06655 0.0463,0.121 -0.463021,0.121 -0.509323,0 -0.717682,-0.05445 -0.463021,-0.121 z m -3.026172,-0.527523 c 0.190996,-0.07643 0.419199,-0.06703 0.507118,0.02089 0.08792,0.08792 -0.06835,0.150453 -0.347265,0.138964 -0.308225,-0.01269 -0.37092,-0.07539 -0.159853,-0.159852 z m 69.807185,-0.472244 c -0.08197,-0.213621 -0.03518,-0.458773 0.103984,-0.544782 0.139165,-0.08601 0.253029,0.08877 0.253029,0.388402 0,0.638853 -0.147138,0.703303 -0.357013,0.15638 z m 3.06423,-0.669932 c 0,-0.509323 0.05445,-0.717682 0.121001,-0.463021 0.06655,0.254662 0.06655,0.67138 0,0.926042 -0.06655,0.254661 -0.121001,0.0463 -0.121001,-0.463021 z m -16.444663,0.110243 c 0.0127,-0.308224 0.07539,-0.370919 0.159851,-0.159852 0.07643,0.190996 0.06703,0.419199 -0.02088,0.507118 -0.08792,0.08792 -0.150452,-0.06835 -0.138964,-0.347266 z m -51.648391,-0.837847 c -0.329108,-0.419644 -0.319749,-0.429002 0.09989,-0.09989 0.440729,0.345644 0.580887,0.562916 0.363126,0.562916 -0.05494,0 -0.263302,-0.20836 -0.463021,-0.463021 z m -4.778361,-0.776053 c 0.190996,-0.07643 0.419199,-0.06703 0.507118,0.02089 0.08792,0.08792 -0.06835,0.150453 -0.347265,0.138964 -0.308225,-0.0127 -0.37092,-0.07539 -0.159853,-0.159852 z m 2.910417,0 c 0.190996,-0.07643 0.419199,-0.06703 0.507118,0.02089 0.08792,0.08792 -0.06835,0.150453 -0.347265,0.138964 -0.308225,-0.0127 -0.37092,-0.07539 -0.159853,-0.159852 z m 6.420498,-0.76735 c 0.0127,-0.308224 0.07539,-0.370919 0.1598525,-0.159852 0.07643,0.190996 0.067031,0.419199 -0.020889,0.507118 -0.087919,0.08792 -0.1504525,-0.06835 -0.1389645,-0.347266 z m 63.256308,-0.63941 c 0,-0.363802 0.06006,-0.51263 0.133453,-0.330729 0.0734,0.181901 0.0734,0.479557 0,0.661459 -0.0734,0.181901 -0.133453,0.03307 -0.133453,-0.33073 z m 37.855028,-3.704166 c 0,-0.509323 0.05445,-0.717683 0.121001,-0.463021 0.06655,0.254661 0.06655,0.67138 0,0.926041 -0.06655,0.254662 -0.121001,0.0463 -0.121001,-0.46302 z m 0.2032,-1.422812 c 0,-0.05494 0.208359,-0.263301 0.46302,-0.463021 0.419645,-0.329107 0.429004,-0.319749 0.0999,0.0999 -0.345643,0.440729 -0.562916,0.580887 -0.562916,0.363126 z"
         id="path870"
         inkscape:connector-curvature="0" />
      <path
         style="fill:#5f5f5f;stroke-width:0.26458335"
         d="m 10.816448,93.4106 c 0,-0.363802 0.06006,-0.51263 0.133453,-0.330729 0.0734,0.181901 0.0734,0.479557 0,0.661458 -0.0734,0.181901 -0.133453,0.03307 -0.133453,-0.330729 z m 2.665442,-0.264583 c 0,-0.509323 0.05445,-0.717683 0.121001,-0.463021 0.06655,0.254661 0.06655,0.67138 0,0.926041 -0.06655,0.254662 -0.121001,0.0463 -0.121001,-0.46302 z m -2.421745,-2.800173 c 0.0127,-0.308226 0.07539,-0.370919 0.159851,-0.159853 0.07643,0.190994 0.06703,0.419198 -0.02088,0.507119 -0.08792,0.08792 -0.150453,-0.06835 -0.138965,-0.347266 z m 2.628995,-0.97014 c -0.0027,-0.311076 0.191307,-0.456165 0.591262,-0.442132 0.397785,0.01394 0.463627,0.07101 0.198438,0.171963 -0.218282,0.08309 -0.484349,0.282052 -0.591262,0.442132 -0.119901,0.179531 -0.195937,0.113636 -0.198438,-0.171963 z m -27.289885,-0.396875 c -0.329107,-0.419645 -0.319749,-0.429003 0.0999,-0.0999 0.440729,0.345644 0.580887,0.562917 0.363126,0.562917 -0.05494,0 -0.263301,-0.208359 -0.463021,-0.463021 z M 103.13515,87.700011 c 0.0127,-0.308227 0.0754,-0.37092 0.15985,-0.159854 0.0764,0.190995 0.067,0.419198 -0.0209,0.507119 -0.0879,0.08792 -0.15046,-0.06835 -0.13897,-0.347265 z M -3.4710533,87.0606 c 0,-0.363802 0.060055,-0.51263 0.1334532,-0.330729 0.073398,0.181901 0.073398,0.479557 0,0.661458 -0.073398,0.181901 -0.1334532,0.03307 -0.1334532,-0.330729 z m 8.1106995,0.348427 c 0.1909948,-0.07643 0.4191979,-0.06703 0.507119,0.02088 0.087918,0.08792 -0.068352,0.150452 -0.3472657,0.138964 -0.3082264,-0.0127 -0.3709194,-0.07539 -0.1598533,-0.15985 z M 11.345614,87.0606 c 0,-0.363802 0.06006,-0.51263 0.133454,-0.330729 0.0734,0.181901 0.0734,0.479557 0,0.661458 -0.0734,0.181901 -0.133454,0.03307 -0.133454,-0.330729 z m 43.847619,-0.206751 c -0.08716,-0.525785 -0.04834,-0.772612 0.09845,-0.625827 0.133308,0.133308 0.198078,0.524002 0.143934,0.868207 -0.08331,0.529614 -0.120579,0.492347 -0.242382,-0.24238 z m -74.184187,-0.05783 c 0.263389,-0.291042 0.53842,-0.529167 0.611181,-0.529167 0.07276,0 -0.08321,0.238125 -0.346598,0.529167 -0.263389,0.291041 -0.538421,0.529166 -0.611181,0.529166 -0.07276,0 0.08321,-0.238125 0.346598,-0.529166 z m 111.54393,0.454297 c 0.06064,-0.04118 0.348369,-0.249536 0.639411,-0.463021 0.489482,-0.359042 0.501933,-0.353427 0.166042,0.07487 -0.199721,0.254662 -0.487456,0.463021 -0.639411,0.463021 -0.151956,0 -0.226674,-0.03369 -0.166042,-0.07487 z m -119.647472,-0.91732 c -0.329107,-0.419645 -0.319749,-0.429004 0.0999,-0.0999 0.440729,0.345643 0.580887,0.562917 0.363126,0.562917 -0.05494,0 -0.263301,-0.20836 -0.463021,-0.463021 z m 21.0025568,-0.727604 c 0.00294,-0.582084 0.057121,-0.789054 0.1204066,-0.459936 0.063286,0.329118 0.060883,0.805368 -0.00534,1.058333 -0.066223,0.252966 -0.1180042,-0.01632 -0.1150666,-0.598397 z m 67.8681382,0.474329 c 0.329118,-0.06329 0.805368,-0.06088 1.058333,0.0053 0.252966,0.06622 -0.01633,0.118005 -0.598397,0.115068 -0.582084,-0.0029 -0.789054,-0.05712 -0.459936,-0.120407 z m 20.650953,0.0064 c 0.190994,-0.07643 0.4192,-0.06703 0.507119,0.02088 0.08792,0.08792 -0.06835,0.150453 -0.347266,0.138965 -0.308227,-0.0127 -0.37092,-0.07539 -0.159853,-0.159851 z m 2.38125,0 c 0.190994,-0.07643 0.4192,-0.06703 0.507119,0.02088 0.08792,0.08792 -0.06835,0.150453 -0.347266,0.138965 -0.308226,-0.0127 -0.370919,-0.07539 -0.159853,-0.159851 z M -22.756232,85.289746 c 0.257431,-0.06708 0.614619,-0.06267 0.79375,0.0098 0.179132,0.07248 -0.03149,0.127362 -0.468056,0.12197 -0.436562,-0.0054 -0.583125,-0.06469 -0.325694,-0.131773 z M 57.5859,84.480913 56.944467,83.753308 57.672072,84.39474 c 0.680056,0.599517 0.848939,0.813777 0.641432,0.813777 -0.04739,0 -0.374814,-0.327422 -0.727604,-0.727604 z m -83.07339,-0.529167 -0.911798,-0.992188 0.992187,0.911799 c 0.923507,0.848681 1.11384,1.072576 0.911799,1.072576 -0.04421,0 -0.490699,-0.446484 -0.992188,-0.992187 z M 91.022713,83.621017 c 0,-0.800365 0.0496,-1.127787 0.110223,-0.727605 0.06062,0.400183 0.06062,1.055027 0,1.455209 -0.06062,0.400182 -0.110223,0.07276 -0.110223,-0.727604 z m -94.4839608,0.396875 c 0.0054,-0.436563 0.064691,-0.583126 0.1317731,-0.325694 0.067083,0.257431 0.062672,0.614619 -0.00979,0.79375 -0.072477,0.17913 -0.1273625,-0.03149 -0.1219703,-0.468056 z m 70.3275908,0.561562 c 0,-0.05494 0.20836,-0.2633 0.463021,-0.463021 0.419645,-0.329107 0.429003,-0.319749 0.0999,0.0999 -0.345644,0.44073 -0.562917,0.580888 -0.562917,0.363125 z m 2.402139,-0.58361 c 0.0127,-0.308226 0.07539,-0.370919 0.159851,-0.159853 0.07643,0.190994 0.06703,0.419198 -0.02088,0.507119 -0.08792,0.08792 -0.150452,-0.06835 -0.138964,-0.347266 z m 2.706931,-1.036286 c 0.0016,-0.873125 0.05088,-1.198414 0.109765,-0.722865 0.05889,0.475549 0.05767,1.189924 -0.0027,1.5875 -0.06037,0.397576 -0.108551,0.0085 -0.107067,-0.864635 z m 5.052251,0.859896 -0.504028,-0.595312 0.595312,0.504028 c 0.327422,0.277215 0.595313,0.545105 0.595313,0.595313 0,0.211733 -0.212934,0.05542 -0.686597,-0.504029 z m -78.4029367,-0.61736 c 0.0127,-0.308226 0.07539,-0.370919 0.1598507,-0.159853 0.07643,0.190994 0.067032,0.419198 -0.020876,0.507119 -0.087921,0.08792 -0.1504527,-0.06835 -0.1389645,-0.347266 z M 83.20745,83.433887 c 0.329118,-0.06328 0.805368,-0.06088 1.058334,0.0053 0.252965,0.06622 -0.01632,0.118004 -0.598398,0.115067 -0.582083,-0.0029 -0.789054,-0.05712 -0.459936,-0.120406 z M 1.0366692,82.430392 c 0.0054,-0.436563 0.064691,-0.583126 0.1317731,-0.325694 0.067082,0.257431 0.062672,0.614619 -0.00979,0.79375 -0.072477,0.17913 -0.1273625,-0.03149 -0.1219703,-0.468056 z m 9.2604168,-0.529167 c 0.0054,-0.436562 0.06469,-0.583125 0.131774,-0.325694 0.06708,0.257431 0.06267,0.614619 -0.0098,0.79375 -0.07248,0.179131 -0.127363,-0.03149 -0.121971,-0.468056 z m -23.314027,-0.02204 c 0.01269,-0.308225 0.07539,-0.37092 0.159853,-0.159853 0.07643,0.190995 0.06703,0.419198 -0.02089,0.507119 -0.08792,0.08792 -0.150453,-0.06835 -0.138965,-0.347266 z m 64.293755,0 c 0.0127,-0.308225 0.07539,-0.37092 0.159851,-0.159853 0.07643,0.190995 0.06703,0.419198 -0.02088,0.507119 -0.08792,0.08792 -0.150452,-0.06835 -0.138964,-0.347266 z m 27.46203,-0.04411 c -0.329108,-0.419644 -0.319749,-0.429002 0.0999,-0.09989 0.254661,0.19972 0.463021,0.408079 0.463021,0.46302 0,0.217763 -0.217273,0.0776 -0.562917,-0.363125 z m -12.467813,-0.24137 c 0.181901,-0.0734 0.479557,-0.0734 0.661458,0 0.181901,0.0734 0.03307,0.133452 -0.330729,0.133452 -0.363802,0 -0.51263,-0.06005 -0.330729,-0.133452 z M 53.943534,80.975183 c 0,-0.363802 0.06005,-0.51263 0.133453,-0.330729 0.0734,0.181901 0.0734,0.479557 0,0.661459 -0.0734,0.181901 -0.133453,0.03307 -0.133453,-0.33073 z m -62.483446,0.164689 c 0,-0.05494 0.2083594,-0.263302 0.4630209,-0.463021 0.419644,-0.329107 0.4290023,-0.319749 0.099895,0.0999 -0.3456435,0.440729 -0.5629156,0.580887 -0.5629156,0.363126 z m -15.345834,-1.619897 c -0.642681,-0.654844 -1.108979,-1.190625 -1.036219,-1.190625 0.07276,0 0.658121,0.535781 1.300802,1.190625 0.642681,0.654844 1.108979,1.190625 1.036218,1.190625 -0.07276,0 -0.658121,-0.535781 -1.300801,-1.190625 z m 3.935001,0.198437 c -0.329108,-0.419643 -0.319749,-0.429002 0.0999,-0.09989 0.254661,0.199719 0.463021,0.408078 0.463021,0.463021 0,0.217761 -0.217273,0.0776 -0.562916,-0.363127 z m 31.540057,-0.485069 c 0.0127,-0.308224 0.07539,-0.370919 0.15985,-0.159852 0.07643,0.190996 0.06703,0.419199 -0.02088,0.507118 -0.08792,0.08792 -0.150453,-0.06835 -0.138965,-0.347266 z m 48.204462,0.23557 c 0.257431,-0.06708 0.614619,-0.06267 0.79375,0.0098 0.17913,0.07247 -0.03149,0.127362 -0.468056,0.121969 -0.436563,-0.0054 -0.583126,-0.06469 -0.325694,-0.131773 z M 8.9025629,78.660079 8.2611308,77.932475 8.988735,78.573908 c 0.4001824,0.352788 0.7276042,0.68021 0.7276042,0.727604 0,0.207506 -0.2142596,0.03862 -0.8137763,-0.641433 z m 5.3116931,0.198438 c 0,-0.291042 0.04565,-0.529167 0.101434,-0.529167 0.05579,0 0.163703,0.238125 0.239813,0.529167 0.07611,0.291041 0.03046,0.529166 -0.101434,0.529166 -0.131897,0 -0.239813,-0.238125 -0.239813,-0.529166 z m 36.828667,-0.132292 c 0.0054,-0.436563 0.06469,-0.583125 0.131773,-0.325694 0.06708,0.257431 0.06267,0.614619 -0.0098,0.79375 -0.07246,0.179132 -0.12735,-0.03149 -0.121957,-0.468056 z m -63.774392,-0.132292 c 0,-0.363802 0.06005,-0.51263 0.133452,-0.330729 0.0734,0.181901 0.0734,0.479557 0,0.661458 -0.0734,0.181902 -0.133452,0.03307 -0.133452,-0.330729 z m 15.0057242,0.06615 c -0.3358913,-0.428295 -0.32344,-0.43391 0.1660419,-0.07487 0.2910417,0.213483 0.5787761,0.421843 0.6394106,0.46302 0.060632,0.04118 -0.014086,0.07487 -0.1660419,0.07487 -0.1519555,0 -0.4396899,-0.208359 -0.6394106,-0.46302 z M 0.91894281,78.154121 c 0.18190109,-0.0734 0.47955729,-0.0734 0.66145839,0 0.181901,0.0734 0.033073,0.133453 -0.3307292,0.133453 -0.36380211,0 -0.51263025,-0.06005 -0.33072919,-0.133453 z M 93.698222,77.967083 c -0.07646,-0.199247 -0.09475,-1.002919 -0.04064,-1.785938 l 0.09838,-1.42367 0.04894,1.669261 c 0.03475,1.184994 0.13756,1.614492 0.354407,1.480473 0.189257,-0.116966 0.233643,-0.07258 0.116676,0.116677 -0.24806,0.40137 -0.407979,0.385648 -0.577763,-0.0568 z M 53.698559,77.271017 c 0,-0.509323 0.05445,-0.717683 0.121002,-0.463021 0.06655,0.254661 0.06655,0.67138 0,0.926041 -0.06655,0.254662 -0.121002,0.0463 -0.121002,-0.46302 z m 11.91159,-0.132292 c 0.0029,-0.582083 0.05712,-0.789054 0.120407,-0.459936 0.06328,0.329119 0.06088,0.805369 -0.0053,1.058333 -0.06622,0.252965 -0.117999,-0.01631 -0.115062,-0.598397 z m 33.642517,0.06615 -0.504029,-0.595313 0.595313,0.504028 c 0.559445,0.473662 0.71576,0.686597 0.504028,0.686597 -0.05021,0 -0.318098,-0.26789 -0.595312,-0.595312 z M -10.060689,76.609558 c 0.0029,-0.582083 0.05712,-0.789054 0.1204064,-0.459936 0.063287,0.329119 0.060884,0.805369 -0.00534,1.058334 -0.066223,0.252965 -0.1180034,-0.01631 -0.1150664,-0.598398 z m 73.243754,0.507118 c 0.0127,-0.308224 0.07539,-0.370919 0.159851,-0.159852 0.07643,0.190996 0.06703,0.419199 -0.02088,0.507118 -0.08792,0.08792 -0.150453,-0.06835 -0.138964,-0.347266 z m 13.472862,-0.474721 c 0,-0.05494 0.20836,-0.263301 0.463021,-0.463021 0.419645,-0.329107 0.429003,-0.319749 0.0999,0.0999 -0.345644,0.440729 -0.562917,0.580887 -0.562917,0.363126 z m 5.225521,-0.07533 c 0.181901,-0.0734 0.479558,-0.0734 0.661459,0 0.181901,0.0734 0.03307,0.133453 -0.330729,0.133453 -0.363803,0 -0.512631,-0.06005 -0.33073,-0.133453 z M 68.210149,76.058343 c 0.0127,-0.308224 0.07539,-0.370919 0.15985,-0.159852 0.07643,0.190996 0.06703,0.419199 -0.02088,0.507118 -0.08792,0.08792 -0.150453,-0.06835 -0.138965,-0.347266 z M -12.447278,74.3606 c 0,-0.509323 0.05445,-0.717682 0.121,-0.463021 0.06655,0.254662 0.06655,0.67138 0,0.926042 -0.06655,0.254661 -0.121,0.0463 -0.121,-0.463021 z m 63.225617,-0.396875 c 0.0054,-0.436562 0.06469,-0.583125 0.131773,-0.325694 0.06708,0.257431 0.06267,0.614619 -0.0098,0.79375 -0.07246,0.179132 -0.127349,-0.03149 -0.121957,-0.468056 z m 2.645834,-1.322917 c 0.0054,-0.436562 0.06469,-0.583124 0.131773,-0.325693 0.06708,0.257431 0.06267,0.614618 -0.0098,0.79375 -0.07246,0.179131 -0.127349,-0.03149 -0.121957,-0.468057 z m -79.029711,-0.132291 c 0.263389,-0.291042 0.53842,-0.529167 0.611181,-0.529167 0.07276,0 -0.08321,0.238125 -0.346598,0.529167 -0.263389,0.291041 -0.53842,0.529166 -0.611181,0.529166 -0.07276,0 0.08321,-0.238125 0.346598,-0.529166 z M 91.049246,69.201225 c 2.64e-4,-2.182813 0.04135,-3.040574 0.09107,-1.906136 0.04971,1.134437 0.04941,2.920375 -7.94e-4,3.96875 -0.04997,1.048375 -0.09064,0.120199 -0.09027,-2.062614 z m -108.465929,3.332973 c -0.138245,-0.131396 -0.48948,-0.296178 -0.780521,-0.366183 -0.501946,-0.120733 -0.500211,-0.12886 0.03375,-0.157973 0.309603,-0.01688 0.711135,0.147902 0.892292,0.366183 0.359171,0.432774 0.25854,0.542016 -0.14552,0.157973 z m 3.097714,-1.084015 c 0,-0.363802 0.06005,-0.51263 0.133452,-0.330729 0.0734,0.181901 0.0734,0.479557 0,0.661458 -0.0734,0.181902 -0.133452,0.03307 -0.133452,-0.330729 z m 89.718125,0.0822 c 0.254662,-0.06655 0.671381,-0.06655 0.926042,0 0.254661,0.06655 0.0463,0.121001 -0.463021,0.121001 -0.509323,0 -0.717682,-0.05445 -0.463021,-0.121001 z m -25.052262,-0.42434 c 0.09936,-0.260937 0.247303,-0.407781 0.328766,-0.326319 0.08146,0.08146 1.69e-4,0.294956 -0.180652,0.474432 -0.261308,0.259362 -0.291698,0.228971 -0.148114,-0.148113 z m -60.453418,-1.3997 c 0.0127,-0.308224 0.07539,-0.370919 0.1598525,-0.159852 0.07643,0.190996 0.067031,0.419199 -0.020889,0.507118 -0.087919,0.08792 -0.1504525,-0.06835 -0.1389645,-0.347266 z m -8.289118,-0.03239 c 0.327422,-0.06306 0.863203,-0.06306 1.190625,0 0.327422,0.06306 0.05953,0.114662 -0.595312,0.114662 -0.654844,0 -0.922735,-0.0516 -0.595313,-0.114662 z m 71.52454,-0.496782 c 0.0127,-0.308224 0.07539,-0.370919 0.15985,-0.159852 0.07643,0.190996 0.06703,0.419199 -0.02087,0.507118 -0.08792,0.08792 -0.150453,-0.06835 -0.138965,-0.347266 z M 93.41538,66.819975 c 0.0011,-1.164167 0.04748,-1.607504 0.10337,-0.985194 0.05589,0.62231 0.0551,1.57481 -0.0019,2.116667 -0.05675,0.541857 -0.102478,0.03269 -0.101518,-1.131473 z m -104.370291,0.463021 c -0.329108,-0.419644 -0.319749,-0.429002 0.09989,-0.0999 0.440729,0.345644 0.580887,0.562916 0.363126,0.562916 -0.05494,0 -0.263302,-0.20836 -0.463021,-0.463021 z m 49.990393,0.28228 c 0.190995,-0.07643 0.4192,-0.06703 0.507119,0.02089 0.08792,0.08792 -0.06835,0.150453 -0.347266,0.138964 -0.308226,-0.01269 -0.370919,-0.07539 -0.159853,-0.159852 z M 93.874734,63.88751 c 0.0127,-0.308225 0.07539,-0.37092 0.159851,-0.159853 0.07643,0.190996 0.06703,0.4192 -0.02088,0.507118 -0.08792,0.08792 -0.150453,-0.06835 -0.138965,-0.347265 z m -1.674535,-1.343805 c 0.181901,-0.0734 0.479557,-0.0734 0.661458,0 0.181902,0.0734 0.03307,0.133452 -0.330729,0.133452 -0.363802,0 -0.51263,-0.06005 -0.330729,-0.133452 z"
         id="path868"
         inkscape:connector-curvature="0" />
      <path
         style="fill:#0b0b0b;stroke-width:0.26458335"
         d="m 11.139234,97.764038 c -0.438671,-0.669496 -0.439142,-1.004377 -0.0094,-6.696276 0.248811,-3.295346 0.433155,-7.122631 0.409652,-8.505079 -0.02668,-1.569273 0.09541,-2.911128 0.324974,-3.571875 0.3345,-0.962756 0.451234,-1.058333 1.292596,-1.058333 0.818605,0 0.934738,0.086 1.010615,0.748398 0.06496,0.567104 0.190249,0.708289 0.517203,0.582824 1.1768,-0.45158 2.756511,-0.457156 3.917352,-0.01383 3.746373,1.430753 2.576333,6.678937 -2.006788,9.001378 -0.717915,0.36379 -1.648812,0.661435 -2.068674,0.661435 h -0.763381 l -0.157575,2.432206 c -0.143256,2.211192 -0.110752,2.465004 0.357711,2.79313 0.683461,0.478713 0.655333,1.528569 -0.08003,2.986831 -0.494326,0.980279 -0.73842,1.194401 -1.438921,1.262237 -0.670949,0.06497 -0.938117,-0.06255 -1.305372,-0.623049 z m 5.055484,-12.255434 c 1.23761,-0.841129 2.252872,-2.241772 2.252872,-3.108031 0,-1.15978 -1.85111,-1.531222 -3.562898,-0.714927 l -0.935019,0.445878 v 2.217785 c 0,2.174182 0.01169,2.214422 0.595312,2.046851 0.327422,-0.09401 1.069801,-0.493411 1.649733,-0.887556 z m -29.637916,3.394695 c -0.467048,-0.516083 -0.469058,-0.63476 -0.04817,-2.844271 0.889835,-4.671346 1.418495,-15.02072 0.876675,-17.162346 -0.171217,-0.676762 -0.103265,-0.941367 0.360966,-1.405599 0.680217,-0.680217 0.986951,-0.616095 1.713343,0.358171 0.509112,0.68284 0.5435336,1.071377 0.519145,5.859813 l -0.02612,5.128482 0.7314583,-0.520844 c 1.5601253,-1.110907 3.4598906,-0.891024 4.4621032,0.516455 0.8477198,1.190515 1.3945051,3.621811 1.4324411,6.369401 0.038523,2.790018 -0.2053995,3.445539 -1.282095,3.445539 -0.9778181,0 -1.2275318,-0.616096 -1.3321401,-3.286662 -0.109101,-2.7852 -0.4562,-4.42335 -1.0398772,-4.907759 -0.9124551,-0.75727 -2.9674723,2.754574 -3.7113293,6.342338 -0.534483,2.577909 -1.521729,3.361076 -2.656398,2.107282 z M 101.02505,88.675551 c -0.27595,-0.275945 -0.69694,-1.377273 -0.93554,-2.447396 -0.63601,-2.852439 -1.694232,-5.920037 -2.31405,-6.708007 -0.52582,-0.668472 -0.558059,-0.674872 -1.07019,-0.212413 -0.739825,0.668071 -1.902089,3.057447 -2.591829,5.32826 -0.66062,2.174949 -1.405782,2.94399 -2.35852,2.434101 -0.300799,-0.160983 -0.552966,-0.496866 -0.560371,-0.746408 -0.133284,-4.492591 0.103912,-22.750219 0.300333,-23.117234 0.298019,-0.556855 1.550329,-0.661153 2.041462,-0.170021 0.381751,0.381752 0.419851,1.440097 0.05985,1.662589 -0.246155,0.152133 -0.107823,12.505846 0.14922,13.325733 0.07677,0.244892 0.350647,0.101261 0.872855,-0.457765 2.142721,-2.293788 4.599409,-1.465531 6.22852,2.099905 0.75389,1.64994 2.2632,7.141721 2.26578,8.244293 10e-4,0.440597 -0.19616,0.824182 -0.51008,0.992187 -0.72103,0.385884 -1.00471,0.344914 -1.57744,-0.227824 z M 33.552608,88.052787 c -0.156424,-0.416163 -0.07559,-0.888066 0.268608,-1.568132 0.768932,-1.519253 1.458884,-4.354743 2.628212,-10.801138 1.181854,-6.515452 1.600629,-7.766499 2.635663,-7.873749 0.363802,-0.0377 0.817288,0.03319 1.007748,0.157523 0.190458,0.124335 0.821799,1.524397 1.40298,3.111249 1.20614,3.29325 2.611922,6.45706 2.869075,6.45706 0.09591,0 1.290186,-2.470547 2.653943,-5.490104 2.939172,-6.507755 3.206862,-6.945313 4.249005,-6.945313 1.546334,0 1.856322,1.385392 2.368074,10.583334 0.286065,5.141536 0.834377,9.403551 1.328576,10.326973 0.355254,0.663795 0.327166,1.671045 -0.05732,2.055527 -0.419156,0.419155 -1.315916,0.403436 -1.91352,-0.03354 -0.711565,-0.520311 -1.413627,-4.141772 -1.75283,-9.04167 -0.161182,-2.328333 -0.372552,-5.170667 -0.46971,-6.316296 l -0.176649,-2.082964 -2.094487,4.682863 c -2.419273,5.409021 -2.783361,5.965356 -3.90398,5.965356 -1.372394,0 -2.452452,-1.556285 -4.752713,-6.848306 l -0.389105,-0.895181 -0.876657,4.202473 c -1.446279,6.933107 -2.605222,10.401215 -3.603845,10.784424 -0.778867,0.298879 -1.194244,0.173075 -1.421072,-0.43039 z m -57.570646,-0.181258 c -2.948987,-0.717925 -5.039045,-3.713921 -3.181369,-4.560337 0.587945,-0.267885 0.773869,-0.188992 1.813953,0.769726 0.770573,0.710287 1.50806,1.127199 2.201052,1.244277 1.195383,0.201959 2.40938,-0.170481 2.656727,-0.815057 0.277644,-0.723529 -0.886708,-2.549017 -3.265108,-5.119078 -2.379936,-2.571721 -2.738797,-3.187484 -2.738797,-4.69945 0,-0.79921 0.213085,-1.162845 1.289247,-2.200126 1.774419,-1.710313 3.694314,-2.418435 6.912837,-2.54969 2.915174,-0.118884 3.788254,0.177674 3.921723,1.332082 0.0469,0.405611 -0.05698,0.908867 -0.230835,1.118349 -0.428275,0.51604 -2.081992,0.482252 -2.675272,-0.05466 -0.446232,-0.403834 -0.608851,-0.404048 -2.234255,-0.0029 -2.026651,0.500126 -3.723828,1.378501 -4.26638,2.208068 -0.358834,0.548661 -0.25261,0.712861 2.029098,3.136559 3.136114,3.331276 3.833586,4.518947 3.844469,6.546449 0.0078,1.452137 -0.05362,1.60831 -0.958877,2.438448 -1.394185,1.278495 -3.137166,1.689661 -5.118213,1.207378 z M 2.4573071,87.295407 C 1.1604466,86.98785 -0.20560258,85.967101 -0.76308764,84.889043 -1.6359508,83.201112 -1.0280679,79.24654 0.20576103,78.586215 1.5371233,77.873692 3.2189606,78.965558 3.0481959,80.431554 c -0.066315,0.569314 -0.2132569,0.675583 -0.9316642,0.67378 -0.7066651,-0.0018 -0.8791364,0.117177 -1.0057501,0.693645 -0.39827201,1.813314 0.7688501,3.145573 2.7542598,3.143965 3.1418029,-0.0026 4.9668671,-3.166782 2.7033169,-4.686919 -0.5414619,-0.36363 -1.2968685,-0.603758 -1.8993301,-0.603758 -1.6819802,0 -2.4538889,-1.386388 -1.2438169,-2.233956 1.6564002,-1.160189 5.2628988,0.25434 6.4369345,2.524676 0.5406492,1.045498 0.4784942,2.983467 -0.1342046,4.184455 -1.2382977,2.427264 -4.4651986,3.833292 -7.2706341,3.167965 z M 81.74287,85.981582 C 80.975428,85.848837 79.784803,85.4531 79.097037,85.102167 73.333596,82.161379 75.105212,74.854555 81.683011,74.436626 c 1.980184,-0.125813 3.516784,0.464423 3.65079,1.402335 0.137202,0.960287 -0.600348,1.314675 -1.972374,0.947714 -1.639652,-0.43854 -3.091582,-0.01683 -4.380804,1.272391 -1.101937,1.101936 -1.258981,1.915856 -0.611318,3.168296 0.928111,1.794768 3.730218,2.60739 7.228579,2.096313 1.959047,-0.286197 2.242087,-0.273674 2.632226,0.116465 0.678799,0.678796 0.160136,1.82346 -0.996939,2.200206 -1.393328,0.45367 -3.929121,0.611275 -5.490301,0.341236 z M 59.325718,85.500654 c -2.064804,-0.955974 -3.307292,-3.029821 -3.307292,-5.520226 0,-1.775389 0.503028,-3.134381 1.637051,-4.4227 3.178768,-3.611272 7.887949,-2.667401 7.887949,1.580997 0,0.669297 -0.174318,1.553996 -0.387371,1.965998 -0.520123,1.005806 -1.801762,2.050803 -2.778257,2.265277 -0.43838,0.09628 -0.864976,0.284965 -0.947994,0.41929 -0.08302,0.134324 -0.560634,0.244227 -1.061369,0.244227 -1.049467,0 -1.163402,0.321968 -0.322387,0.911039 1.183281,0.828802 4.540391,0.375487 5.463628,-0.737764 0.422976,-0.510024 1.638107,-0.579751 2.097501,-0.120359 0.883451,0.883452 -0.15207,2.380142 -2.328334,3.36526 -1.576208,0.713491 -4.466463,0.737261 -5.953125,0.04896 z m 2.715374,-6.477396 c 0.43008,-0.222403 0.931952,-0.76647 1.115269,-1.209036 0.282752,-0.682624 0.267414,-0.905225 -0.101124,-1.467686 -0.691639,-1.055576 -1.612662,-0.871096 -3.105859,0.6221 -0.9647,0.964701 -1.285119,1.482596 -1.285119,2.077152 v 0.792034 l 1.297432,-0.205097 c 0.71359,-0.112803 1.64932,-0.387063 2.079401,-0.609467 z m 7.786653,6.114401 c -0.378915,-0.456565 -1.594064,-9.453757 -1.3662,-10.115601 0.247211,-0.718031 1.19075,-0.812871 1.737239,-0.174618 0.435065,0.508117 0.465344,0.49129 1.268611,-0.704982 1.101892,-1.641003 2.518595,-2.417749 4.41992,-2.423339 1.614639,-0.0047 2.356112,0.476283 2.356112,1.528526 0,0.734803 -0.741272,1.112955 -2.181675,1.112955 -1.422455,0 -2.132727,0.593538 -3.01412,2.518752 -0.64326,1.40507 -1.131382,4.22577 -1.146035,6.622602 -0.0045,0.73488 -0.151045,1.479021 -0.32567,1.653646 -0.416229,0.416229 -1.396199,0.406172 -1.748182,-0.01794 z"
         id="path866"
         inkscape:connector-curvature="0" />
    </g>
  </g>
</svg>
