<?xml version="1.0" encoding="UTF-8" standalone="no"?>
<!-- Created with Inkscape (http://www.inkscape.org/) -->

<svg
   xmlns:dc="http://purl.org/dc/elements/1.1/"
   xmlns:cc="http://creativecommons.org/ns#"
   xmlns:rdf="http://www.w3.org/1999/02/22-rdf-syntax-ns#"
   xmlns:svg="http://www.w3.org/2000/svg"
   xmlns="http://www.w3.org/2000/svg"
   xmlns:sodipodi="http://sodipodi.sourceforge.net/DTD/sodipodi-0.dtd"
   xmlns:inkscape="http://www.inkscape.org/namespaces/inkscape"
   width="114.07075mm"
   height="119.97152mm"
   viewBox="0 0 114.07075 119.97152"
   version="1.1"
   id="svg859"
   inkscape:version="0.92.5 (2060ec1f9f, 2020-04-08)"
   sodipodi:docname="tinyfire.svg">
  <defs
     id="defs853" />
  <sodipodi:namedview
     id="base"
     pagecolor="#ffffff"
     bordercolor="#666666"
     borderopacity="1.0"
     inkscape:pageopacity="0.0"
     inkscape:pageshadow="2"
     inkscape:zoom="1.08"
     inkscape:cx="62.093279"
     inkscape:cy="308.50468"
     inkscape:document-units="mm"
     inkscape:current-layer="g1415"
     showgrid="false"
     fit-margin-top="0"
     fit-margin-left="0"
     fit-margin-right="0"
     fit-margin-bottom="0"
     inkscape:window-width="1848"
     inkscape:window-height="1016"
     inkscape:window-x="72"
     inkscape:window-y="27"
     inkscape:window-maximized="1" />
  <metadata
     id="metadata856">
    <rdf:RDF>
      <cc:Work
         rdf:about="">
        <dc:format>image/svg+xml</dc:format>
        <dc:type
           rdf:resource="http://purl.org/dc/dcmitype/StillImage" />
        <dc:title></dc:title>
      </cc:Work>
    </rdf:RDF>
  </metadata>
  <g
     inkscape:label="Layer 1"
     inkscape:groupmode="layer"
     id="layer1"
     transform="translate(-22.684689,-61.490096)">
    <g
       id="g1415"
       transform="matrix(6.3737474,0,0,6.0074319,-267.30123,-263.27959)">
      <path
         style="fill:#77e340;stroke-width:0.26458332"
         d="m 49.258433,70.595557 c -0.95779,-0.979651 -1.552575,-3.418631 -1.349383,-5.533292 0.145908,-1.518489 1.326176,-4.166574 1.485786,-3.333554 0.310251,1.619224 1.49735,1.592315 2.918092,-0.06615 l 1.614741,-1.909255 -0.259855,3.343358 c 0.0081,2.572454 -0.195686,3.238278 0.258688,3.649478 0.361485,0.32714 0.730242,0.416098 1.217695,0.293755 0.551155,-0.138331 0.872308,-0.565111 1.516847,-2.015734 0.449711,-1.012136 0.884014,-1.83986 0.965117,-1.839386 0.267685,0.0016 1.002391,3.426849 0.876405,4.085902 -0.06791,0.35524 -0.534638,1.126248 -1.037177,1.713352 -1.015925,1.18688 -2.992644,1.96071 -5.827979,2.281492 -1.497054,0.169373 -1.58171,0.145532 -2.379015,-0.66997 z"
         id="path1419"
         inkscape:connector-curvature="0"
         sodipodi:nodetypes="cssccccssccsscc" />
      <path
         style="fill:#0d0e0d;stroke-width:0.26458332"
         d="m 48.641406,73.541829 c -2.295205,-1.219923 -3.312095,-3.85613 -3.122076,-8.093737 0.09422,-2.101122 0.217113,-2.601409 0.997204,-4.059428 1.354367,-2.531366 2.873967,-3.673045 3.967826,-2.981037 0.284945,0.180264 0.83243,-0.180699 2.128488,-1.403334 0.959678,-0.905312 2.209975,-1.866729 2.778436,-2.136481 0.917369,-0.43532 1.416879,-0.611171 2.322955,-0.806494 0,0 0.352905,2.006442 -0.452669,3.381051 -1.070666,1.826952 -0.896099,2.295514 0.414191,1.111746 0.600999,-0.542967 1.753343,-1.289653 2.560763,-1.659302 1.334947,-0.611159 1.019327,-0.815566 2.68653,-1.148385 1.551537,-0.30973 -1.207635,2.30936 -1.451654,3.68574 -0.262488,1.480558 -1.218764,2.681536 -0.525604,4.966471 0.555813,1.832188 0.491096,3.208643 -0.222786,4.738405 -0.683847,1.465399 -2.393506,3.157321 -3.772744,3.733604 -1.340767,0.560208 -4.451823,1.161187 -6.011053,1.161187 -0.830987,0 -1.741006,-0.194061 -2.297807,-0.490006 z M 54.870731,70.5707 c 1.302065,-0.402167 1.886956,-0.759829 2.594696,-1.586665 0.502539,-0.587104 0.969269,-1.358112 1.037177,-1.713352 0.125986,-0.659053 -0.60872,-4.084337 -0.876405,-4.085902 -0.0811,-4.76e-4 -0.515406,0.82725 -0.965117,1.839386 -0.930162,2.093458 -1.758372,2.605401 -2.755335,1.703162 -0.494895,-0.447874 -0.532139,-0.743509 -0.452359,-3.590738 0.04782,-1.706474 0.01621,-2.833069 -0.06383,-2.730801 -1.833973,2.343299 -2.191611,2.513546 -2.744967,2.513546 -0.681318,0 -1.097618,-0.396602 -1.249756,-1.190625 -0.15961,-0.83302 -1.339878,1.815065 -1.485786,3.333554 -0.203192,2.114661 0.391593,4.553641 1.349383,5.533292 0.797305,0.815502 0.881961,0.839343 2.379015,0.66997 0.853761,-0.09659 2.308738,-0.409264 3.233284,-0.694827 z"
         id="path1417"
         inkscape:connector-curvature="0"
         sodipodi:nodetypes="scscsscssssssssssssccssccsssscs" />
    </g>
  </g>
</svg>
